<?xml version="1.0" encoding="UTF-8"?>
<svg xmlns="http://www.w3.org/2000/svg" xmlns:xlink="http://www.w3.org/1999/xlink" version="1.2" >
<font id="Zenzero Grotesk Sans Round">
<font-face  font-family="Zenzero Grotesk Sans" units-per-em="1000" ascent="700" descent="-84" font-style="normal" font-weight="400" font-stretch="normal" cap-height="705" x-height="700" underline-position="-75" underline-thickness="50" />
<missing-glyph  horiz-adv-x="300" d="" />
<glyph glyph-name="NULL" d="" />
<glyph glyph-name="CR" unicode="&#xd;" horiz-adv-x="250" d="" />
<glyph glyph-name="space" unicode="&#x20;" horiz-adv-x="300" d="" />
<glyph glyph-name="lf" unicode="&#xa;" horiz-adv-x="700" d="M558 493 L447 493 C435.961 493 427 501.961 427 513 L427 620 C427 631.039 435.961 640 447 640 L625 640 C636.039 640 645 648.961 645 660 L645 680 C645 691.039 636.039 700 625 700 L387 700 C375.961 700 367 691.039 367 680 L367 216 C367 204.961 375.961 196 387 196 L407 196 C418.039 196 427 204.961 427 216 L427 413 C427 424.039 435.961 433 447 433 L558 433 C569.039 433 578 441.961 578 453 L578 473 C578 484.039 569.039 493 558 493 L558 493 Z M472 -36 C481 -36 490 -36 499 -35 C545.375 -31.5 592.516 -19.5781 633.053 -1.24414 C643.727 3.5837 646.089 14.4025 640.617 24.7613 L631.336 42.3276 C626.578 51.3339 610.648 54.1296 601.301 50.0821 C515.398 12.885 421.025 19.175 372 46 C305.4 82 242.04 98.56 181.92 96.409 C170.493 96.0002 162 105.799 162 117.233 L162 680 C162 691.039 153.039 700 142 700 L122 700 C110.961 700 102 691.039 102 680 L102 92.4868 C102 87.7641 97.8568 81.6232 93.4327 79.9705 C81.3929 75.4727 69.7415 70.1241 58.1641 64.2391 C53.3546 61.7944 52.0269 56.2957 54.6166 51.5628 L69.3789 24.5835 C74.286 15.6153 87.7973 11.8588 97.1038 16.0892 C171.968 50.1188 252.35 42.95 343 -7 C379 -26 423 -36 472 -36 L472 -36 Z " />
<glyph glyph-name="exclam" unicode="&#x21;" horiz-adv-x="196" d="M98 96 C71 96 50 74 50 48 C50 21 71 0 98 0 C124 0 146 21 146 48 C146 74 124 96 98 96 L98 96 Z M128 189 L128 680 C128 691.039 119.039 700 108 700 L88 700 C76.9606 700 68 691.039 68 680 L68 189 C68 177.961 76.9606 169 88 169 L108 169 C119.039 169 128 177.961 128 189 L128 189 Z " />
<glyph glyph-name="quotedbl" unicode="&#x22;" horiz-adv-x="336" d="M117 514 C136 559 146 605 146 653 C146 680 124 701 98 701 C71 701 50 680 50 653 C50 635.111 59.4335 619.399 73.9734 610.809 C77.8663 608.51 81.2119 602.483 80.3039 598.053 C76.1602 577.84 69.8387 557.161 62 538 L58.5 530 C56.5681 525.584 58.5857 520.435 63.0033 518.508 L101.997 501.492 C106.414 499.565 111.568 501.584 113.5 506 L117 514 L117 514 Z M257 514 C276 559 286 605 286 653 C286 680 264 701 238 701 C211 701 190 680 190 653 C190 635.111 199.433 619.399 213.973 610.809 C217.866 608.51 221.212 602.483 220.304 598.053 C216.16 577.84 209.839 557.161 202 538 L198.5 530 C196.568 525.584 198.586 520.435 203.003 518.508 L241.997 501.492 C246.414 499.565 251.568 501.584 253.5 506 L257 514 L257 514 Z " />
<glyph glyph-name="numbersign" unicode="&#x23;" horiz-adv-x="531" d="M461 511 L435.82 511 C423.333 511 414.355 521.243 415.992 533.623 L435.008 677.377 C436.645 689.757 427.667 700 415.18 700 L394.529 700 C384.937 700 375.959 692.132 374.701 682.623 L354.299 528.377 C353.041 518.868 344.063 511 334.471 511 L236.82 511 C224.333 511 215.355 521.243 216.992 533.623 L236.008 677.377 C237.645 689.757 228.667 700 216.18 700 L196.529 700 C186.937 700 177.959 692.132 176.701 682.623 L156.299 528.377 C155.041 518.868 146.063 511 136.471 511 L105 511 C93.9606 511 85 502.039 85 491 L85 471 C85 459.961 93.9606 451 105 451 L124.156 451 C136.655 451 145.633 440.745 143.981 428.357 L123.314 273.357 C122.048 263.86 113.07 256 103.49 256 L70 256 C58.9606 256 50 247.039 50 236 L50 216 C50 204.961 58.9606 196 70 196 L90.2869 196 C102.723 196 111.7 185.806 110.126 173.469 L90.8738 22.5305 C89.3003 10.1943 98.2769 0 110.713 0 L131.389 0 C141.032 0 150.008 7.90435 151.228 17.4695 L171.772 178.531 C172.992 188.096 181.968 196 191.611 196 L289.287 196 C301.723 196 310.7 185.806 309.126 173.469 L289.874 22.5305 C288.3 10.1943 297.277 0 309.713 0 L329.389 0 C339.032 0 348.008 7.90435 349.228 17.4695 L369.772 178.531 C370.992 188.096 379.968 196 389.611 196 L425 196 C436.039 196 445 204.961 445 216 L445 236 C445 247.039 436.039 256 425 256 L402.844 256 C390.345 256 381.367 266.255 383.019 278.643 L403.686 433.643 C404.952 443.14 413.93 451 423.51 451 L461 451 C472.039 451 481 459.961 481 471 L481 491 C481 502.039 472.039 511 461 511 L461 511 Z M224.51 451 L322.156 451 C334.655 451 343.633 440.745 341.981 428.357 L321.314 273.357 C320.048 263.86 311.07 256 301.49 256 L203.844 256 C191.345 256 182.367 266.255 184.019 278.643 L204.686 433.643 C205.952 443.14 214.93 451 224.51 451 L224.51 451 Z " />
<glyph glyph-name="dollar" unicode="&#x24;" horiz-adv-x="411" d="M50 144 C50 74.625 96.2038 17.2287 159.327 1.09502 C167.375 -0.961721 175 -11.0748 175 -19.3805 L175 -60 C175 -71.0394 183.961 -80 195 -80 L215 -80 C226.039 -80 235 -71.0394 235 -60 L235 -19.6248 C235 -11.2082 242.513 -1.09715 250.689 0.9025 C313.941 16.3731 361 74.625 361 144 L361 286 C361 342 328 393 279 419 L246.056 435.472 C240.598 438.201 235 447.258 235 453.361 L235 620.961 C235 633.058 242.784 638.62 253.496 632.999 C280.942 618.597 300 589 300 556 L300 524 C300 512.961 308.961 504 320 504 L341 504 C352.039 504 361 512.961 361 524 L361 556 C361 625.375 313.941 682.771 250.689 698.905 C242.635 700.959 235 711.07 235 719.38 L235 760 C235 771.039 226.039 780 215 780 L195 780 C183.961 780 175 771.039 175 760 L175 719.103 C175 710.918 167.458 700.846 159.551 698.73 C97.3369 682.077 51.85 626.6 50 560 L50 415 C50 387 57 360 72 336 C87 313 108 295 132 283 L164.11 266.572 C169.461 263.834 175 254.778 175 248.767 L175 79.1638 C175 67.2106 167.097 61.6692 156.585 67.3585 C129.377 82.0837 111 111 111 144 L111 176 C111 187.039 102.039 196 91 196 L70 196 C58.9606 196 50 187.039 50 176 L50 144 L50 144 Z M160 336 C129 352 111 381 111 415 L111 431.095 C111 432.681 112.87 433.467 114.172 432.561 C121.822 427.24 143.2 415.85 252 364 C282 349 300 319 300 286 L300 269.301 C300 267.433 298.034 266.394 296.448 267.382 C288.222 272.505 267.1 283.3 160 336 L160 336 Z M300 144 C300 111 280.942 81.4031 253.496 66.4397 C242.982 60.7076 235 66.1888 235 78.1638 L235 221.606 C235 226.298 239.255 228.998 243.5 227 L252 223 C282 208 300 178 300 144 L300 144 Z M111 560 C111.825 591.35 130.346 619.297 157.018 633.172 C167.385 638.565 175 633.132 175 621.446 L175 478.5 C175 474.36 171.153 472.052 167.5 474 L160 478 C130 492 112 519 111 551 L111 560 L111 560 Z " />
<glyph glyph-name="percent" unicode="&#x25;" horiz-adv-x="661" d="M552.906 626.966 L535.764 638.965 C527.069 645.052 514.782 643.127 508.365 634.674 L118.917 121.697 C112.34 113.034 113.955 100.557 122.52 93.8536 L137.077 82.4616 C145.865 75.5836 158.505 77.1952 165.287 86.0584 L557.32 598.428 C564.313 607.567 562.333 620.367 552.906 626.966 L552.906 626.966 Z M174 394 C242 394 297 449 297 517 L297 526 C297 594 242 650 174 650 C105 650 50 594 50 526 L50 517 C50 449 105 394 174 394 L174 394 Z M174 590 C209 590 237 561 237 526 L237 517 C237 482 209 454 174 454 C138 454 110 482 110 517 L110 526 C110 561 138 590 174 590 L174 590 Z M488 40 C556 40 611 95 611 163 L611 172 C611 240 556 296 488 296 C419 296 364 240 364 172 L364 163 C364 95 419 40 488 40 L488 40 Z M488 236 C523 236 551 207 551 172 L551 163 C551 128 523 100 488 100 C452 100 424 128 424 163 L424 172 C424 207 452 236 488 236 L488 236 Z " />
<glyph glyph-name="ampersand" unicode="&#x26;" horiz-adv-x="678" d="M570.335 63.8166 L507.819 127.028 C500.192 134.739 500.151 147.301 507.727 155.062 L576 225 C639.825 289.75 644.612 392.148 590.361 461.753 C582.66 471.633 570.612 472.484 561.86 463.523 L547.811 449.14 C541.469 442.647 540.887 428.027 546.15 420.631 C578.55 375.1 574.5 309.4 534 268 L465.311 199.311 C457.412 191.412 444.664 191.488 436.86 199.479 L201 441 C156 486 156 562 201 608 C241.5 649.4 305.49 653.54 350.688 620.42 C358.44 614.739 372.655 616.019 379.291 622.971 L393.606 637.968 C401.934 646.693 400.452 658.876 390.994 666.361 C322.442 720.612 221.825 715.825 158 652 C99.725 593.725 91.0763 493.524 135.22 425.003 C139.934 417.686 140.203 402.203 134.048 396.048 L113 375 C72 333 50 278 50 219 C50 100 148 0 265 0 C323 0 377 22 418 64 L436.784 83.3528 C444.629 91.4359 457.433 91.4965 465.354 83.4879 L527.526 20.6335 C535.512 12.5596 548.371 12.6739 556.212 20.8886 L570.582 35.9433 C577.985 43.699 577.875 56.1934 570.335 63.8166 L570.335 63.8166 Z M375 107 C346 78 307 61 265 61 C180 61 110 133 110 219 C110 262 126 302 155 331 L174.733 351.313 C182.606 359.418 195.43 359.453 203.347 351.392 L395.311 155.938 C402.865 148.247 402.899 135.72 395.388 127.988 L375 107 L375 107 Z " />
<glyph glyph-name="quotesingle" unicode="&#x27;" horiz-adv-x="196" d="M117 512 C136 557 146 603 146 651 C146 678 124 699 98 699 C71 699 50 678 50 651 C50 633.111 59.4335 617.399 73.9734 608.809 C77.8663 606.51 81.2119 600.483 80.3039 596.053 C76.1602 575.84 69.8387 555.161 62 536 L58.5 528 C56.5681 523.584 58.5857 518.435 63.0033 516.508 L101.997 499.492 C106.414 497.565 111.568 499.584 113.5 504 L117 512 L117 512 Z " />
<glyph glyph-name="parenleft" unicode="&#x28;" horiz-adv-x="297" d="M224.696 -58.216 C159.41 -47.65 110 8.6 110 77 L110 623 C110 690.5 159.41 747.47 224.696 758.189 C233.825 759.688 247 770.749 247 780 L247 800 C247 811.939 242.715 820.314 230.816 819.341 C129.42 811.053 50 725.6 50 623 L50 77 C50 -26.55 129.42 -111.147 230.816 -119.348 C242.706 -120.31 247 -111.929 247 -100 L247 -80 C247 -70.7243 233.853 -59.6979 224.696 -58.216 L224.696 -58.216 Z " />
<glyph glyph-name="parenright" unicode="&#x29;" horiz-adv-x="297" d="M66.1841 -119.348 C167.58 -111.148 247 -26.55 247 77 L247 623 C247 725.6 167.58 811.053 66.1841 819.341 C54.285 820.314 50 811.939 50 800 L50 780 C50 770.749 63.1754 759.688 72.304 758.189 C137.59 747.47 187 690.5 187 623 L187 77 C187 8.6 137.59 -47.65 72.304 -58.216 C63.1474 -59.6979 50 -70.7243 50 -80 L50 -100 C50 -111.929 54.2936 -120.31 66.1841 -119.348 L66.1841 -119.348 Z " />
<glyph glyph-name="asterisk" unicode="&#x2a;" horiz-adv-x="450" d="M313.858 497.858 L289.142 473.142 C275.816 459.816 255 468.439 255 487.284 L255 522 C255 533.039 246.039 542 235 542 L215 542 C203.961 542 195 533.039 195 522 L195 487.284 C195 468.439 174.184 459.816 160.858 473.142 L136.142 497.858 C128.336 505.664 115.664 505.664 107.858 497.858 L94.1421 484.142 C86.3361 476.336 86.3361 463.664 94.1421 455.858 L118.858 431.142 C132.184 417.816 123.561 397 104.716 397 L70 397 C58.9606 397 50 388.039 50 377 L50 357 C50 345.961 58.9606 337 70 337 L104.716 337 C123.561 337 132.184 316.184 118.858 302.858 L94.1421 278.142 C86.3361 270.336 86.3361 257.664 94.1421 249.858 L107.858 236.142 C115.664 228.336 128.336 228.336 136.142 236.142 L160.858 260.858 C174.184 274.184 195 265.561 195 246.716 L195 212 C195 200.961 203.961 192 215 192 L235 192 C246.039 192 255 200.961 255 212 L255 246.716 C255 265.561 275.816 274.184 289.142 260.858 L313.858 236.142 C321.664 228.336 334.336 228.336 342.142 236.142 L355.858 249.858 C363.664 257.664 363.664 270.336 355.858 278.142 L331.142 302.858 C317.816 316.184 326.439 337 345.284 337 L380 337 C391.039 337 400 345.961 400 357 L400 377 C400 388.039 391.039 397 380 397 L345.284 397 C326.439 397 317.816 417.816 331.142 431.142 L355.858 455.858 C363.664 463.664 363.664 476.336 355.858 484.142 L342.142 497.858 C334.336 505.664 321.664 505.664 313.858 497.858 L313.858 497.858 Z " />
<glyph glyph-name="plus" unicode="&#x2b;" horiz-adv-x="450" d="M380 397 L275 397 C263.961 397 255 405.961 255 417 L255 522 C255 533.039 246.039 542 235 542 L215 542 C203.961 542 195 533.039 195 522 L195 417 C195 405.961 186.039 397 175 397 L70 397 C58.9606 397 50 388.039 50 377 L50 357 C50 345.961 58.9606 337 70 337 L175 337 C186.039 337 195 328.039 195 317 L195 212 C195 200.961 203.961 192 215 192 L235 192 C246.039 192 255 200.961 255 212 L255 317 C255 328.039 263.961 337 275 337 L380 337 C391.039 337 400 345.961 400 357 L400 377 C400 388.039 391.039 397 380 397 L380 397 Z " />
<glyph glyph-name="comma" unicode="&#x2c;" horiz-adv-x="196" d="M117 -91 C136 -46 146 0 146 48 C146 75 124 96 98 96 C71 96 50 75 50 48 C50 30.1111 59.4335 14.3992 73.9734 5.80938 C77.8663 3.50952 81.2119 -2.51729 80.3039 -6.94673 C76.1602 -27.1602 69.8387 -47.8387 62 -67 L58.5 -75 C56.5681 -79.4158 58.5857 -84.5647 63.0033 -86.4924 L101.997 -103.508 C106.414 -105.435 111.568 -103.416 113.5 -99 L117 -91 L117 -91 Z " />
<glyph glyph-name="hyphen" unicode="&#x2d;" horiz-adv-x="450" d="M380 397 L70 397 C58.9606 397 50 388.039 50 377 L50 357 C50 345.961 58.9606 337 70 337 L380 337 C391.039 337 400 345.961 400 357 L400 377 C400 388.039 391.039 397 380 397 L380 397 Z " />
<glyph glyph-name="period" unicode="&#x2e;" horiz-adv-x="196" d="M98 96 C71 96 50 74 50 48 C50 21 71 0 98 0 C124 0 146 21 146 48 C146 74 124 96 98 96 L98 96 Z " />
<glyph glyph-name="slash" unicode="&#x2f;" horiz-adv-x="396" d="M112.75 -48.8973 L340.193 706.709 C343.398 717.357 337.338 728.539 326.668 731.666 L307.076 737.409 C296.547 740.495 285.443 734.469 282.292 723.959 L55.7505 -31.8157 C52.5764 -42.4049 58.5987 -53.5645 69.1922 -56.724 L87.8828 -62.2984 C98.4349 -65.4455 109.576 -59.4414 112.75 -48.8973 L112.75 -48.8973 Z " />
<glyph glyph-name="zero" unicode="0" horiz-adv-x="426" d="M213 0 C303 0 376 73 376 163 L376 537 C376 627 303 700 213 700 C123 700 50 627 50 537 L50 163 C50 73 123 0 213 0 L213 0 Z M213 640 C270 640 316 594 316 537 L316 163.907 C316 163.862 315.922 162.142 315.918 162.097 L315.5 157.5 C315.384 156.219 313.568 155.987 313.133 157.198 L151.854 606.269 C149.568 612.634 151.315 619.731 157.018 623.367 C173.175 633.669 192.032 640 213 640 L213 640 Z M148.823 438.9 L273.278 92.3633 C275.549 86.0391 273.99 79.3198 268.327 75.7025 C252.555 65.6275 233.129 60 213 60 C156 60 110 106 110 163 L110 432.14 C110 453.569 141.58 459.068 148.823 438.9 L148.823 438.9 Z " />
<glyph glyph-name="one" unicode="1" horiz-adv-x="278" d="M228 20 L228 680 C228 691.039 219.039 700 208 700 L188 700 C178.723 700 167.932 689.788 166.451 680.63 C158.299 630.23 118.851 590.71 69.099 582.55 C59.9683 581.052 50 570.253 50 561 L50 541 C50 528.714 57.7557 520.74 69.9631 522.127 C99.4522 525.479 126.777 536.166 150.4 552.343 C157.276 557.052 168 553.073 168 544.74 L168 20 C168 8.9606 176.961 0 188 0 L208 0 C219.039 0 228 8.9606 228 20 L228 20 Z " />
<glyph glyph-name="two" unicode="2" horiz-adv-x="429" d="M293 -16 C317.615 -16 341.558 -11.2873 364.274 -1.30953 C372.82 2.44395 376.146 11.4023 371.786 19.655 L359.148 43.5772 C355.199 51.0522 342.494 54.6601 334.568 51.7186 C308.542 42.0594 281.75 40.925 257 50 C239 57 225 67 206 73 C179.65 81.5 151.132 83.4975 124.132 78.9925 C117.256 77.8451 110 83.0282 110 90 L110 104 C110 124 116 144 128 160 L348 456 C368 482 379 514 379 547 C379 631 310 700 226 700 L218 700 C140.3 700 75.4344 640.962 66.1416 565.624 C64.6247 553.326 72.6092 547 85 547 L105 547 C113.802 547 125.12 557.02 126.904 565.639 C135.641 607.844 173.375 640 218 640 L226 640 C277 640 319 598 319 547 C319 527 312 507 300 491 L80 196 C61 170 50 137 50 104 L50 22 C50 11.5126 58.5126 3 69 3 L84.1921 3 C85.0201 3 90.739 4.17385 91.5 4.5 L94.1496 5.63556 C94.173 5.64556 97.6135 7.37781 97.6361 7.38938 C132.049 24.9881 171.975 24.525 210 6 C236 -7 260 -15 293 -16 L293 -16 Z " />
<glyph glyph-name="three" unicode="3" horiz-adv-x="415" d="M165 319 L208 319 C262 319 305 275 305 222 L305 158 C305 104 262 60 208 60 C160.75 60 121.156 93.6875 111.996 138.285 C110.222 146.923 98.8183 158 90 158 L70 158 C57.6164 158 49.667 151.01 51.1749 138.718 C60.74 60.7494 127.525 0 208 0 C295 0 365 71 365 158 L365 222 C365 264.9 347.304 303.716 319.211 332.272 C312.381 339.215 312.701 358.826 319.568 365.733 C347.984 394.314 365 433.275 365 477 L365 542 C365 629 295 700 208 700 C127.525 700 60.74 639.251 51.1749 561.282 C49.667 548.99 57.6164 542 70 542 L90 542 C98.8183 542 110.222 553.077 111.996 561.715 C121.156 606.312 160.75 640 208 640 C262 640 305 596 305 542 L305 477 C305 423 262 379 208 379 L165 379 C153.961 379 145 370.039 145 359 L145 339 C145 327.961 153.961 319 165 319 L165 319 Z " />
<glyph glyph-name="four" unicode="4" horiz-adv-x="476" d="M351 20 L351 125 C351 136.039 359.961 145 371 145 L406 145 C417.039 145 426 153.961 426 165 L426 185 C426 196.039 417.039 205 406 205 L371 205 C359.961 205 351 213.961 351 225 L351 680 C351 691.039 342.039 700 331 700 L264.981 700 C261.276 700 252.495 696.057 250.033 693.287 L232 673 C115 537 50 364 51 184 L51 164.5 C51 153.737 59.7366 145 70.5 145 L271 145 C282.039 145 291 136.039 291 125 L291 20 C291 8.9606 299.961 0 311 0 L331 0 C342.039 0 351 8.9606 351 20 L351 20 Z M112.011 228.509 C121.01 377.12 179.15 520 277 634 L280.172 637.172 C281.276 638.276 285.439 640 287 640 C289.208 640 291 638.208 291 636 L291 225 C291 213.961 282.039 205 271 205 L131.516 205 C119.809 205 111.304 216.824 112.011 228.509 L112.011 228.509 Z " />
<glyph glyph-name="five" unicode="5" horiz-adv-x="408" d="M204 0 C289 0 358 69 358 154 L358 239 C358 290 349 333 333 366 C307 417 263 444 204 444 C172.55 444 146.158 439.665 125.437 434.066 C119.868 432.561 115.331 436.765 115.662 442.524 L125.917 621.146 C126.514 631.536 135.478 640 145.885 640 L326 640 C337.039 640 346 648.961 346 660 L346 680 C346 691.039 337.039 700 326 700 L88.9289 700 C78.4965 700 69.5328 691.516 68.9591 681.1 L52.1548 375.968 C51.5183 364.412 60.4262 355 72 355 L86.3333 355 C88.1557 355 96.2497 357.35 97.7713 358.353 C118.507 372.021 153.125 384 204 384 C240 384 264 369 279 339 C291 315 298 280 298 239 L298 154 C298 102 256 60 204 60 C152 60 110 102 110 154 L110 170 C110 178.832 102.832 186 94 186 L66 186 C57.1685 186 50 178.832 50 170 L50 154 C50 69 119 0 204 0 L204 0 Z " />
<glyph glyph-name="six" unicode="6" horiz-adv-x="426" d="M213 0 C303 0 376 73 376 163 L376 280 C376 370 303 444 213 444 C180.825 444 150.692 434.471 125.408 418.221 C119.282 414.284 110 417.835 110 425.118 L110 537 C110 594 156 640 213 640 C262.875 640 304.328 604.781 313.912 557.791 C315.677 549.136 327.167 537 336 537 L356 537 C368.377 537 376.291 544.654 374.792 556.94 C364.954 637.539 296.25 700 213 700 C123 700 50 627 50 537 L50 163 C50 73 123 0 213 0 L213 0 Z M213 384 C270 384 316 337 316 280 L316 163 C316 106 270 60 213 60 C156 60 110 106 110 163 L110 284 C112 339 157 384 213 384 L213 384 Z " />
<glyph glyph-name="seven" unicode="7" horiz-adv-x="416" d="M215.5 3.5 L215.808 5.65756 C215.823 5.75758 216.344 8.20709 216.371 8.30427 L365.236 531.316 C365.351 531.721 366 536.369 366 536.791 L366 668.5 C366 679.263 357.263 688 346.5 688 L330.354 688 C329.526 688 324.741 686.87 324 686.5 L321 685 C294 671 264 666 236 675 C220 681 205 691 187 698 C150.45 711.6 107.398 709.305 69.5109 694.186 C58.0205 689.6 53.6584 678.314 59.5969 667.461 L71.4675 645.766 C74.9968 639.316 86.836 636.486 93.6673 639.206 C117.397 648.652 143.9 649.25 167 641 C185 635 198 624 219 618 C241.974 611.436 266.295 609.584 290.305 612.998 C297.627 614.039 306 608.479 306 601.084 L306 581.448 C306 573.344 300.478 565.61 292.667 563.455 C269.428 557.044 245.108 558.108 225 569 C217 573 209 578 198 583 C156 601.375 108.641 600.609 67.3105 583.383 C55.8164 578.592 53.9346 568.18 60.1575 557.394 L71.9422 536.967 C75.7204 530.418 88.3885 527.611 95.4411 530.336 C120.736 540.107 150.25 541.2 175 528 C202 513 235 501 266 501 C273.5 501 281.694 501 289.426 502.157 C291.546 502.475 293.326 500.627 292.741 498.566 L158 24 C156.364 17.4545 155.397 10.9091 155.099 4.36364 C154.994 2.05788 156.692 0 159 0 L211.464 0 C213.396 0 215.227 1.58752 215.5 3.5 L215.5 3.5 Z " />
<glyph glyph-name="eight" unicode="8" horiz-adv-x="426" d="M213 0 C303 0 376 73 376 163 L376 236 C376 281.375 356.942 322.666 326.689 352.013 C319.413 359.07 319.455 379.25 326.689 386.35 C356.942 416.045 376 456.8 376 503 L376 537 C376 627 303 700 213 700 C123 700 50 627 50 537 L50 503 C50 456.8 68.3769 416.045 98.3924 386.35 C105.542 379.277 105.584 359.044 98.3924 352.013 C68.3769 322.666 50 281.375 50 236 L50 163 C50 73 123 0 213 0 L213 0 Z M213 339 C270 339 316 293 316 236 L316 163 C316 106 270 60 213 60 C156 60 110 106 110 163 L110 236 C110 293 156 339 213 339 L213 339 Z M213 640 C270 640 316 594 316 537 L316 503 C316 446 270 400 213 400 C156 400 110 446 110 503 L110 537 C110 594 156 640 213 640 L213 640 Z " />
<glyph glyph-name="nine" unicode="9" horiz-adv-x="426" d="M213 700 C123 700 50 627 50 537 L50 425 C50 335 123 261 213 261 C245.175 261 275.308 270.529 300.592 286.779 C306.718 290.716 316 287.165 316 279.882 L316 163 C316 106 270 60 213 60 C163.125 60 121.672 95.2188 112.088 142.209 C110.323 150.864 98.8333 163 90 163 L70 163 C57.6231 163 49.7088 155.346 51.2082 143.06 C61.0456 62.4606 129.75 0 213 0 C303 0 376 73 376 163 L376 537 C376 627 303 700 213 700 L213 700 Z M213 321 C156 321 110 368 110 425 L110 537 C110 594 156 640 213 640 C270 640 316 594 316 537 L316 421 C314 366 269 321 213 321 L213 321 Z " />
<glyph glyph-name="colon" unicode="&#x3a;" horiz-adv-x="196" d="M98 96 C71 96 50 74 50 48 C50 21 71 0 98 0 C124 0 146 21 146 48 C146 74 124 96 98 96 L98 96 Z M98 500 C71 500 50 478 50 452 C50 425 71 404 98 404 C124 404 146 425 146 452 C146 478 124 500 98 500 L98 500 Z " />
<glyph glyph-name="semicolon" unicode="&#x3b;" horiz-adv-x="196" d="M101.997 -103.508 L63.0033 -86.4924 C58.5857 -84.5647 56.5681 -79.4158 58.5 -75 L62 -67 C69.8387 -47.8387 76.1602 -27.1602 80.3039 -6.94673 C81.2119 -2.51729 77.8663 3.50952 73.9734 5.80938 C59.4335 14.3992 50 30.1111 50 48 C50 75 71 96 98 96 C124 96 146 75 146 48 C146 0 136 -46 117 -91 L113.5 -99 C111.568 -103.416 106.414 -105.435 101.997 -103.508 L101.997 -103.508 Z M98 500 C71 500 50 478 50 452 C50 425 71 404 98 404 C124 404 146 425 146 452 C146 478 124 500 98 500 L98 500 Z " />
<glyph glyph-name="less" unicode="&#x3c;" horiz-adv-x="354" d="M303.883 171 L303.554 210.5 C303.528 213.629 300.944 216.971 297.84 217.367 C286.347 218.837 273.857 224.714 261 235 L127.16 351.999 C117.769 360.209 117.743 373.82 127.104 382.065 L261 500 C273.857 510.286 285.98 516.898 297.997 518.577 C301.294 519.038 304 522.671 304 526 L304 564.5 C304 573.661 298.018 579.232 288.953 577.908 C265.581 574.494 243.45 563.15 222 545 L56.9552 402.985 C54.0451 400.481 50 391.663 50 387.824 L50 346.251 C50 342.36 54.0843 333.529 57.0496 331.01 L223 190 C244.154 171.385 267.098 160.645 290.62 157.781 C299.209 156.735 303.955 162.347 303.883 171 L303.883 171 Z " />
<glyph glyph-name="equal" unicode="&#x3d;" horiz-adv-x="450" d="M380 542 L70 542 C58.9606 542 50 533.039 50 522 L50 502 C50 490.961 58.9606 482 70 482 L380 482 C391.039 482 400 490.961 400 502 L400 522 C400 533.039 391.039 542 380 542 L380 542 Z M380 252 L70 252 C58.9606 252 50 243.039 50 232 L50 212 C50 200.961 58.9606 192 70 192 L380 192 C391.039 192 400 200.961 400 212 L400 232 C400 243.039 391.039 252 380 252 L380 252 Z " />
<glyph glyph-name="greater" unicode="&#x3e;" horiz-adv-x="354" d="M63.3803 157.781 C86.9024 160.645 109.846 171.385 131 190 L296.95 331.01 C299.916 333.529 304 342.36 304 346.251 L304 387.824 C304 391.663 299.955 400.481 297.045 402.985 L132 545 C110.55 563.15 88.4194 574.494 65.0466 577.908 C55.9823 579.232 50 573.661 50 564.5 L50 526 C50 522.671 52.7059 519.038 56.0029 518.577 C68.0204 516.898 80.1429 510.286 93 500 L226.896 382.065 C236.257 373.82 236.231 360.209 226.84 351.999 L93 235 C80.1429 224.714 67.6531 218.837 56.1603 217.367 C53.0565 216.971 50.4719 213.629 50.4458 210.5 L50.1167 171 C50.0446 162.347 54.7907 156.735 63.3803 157.781 L63.3803 157.781 Z " />
<glyph glyph-name="question" unicode="&#x3f;" horiz-adv-x="406" d="M230 189 L230 233 C230 249 234 265 243 279 L335 438 C349 461 356 488 356 515 L356 556 C356 641 287 709 203 709 C119 709 50 641 50 556 L50 484 C50 472.961 58.9606 464 70 464 L90 464 C101.039 464 110 472.961 110 484 L110 556 C110 608 152 649 203 649 C254 649 296 608 296 556 L296 515 C296 499 292 482 283 468 L191 310 C177 286 170 260 170 233 L170 189 C170 177.961 178.961 169 190 169 L210 169 C221.039 169 230 177.961 230 189 L230 189 Z M203 96 C176 96 155 74 155 48 C155 21 176 0 203 0 C229 0 251 21 251 48 C251 74 229 96 203 96 L203 96 Z " />
<glyph glyph-name="at" unicode="&#x40;" horiz-adv-x="679" d="M579 60 L316 60 C202 60 110 152 110 266 L110 439 C110 553 202 645 316 645 L363 645 C477 645 569 553 569 439 L569 232 C569 210 552 193 530 193 C509 193 491 210 491 232 L491 420 C491 504 423 572 340 572 C256 572 188 504 188 420 L188 284 C188 201 256 133 340 133 C376.75 133 409.672 146.016 436.086 168.027 C441.412 172.465 452.787 169.77 457.515 164.7 C475.653 145.251 501.125 133 530 133 C585 133 629 177 629 232 L629 439 C629 510 601 577 551 627 C501 677 434 705 363 705 L316 705 C245 705 178 677 128 627 C78 577 50 510 50 439 L50 266 C50 195 78 128 128 78 C178 28 245 0 316 0 L579 0 C590.039 0 599 8.9606 599 20 L599 40 C599 51.0394 590.039 60 579 60 L579 60 Z M431 284 C431 234 390 193 340 193 C289 193 248 234 248 284 L248 420 C248 471 289 512 340 512 C390 512 431 471 431 420 L431 284 L431 284 Z " />
<glyph glyph-name="A" unicode="A" horiz-adv-x="450" d="M400 20 L400 95 C400 150 392 206 381 261 L293.304 684.059 C291.518 692.675 282.519 700 273.721 700 L176.215 700 C167.458 700 158.458 692.703 156.647 684.136 L67 260 C56 206 50 151 50 95 L50 20 C50 8.9606 58.9606 0 70 0 L90 0 C101.039 0 110 8.9606 110 20 L110 95 C110 112.769 110.716 129.822 111.542 146.766 C111.832 152.707 118.227 158.047 124.034 159.339 C197.551 175.688 258.703 116.315 332.028 131.595 C335.42 132.301 338.287 129.155 338.464 125.694 C339 115.16 339 104.75 339 95 L339 20 C339 8.9606 347.961 0 359 0 L380 0 C391.039 0 400 8.9606 400 20 L400 20 Z M244.323 624.088 L307.651 320.825 C310.486 307.25 303.081 298.283 289.232 299.021 C247.571 301.242 210.259 323.736 171.465 326.373 C159.886 327.16 145.627 341.367 148 352.727 L204.677 624.089 C206.472 632.686 215.472 640 224.254 640 L224.745 640 C233.528 640 242.527 632.686 244.323 624.088 L244.323 624.088 Z M145.863 269.805 C206.308 272.706 253.03 230.34 313.495 239.844 C317.549 240.482 324.96 236.892 325.707 232.857 C327.683 222.19 329.574 211.524 331.085 200.857 C331.748 196.174 330.944 193.532 326.399 192.223 C261.328 173.489 205.714 223.336 142.136 223.187 C131.576 223.162 122.802 234.171 125 244.5 L127.206 254.866 C128.918 262.913 137.645 269.411 145.863 269.805 L145.863 269.805 Z " />
<glyph glyph-name="B" unicode="B" horiz-adv-x="495" d="M261 0 C362 0 445 82 445 182 L445 210 C445 262.8 421.859 310.155 385.684 344.204 C377.232 352.158 377.129 375.158 385.684 383 C421.859 416.164 445 464.2 445 517 C445 617 362 700 261 700 L70 700 C58.9606 700 50 691.039 50 680 L50 20 C50 8.9606 58.9606 0 70 0 L261 0 L261 0 Z M261 334 C330 334 386 278 386 210 L386 182 C386 114 330 59 261 59 L129 59 C117.961 59 109 67.9606 109 79 L109 314 C109 325.039 117.961 334 129 334 L261 334 L261 334 Z M129 641 L261 641 C330 641 386 585 386 517 C386 450 332 396 266 394 L129 394 C117.961 394 109 402.961 109 414 L109 621 C109 632.039 117.961 641 129 641 L129 641 Z " />
<glyph glyph-name="C" unicode="C" horiz-adv-x="461" d="M245 0 C330.1 0 399.799 63.3163 409.775 144.836 C411.279 157.125 403.38 165 391 165 L371 165 C362.215 165 350.618 152.436 348.824 143.836 C338.844 95.9844 295.75 60 245 60 L215 60 C157 60 110 107 110 165 L110 534 C110 592 157 640 215 640 L245 640 C295.75 640 338.844 612.438 348.824 566.691 C350.676 558.205 362.314 546 371 546 L391 546 C403.404 546 411.308 553.679 409.775 565.988 C399.799 646.096 330.1 700 245 700 L215 700 C124 700 50 625 50 534 L50 165 C50 74 124 0 215 0 L245 0 L245 0 Z " />
<glyph glyph-name="D" unicode="D" horiz-adv-x="465" d="M205 0 C321 0 415 94 415 209 L415 491 C415 607 321 700 205 700 L70 700 C58.9606 700 50 691.039 50 680 L50 356 C50 344.961 58.9606 336 70 336 L90 336 C101.039 336 110 344.961 110 356 L110 620 C110 631.039 118.961 640 130 640 L205 640 C288 640 355 574 355 491 L355 209 C355 127 288 60 205 60 L130 60 C118.961 60 110 68.9606 110 80 L110 154 C110 165.039 101.039 174 90 174 L70 174 C58.9606 174 50 165.039 50 154 L50 20 C50 8.9606 58.9606 0 70 0 L205 0 L205 0 Z " />
<glyph glyph-name="E" unicode="E" horiz-adv-x="400" d="M248.664 397 L130 397 C118.961 397 110 405.961 110 417 L110 620 C110 631.039 118.961 640 130 640 L330 640 C341.039 640 350 648.961 350 660 L350 680 C350 691.039 341.039 700 330 700 L70 700 C58.9606 700 50 691.039 50 680 L50 20 C50 8.9606 58.9606 0 70 0 L330 0 C341.039 0 350 8.9606 350 20 L350 40 C350 51.0394 341.039 60 330 60 L130 60 C118.961 60 110 68.9606 110 80 L110 317 C110 328.039 118.961 337 130 337 L248.331 337 C259.186 337 268.147 345.813 268.328 356.667 L268.661 376.667 C268.848 387.889 259.887 397 248.664 397 L248.664 397 Z " />
<glyph glyph-name="F" unicode="F" horiz-adv-x="438" d="M233.331 397 L130 397 C118.961 397 110 405.961 110 417 L110 620 C110 631.039 118.961 640 130 640 L368 640 C379.039 640 388 648.961 388 660 L388 680 C388 691.039 379.039 700 368 700 L70 700 C58.9606 700 50 691.039 50 680 L50 20 C50 8.9606 58.9606 0 70 0 L90 0 C101.039 0 110 8.9606 110 20 L110 317 C110 328.039 118.961 337 130 337 L233.664 337 C244.887 337 253.848 346.111 253.661 357.333 L253.328 377.333 C253.147 388.187 244.186 397 233.331 397 L233.331 397 Z " />
<glyph glyph-name="G" unicode="G" horiz-adv-x="461" d="M350.165 265.167 L351 165 C351 107 303 60 245 60 L215 60 C157 60 110 107 110 165 L110 544 C110 602 157 650 215 650 L245 650 C295.75 650 338.844 613.25 348.824 565.207 C350.613 556.597 362.206 544 371 544 L391 544 C403.378 544 411.276 551.893 409.775 564.18 C399.799 645.828 330.1 710 245 710 L215 710 C124 710 50 635 50 544 L50 165 C50 74 124 0 215 0 L245 0 C337 0 411 74 411 165 L411 325 C411 336.039 402.039 345 391 345 L285 345 C273.961 345 265 336.039 265 325 L265 305 C265 293.961 273.961 285 285 285 L330.166 285 C341.113 285 350.074 276.114 350.165 265.167 L350.165 265.167 Z " />
<glyph glyph-name="H" unicode="H" horiz-adv-x="449" d="M110 20 L110 281.296 C110 290.072 115.569 297.4 124.159 299.198 C151.312 304.885 180.85 298 214 281 C235 269 260 264 286 264 C300.87 264 315.739 265.365 330.045 268.658 C334.411 269.663 339 266.62 339 262.14 L339 20 C339 8.9606 347.961 0 359 0 L379 0 C390.039 0 399 8.9606 399 20 L399 681 C399 692.039 390.039 701 379 701 L359 701 C347.961 701 339 692.039 339 681 L339 457.816 C339 449.669 332.933 441.623 325.07 439.488 C292.531 430.656 260.375 433.5 242 444 C204.05 464.625 167.461 472.999 132.234 470.244 C121.935 469.439 110 478.146 110 488.477 L110 684.664 C110 695.887 100.889 704.848 89.6667 704.661 L69.6667 704.328 C58.8128 704.147 50 695.186 50 684.331 L50 20 C50 8.9606 58.9606 0 70 0 L90 0 C101.039 0 110 8.9606 110 20 L110 20 Z M286 374 C300.87 374 315.739 375.365 330.045 378.658 C334.411 379.663 339 376.62 339 372.14 L339 347.816 C339 339.669 332.933 331.623 325.07 329.488 C292.531 320.656 260.375 323.5 242 334 C204.05 354.625 167.461 362.999 132.234 360.244 C121.935 359.439 110 368.146 110 378.477 L110 391.296 C110 400.072 115.569 407.4 124.159 409.198 C151.312 414.885 180.85 408 214 391 C235 379 260 374 286 374 L286 374 Z " />
<glyph glyph-name="I" unicode="I" horiz-adv-x="161" d="M111 20 L111 680 C111 691.039 102.039 700 91 700 L70 700 C58.9606 700 50 691.039 50 680 L50 20 C50 8.9606 58.9606 0 70 0 L91 0 C102.039 0 111 8.9606 111 20 L111 20 Z " />
<glyph glyph-name="J" unicode="J" horiz-adv-x="323" d="M161 0 C223 0 273 50 273 111 L273 680 C273 691.039 264.039 700 253 700 L233 700 C221.961 700 213 691.039 213 680 L213 111 C213 83 190 60 161 60 C133 60 110 83 110 111 L110 157 C110 168.039 101.039 177 90 177 L70 177 C58.9606 177 50 168.039 50 157 L50 111 C50 50 100 0 161 0 L161 0 Z " />
<glyph glyph-name="K" unicode="K" horiz-adv-x="472" d="M400.457 62.0375 C366.838 69.1062 335.55 93.65 324 125 L259 295 C253.077 311.077 243.574 325.722 231.703 337.723 C228.339 341.124 228.489 346.893 231.982 350.162 C246.627 363.871 258.067 379.933 265 399 L330 577 C341.55 607.525 369.435 631.244 401.302 638.049 C409.635 639.829 422 651.485 422 660.006 L422 680.606 C422 692.838 414.869 700.571 402.709 699.25 C345.55 693.04 295.6 652 274 598 L209 420 C199 394 174 377 146 377 L128 377 C118.065 377 110 385.065 110 395 L110 680.331 C110 691.186 101.187 700.147 90.3333 700.328 L70.3333 700.661 C59.1115 700.848 50 691.887 50 680.664 L50 20 C50 8.9606 58.9606 0 70 0 L90 0 C101.039 0 110 8.9606 110 20 L110 301.5 C110 310.056 116.944 317 125.5 317 L141 317 C168 317 193 299 203 274 L268 104 C288.7 50.9 344.23 7.52 402.514 0.833 C414.732 -0.568737 422 7.09637 422 19.3941 L422 39.5062 C422 48.2742 409.038 60.2335 400.457 62.0375 L400.457 62.0375 Z " />
<glyph glyph-name="L" unicode="L" horiz-adv-x="417" d="M270 -19 C300.6 -19 330.477 -11.775 354.719 -1.62388 C362.607 1.67905 364.246 9.3115 360.31 16.903 L348.41 39.8512 C343.75 48.8395 332.019 54.0134 322.676 50.1136 C263.003 25.207 224.968 53.7474 175.41 70.0233 C168.195 72.393 162 81.8358 162 89.4306 L162 679 C162 690.039 153.039 699 142 699 L122 699 C110.961 699 102 690.039 102 679 L102 84.1241 C102 79.4899 97.5989 74.2718 93.0787 73.25 C81.2824 70.5833 69.8565 66.5833 58.5046 61.25 C53.477 58.8879 51.9789 53.4516 54.6845 48.6003 L69.3689 22.2695 C73.6764 14.5457 89.327 10.355 97.7532 13.0403 C127.834 22.6262 160.875 17.8 198 -2 C220 -14 245 -19 270 -19 L270 -19 Z " />
<glyph glyph-name="M" unicode="M" horiz-adv-x="553" d="M110 20 L110 635 C110 637.76 112.24 640 115 640 C117.703 640 120.464 637.75 121.01 635.103 L248.708 15.96 C250.488 7.33217 259.487 0 268.296 0 L294.452 0 C303.425 0 312.419 7.4414 314.099 16.2549 L432.064 635.088 C432.571 637.752 435.289 640 438 640 C440.76 640 443 637.76 443 635 L443 20 C443 8.9606 451.961 0 463 0 L483 0 C494.039 0 503 8.9606 503 20 L503 680 C503 691.039 494.039 700 483 700 L400.527 700 C391.568 700 382.574 692.567 380.886 683.769 L299.003 257.035 C295 236.172 264.03 235.98 259.768 256.791 L172.274 684.013 C170.504 692.658 161.505 700 152.681 700 L70 700 C58.9606 700 50 691.039 50 680 L50 20 C50 8.9606 58.9606 0 70 0 L90 0 C101.039 0 110 8.9606 110 20 L110 20 Z " />
<glyph glyph-name="N" unicode="N" horiz-adv-x="462" d="M110 20 L110 636.5 C110 638.432 111.568 640 113.5 640 C115.358 640 117.449 638.421 117.957 636.633 L294.868 14.5294 C297.062 6.81545 306.086 0 314.105 0 L392 0 C403.039 0 412 8.9606 412 20 L412 680 C412 691.039 403.039 700 392 700 L372 700 C360.961 700 352 691.039 352 680 L352 63.5 C352 61.5681 350.432 60 348.5 60 C346.643 60 344.548 61.5793 344.038 63.3651 L166.147 685.498 C163.946 693.194 154.922 700 146.917 700 L70 700 C58.9606 700 50 691.039 50 680 L50 20 C50 8.9606 58.9606 0 70 0 L90 0 C101.039 0 110 8.9606 110 20 L110 20 Z " />
<glyph glyph-name="O" unicode="O" horiz-adv-x="542" d="M271 -5 C389 -9 495 97 491 215 L491 480 C494 601 388 700 271 700 C154 700 48 601 51 480 L51 215 C47 97 153 -9 271 -5 L271 -5 Z M271 640 C359 640 431 568 431 480 L431 215 C431 127 359 55 271 55 C183 55 111 127 111 215 L111 480 C111 568 183 640 271 640 L271 640 Z " />
<glyph glyph-name="P" unicode="P" horiz-adv-x="424" d="M110 20 L110 264 C110 275.039 118.961 284 130 284 L167 284 C281 284 374 377 374 492 C374 606 281 700 167 700 L70 700 C58.9606 700 50 691.039 50 680 L50 20 C50 8.9606 58.9606 0 70 0 L90 0 C101.039 0 110 8.9606 110 20 L110 20 Z M110 364 L110 620 C110 631.039 118.961 640 130 640 L167 640 C248 640 314 573 314 492 C314 410 248 344 167 344 L130 344 C118.961 344 110 352.961 110 364 L110 364 Z " />
<glyph glyph-name="Q" unicode="Q" horiz-adv-x="438" d="M427 -88 C645.4 -263.5 817.219 -284.999 1087.98 -192.351 C1098.89 -188.618 1105.67 -176.522 1101.45 -165.789 L1094.26 -147.487 C1090.31 -137.434 1079.33 -131.974 1069.2 -135.706 C839.277 -220.351 668.75 -205.775 464 -41 C430 -13.8 396 11.955 354.016 31.352 C345.137 35.4546 341.453 50.9757 347.694 58.5077 C372.026 87.8725 387 125.575 387 166 L387 531 C387 624 312 700 219 700 C126 700 50 624 50 531 L50 166 C50 115.125 72.2463 70.2394 108.033 39.2577 C112.487 35.4014 110.044 28.2858 105.027 25.1964 C90.6617 16.3503 77.3556 5.6324 65.9212 -6.14451 C60.8071 -11.4118 60.8734 -19.284 66.4732 -24.0317 L87.827 -42.1359 C94.9962 -48.2142 110.068 -46.8937 117.145 -40.707 C151.516 -10.6562 194.5 -3 226 -3 C305 -1 364 -39 427 -88 L427 -88 Z M219 640 C279 640 327 591 327 531 L327 166 C327 107 279 58 219 58 C159 58 110 107 110 166 L110 531 C110 591 159 640 219 640 L219 640 Z " />
<glyph glyph-name="R" unicode="R" horiz-adv-x="464" d="M399.688 62.8175 C378.626 71.3356 364.25 97.55 356 119 L312 237 C304.452 255.452 294.793 272.496 281.844 287.544 C278.296 291.668 280.959 298.47 285.98 300.563 C360.752 331.738 414 405.6 414 493 C414 607 321 700 207 700 L70 700 C58.9606 700 50 691.039 50 680 L50 20 C50 8.9606 58.9606 0 70 0 L90 0 C101.039 0 110 8.9606 110 20 L110 265 C110 276.039 118.961 285 130 285 L156 285 C200 285 240 257 256 216 L300 98 C315.75 54.25 346.812 12.0312 393.188 2.16016 C406.233 -0.616615 414 6.66231 414 20 L414 45.5 C414 50.5029 404.326 60.9418 399.688 62.8175 L399.688 62.8175 Z M110 365 L110 620 C110 631.039 118.961 640 130 640 L207 640 C288 640 354 574 354 493 C354 411 288 345 207 345 L130 345 C118.961 345 110 353.961 110 365 L110 365 Z " />
<glyph glyph-name="S" unicode="S" horiz-adv-x="411" d="M214 -4 C295 -4 361 62 361 144 L361 286 C361 342 328 393 279 419 L160 478 C130 492 112 519 111 551 L111 560 C113 606 151 643 197 643 L214 643 C261 643 300 604 300 556 L300 524 C300 512.961 308.961 504 320 504 L341 504 C352.039 504 361 512.961 361 524 L361 556 C361 638 295 704 214 704 L197 704 C117 704 52 640 50 560 L50 415 C50 387 57 360 72 336 C87 313 108 295 132 283 L252 223 C282 208 300 178 300 144 C300 97 261 57 214 57 L197 57 C150 57 111 97 111 144 L111 176 C111 187.039 102.039 196 91 196 L70 196 C58.9606 196 50 187.039 50 176 L50 144 C50 62 116 -4 197 -4 L214 -4 L214 -4 Z M160 336 C129 352 111 381 111 415 L111 431.095 C111 432.681 112.87 433.467 114.172 432.561 C121.822 427.24 143.2 415.85 252 364 C282 349 300 319 300 286 L300 269.301 C300 267.433 298.034 266.394 296.448 267.382 C288.222 272.505 267.1 283.3 160 336 L160 336 Z " />
<glyph glyph-name="T" unicode="T" horiz-adv-x="437" d="M70 500 L168 500 C179.039 500 188 491.039 188 480 L188 20 C188 8.9606 196.961 0 208 0 L228 0 C239.039 0 248 8.9606 248 20 L248 480 C248 491.039 256.961 500 268 500 L367 500 C378.039 500 387 508.961 387 520 L387 540 C387 551.039 378.039 560 367 560 L268 560 C256.961 560 248 568.961 248 580 L248 680 C248 691.039 239.039 700 228 700 L208 700 C196.961 700 188 691.039 188 680 L188 580 C188 568.961 179.039 560 168 560 L70 560 C58.9606 560 50 551.039 50 540 L50 520 C50 508.961 58.9606 500 70 500 L70 500 Z " />
<glyph glyph-name="U" unicode="U" horiz-adv-x="426" d="M50 157 C50 67 123 -6 213 -6 C303 -6 376 67 376 157 L376 680 C376 691.039 367.039 700 356 700 L336 700 C324.961 700 316 691.039 316 680 L316 157 C316 100 270 54 213 54 C156 54 110 100 110 157 L110 680 C110 691.039 101.039 700 90 700 L73.8532 700 C62.8951 700 53.9345 691.105 53.8538 680.147 L50 157 L50 157 Z " />
<glyph glyph-name="V" unicode="V" horiz-adv-x="426" d="M322 175 C358 307 376 443 376 579 L376 680 C376 691.039 367.039 700 356 700 L336 700 C324.961 700 316 691.039 316 680 L316 579 C316 448 299 318 264 191 L231.975 74.4638 C229.859 66.7656 220.984 60 213 60 C205.016 60 196.141 66.7656 194.025 74.4638 L162 191 C127 318 110 448 110 579 L110 680 C110 691.039 101.039 700 90 700 L70 700 C58.9606 700 50 691.039 50 680 L50 579 C50 443 68 307 104 175 L147.965 14.7097 C150.113 6.87958 159.134 0 167.253 0 L258.747 0 C266.866 0 275.887 6.87958 278.035 14.7097 L322 175 L322 175 Z " />
<glyph glyph-name="W" unicode="W" horiz-adv-x="617" d="M488 34 C538.7 245.575 565.634 464.28 566.949 681.772 C567.017 692.878 558.106 698.5 547 698.5 L527 698.5 C516.025 698.5 507.017 693.347 506.953 682.372 C505.734 472.68 480.75 261.775 432 58 C431.063 54.0843 428.526 58 424.5 58 C420.409 58 416.48 61.3688 415.856 65.4123 L340.615 553.05 C339.189 562.296 330.205 570 320.849 570 L295.217 570 C285.819 570 276.837 562.267 275.44 552.974 L202.19 65.911 C201.54 61.5929 197.367 58 193 58 C188.672 58 182.278 69.4741 181.297 73.6889 C134.984 272.59 111.234 478.056 110.047 682.372 C109.983 693.347 100.975 698.5 90 698.5 L70 698.5 C58.8938 698.5 49.9834 692.878 50.0506 681.772 C51.3662 464.28 78.325 245.575 130 34 L134.372 15.4192 C136.321 7.13452 145.329 0 153.84 0 L234.806 0 C244.189 0 253.172 7.72234 254.58 16.9991 L288.226 238.706 C291.465 260.044 324.535 260.044 327.774 238.706 L361.42 16.9991 C362.828 7.72234 371.811 0 381.194 0 L463.605 0 C471.82 0 480.837 6.94115 482.939 14.8821 L488 34 L488 34 Z " />
<glyph glyph-name="X" unicode="X" horiz-adv-x="433" d="M383 20 L383 188.323 C383 190.537 380.319 198.568 378.989 200.338 L262.002 356.02 C257.233 362.366 257.218 373.645 261.969 380.005 L379.022 536.676 C380.336 538.435 383 546.451 383 548.646 L383 680 C383 691.039 374.039 700 363 700 L343 700 C331.961 700 323 691.039 323 680 L323 568.617 C323 566.439 320.353 558.437 319.053 556.689 L232.053 439.605 C223.569 428.187 208.431 428.187 199.947 439.605 L112.947 556.689 C111.647 558.437 109 566.439 109 568.617 L109 681 C109 692.039 100.039 701 89 701 L70 701 C58.9606 701 50 692.039 50 681 L50 548.605 C50 546.434 52.6406 538.438 53.9338 536.694 L170.144 379.946 C174.825 373.631 174.81 362.38 170.111 356.079 L53.9667 200.32 C52.6579 198.564 50 190.554 50 188.364 L50 20 C50 8.9606 58.9606 0 70 0 L89 0 C100.039 0 109 8.9606 109 20 L109 168.346 C109 170.546 111.668 178.566 112.987 180.328 L199.987 296.599 C208.466 307.932 223.534 307.932 232.013 296.599 L319.013 180.328 C320.332 178.566 323 170.546 323 168.346 L323 20 C323 8.9606 331.961 0 343 0 L363 0 C374.039 0 383 8.9606 383 20 L383 20 Z " />
<glyph glyph-name="Y" unicode="Y" horiz-adv-x="470" d="M265 20 L265 274.624 C265 276.661 267.511 284.538 268.69 286.199 L309 343 C345 395 373 452 391 512 C408.1 566.9 417.91 623.42 419.701 680.831 C420.056 692.209 411.384 700 400 700 L380 700 C369.388 700 359.99 688.903 359.58 678.299 C357.625 627.781 348.875 578.125 334 530 C317 476 292 424 260 377 L244.453 354.907 C242.894 352.692 237.708 350 235 350 C232.277 350 227.135 352.694 225.585 354.933 L211 376 C178 424 153 475 136 530 C121.125 578.125 112.375 627.781 110.42 678.299 C110.01 688.903 100.612 700 90 700 L70 700 C58.6164 700 49.944 692.209 50.299 680.831 C52.09 623.42 61.9 566.9 79 512 C98 452 126 394 162 342 L201.434 285.141 C202.556 283.524 205 275.711 205 273.743 L205 20 C205 8.9606 213.961 0 225 0 L245 0 C256.039 0 265 8.9606 265 20 L265 20 Z " />
<glyph glyph-name="Z" unicode="Z" horiz-adv-x="416" d="M281 -15 C305.538 -15 330.793 -9.27219 353.734 0.97178 C361.712 4.53413 363.031 12.2457 358.727 19.8492 L346.105 42.148 C341.248 50.7294 328.09 55.0984 319.039 51.185 C271.06 30.44 247.3 58.7 196 74 C172.421 80.7368 147.424 81.8006 123.397 78.3855 C116.182 77.3599 110 83.0298 110 90.3178 L110 110.651 C110 117.969 114.142 124.779 121.194 126.735 C140.69 132.14 160.548 132.032 179 127 C214 117 239 96 281 95 C305.538 95 330.793 100.728 353.734 110.972 C361.712 114.534 363.031 122.246 358.727 129.849 L346.105 152.148 C341.248 160.729 328.09 165.098 319.039 161.185 C271.06 140.44 247.3 168.7 196 184 C178.75 188.929 161.5 190.483 144.25 189.773 C139.45 189.575 135.538 194.152 137.661 198.462 L363.941 657.821 C364.443 658.84 366 665.522 366 666.659 L366 681 C366 691.487 357.487 700 347 700 L70 700 C58.9606 700 50 691.039 50 680 L50 660 C50 648.961 58.9606 640 70 640 L253.85 640 C269.769 640 278.826 625.44 271.791 611.161 L52.0593 165.18 C51.557 164.16 50 157.477 50 156.34 L50 22 C50 11.5126 58.5126 3 69 3 L83.9689 3 C85.0728 3 90.5415 4.45229 91.5 5 L95 7 C173 46 207 -13 281 -15 L281 -15 Z " />
<glyph glyph-name="bracketleft" unicode="&#x5b;" horiz-adv-x="297" d="M247 -100 L247 -80 C247 -68.9606 238.039 -60 227 -60 L130 -60 C118.961 -60 110 -51.0394 110 -40 L110 740 C110 751.039 118.961 760 130 760 L227 760 C238.039 760 247 768.961 247 780 L247 800 C247 811.039 238.039 820 227 820 L70 820 C58.9606 820 50 811.039 50 800 L50 -100 C50 -111.039 58.9606 -120 70 -120 L227 -120 C238.039 -120 247 -111.039 247 -100 L247 -100 Z " />
<glyph glyph-name="backslash" unicode="&#x5c;" horiz-adv-x="396" d="M326.668 731.666 L307.076 737.409 C296.547 740.495 285.443 734.469 282.292 723.959 L55.7505 -31.8157 C52.5764 -42.4049 58.5987 -53.5645 69.1922 -56.724 L87.8828 -62.2984 C98.4349 -65.4455 109.576 -59.4414 112.75 -48.8973 L340.193 706.709 C343.398 717.357 337.338 728.539 326.668 731.666 L326.668 731.666 Z " />
<glyph glyph-name="bracketright" unicode="&#x5d;" horiz-adv-x="297" d="M70 -120 L227 -120 C238.039 -120 247 -111.039 247 -100 L247 800 C247 811.039 238.039 820 227 820 L70 820 C58.9606 820 50 811.039 50 800 L50 780 C50 768.961 58.9606 760 70 760 L167 760 C178.039 760 187 751.039 187 740 L187 -40 C187 -51.0394 178.039 -60 167 -60 L70 -60 C58.9606 -60 50 -68.9606 50 -80 L50 -100 C50 -111.039 58.9606 -120 70 -120 L70 -120 Z " />
<glyph glyph-name="asciicircum" unicode="&#x5e;" horiz-adv-x="331" d="M278 613 L276.634 616.642 C276.236 617.704 272.436 623.412 271.61 624.189 L196.775 694.569 C194.591 696.623 186.07 700 183.073 700 L147.927 700 C144.93 700 136.409 696.623 134.225 694.569 L59.3905 624.189 C58.5642 623.412 54.764 617.704 54.3658 616.642 L53 613 C51.3449 608.586 53.543 603.545 57.9034 601.754 L93.8481 586.991 C100.004 584.463 110.642 586.525 115.407 591.17 L151.655 626.504 C159.293 633.949 171.757 634.001 179.457 626.62 L216.537 591.072 C221.327 586.48 231.973 584.498 238.094 587.057 L273.117 601.704 C277.465 603.522 279.655 608.587 278 613 L278 613 Z " />
<glyph glyph-name="underscore" unicode="&#x5f;" horiz-adv-x="500" d="M430 60 L70 60 C58.9606 60 50 51.0394 50 40 L50 20 C50 8.9606 58.9606 0 70 0 L430 0 C441.039 0 450 8.9606 450 20 L450 40 C450 51.0394 441.039 60 430 60 L430 60 Z " />
<glyph glyph-name="grave" unicode="&#x60;" horiz-adv-x="240" d="M50 688 L50 683.869 C50 680.909 53.3453 672.407 55.3621 670.241 L125.068 595.372 C127.464 592.798 136.189 589 139.706 589 L178 589 C184.624 589 190 594.376 190 601 L190 605.202 C190 608.116 186.694 616.595 184.722 618.74 L115.943 693.537 C113.528 696.163 104.788 700 101.221 700 L62 700 C55.3764 700 50 694.624 50 688 L50 688 Z " />
<glyph glyph-name="a" unicode="a" horiz-adv-x="449" d="M399 95 C399 150 393 206 381 261 L292.332 684.102 C290.532 692.691 281.532 700 272.757 700 L175.251 700 C166.471 700 157.471 692.687 155.674 684.093 L67 260 C55 206 50 151 50 95 L50 20 C50 8.9606 58.9606 0 70 0 L90 0 C101.039 0 110 8.9606 110 20 L110 95 C110 143.45 114.513 192.803 126.967 256.775 C128.269 263.462 133.062 268.38 139.737 269.738 C163.017 274.474 188.378 271.973 210 259 C238.9 242.85 269.967 234.647 305.045 238.077 C315.3 239.08 326.154 229.444 327.837 219.278 C334.665 178.045 339 135.8 339 95 L339.792 19.7895 C339.907 8.86689 348.867 0 359.791 0 L379 0 C390.039 0 399 8.9606 399 20 L399 95 L399 95 Z M243.358 624.143 L309.337 312.576 C310.995 304.745 306.506 298.507 298.55 297.626 C278.636 295.421 259.818 299.364 241 310 C216.25 324.85 190.139 330.852 160.982 331.375 C151.654 331.542 143.893 340.001 145.814 349.13 L203.659 624.117 C205.464 632.696 214.464 640 223.231 640 L223.792 640 C232.544 640 241.545 632.706 243.358 624.143 L243.358 624.143 Z " />
<glyph glyph-name="b" unicode="b" horiz-adv-x="435" d="M201 0 C302 0 385 82 385 182 L385 210 C385 262.8 361.859 310.155 325.684 344.204 C317.232 352.158 317.129 375.158 325.684 383 C361.859 416.164 385 464.2 385 517 C385 617 302 700 201 700 L70 700 C58.9606 700 50 691.039 50 680 L50 20 C50 8.9606 58.9606 0 70 0 L201 0 L201 0 Z M201 334 C270 334 326 278 326 210 L326 182 C326 114 270 59 201 59 L129 59 C117.961 59 109 67.9606 109 79 L109 314 C109 325.039 117.961 334 129 334 L201 334 L201 334 Z M129 641 L201 641 C270 641 326 585 326 517 C326 450 272 396 206 394 L129 394 C117.961 394 109 402.961 109 414 L109 621 C109 632.039 117.961 641 129 641 L129 641 Z " />
<glyph glyph-name="c" unicode="c" horiz-adv-x="415" d="M363.841 562.458 C354.404 640.962 288.475 700 208 700 C121 700 50 629 50 542 L50 158 C50 71 121 0 208 0 C295 0 365 71 365 158 L365 164 C365 167.312 362.312 170 359 170 L311 170 C307.688 170 305 167.312 305 164 L305 158 C305 104 262 60 208 60 C154 60 110 104 110 158 L110 542 C110 596 154 640 208 640 C255.25 640 294.078 610.141 303.047 563.82 C304.746 555.042 316.059 543 325 543 L345 543 C357.357 543 365.316 550.19 363.841 562.458 L363.841 562.458 Z " />
<glyph glyph-name="d" unicode="d" horiz-adv-x="434" d="M174 0 C290 0 384 94 384 209 L384 491 C384 607 290 700 174 700 L70 700 C58.9606 700 50 691.039 50 680 L50 20 C50 8.9606 58.9606 0 70 0 L174 0 L174 0 Z M130 640 L174 640 C257 640 324 574 324 491 L324 209 C324 127 257 60 174 60 L130 60 C118.961 60 110 68.9606 110 80 L110 620 C110 631.039 118.961 640 130 640 L130 640 Z " />
<glyph glyph-name="e" unicode="e" horiz-adv-x="400" d="M232 397 L130 397 C118.961 397 110 405.961 110 417 L110 620 C110 631.039 118.961 640 130 640 L330 640 C341.039 640 350 648.961 350 660 L350 680 C350 691.039 341.039 700 330 700 L70 700 C58.9606 700 50 691.039 50 680 L50 20 C50 8.9606 58.9606 0 70 0 L330 0 C341.039 0 350 8.9606 350 20 L350 40 C350 51.0394 341.039 60 330 60 L130 60 C118.961 60 110 68.9606 110 80 L110 317 C110 328.039 118.961 337 130 337 L232 337 C243.039 337 252 345.961 252 357 L252 377 C252 388.039 243.039 397 232 397 L232 397 Z " />
<glyph glyph-name="f" unicode="f" horiz-adv-x="438" d="M266 397 L130 397 C118.961 397 110 405.961 110 417 L110 620 C110 631.039 118.961 640 130 640 L368 640 C379.039 640 388 648.961 388 660 L388 680 C388 691.039 379.039 700 368 700 L70 700 C58.9606 700 50 691.039 50 680 L50 341.011 C50 340.157 51.2174 334.087 51.5466 333.299 L78 270 C98 224 107 176 107 126 L107 20 C107 8.9606 115.961 0 127 0 L157 0 C168.039 0 177 8.9606 177 20 L177 126 C177 184 156 240 134 293 L125 315 C120.402 326.239 127.626 337 139.77 337 L266 337 C277.039 337 286 345.961 286 357 L286 377 C286 388.039 277.039 397 266 397 L266 397 Z " />
<glyph glyph-name="g" unicode="g" horiz-adv-x="409" d="M357.858 568.833 C348.56 644.962 283.625 704 205 704 C119 704 50 635 50 550 L50 151 C50 65 119 -4 205 -4 C290 -4 359 65 359 151 L359 325 C359 336.039 350.039 345 339 345 L234 345 C222.961 345 214 336.039 214 325 L214 305 C214 293.961 222.961 285 234 285 L279 285 C290.039 285 299 276.039 299 265 L299 151 C299 98 257 56 205 56 C152 56 110 98 110 151 L110 550 C110 602 152 644 205 644 C250.5 644 288.344 611.844 297.094 568.969 C298.86 560.315 310.168 550 319 550 L339 550 C351.378 550 359.359 556.546 357.858 568.833 L357.858 568.833 Z " />
<glyph glyph-name="h" unicode="h" horiz-adv-x="449" d="M359 0 L379 0 C390.039 0 399 8.9606 399 20 L399 680 C399 691.039 390.039 700 379 700 L359 700 C347.961 700 339 691.039 339 680 L339 457.816 C339 449.669 332.933 441.623 325.07 439.488 C292.531 430.656 260.375 433.5 242 444 C204.05 464.625 167.461 472.999 132.234 470.244 C121.935 469.439 110 478.146 110 488.477 L110 680 C110 691.039 101.039 700 90 700 L70 700 C58.9606 700 50 691.039 50 680 L50 20 C50 8.9606 58.9606 0 70 0 L90 0 C101.039 0 110 8.9606 110 20 L110 391.296 C110 400.072 115.569 407.4 124.159 409.198 C151.312 414.885 180.85 408 214 391 C235 379 260 374 286 374 C300.87 374 315.739 375.365 330.045 378.658 C334.411 379.663 339 376.62 339 372.14 L339 20 C339 8.9606 347.961 0 359 0 L359 0 Z " />
<glyph glyph-name="i" unicode="i" horiz-adv-x="160" d="M110 20 L110 680 C110 691.039 101.039 700 90 700 L70 700 C58.9606 700 50 691.039 50 680 L50 20 C50 8.9606 58.9606 0 70 0 L90 0 C101.039 0 110 8.9606 110 20 L110 20 Z " />
<glyph glyph-name="j" unicode="j" horiz-adv-x="323" d="M161 0 C223 0 273 50 273 111 L273 679 C273 690.039 264.039 699 253 699 L233 699 C221.961 699 213 690.039 213 679 L213 111 C213 83 190 60 161 60 C133 60 110 83 110 111 L110 153.664 C110 164.887 100.889 173.848 89.6667 173.661 L69.6667 173.328 C58.8128 173.147 50 164.186 50 153.331 L50 111 C50 50 100 0 161 0 L161 0 Z " />
<glyph glyph-name="k" unicode="k" horiz-adv-x="472" d="M110 20 L110 295 C110 306.039 118.961 315 130 315 L159.912 315 C166.532 315 175.589 309.073 178.24 303.007 L263 109 C283.7 51.4 340.85 7.57 401.645 0.838 C413.825 -0.51072 422 7.16602 422 19.4204 L422 39.5506 C422 48.5568 410.936 59.9804 402.084 61.6391 C365.217 68.5475 333.3 96.3 318 132 L229.486 336.928 C228.068 340.211 228.13 349.762 229.591 353.026 L377.256 683.102 C377.649 683.981 379 690.307 379 691.27 L379 693.5 C379 697.088 376.088 700 372.5 700 L331.941 700 C325.425 700 316.367 694.139 313.697 688.196 L178.303 386.804 C175.633 380.861 166.575 375 160.059 375 L130 375 C118.961 375 110 383.961 110 395 L110 680 C110 691.039 101.039 700 90 700 L70 700 C58.9606 700 50 691.039 50 680 L50 20 C50 8.9606 58.9606 0 70 0 L90 0 C101.039 0 110 8.9606 110 20 L110 20 Z " />
<glyph glyph-name="l" unicode="l" horiz-adv-x="400" d="M330 60 L130 60 C118.961 60 110 68.9606 110 80 L110 680 C110 691.039 101.039 700 90 700 L70 700 C58.9606 700 50 691.039 50 680 L50 20 C50 8.9606 58.9606 0 70 0 L330 0 C341.039 0 350 8.9606 350 20 L350 40 C350 51.0394 341.039 60 330 60 L330 60 Z " />
<glyph glyph-name="m" unicode="m" horiz-adv-x="553" d="M110 20 L110 635 C110 637.76 112.24 640 115 640 C117.703 640 120.464 637.75 121.01 635.103 L248.708 15.96 C250.488 7.33217 259.487 0 268.296 0 L294.452 0 C303.425 0 312.419 7.4414 314.099 16.2549 L432.064 635.088 C432.571 637.752 435.289 640 438 640 C440.76 640 443 637.76 443 635 L443 20 C443 8.9606 451.961 0 463 0 L483 0 C494.039 0 503 8.9606 503 20 L503 680 C503 691.039 494.039 700 483 700 L400.527 700 C391.568 700 382.574 692.567 380.886 683.769 L299.003 257.035 C295 236.172 264.03 235.98 259.768 256.791 L172.274 684.013 C170.504 692.658 161.505 700 152.681 700 L70 700 C58.9606 700 50 691.039 50 680 L50 20 C50 8.9606 58.9606 0 70 0 L90 0 C101.039 0 110 8.9606 110 20 L110 20 Z " />
<glyph glyph-name="n" unicode="n" horiz-adv-x="462" d="M110 20 L110 636.5 C110 638.432 111.568 640 113.5 640 C115.358 640 117.449 638.421 117.957 636.633 L294.868 14.5294 C297.062 6.81545 306.086 0 314.105 0 L392 0 C403.039 0 412 8.9606 412 20 L412 680 C412 691.039 403.039 700 392 700 L372 700 C360.961 700 352 691.039 352 680 L352 63.5 C352 61.5681 350.432 60 348.5 60 C346.643 60 344.548 61.5793 344.038 63.3651 L166.147 685.498 C163.946 693.194 154.922 700 146.917 700 L70 700 C58.9606 700 50 691.039 50 680 L50 20 C50 8.9606 58.9606 0 70 0 L90 0 C101.039 0 110 8.9606 110 20 L110 20 Z " />
<glyph glyph-name="o" unicode="o" horiz-adv-x="437" d="M218 0 C311 0 387 75 387 168 L387 536 C387 629 311 705 218 705 C125 705 50 629 50 536 L50 168 C50 75 125 0 218 0 L218 0 Z M218 645 C278 645 327 596 327 536 L327 168 C327 109 278 60 218 60 C159 60 110 109 110 168 L110 536 C110 596 159 645 218 645 L218 645 Z " />
<glyph glyph-name="p" unicode="p" horiz-adv-x="367" d="M110 20 L110 264 C110 274.141 116.826 283.863 126.933 284.689 C233.067 293.355 317 382.75 317 492 C317 606 224 700 110 700 L70 700 C58.9606 700 50 691.039 50 680 L50 20 C50 8.9606 58.9606 0 70 0 L90 0 C101.039 0 110 8.9606 110 20 L110 20 Z M110 364 L110 620 C110 632.401 115.644 640.421 127.95 638.892 C200.529 629.871 257 566.925 257 492 C257 416.15 200.529 353.99 127.95 345.093 C115.66 343.586 110 351.617 110 364 L110 364 Z " />
<glyph glyph-name="q" unicode="q" horiz-adv-x="477" d="M314 -84 C339 -84 361 -77 380 -64 C396.757 -51.4324 410.706 -33.2491 421.258 -10.6262 C425.142 -2.30185 421.067 5.18574 412.448 8.36122 L382.026 19.5694 C375.852 21.8439 368.104 18.7106 365.371 12.7261 C356.371 -6.98061 342.632 -24 314 -24 C297 -24 286 -19 273 -13 C263.737 -8.78947 253.055 -3.16066 240.359 -0.890946 C239.697 -0.772727 238.749 0.631789 239.415 0.71925 C322.357 11.61 387 82.2 387 168 L387 536 C387 629 311 705 218 705 C125 705 50 629 50 536 L50 168 C50 82.5 113.175 11.44 195.799 1.11825 C196.833 0.989011 199.743 -1.88013 198.739 -2.16252 C185.693 -5.8334 173.017 -13.4278 162.13 -30.0538 C155.795 -39.7283 159.911 -47.846 170.33 -52.8627 L204.569 -69.3481 C206.298 -70.1806 208.945 -68.7531 209.856 -67.064 C212.48 -62.2 216 -59 224 -59 C230 -59 237 -62 248 -67 C263 -74 284 -84 314 -84 L314 -84 Z M218 645 C278 645 327 596 327 536 L327 168 C327 109 278 60 218 60 C159 60 110 109 110 168 L110 536 C110 596 159 645 218 645 L218 645 Z " />
<glyph glyph-name="r" unicode="r" horiz-adv-x="439" d="M368.22 60.951 C336.116 67.7562 307.55 91.475 296 122 L252 239 C244.5 256.5 234.917 273.306 222.093 288.259 C218.561 292.378 220.977 299.48 225.98 301.578 C300.752 332.933 354 408.6 354 496 C354 611 261 700 147 700 L70 700 C58.9606 700 50 691.039 50 680 L50 20 C50 8.9606 58.9606 0 70 0 L90 0 C101.039 0 110 8.9606 110 20 L110 276.441 C110 281.513 114.119 284.564 119.08 283.512 C132.421 280.686 144.545 275.182 156 267 C174 255 188 238 196 218 L240 102 C261.6 47.1 311.55 7.59 369.438 0.966 C381.653 -0.431704 389 7.40484 389 19.6993 L389 38.9938 C389 47.5307 376.572 59.1808 368.22 60.951 L368.22 60.951 Z M110 363.5 L110 621.5 C110 631.711 118.289 640 128.5 640 L147 640 C228 640 294 578 294 496 C294 413 228 345 147 345 L128.5 345 C118.289 345 110 353.289 110 363.5 L110 363.5 Z " />
<glyph glyph-name="s" unicode="s" horiz-adv-x="405" d="M295 142 C293 96 256 60 210 60 L195 60 C148 60 110 98 110 145 L110 176 C110 187.039 101.039 196 90 196 L70 196 C58.9606 196 50 187.039 50 176 L50 145 C50 65 115 0 195 0 L210 0 C290 0 355 65 355 145 L355 219 C355 274 323 325 274 350 L158 407 C128 421 110 458 110 491 L110 555 C110 602 148 640 195 640 L210 640 C257 640 295 602 295 555 L295 524 C295 512.961 303.961 504 315 504 L335 504 C346.039 504 355 512.961 355 524 L355 555 C355 635 290 700 210 700 L195 700 C115 700 50 635 50 555 L50 491 C50 436 82 378 131 353 L248 296 C277 281 295 252 295 219 L295 142 L295 142 Z " />
<glyph glyph-name="t" unicode="t" horiz-adv-x="437" d="M367 700 L70 700 C58.9606 700 50 691.039 50 680 L50 660 C50 648.961 58.9606 640 70 640 L168 640 C179.039 640 188 631.039 188 620 L188 20 C188 8.9606 196.961 0 208 0 L228 0 C239.039 0 248 8.9606 248 20 L248 620 C248 631.039 256.961 640 268 640 L367 640 C378.039 640 387 648.961 387 660 L387 680 C387 691.039 378.039 700 367 700 L367 700 Z " />
<glyph glyph-name="u" unicode="u" horiz-adv-x="426" d="M50 157 C50 67 123 -6 213 -6 C303 -6 376 67 376 157 L376 680 C376 691.039 367.039 700 356 700 L336 700 C324.961 700 316 691.039 316 680 L316 157 C316 100 270 54 213 54 C156 54 110 100 110 157 L110 680 C110 691.039 101.039 700 90 700 L73.8532 700 C62.8951 700 53.9345 691.105 53.8538 680.147 L50 157 L50 157 Z " />
<glyph glyph-name="v" unicode="v" horiz-adv-x="426" d="M322 175 C358 307 376 443 376 579 L376 680 C376 691.039 367.039 700 356 700 L336 700 C324.961 700 316 691.039 316 680 L316 579 C316 448 299 318 264 191 L231.975 74.4638 C229.859 66.7656 220.984 60 213 60 C205.016 60 196.141 66.7656 194.025 74.4638 L162 191 C127 318 110 448 110 579 L110 680 C110 691.039 101.039 700 90 700 L70 700 C58.9606 700 50 691.039 50 680 L50 579 C50 443 68 307 104 175 L147.965 14.7097 C150.113 6.87958 159.134 0 167.253 0 L258.747 0 C266.866 0 275.887 6.87958 278.035 14.7097 L322 175 L322 175 Z " />
<glyph glyph-name="w" unicode="w" horiz-adv-x="617" d="M488 34 C538.7 245.575 565.634 464.28 566.949 681.772 C567.017 692.878 558.106 698.5 547 698.5 L527 698.5 C516.025 698.5 507.017 693.347 506.953 682.372 C505.734 472.68 480.75 261.775 432 58 C431.063 54.0843 428.526 58 424.5 58 C420.409 58 416.48 61.3688 415.856 65.4123 L340.615 553.05 C339.189 562.296 330.205 570 320.849 570 L295.217 570 C285.819 570 276.837 562.267 275.44 552.974 L202.19 65.911 C201.54 61.5929 197.367 58 193 58 C188.672 58 182.278 69.4741 181.297 73.6889 C134.984 272.59 111.234 478.056 110.047 682.372 C109.983 693.347 100.975 698.5 90 698.5 L70 698.5 C58.8938 698.5 49.9834 692.878 50.0506 681.772 C51.3662 464.28 78.325 245.575 130 34 L134.372 15.4192 C136.321 7.13452 145.329 0 153.84 0 L234.806 0 C244.189 0 253.172 7.72234 254.58 16.9991 L288.226 238.706 C291.465 260.044 324.535 260.044 327.774 238.706 L361.42 16.9991 C362.828 7.72234 371.811 0 381.194 0 L463.605 0 C471.82 0 480.837 6.94115 482.939 14.8821 L488 34 L488 34 Z " />
<glyph glyph-name="x" unicode="x" horiz-adv-x="435" d="M385 20 L385 117 C385 165 369 212 340 251 L264.311 349.84 C259.35 356.32 259.35 367.68 264.311 374.16 L340 473 C369 512 385 559 385 608 L384.215 680.217 C384.096 691.136 375.136 700 364.216 700 L345 700 C333.961 700 325 691.039 325 680 L325 608 C325 572 313 537 291 508 L233.927 432.164 C225.472 420.928 210.497 420.904 202.005 432.113 L143 510 C122 538 113 571 112 608 L112 680 C112 691.039 103.039 700 92 700 L70 700 C58.9606 700 50 691.039 50 680 L50 607 C51 560 67 513 95 475 L170.97 374.005 C175.757 367.641 175.765 356.353 170.987 349.982 L96 250 C67 211 51 167 51 120 L51 20 C51 8.9606 59.9606 0 71 0 L90 0 C101.039 0 110 8.9606 110 20 L110 118 C110 153 123 187 144 214 L202.095 290.937 C210.547 302.13 225.486 302.155 233.976 290.991 L291 216 C313 188 325 152 325 117 L325 20 C325 8.9606 333.961 0 345 0 L365 0 C376.039 0 385 8.9606 385 20 L385 20 Z " />
<glyph glyph-name="y" unicode="y" horiz-adv-x="470" d="M265 20 L265 247.566 C265 248.198 265.935 253.642 266.146 254.238 L418.854 685.762 C419.065 686.358 420 691.802 420 692.434 L420 694.5 C420 697.536 417.536 700 414.5 700 L374.113 700 C366.774 700 357.73 693.618 355.27 686.703 L254.268 402.761 C247.706 384.313 223.208 384.282 216.598 402.714 L114.751 686.751 C112.282 693.635 103.238 700 95.9246 700 L55.5 700 C52.4642 700 50 697.536 50 694.5 L50 692.479 C50 691.831 50.956 686.336 51.175 685.725 L203.825 260.275 C204.044 259.664 205 254.169 205 253.521 L205 20 C205 8.9606 213.961 0 225 0 L245 0 C256.039 0 265 8.9606 265 20 L265 20 Z " />
<glyph glyph-name="z" unicode="z" horiz-adv-x="416" d="M281 -15 C305.538 -15 330.793 -9.27219 353.734 0.97178 C361.712 4.53413 363.031 12.2457 358.727 19.8492 L346.105 42.148 C341.248 50.7294 328.09 55.0984 319.039 51.185 C271.06 30.44 247.3 58.7 196 74 C172.421 80.7368 147.424 81.8006 123.397 78.3855 C116.182 77.3599 110 83.0298 110 90.3178 L110 140.32 C110 141.466 111.568 148.167 112.077 149.194 L363.923 657.806 C364.432 658.833 366 665.534 366 666.68 L366 681 C366 691.487 357.487 700 347 700 L70 700 C58.9606 700 50 691.039 50 680 L50 660 C50 648.961 58.9606 640 70 640 L253.85 640 C269.769 640 278.826 625.44 271.791 611.161 L52.0593 165.18 C51.557 164.16 50 157.477 50 156.34 L50 22 C50 11.5126 58.5126 3 69 3 L83.9689 3 C85.0728 3 90.5415 4.45229 91.5 5 L95 7 C173 46 207 -13 281 -15 L281 -15 Z " />
<glyph glyph-name="braceleft" unicode="&#x7b;" horiz-adv-x="307" d="M237 -60 L214 -60 C184 -60 160 -36 160 -6 L160 290 C160 309.034 153.836 326.699 143.775 341.294 C141.312 344.866 141.376 355.524 143.775 359.14 C153.836 374.301 160 391.966 160 411 L160 706 C160 736 184 760 214 760 L237 760 C248.039 760 257 768.961 257 780 L257 800 C257 811.039 248.039 820 237 820 L214 820 C151 820 100 769 100 706 L100 411 C100 396 89 384 75 381 L62.5 379 C55.687 377.91 50 371.241 50 364.341 L50 336.659 C50 329.759 55.687 323.09 62.5 322 L75 320 C89 317 100 305 100 290 L100 -6 C100 -69 151 -120 214 -120 L237 -120 C248.039 -120 257 -111.039 257 -100 L257 -80 C257 -68.9606 248.039 -60 237 -60 L237 -60 Z " />
<glyph glyph-name="bar" unicode="&#x7c;" horiz-adv-x="160" d="M110 -100 L110 800 C110 811.039 101.039 820 90 820 L70 820 C58.9606 820 50 811.039 50 800 L50 -100 C50 -111.039 58.9606 -120 70 -120 L90 -120 C101.039 -120 110 -111.039 110 -100 L110 -100 Z " />
<glyph glyph-name="braceright" unicode="&#x7d;" horiz-adv-x="307" d="M70 -120 L93 -120 C156 -120 207 -69 207 -6 L207 290 C207 305 218 317 232 320 L244.5 322 C251.313 323.09 257 329.759 257 336.659 L257 364.341 C257 371.241 251.313 377.91 244.5 379 L232 381 C218 384 207 396 207 411 L207 706 C207 769 156 820 93 820 L70 820 C58.9606 820 50 811.039 50 800 L50 780 C50 768.961 58.9606 760 70 760 L93 760 C123 760 147 736 147 706 L147 411 C147 391.966 153.164 374.301 163.225 359.14 C165.624 355.524 165.688 344.866 163.225 341.294 C153.164 326.699 147 309.034 147 290 L147 -6 C147 -36 123 -60 93 -60 L70 -60 C58.9606 -60 50 -68.9606 50 -80 L50 -100 C50 -111.039 58.9606 -120 70 -120 L70 -120 Z " />
<glyph glyph-name="asciitilde" unicode="&#x7e;" horiz-adv-x="413" d="M289 286 C309.4 290.25 326.91 298.113 350.128 321.256 C358.503 329.604 356.722 340.459 347.798 348.219 L331.837 362.099 C324.945 368.091 310.642 367.849 303.549 362.096 C272.281 336.734 241.875 343.625 213 362 C164.4 392.6 104.46 377.03 63.069 337.16 C53.6646 328.101 56.7703 318.164 67.3958 310.574 L87.117 296.488 C92.567 292.595 103.244 293.37 108.17 297.908 C127.365 315.59 156.35 326.3 181 311 C209 292 250 279 289 286 L289 286 Z " />
<glyph glyph-name="exclamdown" unicode="&#xa1;" horiz-adv-x="196" d="M98 604 C125 604 146 626 146 652 C146 679 125 700 98 700 C72 700 50 679 50 652 C50 626 72 604 98 604 L98 604 Z M88 531 L108 531 C119.039 531 128 522.039 128 511 L128 20 C128 8.9606 119.039 0 108 0 L88 0 C76.9606 0 68 8.9606 68 20 L68 511 C68 522.039 76.9606 531 88 531 L88 531 Z " />
<glyph glyph-name="cent" unicode="&#xa2;" horiz-adv-x="415" d="M365 519.669 L365 547 C365 618.225 317.941 678.327 253.106 698.022 C245.613 700.298 237 710.698 237 718.529 L237 760 C237 771.039 228.039 780 217 780 L197 780 C185.961 780 177 771.039 177 760 L177 718.308 C177 710.6 168.259 700.14 160.91 697.814 C96.2038 677.332 50 617.3 50 547 L50 153 C50 81.775 96.2038 21.6731 160.91 1.97814 C168.396 -0.300346 177 -10.704 177 -18.5289 L177 -60 C177 -71.0394 185.961 -80 197 -80 L217 -80 C228.039 -80 237 -71.0394 237 -60 L237 -18.753 C237 -10.823 245.497 -0.447946 253.106 1.78562 C317.941 20.8175 365 81.775 365 153 L365 223 C365 234.039 356.039 243 345 243 L325 243 C313.961 243 305 234.039 305 223 L305 153 C305 99 262 55 208 55 C154 55 110 99 110 153 L110 547 C110 601 154 645 208 645 C262 645 305 601 305 547 L305 519.336 C305 508.113 314.111 499.152 325.333 499.339 L345.333 499.672 C356.187 499.853 365 508.814 365 519.669 L365 519.669 Z " />
<glyph glyph-name="sterling" unicode="&#xa3;" horiz-adv-x="445" d="M354.858 562.624 C345.566 637.962 280.7 697 203 697 C119 697 50 628 50 544 L50 532 C50 509 55 485 66 464 L130 327 C136.72 311.88 141.323 296.054 143.81 280.709 C144.64 275.586 141.134 272 135.945 272 L70 272 C58.9606 272 50 263.039 50 252 L50 232 C50 220.961 58.9606 212 70 212 L124.022 212 C133.802 212 139.176 204.129 135.978 194.886 C126.805 168.364 111.625 143.8 91 124 L56.2157 90.9125 C53.7298 88.5479 50 79.8523 50 76.4214 L50 20 C50 8.9606 58.9606 0 70 0 L346 0 C357.039 0 366 8.9606 366 20 L366 40 C366 51.0394 357.039 60 346 60 L265.745 60 C254.175 60 248.581 74.275 255.128 83.8136 C278.356 117.655 294.041 155.333 301.422 195.324 C303.062 204.21 312.62 212 321.656 212 L375 212 C386.039 212 395 220.961 395 232 L395 252 C395 263.039 386.039 272 375 272 L320.07 272 C311.77 272 303.188 280.586 301.96 288.795 C298.016 315.169 290.55 341.425 279 367 L200 537.5 C191 554.5 187 574 187 593 L187 607 C187 615.462 187.716 623.923 189.148 631.779 C189.607 634.298 192.043 636.157 194.596 636.354 L203 637 C247.625 637 285.359 604.844 294.096 562.639 C295.88 554.02 307.198 544 316 544 L336 544 C348.391 544 356.375 550.326 354.858 562.624 L354.858 562.624 Z M110 544 C110 560.667 114.167 574.556 121.921 587.403 C123.512 590.039 127.062 589.174 127.201 586.098 C128.341 560.729 134.368 534.263 146 511 L225 341 C266 253 246 149 176 81 L158.728 65.2303 C156.596 63.2837 148.13 60 145.243 60 L126.207 60 C120.411 60 117.808 66.4982 122 70.5 L133 81 C206 151 227 260 184 352 L120.4 489.635 C120.392 489.651 118.936 492.407 118.928 492.423 C112.693 504.127 110 518.737 110 532 L110 544 L110 544 Z " />
<glyph glyph-name="yen" unicode="&#xa5;" horiz-adv-x="470" d="M291 252 C312.412 252 333.145 256.069 352.642 264.766 C359.93 268.017 362.415 275.546 358.47 282.483 L340.537 314.021 C338.277 317.995 331.369 319.43 327.186 317.587 C316.814 313.017 306.186 310.471 295.814 309.95 C291.206 309.719 288.126 313.209 289.654 317.563 L418.872 685.785 C419.078 686.372 420 691.785 420 692.407 L420 694.5 C420 697.536 417.536 700 414.5 700 L374.18 700 C366.794 700 357.752 693.589 355.307 686.619 L254.298 398.599 C247.797 380.063 223.115 380.032 216.568 398.552 L114.714 686.666 C112.261 693.605 103.217 700 95.8574 700 L55.5 700 C52.4642 700 50 697.536 50 694.5 L50 692.395 C50 691.777 50.9162 686.379 51.1203 685.795 L168.519 349.957 C170.293 344.883 166.367 339.451 161.059 338.609 C147.113 336.395 132.887 332.464 118.941 326.816 C112.638 324.263 110.095 317.648 113.045 311.522 L127.888 280.694 C130.804 274.638 140.589 271.352 146.926 273.593 C169.056 281.417 193.5 281.833 211 276 C240 265 259 252 291 252 L291 252 Z M265 20 L265 126.877 C265 128.947 267.322 130.437 269.364 130.095 C275.909 129 282.455 129 289 129 C308.636 129 328.942 133.017 349.37 140.502 C356.896 143.26 360.744 151.17 357.538 158.517 L344.726 187.877 C342.019 194.081 331.087 197.476 324.593 195.568 C304.105 189.551 285.062 191.125 268 196 C255 200 243 206 228 211 C194 222.9 155.665 221.072 122.821 207.36 C111.336 202.565 109.727 192.54 115.947 181.759 L130.172 157.101 C132.946 152.293 140.668 149.799 145.78 151.962 C160.668 158.262 177.727 160.233 194.033 157.553 C201.436 156.336 205 150.481 205 142.979 L205 20 C205 8.9606 213.961 0 225 0 L245 0 C256.039 0 265 8.9606 265 20 L265 20 Z " />
<glyph glyph-name="dieresis" unicode="&#xa8;" horiz-adv-x="450" d="M304 637 C304 610 326 589 352 589 C379 589 400 610 400 637 C400 663 379 685 352 685 C326 685 304 663 304 637 L304 637 Z M50 637 C50 610 72 589 98 589 C125 589 146 610 146 637 C146 663 125 685 98 685 C72 685 50 663 50 637 L50 637 Z " />
<glyph glyph-name="ordfeminine" unicode="&#xaa;" horiz-adv-x="390" d="M239 448 L249 448.5 C254.333 448.767 260.43 444.551 262.064 439.468 L268 421 C274.703 398.378 278.598 375.055 279.684 351.029 C280.03 343.395 286.858 337 294.5 337 L323 337 C332.787 337 340.042 345.067 339.622 354.845 C338.416 382.869 334.25 410.775 326 438 L254.185 685.572 C251.967 693.22 242.941 700 234.977 700 L154.094 700 C146.082 700 137.058 693.19 134.861 685.485 L64 437 C56.575 410.6 51.8725 382.158 50.454 354.482 C49.964 344.921 56.9263 337 66.5 337 L96 337 C103.373 337 109.977 343.322 110.316 350.688 C111.402 374.353 115.297 398.378 122 421 L133.48 462.505 C134.277 465.387 138.452 468.934 141.379 469.549 C150.84 471.539 161.25 472.25 171 469 C184 465 195 456 210 452 C219 449 229 448 239 448 L239 448 Z M206.61 630.866 L242 507 C237 507 232 507 227 509 C215 513 205 520 192 525 C182.118 528.294 171.557 530.232 160.318 530.813 C156.76 530.997 153.968 534.298 154.972 537.717 L182.324 630.885 C183.741 635.712 189.469 640 194.5 640 C199.542 640 205.225 635.713 206.61 630.866 L206.61 630.866 Z " />
<glyph glyph-name="guillemotleft" unicode="&#xab;" horiz-adv-x="570" d="M297.84 217.367 C286.347 218.837 273.857 224.714 261 235 L127.16 351.999 C117.769 360.209 117.743 373.82 127.104 382.065 L261 500 C273.857 510.286 285.98 516.898 297.997 518.577 C301.294 519.038 304 522.671 304 526 L304 564.5 C304 573.661 298.018 579.232 288.953 577.908 C265.581 574.494 243.45 563.15 222 545 L56.9552 402.985 C54.0451 400.481 50 391.663 50 387.824 L50 346.251 C50 342.36 54.0843 333.529 57.0496 331.01 L223 190 C244.154 171.385 267.098 160.645 290.62 157.781 C299.226 156.733 303.544 162.33 303.617 171 L303.946 210.5 C303.972 213.636 300.951 216.97 297.84 217.367 L297.84 217.367 Z M513.84 217.367 C502.347 218.837 489.857 224.714 477 235 L343.16 351.999 C333.769 360.209 333.743 373.82 343.104 382.065 L477 500 C489.857 510.286 501.98 516.898 513.997 518.577 C517.294 519.038 520 522.671 520 526 L520 564.5 C520 573.661 514.018 579.232 504.953 577.908 C481.581 574.494 459.45 563.15 438 545 L272.955 402.985 C270.045 400.481 266 391.663 266 387.824 L266 346.251 C266 342.36 270.084 333.529 273.05 331.01 L439 190 C460.154 171.385 483.098 160.645 506.62 157.781 C515.226 156.733 519.544 162.33 519.617 171 L519.946 210.5 C519.972 213.636 516.951 216.97 513.84 217.367 L513.84 217.367 Z " />
<glyph glyph-name="macron" unicode="&#xaf;" horiz-adv-x="400" d="M330 649 L70 649 C58.9606 649 50 640.039 50 629 L50 609 C50 597.961 58.9606 589 70 589 L330 589 C341.039 589 350 597.961 350 609 L350 629 C350 640.039 341.039 649 330 649 L330 649 Z " />
<glyph glyph-name="degree" unicode="&#xb0;" horiz-adv-x="347" d="M174 444 C242 444 297 499 297 567 L297 576 C297 644 242 700 174 700 C105 700 50 644 50 576 L50 567 C50 499 105 444 174 444 L174 444 Z M174 640 C209 640 237 611 237 576 L237 567 C237 532 209 504 174 504 C138 504 110 532 110 567 L110 576 C110 611 138 640 174 640 L174 640 Z " />
<glyph glyph-name="plusminus" unicode="&#xb1;" horiz-adv-x="450" d="M70 136 L380 136 C391.039 136 400 144.961 400 156 L400 176 C400 187.039 391.039 196 380 196 L275 196 C263.961 196 255 204.961 255 216 L255 317 C255 328.039 263.961 337 275 337 L380 337 C391.039 337 400 345.961 400 357 L400 377 C400 388.039 391.039 397 380 397 L275 397 C263.961 397 255 405.961 255 417 L255 522 C255 533.039 246.039 542 235 542 L215 542 C203.961 542 195 533.039 195 522 L195 417 C195 405.961 186.039 397 175 397 L70 397 C58.9606 397 50 388.039 50 377 L50 357 C50 345.961 58.9606 337 70 337 L175 337 C186.039 337 195 328.039 195 317 L195 216 C195 204.961 186.039 196 175 196 L70 196 C58.9606 196 50 187.039 50 176 L50 156 C50 144.961 58.9606 136 70 136 L70 136 Z " />
<glyph glyph-name="acute" unicode="&#xb4;" horiz-adv-x="240" d="M124.057 693.537 L55.278 618.74 C53.3061 616.595 50 608.116 50 605.202 L50 601 C50 594.376 55.3764 589 62 589 L100.294 589 C103.811 589 112.536 592.798 114.932 595.372 L184.638 670.241 C186.655 672.407 190 680.909 190 683.869 L190 688 C190 694.624 184.624 700 178 700 L138.779 700 C135.212 700 126.472 696.163 124.057 693.537 L124.057 693.537 Z " />
<glyph glyph-name="paragraph" unicode="&#xb6;" horiz-adv-x="614" d="M374 20 L374 621 C374 632.039 382.961 641 394 641 L484 641 C495.039 641 504 632.039 504 621 L504 20 C504 8.9606 512.961 0 524 0 L544 0 C555.039 0 564 8.9606 564 20 L564 681 C564 692.039 555.039 701 544 701 L257 701 C143 701 50 608 50 494 C50 380 143 287 257 287 L294 287 C305.039 287 314 278.039 314 267 L314 20 C314 8.9606 322.961 0 334 0 L354 0 C365.039 0 374 8.9606 374 20 L374 20 Z M110 494 C110 575 176 641 257 641 L294 641 C305.039 641 314 632.039 314 621 L314 367 C314 355.961 305.039 347 294 347 L257 347 C176 347 110 413 110 494 L110 494 Z " />
<glyph glyph-name="cedilla" unicode="&#xb8;" horiz-adv-x="272" d="M123 -191 C151 -191 177 -179 197 -159 C222 -132 229 -95 214 -62 C207 -46 196 -32 182 -23 C173.875 -17.3125 164.43 -12.9453 154.737 -10.4348 C151.862 -9.69023 148 -5.88689 148 -2.91724 L148 0.5 C148 5.74372 143.744 10 138.5 10 L108 10 C96.9606 10 88 1.0394 88 -10 L88 -47 C88 -58.0394 96.9606 -67 108 -67 L131 -67 C155 -67 169 -96 154 -118 C146 -129 132 -131 123 -131 C113.4 -131 104.44 -128.44 97.144 -122.808 C94.9769 -121.135 89.7059 -120.349 87.793 -122.307 L59.3876 -151.389 C53.5194 -157.397 53.3955 -164.71 60.0602 -169.819 C77.7222 -183.361 99.6667 -191 123 -191 L123 -191 Z " />
<glyph glyph-name="ordmasculine" unicode="&#xba;" horiz-adv-x="347" d="M174 339 C242 339 297 394 297 462 L297 576 C297 644 242 700 174 700 C105 700 50 644 50 576 L50 462 C50 394 105 339 174 339 L174 339 Z M174 640 C209 640 237 611 237 576 L237 462 C237 427 209 399 174 399 C138 399 110 427 110 462 L110 576 C110 611 138 640 174 640 L174 640 Z " />
<glyph glyph-name="guillemotright" unicode="&#xbb;" horiz-adv-x="570" d="M272.16 518.633 C283.653 517.163 296.143 511.286 309 501 L442.84 384.001 C452.231 375.791 452.257 362.18 442.896 353.935 L309 236 C296.143 225.714 284.02 219.102 272.003 217.423 C268.706 216.962 266 213.329 266 210 L266 171.5 C266 162.339 271.982 156.768 281.047 158.092 C304.419 161.506 326.55 172.85 348 191 L513.045 333.015 C515.955 335.519 520 344.337 520 348.176 L520 389.749 C520 393.64 515.916 402.471 512.95 404.99 L347 546 C325.846 564.615 302.902 575.355 279.38 578.219 C270.774 579.267 266.456 573.67 266.383 565 L266.054 525.5 C266.028 522.364 269.049 519.03 272.16 518.633 L272.16 518.633 Z M56.1603 518.633 C67.6531 517.163 80.1429 511.286 93 501 L226.84 384.001 C236.231 375.791 236.257 362.18 226.896 353.935 L93 236 C80.1429 225.714 68.0204 219.102 56.0029 217.423 C52.7059 216.962 50 213.329 50 210 L50 171.5 C50 162.339 55.9823 156.768 65.0466 158.092 C88.4194 161.506 110.55 172.85 132 191 L297.045 333.015 C299.955 335.519 304 344.337 304 348.176 L304 389.749 C304 393.64 299.916 402.471 296.95 404.99 L131 546 C109.846 564.615 86.9024 575.355 63.3803 578.219 C54.7743 579.267 50.4556 573.67 50.3833 565 L50.0542 525.5 C50.028 522.364 53.0495 519.03 56.1603 518.633 L56.1603 518.633 Z " />
<glyph glyph-name="questiondown" unicode="&#xbf;" horiz-adv-x="406" d="M196 540 L216 540 C227.039 540 236 531.039 236 520 L236 476 C236 449 229 423 215 399 L123 241 C114 227 110 210 110 194 L110 153 C110 101 152 60 203 60 C254 60 296 101 296 153 L296 225 C296 236.039 304.961 245 316 245 L336 245 C347.039 245 356 236.039 356 225 L356 153 C356 68 287 0 203 0 C119 0 50 68 50 153 L50 194 C50 221 57 248 71 271 L163 430 C172 444 176 460 176 476 L176 520 C176 531.039 184.961 540 196 540 L196 540 Z M203 613 C230 613 251 635 251 661 C251 688 230 709 203 709 C177 709 155 688 155 661 C155 635 177 613 203 613 L203 613 Z " />
<glyph glyph-name="Agrave" unicode="&#xc0;" horiz-adv-x="450" d="M400 20 L400 95 C400 150 392 206 381 261 L293.304 684.059 C291.518 692.675 282.519 700 273.721 700 L176.215 700 C167.458 700 158.458 692.703 156.647 684.136 L67 260 C56 206 50 151 50 95 L50 20 C50 8.9606 58.9606 0 70 0 L90 0 C101.039 0 110 8.9606 110 20 L110 95 C110 112.769 110.716 129.822 111.542 146.766 C111.832 152.707 118.227 158.047 124.034 159.339 C197.551 175.688 258.703 116.315 332.028 131.595 C335.42 132.301 338.287 129.155 338.464 125.694 C339 115.16 339 104.75 339 95 L339 20 C339 8.9606 347.961 0 359 0 L380 0 C391.039 0 400 8.9606 400 20 L400 20 Z M244.323 624.088 L307.651 320.825 C310.486 307.25 303.081 298.283 289.232 299.021 C247.571 301.242 210.259 323.736 171.465 326.373 C159.886 327.16 145.627 341.367 148 352.727 L204.677 624.089 C206.472 632.686 215.472 640 224.254 640 L224.745 640 C233.528 640 242.527 632.686 244.323 624.088 L244.323 624.088 Z M145.863 269.805 C206.308 272.706 253.03 230.34 313.495 239.844 C317.549 240.482 324.96 236.892 325.707 232.857 C327.683 222.19 329.574 211.524 331.085 200.857 C331.748 196.174 330.944 193.532 326.399 192.223 C261.328 173.489 205.714 223.336 142.136 223.187 C131.576 223.162 122.802 234.171 125 244.5 L127.206 254.866 C128.918 262.913 137.645 269.411 145.863 269.805 L145.863 269.805 Z M114 888 L114 883.869 C114 880.909 117.345 872.407 119.362 870.241 L189.068 795.372 C191.464 792.798 200.189 789 203.706 789 L242 789 C248.624 789 254 794.376 254 801 L254 805.202 C254 808.116 250.694 816.595 248.722 818.74 L179.943 893.537 C177.528 896.163 168.788 900 165.221 900 L126 900 C119.376 900 114 894.624 114 888 L114 888 Z " />
<glyph glyph-name="Aacute" unicode="&#xc1;" horiz-adv-x="450" d="M400 20 L400 95 C400 150 392 206 381 261 L293.304 684.059 C291.518 692.675 282.519 700 273.721 700 L176.215 700 C167.458 700 158.458 692.703 156.647 684.136 L67 260 C56 206 50 151 50 95 L50 20 C50 8.9606 58.9606 0 70 0 L90 0 C101.039 0 110 8.9606 110 20 L110 95 C110 112.769 110.716 129.822 111.542 146.766 C111.832 152.707 118.227 158.047 124.034 159.339 C197.551 175.688 258.703 116.315 332.028 131.595 C335.42 132.301 338.287 129.155 338.464 125.694 C339 115.16 339 104.75 339 95 L339 20 C339 8.9606 347.961 0 359 0 L380 0 C391.039 0 400 8.9606 400 20 L400 20 Z M244.323 624.088 L307.651 320.825 C310.486 307.25 303.081 298.283 289.232 299.021 C247.571 301.242 210.259 323.736 171.465 326.373 C159.886 327.16 145.627 341.367 148 352.727 L204.677 624.089 C206.472 632.686 215.472 640 224.254 640 L224.745 640 C233.528 640 242.527 632.686 244.323 624.088 L244.323 624.088 Z M145.863 269.805 C206.308 272.706 253.03 230.34 313.495 239.844 C317.549 240.482 324.96 236.892 325.707 232.857 C327.683 222.19 329.574 211.524 331.085 200.857 C331.748 196.174 330.944 193.532 326.399 192.223 C261.328 173.489 205.714 223.336 142.136 223.187 C131.576 223.162 122.802 234.171 125 244.5 L127.206 254.866 C128.918 262.913 137.645 269.411 145.863 269.805 L145.863 269.805 Z M268.057 893.537 L199.278 818.74 C197.306 816.595 194 808.116 194 805.202 L194 801 C194 794.376 199.376 789 206 789 L244.294 789 C247.811 789 256.536 792.798 258.932 795.372 L328.638 870.241 C330.655 872.407 334 880.909 334 883.869 L334 888 C334 894.624 328.624 900 322 900 L282.779 900 C279.212 900 270.472 896.163 268.057 893.537 L268.057 893.537 Z " />
<glyph glyph-name="Acircumflex" unicode="&#xc2;" horiz-adv-x="450" d="M400 20 L400 95 C400 150 392 206 381 261 L293.304 684.059 C291.518 692.675 282.519 700 273.721 700 L176.215 700 C167.458 700 158.458 692.703 156.647 684.136 L67 260 C56 206 50 151 50 95 L50 20 C50 8.9606 58.9606 0 70 0 L90 0 C101.039 0 110 8.9606 110 20 L110 95 C110 112.769 110.716 129.822 111.542 146.766 C111.832 152.707 118.227 158.047 124.034 159.339 C197.551 175.688 258.703 116.315 332.028 131.595 C335.42 132.301 338.287 129.155 338.464 125.694 C339 115.16 339 104.75 339 95 L339 20 C339 8.9606 347.961 0 359 0 L380 0 C391.039 0 400 8.9606 400 20 L400 20 Z M244.323 624.088 L307.651 320.825 C310.486 307.25 303.081 298.283 289.232 299.021 C247.571 301.242 210.259 323.736 171.465 326.373 C159.886 327.16 145.627 341.367 148 352.727 L204.677 624.089 C206.472 632.686 215.472 640 224.254 640 L224.745 640 C233.528 640 242.527 632.686 244.323 624.088 L244.323 624.088 Z M145.863 269.805 C206.308 272.706 253.03 230.34 313.495 239.844 C317.549 240.482 324.96 236.892 325.707 232.857 C327.683 222.19 329.574 211.524 331.085 200.857 C331.748 196.174 330.944 193.532 326.399 192.223 C261.328 173.489 205.714 223.336 142.136 223.187 C131.576 223.162 122.802 234.171 125 244.5 L127.206 254.866 C128.918 262.913 137.645 269.411 145.863 269.805 L145.863 269.805 Z M337 813 L335.634 816.642 C335.236 817.704 331.436 823.412 330.61 824.189 L255.775 894.569 C253.591 896.623 245.07 900 242.073 900 L206.927 900 C203.93 900 195.409 896.623 193.225 894.569 L118.39 824.189 C117.564 823.412 113.764 817.704 113.366 816.642 L112 813 C110.345 808.586 112.543 803.545 116.903 801.754 L152.848 786.991 C159.004 784.463 169.642 786.525 174.407 791.17 L210.655 826.504 C218.293 833.949 230.757 834.001 238.457 826.62 L275.537 791.072 C280.327 786.48 290.973 784.498 297.094 787.057 L332.117 801.704 C336.465 803.522 338.655 808.587 337 813 L337 813 Z " />
<glyph glyph-name="Atilde" unicode="&#xc3;" horiz-adv-x="450" d="M400 20 L400 95 C400 150 392 206 381 261 L293.304 684.059 C291.518 692.675 282.519 700 273.721 700 L176.215 700 C167.458 700 158.458 692.703 156.647 684.136 L67 260 C56 206 50 151 50 95 L50 20 C50 8.9606 58.9606 0 70 0 L90 0 C101.039 0 110 8.9606 110 20 L110 95 C110 112.769 110.716 129.822 111.542 146.766 C111.832 152.707 118.227 158.047 124.034 159.339 C197.551 175.688 258.703 116.315 332.028 131.595 C335.42 132.301 338.287 129.155 338.464 125.694 C339 115.16 339 104.75 339 95 L339 20 C339 8.9606 347.961 0 359 0 L380 0 C391.039 0 400 8.9606 400 20 L400 20 Z M244.323 624.088 L307.651 320.825 C310.486 307.25 303.081 298.283 289.232 299.021 C247.571 301.242 210.259 323.736 171.465 326.373 C159.886 327.16 145.627 341.367 148 352.727 L204.677 624.089 C206.472 632.686 215.472 640 224.254 640 L224.745 640 C233.528 640 242.527 632.686 244.323 624.088 L244.323 624.088 Z M145.863 269.805 C206.308 272.706 253.03 230.34 313.495 239.844 C317.549 240.482 324.96 236.892 325.707 232.857 C327.683 222.19 329.574 211.524 331.085 200.857 C331.748 196.174 330.944 193.532 326.399 192.223 C261.328 173.489 205.714 223.336 142.136 223.187 C131.576 223.162 122.802 234.171 125 244.5 L127.206 254.866 C128.918 262.913 137.645 269.411 145.863 269.805 L145.863 269.805 Z M307 792 C327.4 796.25 344.91 804.112 368.128 827.256 C376.503 835.604 374.722 846.459 365.798 854.219 L349.837 868.099 C342.945 874.091 328.642 873.849 321.549 868.096 C290.281 842.734 259.875 849.625 231 868 C182.4 898.6 122.46 883.03 81.069 843.16 C71.6646 834.101 74.7703 824.164 85.3958 816.574 L105.117 802.488 C110.567 798.595 121.244 799.37 126.17 803.908 C145.365 821.59 174.35 832.3 199 817 C227 798 268 785 307 792 L307 792 Z " />
<glyph glyph-name="Adieresis" unicode="&#xc4;" horiz-adv-x="451" d="M340 20 L340 95 C340 104.75 340 115.16 339.464 125.694 C339.287 129.155 336.42 132.301 333.028 131.595 C259.703 116.315 198.551 175.688 125.034 159.339 C119.227 158.047 112.832 152.707 112.542 146.766 C111.716 129.822 111 112.769 111 95 L111 20 C111 8.9606 102.039 0 91 0 L71 0 C59.9606 0 51 8.9606 51 20 L51 95 C51 151 57 206 68 260 L157.647 684.136 C159.458 692.703 168.458 700 177.215 700 L274.721 700 C283.519 700 292.518 692.675 294.304 684.059 L382 261 C393 206 401 150 401 95 L401 20 C401 8.9606 392.039 0 381 0 L360 0 C348.961 0 340 8.9606 340 20 L340 20 Z M205.677 624.089 L149 352.727 C146.627 341.367 160.886 327.16 172.465 326.373 C211.259 323.736 248.571 301.242 290.232 299.021 C304.081 298.283 311.486 307.25 308.651 320.825 L245.323 624.088 C243.527 632.686 234.528 640 225.745 640 L225.254 640 C216.472 640 207.472 632.686 205.677 624.089 L205.677 624.089 Z M143.136 223.187 C206.714 223.336 262.328 173.489 327.399 192.223 C331.944 193.532 332.748 196.174 332.085 200.857 C330.574 211.524 328.683 222.19 326.707 232.857 C325.96 236.892 318.549 240.482 314.495 239.844 C254.03 230.34 207.308 272.706 146.863 269.805 C138.645 269.411 129.918 262.913 128.206 254.866 L126 244.5 C123.802 234.171 132.576 223.162 143.136 223.187 L143.136 223.187 Z M304 837 C304 810 326 789 352 789 C379 789 400 810 400 837 C400 863 379 885 352 885 C326 885 304 863 304 837 L304 837 Z M50 837 C50 810 72 789 98 789 C125 789 146 810 146 837 C146 863 125 885 98 885 C72 885 50 863 50 837 L50 837 Z " />
<glyph glyph-name="Aring" unicode="&#xc5;" horiz-adv-x="450" d="M400 20 L400 95 C400 150 392 206 381 261 L293.304 684.059 C291.518 692.675 282.519 700 273.721 700 L176.215 700 C167.458 700 158.458 692.703 156.647 684.136 L67 260 C56 206 50 151 50 95 L50 20 C50 8.9606 58.9606 0 70 0 L90 0 C101.039 0 110 8.9606 110 20 L110 95 C110 112.769 110.716 129.822 111.542 146.766 C111.832 152.707 118.227 158.047 124.034 159.339 C197.551 175.688 258.703 116.315 332.028 131.595 C335.42 132.301 338.287 129.155 338.464 125.694 C339 115.16 339 104.75 339 95 L339 20 C339 8.9606 347.961 0 359 0 L380 0 C391.039 0 400 8.9606 400 20 L400 20 Z M244.323 624.088 L307.651 320.825 C310.486 307.25 303.081 298.283 289.232 299.021 C247.571 301.242 210.259 323.736 171.465 326.373 C159.886 327.16 145.627 341.367 148 352.727 L204.677 624.089 C206.472 632.686 215.472 640 224.254 640 L224.745 640 C233.528 640 242.527 632.686 244.323 624.088 L244.323 624.088 Z M145.863 269.805 C206.308 272.706 253.03 230.34 313.495 239.844 C317.549 240.482 324.96 236.892 325.707 232.857 C327.683 222.19 329.574 211.524 331.085 200.857 C331.748 196.174 330.944 193.532 326.399 192.223 C261.328 173.489 205.714 223.336 142.136 223.187 C131.576 223.162 122.802 234.171 125 244.5 L127.206 254.866 C128.918 262.913 137.645 269.411 145.863 269.805 L145.863 269.805 Z M225 789 C281 789 327 835 327 891 C327 948 281 994 225 994 C168 994 122 948 122 891 C122 835 168 789 225 789 L225 789 Z M225 934 C248 934 267 915 267 891 C267 868 248 849 225 849 C201 849 182 868 182 891 C182 915 201 934 225 934 L225 934 Z " />
<glyph glyph-name="AE" unicode="&#xc6;" horiz-adv-x="618" d="M548 60 L416.5 60 C406.841 60 399 67.8405 399 77.5 L399 95 C399 150 394 206 385 260 L375.939 313.67 C373.795 326.368 382.782 337 395.66 337 L468 337 C479.039 337 488 345.961 488 357 L488 377 C488 388.039 479.039 397 468 397 L377.908 397 C368.705 397 359.718 404.598 358.187 413.673 L323.936 616.673 C321.794 629.369 330.781 640 343.657 640 L488 640 C499.039 640 508 648.961 508 660 L508 680 C508 691.039 499.039 700 488 700 L194.641 700 C186.262 700 177.25 692.952 175.231 684.819 L70 261 C57 207 50 151 50 95 L50 20 C50 8.9606 58.9606 0 70 0 L90 0 C101.039 0 110 8.9606 110 20 L110 95 C110 143.45 115.415 191.9 128.817 250.638 C129.87 255.255 134.924 262.083 139.315 263.854 C156.265 270.694 175 272.286 193 268 C204 265 217 258 228 252 C245 243 263 241 281 241 C293.75 241 306.5 242.445 319.25 245.949 C323.232 247.043 326.561 244.433 327.177 240.35 C334.488 191.9 339 143.45 339 95 L339 20 C339 8.9606 347.961 0 359 0 L434 0 L548 0 C559.039 0 568 8.9606 568 20 L568 40 C568 51.0394 559.039 60 548 60 L548 60 Z M261.784 623.737 L314.025 318.537 C315.28 311.204 311.511 305.172 304.231 303.637 C286.239 299.842 268.607 302.071 253 307 C238 312 224 322 207 326 C190.077 329.385 173.154 330.621 156.837 329.104 C152.18 328.671 149.198 332.793 150.333 337.331 L222.213 624.851 C224.241 632.963 233.254 640 241.616 640 L242.5 640 C251.477 640 260.269 632.585 261.784 623.737 L261.784 623.737 Z " />
<glyph glyph-name="Ccedilla" unicode="&#xc7;" horiz-adv-x="461" d="M234 -191 C262 -191 288 -179 308 -159 C333 -132 340 -95 325 -62 C318 -46 307 -32 293 -23 C284.25 -16.875 273.969 -12.2812 263.496 -9.88867 C261.274 -9.38108 259 -6.77906 259 -4.5 C259 -2.12705 262.985 0.359268 265.34 0.64425 C341.003 9.79725 401.093 69.8183 409.89 145.715 C411.307 157.944 403.31 165 391 165 L371 165 C362.215 165 350.618 152.436 348.824 143.836 C338.844 95.9844 295.75 60 245 60 L215 60 C157 60 110 107 110 165 L110 534 C110 592 157 640 215 640 L245 640 C295.75 640 338.844 612.438 348.824 566.691 C350.676 558.205 362.314 546 371 546 L391 546 C403.404 546 411.308 553.679 409.775 565.988 C399.799 646.096 330.1 700 245 700 L215 700 C124 700 50 625 50 534 L50 165 C50 85.45 105.616 18.7344 180.44 2.84287 C188.995 1.0259 199 -9.43977 199 -18.1857 L199 -47 C199 -58.0394 207.961 -67 219 -67 L242 -67 C266 -67 280 -96 265 -118 C257 -129 243 -131 234 -131 C224.4 -131 215.44 -128.44 208.144 -122.808 C205.977 -121.135 200.706 -120.349 198.793 -122.307 L170.388 -151.389 C164.519 -157.397 164.395 -164.71 171.06 -169.819 C188.722 -183.361 210.667 -191 234 -191 L234 -191 Z " />
<glyph glyph-name="Egrave" unicode="&#xc8;" horiz-adv-x="400" d="M248.664 397 L130 397 C118.961 397 110 405.961 110 417 L110 620 C110 631.039 118.961 640 130 640 L330 640 C341.039 640 350 648.961 350 660 L350 680 C350 691.039 341.039 700 330 700 L70 700 C58.9606 700 50 691.039 50 680 L50 20 C50 8.9606 58.9606 0 70 0 L330 0 C341.039 0 350 8.9606 350 20 L350 40 C350 51.0394 341.039 60 330 60 L130 60 C118.961 60 110 68.9606 110 80 L110 317 C110 328.039 118.961 337 130 337 L248.331 337 C259.186 337 268.147 345.813 268.328 356.667 L268.661 376.667 C268.848 387.889 259.887 397 248.664 397 L248.664 397 Z M90 888 L90 883.869 C90 880.909 93.3453 872.407 95.3621 870.241 L165.068 795.372 C167.464 792.798 176.189 789 179.706 789 L218 789 C224.624 789 230 794.376 230 801 L230 805.202 C230 808.116 226.694 816.595 224.722 818.74 L155.943 893.537 C153.528 896.163 144.788 900 141.221 900 L102 900 C95.3764 900 90 894.624 90 888 L90 888 Z " />
<glyph glyph-name="Eacute" unicode="&#xc9;" horiz-adv-x="400" d="M248.664 397 L130 397 C118.961 397 110 405.961 110 417 L110 620 C110 631.039 118.961 640 130 640 L330 640 C341.039 640 350 648.961 350 660 L350 680 C350 691.039 341.039 700 330 700 L70 700 C58.9606 700 50 691.039 50 680 L50 20 C50 8.9606 58.9606 0 70 0 L330 0 C341.039 0 350 8.9606 350 20 L350 40 C350 51.0394 341.039 60 330 60 L130 60 C118.961 60 110 68.9606 110 80 L110 317 C110 328.039 118.961 337 130 337 L248.331 337 C259.186 337 268.147 345.813 268.328 356.667 L268.661 376.667 C268.848 387.889 259.887 397 248.664 397 L248.664 397 Z M244.057 893.537 L175.278 818.74 C173.306 816.595 170 808.116 170 805.202 L170 801 C170 794.376 175.376 789 182 789 L220.294 789 C223.811 789 232.536 792.798 234.932 795.372 L304.638 870.241 C306.655 872.407 310 880.909 310 883.869 L310 888 C310 894.624 304.624 900 298 900 L258.779 900 C255.212 900 246.472 896.163 244.057 893.537 L244.057 893.537 Z " />
<glyph glyph-name="Ecircumflex" unicode="&#xca;" horiz-adv-x="400" d="M248.664 397 L130 397 C118.961 397 110 405.961 110 417 L110 620 C110 631.039 118.961 640 130 640 L330 640 C341.039 640 350 648.961 350 660 L350 680 C350 691.039 341.039 700 330 700 L70 700 C58.9606 700 50 691.039 50 680 L50 20 C50 8.9606 58.9606 0 70 0 L330 0 C341.039 0 350 8.9606 350 20 L350 40 C350 51.0394 341.039 60 330 60 L130 60 C118.961 60 110 68.9606 110 80 L110 317 C110 328.039 118.961 337 130 337 L248.331 337 C259.186 337 268.147 345.813 268.328 356.667 L268.661 376.667 C268.848 387.889 259.887 397 248.664 397 L248.664 397 Z M312 813 L310.634 816.642 C310.236 817.704 306.436 823.412 305.61 824.189 L230.775 894.569 C228.591 896.623 220.07 900 217.073 900 L181.927 900 C178.93 900 170.409 896.623 168.225 894.569 L93.3905 824.189 C92.5642 823.412 88.764 817.704 88.3658 816.642 L87 813 C85.3449 808.586 87.543 803.545 91.9034 801.754 L127.848 786.991 C134.004 784.463 144.642 786.525 149.407 791.17 L185.655 826.504 C193.293 833.949 205.757 834.001 213.457 826.62 L250.537 791.072 C255.327 786.48 265.973 784.498 272.094 787.057 L307.117 801.704 C311.465 803.522 313.655 808.587 312 813 L312 813 Z " />
<glyph glyph-name="Edieresis" unicode="&#xcb;" horiz-adv-x="400" d="M248.331 337 L130 337 C118.961 337 110 328.039 110 317 L110 80 C110 68.9606 118.961 60 130 60 L330 60 C341.039 60 350 51.0394 350 40 L350 20 C350 8.9606 341.039 0 330 0 L70 0 C58.9606 0 50 8.9606 50 20 L50 680 C50 691.039 58.9606 700 70 700 L330 700 C341.039 700 350 691.039 350 680 L350 660 C350 648.961 341.039 640 330 640 L130 640 C118.961 640 110 631.039 110 620 L110 417 C110 405.961 118.961 397 130 397 L248.664 397 C259.887 397 268.848 387.889 268.661 376.667 L268.328 356.667 C268.147 345.813 259.186 337 248.331 337 L248.331 337 Z M279 837 C279 810 301 789 327 789 C354 789 375 810 375 837 C375 863 354 885 327 885 C301 885 279 863 279 837 L279 837 Z M25 837 C25 810 47 789 73 789 C100 789 121 810 121 837 C121 863 100 885 73 885 C47 885 25 863 25 837 L25 837 Z " />
<glyph glyph-name="Igrave" unicode="&#xcc;" horiz-adv-x="161" d="M111 20 L111 680 C111 691.039 102.039 700 91 700 L70 700 C58.9606 700 50 691.039 50 680 L50 20 C50 8.9606 58.9606 0 70 0 L91 0 C102.039 0 111 8.9606 111 20 L111 20 Z M-30 888 L-30 883.869 C-30 880.909 -26.6547 872.407 -24.6379 870.241 L45.0678 795.372 C47.4643 792.798 56.1887 789 59.7057 789 L98 789 C104.624 789 110 794.376 110 801 L110 805.202 C110 808.116 106.694 816.595 104.722 818.74 L35.9426 893.537 C33.5281 896.163 24.7877 900 21.2206 900 L-18 900 C-24.6236 900 -30 894.624 -30 888 L-30 888 Z " />
<glyph glyph-name="Iacute" unicode="&#xcd;" horiz-adv-x="161" d="M111 20 L111 680 C111 691.039 102.039 700 91 700 L70 700 C58.9606 700 50 691.039 50 680 L50 20 C50 8.9606 58.9606 0 70 0 L91 0 C102.039 0 111 8.9606 111 20 L111 20 Z M124.057 893.537 L55.278 818.74 C53.3061 816.595 50 808.116 50 805.202 L50 801 C50 794.376 55.3764 789 62 789 L100.294 789 C103.811 789 112.536 792.798 114.932 795.372 L184.638 870.241 C186.655 872.407 190 880.909 190 883.869 L190 888 C190 894.624 184.624 900 178 900 L138.779 900 C135.212 900 126.472 896.163 124.057 893.537 L124.057 893.537 Z " />
<glyph glyph-name="Icircumflex" unicode="&#xce;" horiz-adv-x="161" d="M111 20 L111 680 C111 691.039 102.039 700 91 700 L70 700 C58.9606 700 50 691.039 50 680 L50 20 C50 8.9606 58.9606 0 70 0 L91 0 C102.039 0 111 8.9606 111 20 L111 20 Z M193 813 L191.634 816.642 C191.236 817.704 187.436 823.412 186.61 824.189 L111.775 894.569 C109.591 896.623 101.07 900 98.0728 900 L62.9272 900 C59.9295 900 51.409 896.623 49.2254 894.569 L-25.6095 824.189 C-26.4358 823.412 -30.236 817.704 -30.6342 816.642 L-32 813 C-33.6551 808.586 -31.457 803.545 -27.0966 801.754 L8.84814 786.991 C15.0038 784.463 25.6418 786.525 30.407 791.17 L66.6554 826.504 C74.2928 833.949 86.7574 834.001 94.4565 826.62 L131.537 791.072 C136.327 786.48 146.973 784.498 153.094 787.057 L188.117 801.704 C192.465 803.522 194.655 808.587 193 813 L193 813 Z " />
<glyph glyph-name="Idieresis" unicode="&#xcf;" horiz-adv-x="161" d="M50 20 L50 680 C50 691.039 58.9606 700 70 700 L91 700 C102.039 700 111 691.039 111 680 L111 20 C111 8.9606 102.039 0 91 0 L70 0 C58.9606 0 50 8.9606 50 20 L50 20 Z M159 837 C159 810 181 789 207 789 C234 789 255 810 255 837 C255 863 234 885 207 885 C181 885 159 863 159 837 L159 837 Z M-95 837 C-95 810 -73 789 -47 789 C-20 789 1 810 1 837 C1 863 -20 885 -47 885 C-73 885 -95 863 -95 837 L-95 837 Z " />
<glyph glyph-name="Eth" unicode="&#xd0;" horiz-adv-x="415" d="M109 473 L80 473 C68.9606 473 60 481.961 60 493 L60 620 C60 631.039 68.9606 640 80 640 L155 640 C238 640 305 574 305 491 L305 209 C305 127 238 60 155 60 L80 60 C68.9606 60 60 68.9606 60 80 L60 176 C60 187.039 51.0394 196 40 196 L20 196 C8.9606 196 0 187.039 0 176 L0 20 C0 8.9606 8.9606 0 20 0 L155 0 C271 0 365 94 365 209 L365 491 C365 607 271 700 155 700 L20 700 C8.9606 700 0 691.039 0 680 L0 493 C0 481.961 -8.9606 473 -20 473 L-50 473 C-61.0394 473 -70 464.039 -70 453 L-70 433 C-70 421.961 -61.0394 413 -50 413 L-20 413 C-8.9606 413 0 404.039 0 393 L0 356 C0 344.961 8.9606 336 20 336 L40 336 C51.0394 336 60 344.961 60 356 L60 393 C60 404.039 68.9606 413 80 413 L109 413 C120.039 413 129 421.961 129 433 L129 453 C129 464.039 120.039 473 109 473 L109 473 Z " />
<glyph glyph-name="Ntilde" unicode="&#xd1;" horiz-adv-x="462" d="M110 20 L110 636.5 C110 638.432 111.568 640 113.5 640 C115.358 640 117.449 638.421 117.957 636.633 L294.868 14.5294 C297.062 6.81545 306.086 0 314.105 0 L392 0 C403.039 0 412 8.9606 412 20 L412 680 C412 691.039 403.039 700 392 700 L372 700 C360.961 700 352 691.039 352 680 L352 63.5 C352 61.5681 350.432 60 348.5 60 C346.643 60 344.548 61.5793 344.038 63.3651 L166.147 685.498 C163.946 693.194 154.922 700 146.917 700 L70 700 C58.9606 700 50 691.039 50 680 L50 20 C50 8.9606 58.9606 0 70 0 L90 0 C101.039 0 110 8.9606 110 20 L110 20 Z M313 792 C333.4 796.25 350.91 804.112 374.128 827.256 C382.503 835.604 380.722 846.459 371.798 854.219 L355.837 868.099 C348.945 874.091 334.642 873.849 327.549 868.096 C296.281 842.734 265.875 849.625 237 868 C188.4 898.6 128.46 883.03 87.069 843.16 C77.6646 834.101 80.7703 824.164 91.3958 816.574 L111.117 802.488 C116.567 798.595 127.244 799.37 132.17 803.908 C151.365 821.59 180.35 832.3 205 817 C233 798 274 785 313 792 L313 792 Z " />
<glyph glyph-name="Ograve" unicode="&#xd2;" horiz-adv-x="542" d="M271 -5 C389 -9 495 97 491 215 L491 480 C494 601 388 700 271 700 C154 700 48 601 51 480 L51 215 C47 97 153 -9 271 -5 L271 -5 Z M271 640 C359 640 431 568 431 480 L431 215 C431 127 359 55 271 55 C183 55 111 127 111 215 L111 480 C111 568 183 640 271 640 L271 640 Z M161 888 L161 883.869 C161 880.909 164.345 872.407 166.362 870.241 L236.068 795.372 C238.464 792.798 247.189 789 250.706 789 L289 789 C295.624 789 301 794.376 301 801 L301 805.202 C301 808.116 297.694 816.595 295.722 818.74 L226.943 893.537 C224.528 896.163 215.788 900 212.221 900 L173 900 C166.376 900 161 894.624 161 888 L161 888 Z " />
<glyph glyph-name="Oacute" unicode="&#xd3;" horiz-adv-x="542" d="M271 -5 C389 -9 495 97 491 215 L491 480 C494 601 388 700 271 700 C154 700 48 601 51 480 L51 215 C47 97 153 -9 271 -5 L271 -5 Z M271 640 C359 640 431 568 431 480 L431 215 C431 127 359 55 271 55 C183 55 111 127 111 215 L111 480 C111 568 183 640 271 640 L271 640 Z M315.057 893.537 L246.278 818.74 C244.306 816.595 241 808.116 241 805.202 L241 801 C241 794.376 246.376 789 253 789 L291.294 789 C294.811 789 303.536 792.798 305.932 795.372 L375.638 870.241 C377.655 872.407 381 880.909 381 883.869 L381 888 C381 894.624 375.624 900 369 900 L329.779 900 C326.212 900 317.472 896.163 315.057 893.537 L315.057 893.537 Z " />
<glyph glyph-name="Ocircumflex" unicode="&#xd4;" horiz-adv-x="542" d="M271 -5 C389 -9 495 97 491 215 L491 480 C494 601 388 700 271 700 C154 700 48 601 51 480 L51 215 C47 97 153 -9 271 -5 L271 -5 Z M271 640 C359 640 431 568 431 480 L431 215 C431 127 359 55 271 55 C183 55 111 127 111 215 L111 480 C111 568 183 640 271 640 L271 640 Z M383 813 L381.634 816.642 C381.236 817.704 377.436 823.412 376.61 824.189 L301.775 894.569 C299.591 896.623 291.07 900 288.073 900 L252.927 900 C249.93 900 241.409 896.623 239.225 894.569 L164.39 824.189 C163.564 823.412 159.764 817.704 159.366 816.642 L158 813 C156.345 808.586 158.543 803.545 162.903 801.754 L198.848 786.991 C205.004 784.463 215.642 786.525 220.407 791.17 L256.655 826.504 C264.293 833.949 276.757 834.001 284.457 826.62 L321.537 791.072 C326.327 786.48 336.973 784.498 343.094 787.057 L378.117 801.704 C382.465 803.522 384.655 808.587 383 813 L383 813 Z " />
<glyph glyph-name="Otilde" unicode="&#xd5;" horiz-adv-x="542" d="M271 -5 C389 -9 495 97 491 215 L491 480 C494 601 388 700 271 700 C154 700 48 601 51 480 L51 215 C47 97 153 -9 271 -5 L271 -5 Z M271 640 C359 640 431 568 431 480 L431 215 C431 127 359 55 271 55 C183 55 111 127 111 215 L111 480 C111 568 183 640 271 640 L271 640 Z M353 792 C373.4 796.25 390.91 804.112 414.128 827.256 C422.503 835.604 420.722 846.459 411.798 854.219 L395.837 868.099 C388.945 874.091 374.642 873.849 367.549 868.096 C336.281 842.734 305.875 849.625 277 868 C228.4 898.6 168.46 883.03 127.069 843.16 C117.665 834.101 120.77 824.164 131.396 816.574 L151.117 802.488 C156.567 798.595 167.244 799.37 172.17 803.908 C191.365 821.59 220.35 832.3 245 817 C273 798 314 785 353 792 L353 792 Z " />
<glyph glyph-name="Odieresis" unicode="&#xd6;" horiz-adv-x="542" d="M271 -5 C153 -9 47 97 51 215 L51 480 C48 601 154 700 271 700 C388 700 494 601 491 480 L491 215 C495 97 389 -9 271 -5 L271 -5 Z M271 640 C183 640 111 568 111 480 L111 215 C111 127 183 55 271 55 C359 55 431 127 431 215 L431 480 C431 568 359 640 271 640 L271 640 Z M350 837 C350 810 372 789 398 789 C425 789 446 810 446 837 C446 863 425 885 398 885 C372 885 350 863 350 837 L350 837 Z M96 837 C96 810 118 789 144 789 C171 789 192 810 192 837 C192 863 171 885 144 885 C118 885 96 863 96 837 L96 837 Z " />
<glyph glyph-name="multiply" unicode="&#xd7;" horiz-adv-x="390" d="M283.858 497.858 L209.142 423.142 C201.336 415.336 188.664 415.336 180.858 423.142 L106.142 497.858 C98.3361 505.664 85.6639 505.664 77.8579 497.858 L64.1421 484.142 C56.3361 476.336 56.3361 463.664 64.1421 455.858 L138.858 381.142 C146.664 373.336 146.664 360.664 138.858 352.858 L64.1421 278.142 C56.3361 270.336 56.3361 257.664 64.1421 249.858 L77.8579 236.142 C85.6639 228.336 98.3361 228.336 106.142 236.142 L180.858 310.858 C188.664 318.664 201.336 318.664 209.142 310.858 L283.858 236.142 C291.664 228.336 304.336 228.336 312.142 236.142 L325.858 249.858 C333.664 257.664 333.664 270.336 325.858 278.142 L251.142 352.858 C243.336 360.664 243.336 373.336 251.142 381.142 L325.858 455.858 C333.664 463.664 333.664 476.336 325.858 484.142 L312.142 497.858 C304.336 505.664 291.664 505.664 283.858 497.858 L283.858 497.858 Z " />
<glyph glyph-name="Oslash" unicode="&#xd8;" horiz-adv-x="542" d="M212.723 1.85543 C231.445 -3.16025 250.871 -5.83871 271 -5 C389 -9 495 97 491 215 L491 480 C492.85 547.525 460.475 608.205 410.496 648.585 C405.094 652.949 400.247 665.275 402.296 671.91 L413.013 706.613 C416.317 717.313 410.275 728.557 399.529 731.707 L380.009 737.428 C369.517 740.504 358.422 734.507 355.246 724.045 L347.537 698.651 C345.672 692.507 339.234 688.692 333.08 690.523 C313.188 696.44 292.094 700 271 700 C154 700 48 601 51 480 L51 215 C49.15 146.55 83.2362 82.3781 135.055 41.4792 C140.542 37.1488 145.777 24.6188 143.761 17.926 L128.784 -31.7978 C125.591 -42.3968 131.61 -53.568 142.218 -56.7316 L160.889 -62.3003 C171.438 -65.4463 182.578 -59.4451 185.754 -48.9055 L198.669 -6.05239 C200.424 -0.230639 206.85 3.42888 212.723 1.85543 L212.723 1.85543 Z M271 640 C286.96 640 302.92 637.178 318.287 632.718 C323.518 631.2 325.838 626.13 324.271 620.914 L172.428 115.399 C168.867 103.544 157.465 101.164 149.387 110.544 C125.293 138.522 111 175.4 111 215 L111 480 C111 568 183 640 271 640 L271 640 Z M271 55 C256.13 55 241.261 57.0473 227.519 60.578 C222.806 61.789 220.015 66.3657 221.419 71.0247 L373.774 576.349 C377.058 587.242 388.118 589.164 395.216 580.272 C417.387 552.497 431 517.95 431 480 L431 215 C431 127 359 55 271 55 L271 55 Z " />
<glyph glyph-name="Ugrave" unicode="&#xd9;" horiz-adv-x="426" d="M50 157 C50 67 123 -6 213 -6 C303 -6 376 67 376 157 L376 680 C376 691.039 367.039 700 356 700 L336 700 C324.961 700 316 691.039 316 680 L316 157 C316 100 270 54 213 54 C156 54 110 100 110 157 L110 680 C110 691.039 101.039 700 90 700 L73.8532 700 C62.8951 700 53.9345 691.105 53.8538 680.147 L50 157 L50 157 Z M145 888 L145 883.869 C145 880.909 148.345 872.407 150.362 870.241 L220.068 795.372 C222.464 792.798 231.189 789 234.706 789 L273 789 C279.624 789 285 794.376 285 801 L285 805.202 C285 808.116 281.694 816.595 279.722 818.74 L210.943 893.537 C208.528 896.163 199.788 900 196.221 900 L157 900 C150.376 900 145 894.624 145 888 L145 888 Z " />
<glyph glyph-name="Uacute" unicode="&#xda;" horiz-adv-x="426" d="M50 157 C50 67 123 -6 213 -6 C303 -6 376 67 376 157 L376 680 C376 691.039 367.039 700 356 700 L336 700 C324.961 700 316 691.039 316 680 L316 157 C316 100 270 54 213 54 C156 54 110 100 110 157 L110 680 C110 691.039 101.039 700 90 700 L73.8532 700 C62.8951 700 53.9345 691.105 53.8538 680.147 L50 157 L50 157 Z M219.057 893.537 L150.278 818.74 C148.306 816.595 145 808.116 145 805.202 L145 801 C145 794.376 150.376 789 157 789 L195.294 789 C198.811 789 207.536 792.798 209.932 795.372 L279.638 870.241 C281.655 872.407 285 880.909 285 883.869 L285 888 C285 894.624 279.624 900 273 900 L233.779 900 C230.212 900 221.472 896.163 219.057 893.537 L219.057 893.537 Z " />
<glyph glyph-name="Ucircumflex" unicode="&#xdb;" horiz-adv-x="426" d="M50 157 C50 67 123 -6 213 -6 C303 -6 376 67 376 157 L376 680 C376 691.039 367.039 700 356 700 L336 700 C324.961 700 316 691.039 316 680 L316 157 C316 100 270 54 213 54 C156 54 110 100 110 157 L110 680 C110 691.039 101.039 700 90 700 L73.8532 700 C62.8951 700 53.9345 691.105 53.8538 680.147 L50 157 L50 157 Z M327 813 L325.634 816.642 C325.236 817.704 321.436 823.412 320.61 824.189 L245.775 894.569 C243.591 896.623 235.07 900 232.073 900 L196.927 900 C193.93 900 185.409 896.623 183.225 894.569 L108.39 824.189 C107.564 823.412 103.764 817.704 103.366 816.642 L102 813 C100.345 808.586 102.543 803.545 106.903 801.754 L142.848 786.991 C149.004 784.463 159.642 786.525 164.407 791.17 L200.655 826.504 C208.293 833.949 220.757 834.001 228.457 826.62 L265.537 791.072 C270.327 786.48 280.973 784.498 287.094 787.057 L322.117 801.704 C326.465 803.522 328.655 808.587 327 813 L327 813 Z " />
<glyph glyph-name="Udieresis" unicode="&#xdc;" horiz-adv-x="450" d="M83.8532 700 L100 700 C111.039 700 120 691.039 120 680 L120 157 C120 100 166 54 223 54 C280 54 326 100 326 157 L326 680 C326 691.039 334.961 700 346 700 L366 700 C377.039 700 386 691.039 386 680 L386 157 C386 67 313 -6 223 -6 C133 -6 60 67 60 157 L63.8538 680.147 C63.9345 691.105 72.8951 700 83.8532 700 L83.8532 700 Z M304 837 C304 810 326 789 352 789 C379 789 400 810 400 837 C400 863 379 885 352 885 C326 885 304 863 304 837 L304 837 Z M50 837 C50 810 72 789 98 789 C125 789 146 810 146 837 C146 863 125 885 98 885 C72 885 50 863 50 837 L50 837 Z " />
<glyph glyph-name="Yacute" unicode="&#xdd;" horiz-adv-x="470" d="M265 20 L265 274.624 C265 276.661 267.511 284.538 268.69 286.199 L309 343 C345 395 373 452 391 512 C408.1 566.9 417.91 623.42 419.701 680.831 C420.056 692.209 411.384 700 400 700 L380 700 C369.388 700 359.99 688.903 359.58 678.299 C357.625 627.781 348.875 578.125 334 530 C317 476 292 424 260 377 L244.453 354.907 C242.894 352.692 237.708 350 235 350 C232.277 350 227.135 352.694 225.585 354.933 L211 376 C178 424 153 475 136 530 C121.125 578.125 112.375 627.781 110.42 678.299 C110.01 688.903 100.612 700 90 700 L70 700 C58.6164 700 49.944 692.209 50.299 680.831 C52.09 623.42 61.9 566.9 79 512 C98 452 126 394 162 342 L201.434 285.141 C202.556 283.524 205 275.711 205 273.743 L205 20 C205 8.9606 213.961 0 225 0 L245 0 C256.039 0 265 8.9606 265 20 L265 20 Z M239.057 893.537 L170.278 818.74 C168.306 816.595 165 808.116 165 805.202 L165 801 C165 794.376 170.376 789 177 789 L215.294 789 C218.811 789 227.536 792.798 229.932 795.372 L299.638 870.241 C301.655 872.407 305 880.909 305 883.869 L305 888 C305 894.624 299.624 900 293 900 L253.779 900 C250.212 900 241.472 896.163 239.057 893.537 L239.057 893.537 Z " />
<glyph glyph-name="germandbls" unicode="&#xdf;" horiz-adv-x="433" d="M110 20 L110 542 C110 601 158 649 216 649 C272.05 649 318.172 605.68 322.645 549.048 C322.92 545.555 320.125 536.855 317.761 534.269 L200.239 405.731 C198.288 403.596 195 395.127 195 392.235 L195 355 C195 346.72 201.72 340 210 340 L225 340 C279 340 323 296 323 243 L323 158 C323 110.75 289.312 71.1562 244.715 61.9961 C236.077 60.2219 225 48.8183 225 40 L225 20 C225 7.61638 231.99 -0.332974 244.282 1.17492 C322.251 10.74 383 77.525 383 158 L383 243 C383 303.35 349.043 355.752 298.937 382.398 C286.742 388.883 283.075 407.153 292.416 417.328 L377.733 510.263 C379.699 512.404 383 520.881 383 523.788 L383 542 C383 634 308 709 216 709 C124 709 50 634 50 542 L50 20 C50 8.9606 58.9606 0 70 0 L90 0 C101.039 0 110 8.9606 110 20 L110 20 Z " />
<glyph glyph-name="agrave" unicode="&#xe0;" horiz-adv-x="449" d="M399 95 C399 150 393 206 381 261 L292.332 684.102 C290.532 692.691 281.532 700 272.757 700 L175.251 700 C166.471 700 157.471 692.687 155.674 684.093 L67 260 C55 206 50 151 50 95 L50 20 C50 8.9606 58.9606 0 70 0 L90 0 C101.039 0 110 8.9606 110 20 L110 95 C110 143.45 114.513 192.803 126.967 256.775 C128.269 263.462 133.062 268.38 139.737 269.738 C163.017 274.474 188.378 271.973 210 259 C238.9 242.85 269.967 234.647 305.045 238.077 C315.3 239.08 326.154 229.444 327.837 219.278 C334.665 178.045 339 135.8 339 95 L339.792 19.7895 C339.907 8.86689 348.867 0 359.791 0 L379 0 C390.039 0 399 8.9606 399 20 L399 95 L399 95 Z M243.358 624.143 L309.337 312.576 C310.995 304.745 306.506 298.507 298.55 297.626 C278.636 295.421 259.818 299.364 241 310 C216.25 324.85 190.139 330.852 160.982 331.375 C151.654 331.542 143.893 340.001 145.814 349.13 L203.659 624.117 C205.464 632.696 214.464 640 223.231 640 L223.792 640 C232.544 640 241.545 632.706 243.358 624.143 L243.358 624.143 Z M114 888 L114 883.869 C114 880.909 117.345 872.407 119.362 870.241 L189.068 795.372 C191.464 792.798 200.189 789 203.706 789 L242 789 C248.624 789 254 794.376 254 801 L254 805.202 C254 808.116 250.694 816.595 248.722 818.74 L179.943 893.537 C177.528 896.163 168.788 900 165.221 900 L126 900 C119.376 900 114 894.624 114 888 L114 888 Z " />
<glyph glyph-name="aacute" unicode="&#xe1;" horiz-adv-x="449" d="M399 95 C399 150 393 206 381 261 L292.332 684.102 C290.532 692.691 281.532 700 272.757 700 L175.251 700 C166.471 700 157.471 692.687 155.674 684.093 L67 260 C55 206 50 151 50 95 L50 20 C50 8.9606 58.9606 0 70 0 L90 0 C101.039 0 110 8.9606 110 20 L110 95 C110 143.45 114.513 192.803 126.967 256.775 C128.269 263.462 133.062 268.38 139.737 269.738 C163.017 274.474 188.378 271.973 210 259 C238.9 242.85 269.967 234.647 305.045 238.077 C315.3 239.08 326.154 229.444 327.837 219.278 C334.665 178.045 339 135.8 339 95 L339.792 19.7895 C339.907 8.86689 348.867 0 359.791 0 L379 0 C390.039 0 399 8.9606 399 20 L399 95 L399 95 Z M243.358 624.143 L309.337 312.576 C310.995 304.745 306.506 298.507 298.55 297.626 C278.636 295.421 259.818 299.364 241 310 C216.25 324.85 190.139 330.852 160.982 331.375 C151.654 331.542 143.893 340.001 145.814 349.13 L203.659 624.117 C205.464 632.696 214.464 640 223.231 640 L223.792 640 C232.544 640 241.545 632.706 243.358 624.143 L243.358 624.143 Z M268.057 894.537 L199.278 819.74 C197.306 817.595 194 809.116 194 806.202 L194 802 C194 795.376 199.376 790 206 790 L244.294 790 C247.811 790 256.536 793.798 258.932 796.372 L328.638 871.241 C330.655 873.407 334 881.909 334 884.869 L334 889 C334 895.624 328.624 901 322 901 L282.779 901 C279.212 901 270.472 897.163 268.057 894.537 L268.057 894.537 Z " />
<glyph glyph-name="acircumflex" unicode="&#xe2;" horiz-adv-x="449" d="M399 95 C399 150 393 206 381 261 L292.332 684.102 C290.532 692.691 281.532 700 272.757 700 L175.251 700 C166.471 700 157.471 692.687 155.674 684.093 L67 260 C55 206 50 151 50 95 L50 20 C50 8.9606 58.9606 0 70 0 L90 0 C101.039 0 110 8.9606 110 20 L110 95 C110 143.45 114.513 192.803 126.967 256.775 C128.269 263.462 133.062 268.38 139.737 269.738 C163.017 274.474 188.378 271.973 210 259 C238.9 242.85 269.967 234.647 305.045 238.077 C315.3 239.08 326.154 229.444 327.837 219.278 C334.665 178.045 339 135.8 339 95 L339.792 19.7895 C339.907 8.86689 348.867 0 359.791 0 L379 0 C390.039 0 399 8.9606 399 20 L399 95 L399 95 Z M243.358 624.143 L309.337 312.576 C310.995 304.745 306.506 298.507 298.55 297.626 C278.636 295.421 259.818 299.364 241 310 C216.25 324.85 190.139 330.852 160.982 331.375 C151.654 331.542 143.893 340.001 145.814 349.13 L203.659 624.117 C205.464 632.696 214.464 640 223.231 640 L223.792 640 C232.544 640 241.545 632.706 243.358 624.143 L243.358 624.143 Z M337 820 L335.634 823.642 C335.236 824.704 331.436 830.412 330.61 831.189 L255.775 901.569 C253.591 903.623 245.07 907 242.073 907 L206.927 907 C203.93 907 195.409 903.623 193.225 901.569 L118.39 831.189 C117.564 830.412 113.764 824.704 113.366 823.642 L112 820 C110.345 815.586 112.543 810.545 116.903 808.754 L152.848 793.991 C159.004 791.463 169.642 793.525 174.407 798.17 L210.655 833.504 C218.293 840.949 230.757 841.001 238.457 833.62 L275.537 798.072 C280.327 793.48 290.973 791.498 297.094 794.057 L332.117 808.704 C336.465 810.522 338.655 815.587 337 820 L337 820 Z " />
<glyph glyph-name="atilde" unicode="&#xe3;" horiz-adv-x="449" d="M399 95 C399 150 393 206 381 261 L292.332 684.102 C290.532 692.691 281.532 700 272.757 700 L175.251 700 C166.471 700 157.471 692.687 155.674 684.093 L67 260 C55 206 50 151 50 95 L50 20 C50 8.9606 58.9606 0 70 0 L90 0 C101.039 0 110 8.9606 110 20 L110 95 C110 143.45 114.513 192.803 126.967 256.775 C128.269 263.462 133.062 268.38 139.737 269.738 C163.017 274.474 188.378 271.973 210 259 C238.9 242.85 269.967 234.647 305.045 238.077 C315.3 239.08 326.154 229.444 327.837 219.278 C334.665 178.045 339 135.8 339 95 L339.792 19.7895 C339.907 8.86689 348.867 0 359.791 0 L379 0 C390.039 0 399 8.9606 399 20 L399 95 L399 95 Z M243.358 624.143 L309.337 312.576 C310.995 304.745 306.506 298.507 298.55 297.626 C278.636 295.421 259.818 299.364 241 310 C216.25 324.85 190.139 330.852 160.982 331.375 C151.654 331.542 143.893 340.001 145.814 349.13 L203.659 624.117 C205.464 632.696 214.464 640 223.231 640 L223.792 640 C232.544 640 241.545 632.706 243.358 624.143 L243.358 624.143 Z M307 797 C327.4 801.25 344.91 809.112 368.128 832.256 C376.503 840.604 374.722 851.459 365.798 859.219 L349.837 873.099 C342.945 879.091 328.642 878.849 321.549 873.096 C290.281 847.734 259.875 854.625 231 873 C182.4 903.6 122.46 888.03 81.069 848.16 C71.6646 839.101 74.7703 829.164 85.3958 821.574 L105.117 807.488 C110.567 803.595 121.244 804.37 126.17 808.908 C145.365 826.59 174.35 837.3 199 822 C227 803 268 790 307 797 L307 797 Z " />
<glyph glyph-name="adieresis" unicode="&#xe4;" horiz-adv-x="450" d="M380 0 L360.791 0 C349.867 0 340.907 8.86689 340.792 19.7895 L340 95 C340 135.8 335.665 178.045 328.837 219.279 C327.154 229.444 316.3 239.08 306.045 238.077 C270.967 234.647 239.9 242.85 211 259 C189.378 271.973 164.017 274.474 140.737 269.738 C134.062 268.38 129.269 263.462 127.967 256.775 C115.512 192.803 111 143.45 111 95 L111 20 C111 8.9606 102.039 0 91 0 L71 0 C59.9606 0 51 8.9606 51 20 L51 95 C51 151 56 206 68 260 L156.674 684.093 C158.471 692.687 167.471 700 176.251 700 L273.757 700 C282.532 700 291.532 692.691 293.332 684.102 L382 261 C394 206 400 150 400 95 L400 20 C400 8.9606 391.039 0 380 0 L380 0 Z M204.659 624.117 L146.814 349.13 C144.893 340.001 152.654 331.542 161.982 331.375 C191.139 330.852 217.25 324.85 242 310 C260.818 299.364 279.636 295.421 299.55 297.626 C307.506 298.507 311.995 304.745 310.337 312.576 L244.358 624.143 C242.545 632.706 233.544 640 224.792 640 L224.231 640 C215.464 640 206.464 632.696 204.659 624.117 L204.659 624.117 Z M304 838 C304 811 326 790 352 790 C379 790 400 811 400 838 C400 864 379 886 352 886 C326 886 304 864 304 838 L304 838 Z M50 838 C50 811 72 790 98 790 C125 790 146 811 146 838 C146 864 125 886 98 886 C72 886 50 864 50 838 L50 838 Z " />
<glyph glyph-name="aring" unicode="&#xe5;" horiz-adv-x="449" d="M399 95 C399 150 393 206 381 261 L292.332 684.102 C290.532 692.691 281.532 700 272.757 700 L175.251 700 C166.471 700 157.471 692.687 155.674 684.093 L67 260 C55 206 50 151 50 95 L50 20 C50 8.9606 58.9606 0 70 0 L90 0 C101.039 0 110 8.9606 110 20 L110 95 C110 143.45 114.513 192.803 126.967 256.775 C128.269 263.462 133.062 268.38 139.737 269.738 C163.017 274.474 188.378 271.973 210 259 C238.9 242.85 269.967 234.647 305.045 238.077 C315.3 239.08 326.154 229.444 327.837 219.278 C334.665 178.045 339 135.8 339 95 L339.792 19.7895 C339.907 8.86689 348.867 0 359.791 0 L379 0 C390.039 0 399 8.9606 399 20 L399 95 L399 95 Z M243.358 624.143 L309.337 312.576 C310.995 304.745 306.506 298.507 298.55 297.626 C278.636 295.421 259.818 299.364 241 310 C216.25 324.85 190.139 330.852 160.982 331.375 C151.654 331.542 143.893 340.001 145.814 349.13 L203.659 624.117 C205.464 632.696 214.464 640 223.231 640 L223.792 640 C232.544 640 241.545 632.706 243.358 624.143 L243.358 624.143 Z M225 789 C281 789 327 835 327 891 C327 948 281 994 225 994 C168 994 122 948 122 891 C122 835 168 789 225 789 L225 789 Z M225 934 C248 934 267 915 267 891 C267 868 248 849 225 849 C201 849 182 868 182 891 C182 915 201 934 225 934 L225 934 Z " />
<glyph glyph-name="ccedilla" unicode="&#xe7;" horiz-adv-x="415" d="M221 -191 C249 -191 275 -179 295 -159 C320 -132 327 -95 312 -62 C305 -46 294 -32 280 -23 C271.875 -17.3125 262.43 -12.9453 252.737 -10.4348 C249.862 -9.69023 246 -5.88689 246 -2.91724 L246 -2.5 C246 0.826795 247.87 4.44243 251.068 5.3607 C316.518 24.1569 365 85.85 365 158 L365 164 C365 167.312 362.312 170 359 170 L311 170 C307.688 170 305 167.312 305 164 L305 158 C305 104 262 60 208 60 C154 60 110 104 110 158 L110 542 C110 596 154 640 208 640 C255.25 640 294.078 610.141 303.047 563.82 C304.746 555.042 316.059 543 325 543 L345 543 C357.357 543 365.316 550.19 363.841 562.458 C354.404 640.962 288.475 700 208 700 C121 700 50 629 50 542 L50 158 C50 84 100.482 21.9787 168.996 4.38583 C177.029 2.32308 186 -8.05211 186 -16.3459 L186 -47 C186 -58.0394 194.961 -67 206 -67 L229 -67 C253 -67 267 -96 252 -118 C244 -129 230 -131 221 -131 C211.4 -131 202.44 -128.44 195.144 -122.808 C192.977 -121.135 187.706 -120.349 185.793 -122.307 L157.388 -151.389 C151.519 -157.397 151.395 -164.71 158.06 -169.819 C175.722 -183.361 197.667 -191 221 -191 L221 -191 Z " />
<glyph glyph-name="egrave" unicode="&#xe8;" horiz-adv-x="400" d="M232 397 L130 397 C118.961 397 110 405.961 110 417 L110 620 C110 631.039 118.961 640 130 640 L330 640 C341.039 640 350 648.961 350 660 L350 680 C350 691.039 341.039 700 330 700 L70 700 C58.9606 700 50 691.039 50 680 L50 20 C50 8.9606 58.9606 0 70 0 L330 0 C341.039 0 350 8.9606 350 20 L350 40 C350 51.0394 341.039 60 330 60 L130 60 C118.961 60 110 68.9606 110 80 L110 317 C110 328.039 118.961 337 130 337 L232 337 C243.039 337 252 345.961 252 357 L252 377 C252 388.039 243.039 397 232 397 L232 397 Z M90 889 L90 884.869 C90 881.909 93.3453 873.407 95.3621 871.241 L165.068 796.372 C167.464 793.798 176.189 790 179.706 790 L218 790 C224.624 790 230 795.376 230 802 L230 806.202 C230 809.116 226.694 817.595 224.722 819.74 L155.943 894.537 C153.528 897.163 144.788 901 141.221 901 L102 901 C95.3764 901 90 895.624 90 889 L90 889 Z " />
<glyph glyph-name="eacute" unicode="&#xe9;" horiz-adv-x="400" d="M232 397 L130 397 C118.961 397 110 405.961 110 417 L110 620 C110 631.039 118.961 640 130 640 L330 640 C341.039 640 350 648.961 350 660 L350 680 C350 691.039 341.039 700 330 700 L70 700 C58.9606 700 50 691.039 50 680 L50 20 C50 8.9606 58.9606 0 70 0 L330 0 C341.039 0 350 8.9606 350 20 L350 40 C350 51.0394 341.039 60 330 60 L130 60 C118.961 60 110 68.9606 110 80 L110 317 C110 328.039 118.961 337 130 337 L232 337 C243.039 337 252 345.961 252 357 L252 377 C252 388.039 243.039 397 232 397 L232 397 Z M244.057 894.537 L175.278 819.74 C173.306 817.595 170 809.116 170 806.202 L170 802 C170 795.376 175.376 790 182 790 L220.294 790 C223.811 790 232.536 793.798 234.932 796.372 L304.638 871.241 C306.655 873.407 310 881.909 310 884.869 L310 889 C310 895.624 304.624 901 298 901 L258.779 901 C255.212 901 246.472 897.163 244.057 894.537 L244.057 894.537 Z " />
<glyph glyph-name="ecircumflex" unicode="&#xea;" horiz-adv-x="400" d="M232 397 L130 397 C118.961 397 110 405.961 110 417 L110 620 C110 631.039 118.961 640 130 640 L330 640 C341.039 640 350 648.961 350 660 L350 680 C350 691.039 341.039 700 330 700 L70 700 C58.9606 700 50 691.039 50 680 L50 20 C50 8.9606 58.9606 0 70 0 L330 0 C341.039 0 350 8.9606 350 20 L350 40 C350 51.0394 341.039 60 330 60 L130 60 C118.961 60 110 68.9606 110 80 L110 317 C110 328.039 118.961 337 130 337 L232 337 C243.039 337 252 345.961 252 357 L252 377 C252 388.039 243.039 397 232 397 L232 397 Z M312 821 L310.634 824.642 C310.236 825.704 306.436 831.412 305.61 832.189 L230.775 902.569 C228.591 904.623 220.07 908 217.073 908 L181.927 908 C178.93 908 170.409 904.623 168.225 902.569 L93.3905 832.189 C92.5642 831.412 88.764 825.704 88.3658 824.642 L87 821 C85.3449 816.586 87.543 811.545 91.9034 809.754 L127.848 794.991 C134.004 792.463 144.642 794.525 149.407 799.17 L185.655 834.504 C193.293 841.949 205.757 842.001 213.457 834.62 L250.537 799.072 C255.327 794.48 265.973 792.498 272.094 795.057 L307.117 809.704 C311.465 811.522 313.655 816.587 312 821 L312 821 Z " />
<glyph glyph-name="edieresis" unicode="&#xeb;" horiz-adv-x="400" d="M232 337 L130 337 C118.961 337 110 328.039 110 317 L110 80 C110 68.9606 118.961 60 130 60 L330 60 C341.039 60 350 51.0394 350 40 L350 20 C350 8.9606 341.039 0 330 0 L70 0 C58.9606 0 50 8.9606 50 20 L50 680 C50 691.039 58.9606 700 70 700 L330 700 C341.039 700 350 691.039 350 680 L350 660 C350 648.961 341.039 640 330 640 L130 640 C118.961 640 110 631.039 110 620 L110 417 C110 405.961 118.961 397 130 397 L232 397 C243.039 397 252 388.039 252 377 L252 357 C252 345.961 243.039 337 232 337 L232 337 Z M279 838 C279 811 301 790 327 790 C354 790 375 811 375 838 C375 864 354 886 327 886 C301 886 279 864 279 838 L279 838 Z M25 838 C25 811 47 790 73 790 C100 790 121 811 121 838 C121 864 100 886 73 886 C47 886 25 864 25 838 L25 838 Z " />
<glyph glyph-name="igrave" unicode="&#xec;" horiz-adv-x="160" d="M110 20 L110 680 C110 691.039 101.039 700 90 700 L70 700 C58.9606 700 50 691.039 50 680 L50 20 C50 8.9606 58.9606 0 70 0 L90 0 C101.039 0 110 8.9606 110 20 L110 20 Z M-30 889 L-30 884.869 C-30 881.909 -26.6547 873.407 -24.6379 871.241 L45.0678 796.372 C47.4643 793.798 56.1887 790 59.7057 790 L98 790 C104.624 790 110 795.376 110 802 L110 806.202 C110 809.116 106.694 817.595 104.722 819.74 L35.9426 894.537 C33.5281 897.163 24.7877 901 21.2206 901 L-18 901 C-24.6236 901 -30 895.624 -30 889 L-30 889 Z " />
<glyph glyph-name="iacute" unicode="&#xed;" horiz-adv-x="160" d="M110 20 L110 680 C110 691.039 101.039 700 90 700 L70 700 C58.9606 700 50 691.039 50 680 L50 20 C50 8.9606 58.9606 0 70 0 L90 0 C101.039 0 110 8.9606 110 20 L110 20 Z M124.057 894.537 L55.278 819.74 C53.3061 817.595 50 809.116 50 806.202 L50 802 C50 795.376 55.3764 790 62 790 L100.294 790 C103.811 790 112.536 793.798 114.932 796.372 L184.638 871.241 C186.655 873.407 190 881.909 190 884.869 L190 889 C190 895.624 184.624 901 178 901 L138.779 901 C135.212 901 126.472 897.163 124.057 894.537 L124.057 894.537 Z " />
<glyph glyph-name="icircumflex" unicode="&#xee;" horiz-adv-x="160" d="M110 20 L110 680 C110 691.039 101.039 700 90 700 L70 700 C58.9606 700 50 691.039 50 680 L50 20 C50 8.9606 58.9606 0 70 0 L90 0 C101.039 0 110 8.9606 110 20 L110 20 Z M194 820 L192.634 823.642 C192.236 824.704 188.436 830.412 187.61 831.189 L112.775 901.569 C110.591 903.623 102.07 907 99.0728 907 L63.9272 907 C60.9295 907 52.409 903.623 50.2254 901.569 L-24.6095 831.189 C-25.4358 830.412 -29.236 824.704 -29.6342 823.642 L-31 820 C-32.6551 815.586 -30.457 810.545 -26.0966 808.754 L9.84814 793.991 C16.0038 791.463 26.6418 793.525 31.407 798.17 L67.6554 833.504 C75.2928 840.949 87.7574 841.001 95.4565 833.62 L132.537 798.072 C137.327 793.48 147.973 791.498 154.094 794.057 L189.117 808.704 C193.465 810.522 195.655 815.587 194 820 L194 820 Z " />
<glyph glyph-name="idieresis" unicode="&#xef;" horiz-adv-x="160" d="M50 20 L50 680 C50 691.039 58.9606 700 70 700 L90 700 C101.039 700 110 691.039 110 680 L110 20 C110 8.9606 101.039 0 90 0 L70 0 C58.9606 0 50 8.9606 50 20 L50 20 Z M124 838 C124 811 146 790 172 790 C199 790 220 811 220 838 C220 864 199 886 172 886 C146 886 124 864 124 838 L124 838 Z M-60 838 C-60 811 -38 790 -12 790 C15 790 36 811 36 838 C36 864 15 886 -12 886 C-38 886 -60 864 -60 838 L-60 838 Z " />
<glyph glyph-name="ntilde" unicode="&#xf1;" horiz-adv-x="462" d="M110 20 L110 636.5 C110 638.432 111.568 640 113.5 640 C115.358 640 117.449 638.421 117.957 636.633 L294.868 14.5294 C297.062 6.81545 306.086 0 314.105 0 L392 0 C403.039 0 412 8.9606 412 20 L412 680 C412 691.039 403.039 700 392 700 L372 700 C360.961 700 352 691.039 352 680 L352 63.5 C352 61.5681 350.432 60 348.5 60 C346.643 60 344.548 61.5793 344.038 63.3651 L166.147 685.498 C163.946 693.194 154.922 700 146.917 700 L70 700 C58.9606 700 50 691.039 50 680 L50 20 C50 8.9606 58.9606 0 70 0 L90 0 C101.039 0 110 8.9606 110 20 L110 20 Z M313 796 C333.4 800.25 350.91 808.112 374.128 831.256 C382.503 839.604 380.722 850.459 371.798 858.219 L355.837 872.099 C348.945 878.091 334.642 877.849 327.549 872.096 C296.281 846.734 265.875 853.625 237 872 C188.4 902.6 128.46 887.03 87.069 847.16 C77.6646 838.101 80.7703 828.164 91.3958 820.574 L111.117 806.488 C116.567 802.595 127.244 803.37 132.17 807.908 C151.365 825.59 180.35 836.3 205 821 C233 802 274 789 313 796 L313 796 Z " />
<glyph glyph-name="ograve" unicode="&#xf2;" horiz-adv-x="437" d="M218 0 C311 0 387 75 387 168 L387 536 C387 629 311 705 218 705 C125 705 50 629 50 536 L50 168 C50 75 125 0 218 0 L218 0 Z M218 645 C278 645 327 596 327 536 L327 168 C327 109 278 60 218 60 C159 60 110 109 110 168 L110 536 C110 596 159 645 218 645 L218 645 Z M108 889 L108 884.869 C108 881.909 111.345 873.407 113.362 871.241 L183.068 796.372 C185.464 793.798 194.189 790 197.706 790 L236 790 C242.624 790 248 795.376 248 802 L248 806.202 C248 809.116 244.694 817.595 242.722 819.74 L173.943 894.537 C171.528 897.163 162.788 901 159.221 901 L120 901 C113.376 901 108 895.624 108 889 L108 889 Z " />
<glyph glyph-name="oacute" unicode="&#xf3;" horiz-adv-x="437" d="M218 0 C311 0 387 75 387 168 L387 536 C387 629 311 705 218 705 C125 705 50 629 50 536 L50 168 C50 75 125 0 218 0 L218 0 Z M218 645 C278 645 327 596 327 536 L327 168 C327 109 278 60 218 60 C159 60 110 109 110 168 L110 536 C110 596 159 645 218 645 L218 645 Z M262.057 894.537 L193.278 819.74 C191.306 817.595 188 809.116 188 806.202 L188 802 C188 795.376 193.376 790 200 790 L238.294 790 C241.811 790 250.536 793.798 252.932 796.372 L322.638 871.241 C324.655 873.407 328 881.909 328 884.869 L328 889 C328 895.624 322.624 901 316 901 L276.779 901 C273.212 901 264.472 897.163 262.057 894.537 L262.057 894.537 Z " />
<glyph glyph-name="ocircumflex" unicode="&#xf4;" horiz-adv-x="437" d="M218 0 C311 0 387 75 387 168 L387 536 C387 629 311 705 218 705 C125 705 50 629 50 536 L50 168 C50 75 125 0 218 0 L218 0 Z M218 645 C278 645 327 596 327 536 L327 168 C327 109 278 60 218 60 C159 60 110 109 110 168 L110 536 C110 596 159 645 218 645 L218 645 Z M331 821 L329.634 824.642 C329.236 825.704 325.436 831.412 324.61 832.189 L249.775 902.569 C247.591 904.623 239.07 908 236.073 908 L200.927 908 C197.93 908 189.409 904.623 187.225 902.569 L112.39 832.189 C111.564 831.412 107.764 825.704 107.366 824.642 L106 821 C104.345 816.586 106.543 811.545 110.903 809.754 L146.848 794.991 C153.004 792.463 163.642 794.525 168.407 799.17 L204.655 834.504 C212.293 841.949 224.757 842.001 232.457 834.62 L269.537 799.072 C274.327 794.48 284.973 792.498 291.094 795.057 L326.117 809.704 C330.465 811.522 332.655 816.587 331 821 L331 821 Z " />
<glyph glyph-name="otilde" unicode="&#xf5;" horiz-adv-x="437" d="M218 0 C311 0 387 75 387 168 L387 536 C387 629 311 705 218 705 C125 705 50 629 50 536 L50 168 C50 75 125 0 218 0 L218 0 Z M218 645 C278 645 327 596 327 536 L327 168 C327 109 278 60 218 60 C159 60 110 109 110 168 L110 536 C110 596 159 645 218 645 L218 645 Z M301 791 C321.4 795.25 338.91 803.113 362.128 826.256 C370.503 834.604 368.722 845.459 359.798 853.219 L343.837 867.099 C336.945 873.091 322.642 872.849 315.549 867.096 C284.281 841.734 253.875 848.625 225 867 C176.4 897.6 116.46 882.03 75.069 842.16 C65.6646 833.101 68.7703 823.164 79.3958 815.574 L99.117 801.488 C104.567 797.595 115.244 798.37 120.17 802.908 C139.365 820.59 168.35 831.3 193 816 C221 797 262 784 301 791 L301 791 Z " />
<glyph glyph-name="odieresis" unicode="&#xf6;" horiz-adv-x="437" d="M218 0 C125 0 50 75 50 168 L50 536 C50 629 125 705 218 705 C311 705 387 629 387 536 L387 168 C387 75 311 0 218 0 L218 0 Z M218 645 C159 645 110 596 110 536 L110 168 C110 109 159 60 218 60 C278 60 327 109 327 168 L327 536 C327 596 278 645 218 645 L218 645 Z M298 838 C298 811 320 790 346 790 C373 790 394 811 394 838 C394 864 373 886 346 886 C320 886 298 864 298 838 L298 838 Z M44 838 C44 811 66 790 92 790 C119 790 140 811 140 838 C140 864 119 886 92 886 C66 886 44 864 44 838 L44 838 Z " />
<glyph glyph-name="divide" unicode="&#xf7;" horiz-adv-x="450" d="M380 337 L70 337 C58.9606 337 50 345.961 50 357 L50 377 C50 388.039 58.9606 397 70 397 L380 397 C391.039 397 400 388.039 400 377 L400 357 C400 345.961 391.039 337 380 337 L380 337 Z M226 213 C199 213 178 191 178 165 C178 138 199 117 226 117 C252 117 274 138 274 165 C274 191 252 213 226 213 L226 213 Z M226 617 C199 617 178 595 178 569 C178 542 199 521 226 521 C252 521 274 542 274 569 C274 595 252 617 226 617 L226 617 Z " />
<glyph glyph-name="oslash" unicode="&#xf8;" horiz-adv-x="437" d="M161.588 8.91204 C179.389 2.77778 198 0 218 0 C311 0 387 75 387 168 L387 536 C387 574.7 373.23 610.97 350.793 639.707 C347.934 643.369 344.884 655.306 346.213 659.758 L360.246 706.738 C363.422 717.37 357.357 728.533 346.708 731.654 L326.913 737.456 C316.475 740.516 305.392 734.562 302.18 724.17 L294.632 699.75 C292.774 693.74 286.613 690.247 280.8 692.652 C261.401 700.68 240.061 705 218 705 C125 705 50 629 50 536 L50 168 C50 125.7 65.39 87.45 91.067 57.624 C94.4084 53.7427 98.0099 41.4328 96.5247 36.5314 L75.8257 -31.7753 C72.6101 -42.3867 78.6247 -53.5723 89.25 -56.7412 L107.8 -62.2737 C118.398 -65.4344 129.55 -59.3932 132.692 -48.7897 L147.755 2.04702 C149.418 7.66013 156.053 10.8194 161.588 8.91204 L161.588 8.91204 Z M218 645 C234.923 645 251.13 640.704 266.015 633.324 C271.187 630.76 272.823 625.084 271.161 619.556 L123.253 127.495 C122.371 124.562 118.603 125.064 117.485 127.916 C112.678 140.182 110 154.091 110 168 L110 536 C110 596 159 645 218 645 L218 645 Z M218 60 C203.273 60 189.215 62.6777 176.922 67.4853 C172.527 69.204 169.893 73.9763 171.25 78.4958 L318.182 567.943 C318.766 569.89 321.445 569.512 322.013 567.559 C324.965 557.412 327 546.706 327 536 L327 168 C327 109 278 60 218 60 L218 60 Z " />
<glyph glyph-name="ugrave" unicode="&#xf9;" horiz-adv-x="426" d="M50 157 C50 67 123 -6 213 -6 C303 -6 376 67 376 157 L376 680 C376 691.039 367.039 700 356 700 L336 700 C324.961 700 316 691.039 316 680 L316 157 C316 100 270 54 213 54 C156 54 110 100 110 157 L110 680 C110 691.039 101.039 700 90 700 L73.8532 700 C62.8951 700 53.9345 691.105 53.8538 680.147 L50 157 L50 157 Z M105 888 L105 883.869 C105 880.909 108.345 872.407 110.362 870.241 L180.068 795.372 C182.464 792.798 191.189 789 194.706 789 L233 789 C239.624 789 245 794.376 245 801 L245 805.202 C245 808.116 241.694 816.595 239.722 818.74 L170.943 893.537 C168.528 896.163 159.788 900 156.221 900 L117 900 C110.376 900 105 894.624 105 888 L105 888 Z " />
<glyph glyph-name="uacute" unicode="&#xfa;" horiz-adv-x="426" d="M50 157 C50 67 123 -6 213 -6 C303 -6 376 67 376 157 L376 680 C376 691.039 367.039 700 356 700 L336 700 C324.961 700 316 691.039 316 680 L316 157 C316 100 270 54 213 54 C156 54 110 100 110 157 L110 680 C110 691.039 101.039 700 90 700 L73.8532 700 C62.8951 700 53.9345 691.105 53.8538 680.147 L50 157 L50 157 Z M259.057 894.537 L190.278 819.74 C188.306 817.595 185 809.116 185 806.202 L185 802 C185 795.376 190.376 790 197 790 L235.294 790 C238.811 790 247.536 793.798 249.932 796.372 L319.638 871.241 C321.655 873.407 325 881.909 325 884.869 L325 889 C325 895.624 319.624 901 313 901 L273.779 901 C270.212 901 261.472 897.163 259.057 894.537 L259.057 894.537 Z " />
<glyph glyph-name="ucircumflex" unicode="&#xfb;" horiz-adv-x="426" d="M50 157 C50 67 123 -6 213 -6 C303 -6 376 67 376 157 L376 680 C376 691.039 367.039 700 356 700 L336 700 C324.961 700 316 691.039 316 680 L316 157 C316 100 270 54 213 54 C156 54 110 100 110 157 L110 680 C110 691.039 101.039 700 90 700 L73.8532 700 C62.8951 700 53.9345 691.105 53.8538 680.147 L50 157 L50 157 Z M327 820 L325.634 823.642 C325.236 824.704 321.436 830.412 320.61 831.189 L245.775 901.569 C243.591 903.623 235.07 907 232.073 907 L196.927 907 C193.93 907 185.409 903.623 183.225 901.569 L108.39 831.189 C107.564 830.412 103.764 824.704 103.366 823.642 L102 820 C100.345 815.586 102.543 810.545 106.903 808.754 L142.848 793.991 C149.004 791.463 159.642 793.525 164.407 798.17 L200.655 833.504 C208.293 840.949 220.757 841.001 228.457 833.62 L265.537 798.072 C270.327 793.48 280.973 791.498 287.094 794.057 L322.117 808.704 C326.465 810.522 328.655 815.587 327 820 L327 820 Z " />
<glyph glyph-name="udieresis" unicode="&#xfc;" horiz-adv-x="425" d="M69.9632 700 L89 700 C100.039 700 109 691.039 109 680 L109 157 C109 100 155 54 212 54 C269 54 315 100 315 157 L315 680 C315 691.039 323.961 700 335 700 L355 700 C366.039 700 375 691.039 375 680 L375 157 C375 67 302 -6 212 -6 C122 -6 49 67 49 157 L49.9632 680.037 C49.9835 691.056 58.9441 700 69.9632 700 L69.9632 700 Z M293 838 C293 811 315 790 341 790 C368 790 389 811 389 838 C389 864 368 886 341 886 C315 886 293 864 293 838 L293 838 Z M39 838 C39 811 61 790 87 790 C114 790 135 811 135 838 C135 864 114 886 87 886 C61 886 39 864 39 838 L39 838 Z " />
<glyph glyph-name="yacute" unicode="&#xfd;" horiz-adv-x="470" d="M265 20 L265 247.566 C265 248.198 265.935 253.642 266.146 254.238 L418.854 685.762 C419.065 686.358 420 691.802 420 692.434 L420 694.5 C420 697.536 417.536 700 414.5 700 L374.113 700 C366.774 700 357.73 693.618 355.27 686.703 L254.268 402.761 C247.706 384.313 223.208 384.282 216.598 402.714 L114.751 686.751 C112.282 693.635 103.238 700 95.9246 700 L55.5 700 C52.4642 700 50 697.536 50 694.5 L50 692.479 C50 691.831 50.956 686.336 51.175 685.725 L203.825 260.275 C204.044 259.664 205 254.169 205 253.521 L205 20 C205 8.9606 213.961 0 225 0 L245 0 C256.039 0 265 8.9606 265 20 L265 20 Z M279.057 894.537 L210.278 819.74 C208.306 817.595 205 809.116 205 806.202 L205 802 C205 795.376 210.376 790 217 790 L255.294 790 C258.811 790 267.536 793.798 269.932 796.372 L339.638 871.241 C341.655 873.407 345 881.909 345 884.869 L345 889 C345 895.624 339.624 901 333 901 L293.779 901 C290.212 901 281.472 897.163 279.057 894.537 L279.057 894.537 Z " />
<glyph glyph-name="ydieresis" unicode="&#xff;" horiz-adv-x="470" d="M205 20 L205 253.521 C205 254.169 204.044 259.664 203.825 260.275 L51.175 685.725 C50.956 686.336 50 691.831 50 692.479 L50 694.5 C50 697.536 52.4642 700 55.5 700 L95.9246 700 C103.238 700 112.282 693.635 114.751 686.751 L216.598 402.714 C223.208 384.282 247.706 384.313 254.268 402.761 L355.27 686.703 C357.73 693.618 366.774 700 374.113 700 L414.5 700 C417.536 700 420 697.536 420 694.5 L420 692.434 C420 691.802 419.065 686.358 418.854 685.762 L266.146 254.238 C265.935 253.642 265 248.198 265 247.566 L265 20 C265 8.9606 256.039 0 245 0 L225 0 C213.961 0 205 8.9606 205 20 L205 20 Z M314 837 C314 810 336 789 362 789 C389 789 410 810 410 837 C410 863 389 885 362 885 C336 885 314 863 314 837 L314 837 Z M60 837 C60 810 82 789 108 789 C135 789 156 810 156 837 C156 863 135 885 108 885 C82 885 60 863 60 837 L60 837 Z " />
<glyph glyph-name="Amacron" unicode="&#x100;" horiz-adv-x="450" d="M400 20 L400 95 C400 150 392 206 381 261 L293.304 684.059 C291.518 692.675 282.519 700 273.721 700 L176.215 700 C167.458 700 158.458 692.703 156.647 684.136 L67 260 C56 206 50 151 50 95 L50 20 C50 8.9606 58.9606 0 70 0 L90 0 C101.039 0 110 8.9606 110 20 L110 95 C110 112.769 110.716 129.822 111.542 146.766 C111.832 152.707 118.227 158.047 124.034 159.339 C197.551 175.688 258.703 116.315 332.028 131.595 C335.42 132.301 338.287 129.155 338.464 125.694 C339 115.16 339 104.75 339 95 L339 20 C339 8.9606 347.961 0 359 0 L380 0 C391.039 0 400 8.9606 400 20 L400 20 Z M244.323 624.088 L307.651 320.825 C310.486 307.25 303.081 298.283 289.232 299.021 C247.571 301.242 210.259 323.736 171.465 326.373 C159.886 327.16 145.627 341.367 148 352.727 L204.677 624.089 C206.472 632.686 215.472 640 224.254 640 L224.745 640 C233.528 640 242.527 632.686 244.323 624.088 L244.323 624.088 Z M145.863 269.805 C206.308 272.706 253.03 230.34 313.495 239.844 C317.549 240.482 324.96 236.892 325.707 232.857 C327.683 222.19 329.574 211.524 331.085 200.857 C331.748 196.174 330.944 193.532 326.399 192.223 C261.328 173.489 205.714 223.336 142.136 223.187 C131.576 223.162 122.802 234.171 125 244.5 L127.206 254.866 C128.918 262.913 137.645 269.411 145.863 269.805 L145.863 269.805 Z M354 850 L94 850 C82.9606 850 74 841.039 74 830 L74 810 C74 798.961 82.9606 790 94 790 L354 790 C365.039 790 374 798.961 374 810 L374 830 C374 841.039 365.039 850 354 850 L354 850 Z " />
<glyph glyph-name="amacron" unicode="&#x101;" horiz-adv-x="449" d="M399 95 C399 150 393 206 381 261 L292.332 684.102 C290.532 692.691 281.532 700 272.757 700 L175.251 700 C166.471 700 157.471 692.687 155.674 684.093 L67 260 C55 206 50 151 50 95 L50 20 C50 8.9606 58.9606 0 70 0 L90 0 C101.039 0 110 8.9606 110 20 L110 95 C110 143.45 114.513 192.803 126.967 256.775 C128.269 263.462 133.062 268.38 139.737 269.738 C163.017 274.474 188.378 271.973 210 259 C238.9 242.85 269.967 234.647 305.045 238.077 C315.3 239.08 326.154 229.444 327.837 219.278 C334.665 178.045 339 135.8 339 95 L339.792 19.7895 C339.907 8.86689 348.867 0 359.791 0 L379 0 C390.039 0 399 8.9606 399 20 L399 95 L399 95 Z M243.358 624.143 L309.337 312.576 C310.995 304.745 306.506 298.507 298.55 297.626 C278.636 295.421 259.818 299.364 241 310 C216.25 324.85 190.139 330.852 160.982 331.375 C151.654 331.542 143.893 340.001 145.814 349.13 L203.659 624.117 C205.464 632.696 214.464 640 223.231 640 L223.792 640 C232.544 640 241.545 632.706 243.358 624.143 L243.358 624.143 Z M354 850 L94 850 C82.9606 850 74 841.039 74 830 L74 810 C74 798.961 82.9606 790 94 790 L354 790 C365.039 790 374 798.961 374 810 L374 830 C374 841.039 365.039 850 354 850 L354 850 Z " />
<glyph glyph-name="Abreve" unicode="&#x102;" horiz-adv-x="450" d="M400 20 L400 95 C400 150 392 206 381 261 L293.304 684.059 C291.518 692.675 282.519 700 273.721 700 L176.215 700 C167.458 700 158.458 692.703 156.647 684.136 L67 260 C56 206 50 151 50 95 L50 20 C50 8.9606 58.9606 0 70 0 L90 0 C101.039 0 110 8.9606 110 20 L110 95 C110 112.769 110.716 129.822 111.542 146.766 C111.832 152.707 118.227 158.047 124.034 159.339 C197.551 175.688 258.703 116.315 332.028 131.595 C335.42 132.301 338.287 129.155 338.464 125.694 C339 115.16 339 104.75 339 95 L339 20 C339 8.9606 347.961 0 359 0 L380 0 C391.039 0 400 8.9606 400 20 L400 20 Z M244.323 624.088 L307.651 320.825 C310.486 307.25 303.081 298.283 289.232 299.021 C247.571 301.242 210.259 323.736 171.465 326.373 C159.886 327.16 145.627 341.367 148 352.727 L204.677 624.089 C206.472 632.686 215.472 640 224.254 640 L224.745 640 C233.528 640 242.527 632.686 244.323 624.088 L244.323 624.088 Z M145.863 269.805 C206.308 272.706 253.03 230.34 313.495 239.844 C317.549 240.482 324.96 236.892 325.707 232.857 C327.683 222.19 329.574 211.524 331.085 200.857 C331.748 196.174 330.944 193.532 326.399 192.223 C261.328 173.489 205.714 223.336 142.136 223.187 C131.576 223.162 122.802 234.171 125 244.5 L127.206 254.866 C128.918 262.913 137.645 269.411 145.863 269.805 L145.863 269.805 Z M225 789 C274 789 315.344 824.219 324.914 871.209 C327.557 884.185 320.243 892 307 892 L278.5 892 C273.734 892 266.853 886.118 265.666 881.503 C260.965 863.238 244.406 849 225 849 C204.75 849 188.06 863.238 183.338 881.503 C182.147 886.111 175.259 892 170.5 892 L142 892 C128.754 892 121.441 884.187 124.088 871.209 C133.672 824.219 175.125 789 225 789 L225 789 Z " />
<glyph glyph-name="abreve" unicode="&#x103;" horiz-adv-x="449" d="M399 95 C399 150 393 206 381 261 L292.332 684.102 C290.532 692.691 281.532 700 272.757 700 L175.251 700 C166.471 700 157.471 692.687 155.674 684.093 L67 260 C55 206 50 151 50 95 L50 20 C50 8.9606 58.9606 0 70 0 L90 0 C101.039 0 110 8.9606 110 20 L110 95 C110 143.45 114.513 192.803 126.967 256.775 C128.269 263.462 133.062 268.38 139.737 269.738 C163.017 274.474 188.378 271.973 210 259 C238.9 242.85 269.967 234.647 305.045 238.077 C315.3 239.08 326.154 229.444 327.837 219.278 C334.665 178.045 339 135.8 339 95 L339.792 19.7895 C339.907 8.86689 348.867 0 359.791 0 L379 0 C390.039 0 399 8.9606 399 20 L399 95 L399 95 Z M243.358 624.143 L309.337 312.576 C310.995 304.745 306.506 298.507 298.55 297.626 C278.636 295.421 259.818 299.364 241 310 C216.25 324.85 190.139 330.852 160.982 331.375 C151.654 331.542 143.893 340.001 145.814 349.13 L203.659 624.117 C205.464 632.696 214.464 640 223.231 640 L223.792 640 C232.544 640 241.545 632.706 243.358 624.143 L243.358 624.143 Z M225 789 C274 789 315.344 824.219 324.914 871.209 C327.557 884.185 320.243 892 307 892 L278.5 892 C273.734 892 266.853 886.118 265.666 881.503 C260.965 863.238 244.406 849 225 849 C204.75 849 188.06 863.238 183.338 881.503 C182.147 886.111 175.259 892 170.5 892 L142 892 C128.754 892 121.441 884.187 124.088 871.209 C133.672 824.219 175.125 789 225 789 L225 789 Z " />
<glyph glyph-name="Aogonek" unicode="&#x104;" horiz-adv-x="450" d="M421 -191 C442.667 -191 464.333 -184.056 482.528 -170.167 C489.558 -164.8 489.254 -157.254 483 -151 L459.254 -127.254 C455.83 -123.83 446.603 -122.959 442.379 -125.328 C425.831 -134.609 404.5 -132.5 391 -119 C375.342 -103.342 374.954 -79.2008 394.525 -55.1712 C396.091 -53.2485 400 -43.4242 400 -40.9445 L400 95 C400 150 392 206 381 261 L293.304 684.059 C291.518 692.675 282.519 700 273.721 700 L176.215 700 C167.458 700 158.458 692.703 156.647 684.136 L67 260 C56 206 50 151 50 95 L50 20 C50 8.9606 58.9606 0 70 0 L90 0 C101.039 0 110 8.9606 110 20 L110 95 C110 112.769 110.716 129.822 111.542 146.766 C111.832 152.707 118.227 158.047 124.034 159.339 C197.551 175.688 258.703 116.315 332.028 131.595 C335.42 132.301 338.287 129.155 338.464 125.694 C339 115.16 339 104.75 339 95 L339 -19.1378 C339 -21.025 335.935 -30.1169 334.88 -31.6814 C323.627 -48.3662 318 -67.3793 318 -88 C318 -116 329 -142 348 -161 C368 -181 394 -191 421 -191 L421 -191 Z M244.323 624.088 L307.651 320.825 C310.486 307.25 303.081 298.283 289.232 299.021 C247.571 301.242 210.259 323.736 171.465 326.373 C159.886 327.16 145.627 341.367 148 352.727 L204.677 624.089 C206.472 632.686 215.472 640 224.254 640 L224.745 640 C233.528 640 242.527 632.686 244.323 624.088 L244.323 624.088 Z M145.863 269.805 C206.308 272.706 253.03 230.34 313.495 239.844 C317.549 240.482 324.96 236.892 325.707 232.857 C327.683 222.19 329.574 211.524 331.085 200.857 C331.748 196.174 330.944 193.532 326.399 192.223 C261.328 173.489 205.714 223.336 142.136 223.187 C131.576 223.162 122.802 234.171 125 244.5 L127.206 254.866 C128.918 262.913 137.645 269.411 145.863 269.805 L145.863 269.805 Z " />
<glyph glyph-name="aogonek" unicode="&#x105;" horiz-adv-x="449" d="M422 -191 C443.667 -191 465.333 -184.056 483.528 -170.167 C490.558 -164.8 490.254 -157.254 484 -151 L460.254 -127.254 C456.83 -123.83 447.603 -122.959 443.379 -125.328 C426.831 -134.609 405.5 -132.5 392 -119 C376.342 -103.342 374.258 -79.2008 393.56 -55.1712 C395.084 -53.2745 399 -43.3774 399 -40.9445 L399 95 C399 150 393 206 381 261 L292.332 684.102 C290.532 692.691 281.532 700 272.757 700 L175.251 700 C166.471 700 157.471 692.687 155.674 684.093 L67 260 C55 206 50 151 50 95 L50 20 C50 8.9606 58.9606 0 70 0 L90 0 C101.039 0 110 8.9606 110 20 L110 95 C110 143.45 114.513 192.803 126.967 256.775 C128.269 263.462 133.062 268.38 139.737 269.738 C163.017 274.474 188.378 271.973 210 259 C238.9 242.85 269.967 234.647 305.045 238.077 C315.3 239.08 326.154 229.444 327.837 219.278 C334.665 178.045 339 135.8 339 95 L339 -19.1378 C339 -20.9827 335.931 -30.1449 334.91 -31.6814 C323.823 -48.3662 319 -67.3793 319 -88 C319 -116 330 -142 349 -161 C369 -181 395 -191 422 -191 L422 -191 Z M243.358 624.143 L309.337 312.576 C310.995 304.745 306.506 298.507 298.55 297.626 C278.636 295.421 259.818 299.364 241 310 C216.25 324.85 190.139 330.852 160.982 331.375 C151.654 331.542 143.893 340.001 145.814 349.13 L203.659 624.117 C205.464 632.696 214.464 640 223.231 640 L223.792 640 C232.544 640 241.545 632.706 243.358 624.143 L243.358 624.143 Z " />
<glyph glyph-name="Cacute" unicode="&#x106;" horiz-adv-x="461" d="M245 0 C330.1 0 399.799 63.3163 409.775 144.836 C411.279 157.125 403.38 165 391 165 L371 165 C362.215 165 350.618 152.436 348.824 143.836 C338.844 95.9844 295.75 60 245 60 L215 60 C157 60 110 107 110 165 L110 534 C110 592 157 640 215 640 L245 640 C295.75 640 338.844 612.438 348.824 566.691 C350.676 558.205 362.314 546 371 546 L391 546 C403.404 546 411.308 553.679 409.775 565.988 C399.799 646.096 330.1 700 245 700 L215 700 C124 700 50 625 50 534 L50 165 C50 74 124 0 215 0 L245 0 L245 0 Z M274.057 894.537 L205.278 819.74 C203.306 817.595 200 809.116 200 806.202 L200 802 C200 795.376 205.376 790 212 790 L250.294 790 C253.811 790 262.536 793.798 264.932 796.372 L334.638 871.241 C336.655 873.407 340 881.909 340 884.869 L340 889 C340 895.624 334.624 901 328 901 L288.779 901 C285.212 901 276.472 897.163 274.057 894.537 L274.057 894.537 Z " />
<glyph glyph-name="cacute" unicode="&#x107;" horiz-adv-x="415" d="M363.841 562.458 C354.404 640.962 288.475 700 208 700 C121 700 50 629 50 542 L50 158 C50 71 121 0 208 0 C295 0 365 71 365 158 L365 164 C365 167.312 362.312 170 359 170 L311 170 C307.688 170 305 167.312 305 164 L305 158 C305 104 262 60 208 60 C154 60 110 104 110 158 L110 542 C110 596 154 640 208 640 C255.25 640 294.078 610.141 303.047 563.82 C304.746 555.042 316.059 543 325 543 L345 543 C357.357 543 365.316 550.19 363.841 562.458 L363.841 562.458 Z M251.057 893.537 L182.278 818.74 C180.306 816.595 177 808.116 177 805.202 L177 801 C177 794.376 182.376 789 189 789 L227.294 789 C230.811 789 239.536 792.798 241.932 795.372 L311.638 870.241 C313.655 872.407 317 880.909 317 883.869 L317 888 C317 894.624 311.624 900 305 900 L265.779 900 C262.212 900 253.472 896.163 251.057 893.537 L251.057 893.537 Z " />
<glyph glyph-name="Ccircumflex" unicode="&#x108;" horiz-adv-x="461" d="M245 0 C330.1 0 399.799 63.3163 409.775 144.836 C411.279 157.125 403.38 165 391 165 L371 165 C362.215 165 350.618 152.436 348.824 143.836 C338.844 95.9844 295.75 60 245 60 L215 60 C157 60 110 107 110 165 L110 534 C110 592 157 640 215 640 L245 640 C295.75 640 338.844 612.438 348.824 566.691 C350.676 558.205 362.314 546 371 546 L391 546 C403.404 546 411.308 553.679 409.775 565.988 C399.799 646.096 330.1 700 245 700 L215 700 C124 700 50 625 50 534 L50 165 C50 74 124 0 215 0 L245 0 L245 0 Z M343 821 L341.634 824.642 C341.236 825.704 337.436 831.412 336.61 832.189 L261.775 902.569 C259.591 904.623 251.07 908 248.073 908 L212.927 908 C209.93 908 201.409 904.623 199.225 902.569 L124.39 832.189 C123.564 831.412 119.764 825.704 119.366 824.642 L118 821 C116.345 816.586 118.543 811.545 122.903 809.754 L158.848 794.991 C165.004 792.463 175.642 794.525 180.407 799.17 L216.655 834.504 C224.293 841.949 236.757 842.001 244.457 834.62 L281.537 799.072 C286.327 794.48 296.973 792.498 303.094 795.057 L338.117 809.704 C342.465 811.522 344.655 816.587 343 821 L343 821 Z " />
<glyph glyph-name="ccircumflex" unicode="&#x109;" horiz-adv-x="415" d="M363.841 562.458 C354.404 640.962 288.475 700 208 700 C121 700 50 629 50 542 L50 158 C50 71 121 0 208 0 C295 0 365 71 365 158 L365 164 C365 167.312 362.312 170 359 170 L311 170 C307.688 170 305 167.312 305 164 L305 158 C305 104 262 60 208 60 C154 60 110 104 110 158 L110 542 C110 596 154 640 208 640 C255.25 640 294.078 610.141 303.047 563.82 C304.746 555.042 316.059 543 325 543 L345 543 C357.357 543 365.316 550.19 363.841 562.458 L363.841 562.458 Z M320 821 L318.634 824.642 C318.236 825.704 314.436 831.412 313.61 832.189 L238.775 902.569 C236.591 904.623 228.07 908 225.073 908 L189.927 908 C186.93 908 178.409 904.623 176.225 902.569 L101.39 832.189 C100.564 831.412 96.764 825.704 96.3658 824.642 L95 821 C93.3449 816.586 95.543 811.545 99.9034 809.754 L135.848 794.991 C142.004 792.463 152.642 794.525 157.407 799.17 L193.655 834.504 C201.293 841.949 213.757 842.001 221.457 834.62 L258.537 799.072 C263.327 794.48 273.973 792.498 280.094 795.057 L315.117 809.704 C319.465 811.522 321.655 816.587 320 821 L320 821 Z " />
<glyph glyph-name="Cdotaccent" unicode="&#x10a;" horiz-adv-x="461" d="M245 0 L215 0 C124 0 50 74 50 165 L50 534 C50 625 124 700 215 700 L245 700 C330.1 700 399.799 646.096 409.775 565.988 C411.308 553.679 403.404 546 391 546 L371 546 C362.314 546 350.676 558.205 348.824 566.691 C338.844 612.438 295.75 640 245 640 L215 640 C157 640 110 592 110 534 L110 165 C110 107 157 60 215 60 L245 60 C295.75 60 338.844 95.9844 348.824 143.836 C350.618 152.436 362.215 165 371 165 L391 165 C403.38 165 411.279 157.125 409.775 144.836 C399.799 63.3163 330.1 0 245 0 L245 0 Z M182 838 C182 811 204 790 230 790 C257 790 278 811 278 838 C278 864 257 886 230 886 C204 886 182 864 182 838 L182 838 Z " />
<glyph glyph-name="cdotaccent" unicode="&#x10b;" horiz-adv-x="415" d="M303.047 563.82 C294.078 610.141 255.25 640 208 640 C154 640 110 596 110 542 L110 158 C110 104 154 60 208 60 C262 60 305 104 305 158 L305 164 C305 167.312 307.688 170 311 170 L359 170 C362.312 170 365 167.312 365 164 L365 158 C365 71 295 0 208 0 C121 0 50 71 50 158 L50 542 C50 629 121 700 208 700 C288.475 700 354.404 640.962 363.841 562.458 C365.316 550.19 357.357 543 345 543 L325 543 C316.059 543 304.746 555.042 303.047 563.82 L303.047 563.82 Z M159 837 C159 810 181 789 207 789 C234 789 255 810 255 837 C255 863 234 885 207 885 C181 885 159 863 159 837 L159 837 Z " />
<glyph glyph-name="Ccaron" unicode="&#x10c;" horiz-adv-x="461" d="M118 785 L119.387 781.302 C119.775 780.266 123.527 774.596 124.329 773.833 L172.13 728.364 C183.043 717.984 174.402 695.103 160.21 690.06 C96.2825 667.341 50 605.775 50 534 L50 165 C50 74 124 0 215 0 L245 0 C330.1 0 399.799 63.3163 409.775 144.836 C411.279 157.125 403.38 165 391 165 L371 165 C362.215 165 350.618 152.436 348.824 143.836 C338.844 95.9844 295.75 60 245 60 L215 60 C157 60 110 107 110 165 L110 534 C110 592 157 640 215 640 L245 640 C295.75 640 338.844 612.438 348.824 566.691 C350.676 558.205 362.314 546 371 546 L391 546 C403.35 546 411.34 552.861 409.874 565.124 C402.435 627.322 358.855 673.63 300.228 691.391 C285.559 695.835 277.218 718 288.388 728.497 L336.605 773.81 C337.433 774.588 341.237 780.298 341.636 781.362 L343 785 C344.655 789.414 342.457 794.455 338.097 796.246 L302.152 811.009 C295.996 813.537 285.358 811.475 280.593 806.83 L244.345 771.496 C236.707 764.051 224.243 763.999 216.543 771.38 L179.463 806.928 C174.673 811.52 164.027 813.502 157.906 810.943 L122.883 796.296 C118.535 794.478 116.345 789.413 118 785 L118 785 Z " />
<glyph glyph-name="ccaron" unicode="&#x10d;" horiz-adv-x="415" d="M95 784 L96.3644 780.362 C96.7633 779.298 100.567 773.588 101.395 772.81 L153.266 724.064 C163.859 714.108 156.843 692.532 143.569 686.607 C88.115 661.852 50 606.35 50 542 L50 158 C50 71 121 0 208 0 C295 0 365 71 365 158 L365 164 C365 167.312 362.312 170 359 170 L311 170 C307.688 170 305 167.312 305 164 L305 158 C305 104 262 60 208 60 C154 60 110 104 110 158 L110 542 C110 596 154 640 208 640 C255.25 640 294.078 610.141 303.047 563.82 C304.746 555.042 316.059 543 325 543 L345 543 C357.233 543 365.378 548.345 364.055 560.506 C357.811 617.913 321.192 665.321 271.074 687.121 C258.04 692.79 250.958 713.936 261.315 723.669 L313.605 772.81 C314.433 773.588 318.237 779.298 318.636 780.362 L320 784 C321.655 788.414 319.457 793.455 315.097 795.246 L279.152 810.009 C272.996 812.537 262.358 810.475 257.593 805.83 L221.345 770.496 C213.707 763.051 201.243 762.999 193.543 770.38 L156.463 805.928 C151.673 810.52 141.027 812.502 134.906 809.943 L99.8825 795.296 C95.5346 793.478 93.3452 788.413 95 784 L95 784 Z " />
<glyph glyph-name="Dcaron" unicode="&#x10e;" horiz-adv-x="465" d="M205 0 C321 0 415 94 415 209 L415 491 C415 607 321 700 205 700 L70 700 C58.9606 700 50 691.039 50 680 L50 356 C50 344.961 58.9606 336 70 336 L90 336 C101.039 336 110 344.961 110 356 L110 620 C110 631.039 118.961 640 130 640 L205 640 C288 640 355 574 355 491 L355 209 C355 127 288 60 205 60 L130 60 C118.961 60 110 68.9606 110 80 L110 154 C110 165.039 101.039 174 90 174 L70 174 C58.9606 174 50 165.039 50 154 L50 20 C50 8.9606 58.9606 0 70 0 L205 0 L205 0 Z M102 877 L103.366 873.358 C103.764 872.296 107.564 866.588 108.39 865.811 L183.225 795.431 C185.409 793.377 193.93 790 196.927 790 L232.073 790 C235.07 790 243.591 793.377 245.775 795.431 L320.61 865.811 C321.436 866.588 325.236 872.296 325.634 873.358 L327 877 C328.655 881.414 326.457 886.455 322.097 888.246 L286.152 903.009 C279.996 905.537 269.358 903.475 264.593 898.83 L228.345 863.496 C220.707 856.051 208.243 855.999 200.543 863.38 L163.463 898.928 C158.673 903.52 148.027 905.502 141.906 902.943 L106.883 888.296 C102.535 886.478 100.345 881.413 102 877 L102 877 Z " />
<glyph glyph-name="dcaron" unicode="&#x10f;" horiz-adv-x="434" d="M174 0 C290 0 384 94 384 209 L384 491 C384 607 290 700 174 700 L70 700 C58.9606 700 50 691.039 50 680 L50 20 C50 8.9606 58.9606 0 70 0 L174 0 L174 0 Z M130 640 L174 640 C257 640 324 574 324 491 L324 209 C324 127 257 60 174 60 L130 60 C118.961 60 110 68.9606 110 80 L110 620 C110 631.039 118.961 640 130 640 L130 640 Z M53 877 L54.3658 873.358 C54.764 872.296 58.5642 866.588 59.3905 865.811 L134.225 795.431 C136.409 793.377 144.93 790 147.927 790 L183.073 790 C186.07 790 194.591 793.377 196.775 795.431 L271.61 865.811 C272.436 866.588 276.236 872.296 276.634 873.358 L278 877 C279.655 881.414 277.457 886.455 273.097 888.246 L237.152 903.009 C230.996 905.537 220.358 903.475 215.593 898.83 L179.345 863.496 C171.707 856.051 159.243 855.999 151.543 863.38 L114.463 898.928 C109.673 903.52 99.0272 905.502 92.906 902.943 L57.8825 888.296 C53.5346 886.478 51.3452 881.413 53 877 L53 877 Z " />
<glyph glyph-name="Dcroat" unicode="&#x110;" horiz-adv-x="465" d="M205 0 C321 0 415 94 415 209 L415 491 C415 607 321 700 205 700 L70 700 C58.9606 700 50 691.039 50 680 L50 493 C50 481.961 41.0394 473 30 473 L0 473 C-11.0394 473 -20 464.039 -20 453 L-20 433 C-20 421.961 -11.0394 413 -3.55271e-15 413 L30 413 C41.0394 413 50 404.039 50 393 L50 356 C50 344.961 58.9606 336 70 336 L90 336 C101.039 336 110 344.961 110 356 L110 393 C110 404.039 118.961 413 130 413 L159 413 C170.039 413 179 421.961 179 433 L179 453 C179 464.039 170.039 473 159 473 L130 473 C118.961 473 110 481.961 110 493 L110 620 C110 631.039 118.961 640 130 640 L205 640 C288 640 355 574 355 491 L355 209 C355 127 288 60 205 60 L130 60 C118.961 60 110 68.9606 110 80 L110 154 C110 165.039 101.039 174 90 174 L70 174 C58.9606 174 50 165.039 50 154 L50 20 C50 8.9606 58.9606 0 70 0 L205 0 L205 0 Z " />
<glyph glyph-name="dcroat" unicode="&#x111;" horiz-adv-x="434" d="M174 0 C290 0 384 94 384 209 L384 491 C384 607 290 700 174 700 L70 700 C58.9606 700 50 691.039 50 680 L50 493 C50 481.961 41.0394 473 30 473 L0 473 C-11.0394 473 -20 464.039 -20 453 L-20 433 C-20 421.961 -11.0394 413 -3.55271e-15 413 L30 413 C41.0394 413 50 404.039 50 393 L50 20 C50 8.9606 58.9606 0 70 0 L174 0 L174 0 Z M130 413 L159 413 C170.039 413 179 421.961 179 433 L179 453 C179 464.039 170.039 473 159 473 L130 473 C118.961 473 110 481.961 110 493 L110 620 C110 631.039 118.961 640 130 640 L174 640 C257 640 324 574 324 491 L324 209 C324 127 257 60 174 60 L130 60 C118.961 60 110 68.9606 110 80 L110 393 C110 404.039 118.961 413 130 413 L130 413 Z " />
<glyph glyph-name="Emacron" unicode="&#x112;" horiz-adv-x="400" d="M248.664 397 L130 397 C118.961 397 110 405.961 110 417 L110 620 C110 631.039 118.961 640 130 640 L330 640 C341.039 640 350 648.961 350 660 L350 680 C350 691.039 341.039 700 330 700 L70 700 C58.9606 700 50 691.039 50 680 L50 20 C50 8.9606 58.9606 0 70 0 L330 0 C341.039 0 350 8.9606 350 20 L350 40 C350 51.0394 341.039 60 330 60 L130 60 C118.961 60 110 68.9606 110 80 L110 317 C110 328.039 118.961 337 130 337 L248.331 337 C259.186 337 268.147 345.813 268.328 356.667 L268.661 376.667 C268.848 387.889 259.887 397 248.664 397 L248.664 397 Z M330 850 L70 850 C58.9606 850 50 841.039 50 830 L50 810 C50 798.961 58.9606 790 70 790 L330 790 C341.039 790 350 798.961 350 810 L350 830 C350 841.039 341.039 850 330 850 L330 850 Z " />
<glyph glyph-name="emacron" unicode="&#x113;" horiz-adv-x="400" d="M232 397 L130 397 C118.961 397 110 405.961 110 417 L110 620 C110 631.039 118.961 640 130 640 L330 640 C341.039 640 350 648.961 350 660 L350 680 C350 691.039 341.039 700 330 700 L70 700 C58.9606 700 50 691.039 50 680 L50 20 C50 8.9606 58.9606 0 70 0 L330 0 C341.039 0 350 8.9606 350 20 L350 40 C350 51.0394 341.039 60 330 60 L130 60 C118.961 60 110 68.9606 110 80 L110 317 C110 328.039 118.961 337 130 337 L232 337 C243.039 337 252 345.961 252 357 L252 377 C252 388.039 243.039 397 232 397 L232 397 Z M330 849 L70 849 C58.9606 849 50 840.039 50 829 L50 809 C50 797.961 58.9606 789 70 789 L330 789 C341.039 789 350 797.961 350 809 L350 829 C350 840.039 341.039 849 330 849 L330 849 Z " />
<glyph glyph-name="Ebreve" unicode="&#x114;" horiz-adv-x="400" d="M248.664 397 L130 397 C118.961 397 110 405.961 110 417 L110 620 C110 631.039 118.961 640 130 640 L330 640 C341.039 640 350 648.961 350 660 L350 680 C350 691.039 341.039 700 330 700 L70 700 C58.9606 700 50 691.039 50 680 L50 20 C50 8.9606 58.9606 0 70 0 L330 0 C341.039 0 350 8.9606 350 20 L350 40 C350 51.0394 341.039 60 330 60 L130 60 C118.961 60 110 68.9606 110 80 L110 317 C110 328.039 118.961 337 130 337 L248.331 337 C259.186 337 268.147 345.813 268.328 356.667 L268.661 376.667 C268.848 387.889 259.887 397 248.664 397 L248.664 397 Z M200 789 C249 789 290.344 824.219 299.914 871.209 C302.557 884.185 295.243 892 282 892 L253.5 892 C248.734 892 241.853 886.118 240.666 881.503 C235.965 863.238 219.406 849 200 849 C179.75 849 163.06 863.238 158.338 881.503 C157.147 886.111 150.259 892 145.5 892 L117 892 C103.754 892 96.4409 884.187 99.0879 871.209 C108.672 824.219 150.125 789 200 789 L200 789 Z " />
<glyph glyph-name="ebreve" unicode="&#x115;" horiz-adv-x="400" d="M232 397 L130 397 C118.961 397 110 405.961 110 417 L110 620 C110 631.039 118.961 640 130 640 L330 640 C341.039 640 350 648.961 350 660 L350 680 C350 691.039 341.039 700 330 700 L70 700 C58.9606 700 50 691.039 50 680 L50 20 C50 8.9606 58.9606 0 70 0 L330 0 C341.039 0 350 8.9606 350 20 L350 40 C350 51.0394 341.039 60 330 60 L130 60 C118.961 60 110 68.9606 110 80 L110 317 C110 328.039 118.961 337 130 337 L232 337 C243.039 337 252 345.961 252 357 L252 377 C252 388.039 243.039 397 232 397 L232 397 Z M200 789 C249 789 290.344 824.219 299.914 871.209 C302.557 884.185 295.243 892 282 892 L253.5 892 C248.734 892 241.853 886.118 240.666 881.503 C235.965 863.238 219.406 849 200 849 C179.75 849 163.06 863.238 158.338 881.503 C157.147 886.111 150.259 892 145.5 892 L117 892 C103.754 892 96.4409 884.187 99.0879 871.209 C108.672 824.219 150.125 789 200 789 L200 789 Z " />
<glyph glyph-name="Edotaccent" unicode="&#x116;" horiz-adv-x="400" d="M248.331 337 L130 337 C118.961 337 110 328.039 110 317 L110 80 C110 68.9606 118.961 60 130 60 L330 60 C341.039 60 350 51.0394 350 40 L350 20 C350 8.9606 341.039 0 330 0 L70 0 C58.9606 0 50 8.9606 50 20 L50 680 C50 691.039 58.9606 700 70 700 L330 700 C341.039 700 350 691.039 350 680 L350 660 C350 648.961 341.039 640 330 640 L130 640 C118.961 640 110 631.039 110 620 L110 417 C110 405.961 118.961 397 130 397 L248.664 397 C259.887 397 268.848 387.889 268.661 376.667 L268.328 356.667 C268.147 345.813 259.186 337 248.331 337 L248.331 337 Z M152 837 C152 810 174 789 200 789 C227 789 248 810 248 837 C248 863 227 885 200 885 C174 885 152 863 152 837 L152 837 Z " />
<glyph glyph-name="edotaccent" unicode="&#x117;" horiz-adv-x="400" d="M232 337 L130 337 C118.961 337 110 328.039 110 317 L110 80 C110 68.9606 118.961 60 130 60 L330 60 C341.039 60 350 51.0394 350 40 L350 20 C350 8.9606 341.039 0 330 0 L70 0 C58.9606 0 50 8.9606 50 20 L50 680 C50 691.039 58.9606 700 70 700 L330 700 C341.039 700 350 691.039 350 680 L350 660 C350 648.961 341.039 640 330 640 L130 640 C118.961 640 110 631.039 110 620 L110 417 C110 405.961 118.961 397 130 397 L232 397 C243.039 397 252 388.039 252 377 L252 357 C252 345.961 243.039 337 232 337 L232 337 Z M152 837 C152 810 174 789 200 789 C227 789 248 810 248 837 C248 863 227 885 200 885 C174 885 152 863 152 837 L152 837 Z " />
<glyph glyph-name="Eogonek" unicode="&#x118;" horiz-adv-x="400" d="M238 -191 C259.667 -191 281.333 -184.056 299.528 -170.167 C306.558 -164.8 306.254 -157.254 300 -151 L276.254 -127.254 C272.83 -123.83 263.603 -122.959 259.379 -125.328 C242.831 -134.609 221.5 -132.5 208 -119 C192.342 -103.342 191.954 -79.2008 211.525 -55.1712 C213.091 -53.2485 217 -43.4242 217 -40.9445 L217 -20 C217 -8.9606 225.961 0 237 0 L330 0 C341.039 0 350 8.9606 350 20 L350 40 C350 51.0394 341.039 60 330 60 L130 60 C118.961 60 110 68.9606 110 80 L110 317 C110 328.039 118.961 337 130 337 L248.331 337 C259.186 337 268.147 345.813 268.328 356.667 L268.661 376.667 C268.848 387.889 259.887 397 248.664 397 L130 397 C118.961 397 110 405.961 110 417 L110 620 C110 631.039 118.961 640 130 640 L330 640 C341.039 640 350 648.961 350 660 L350 680 C350 691.039 341.039 700 330 700 L70 700 C58.9606 700 50 691.039 50 680 L50 20 C50 8.9606 58.9606 0 70 0 L143 0 C150.176 0 156 -5.82439 156 -13 L156 -19.1378 C156 -21.025 152.935 -30.1169 151.88 -31.6814 C140.627 -48.3662 135 -67.3793 135 -88 C135 -116 146 -142 165 -161 C185 -181 211 -191 238 -191 L238 -191 Z " />
<glyph glyph-name="eogonek" unicode="&#x119;" horiz-adv-x="400" d="M238 -191 C259.667 -191 281.333 -184.056 299.528 -170.167 C306.558 -164.8 306.254 -157.254 300 -151 L276.254 -127.254 C272.83 -123.83 263.603 -122.959 259.379 -125.328 C242.831 -134.609 221.5 -132.5 208 -119 C192.342 -103.342 191.954 -79.2008 211.525 -55.1712 C213.091 -53.2485 217 -43.4242 217 -40.9445 L217 -20 C217 -8.9606 225.961 0 237 0 L330 0 C341.039 0 350 8.9606 350 20 L350 40 C350 51.0394 341.039 60 330 60 L130 60 C118.961 60 110 68.9606 110 80 L110 317 C110 328.039 118.961 337 130 337 L232 337 C243.039 337 252 345.961 252 357 L252 377 C252 388.039 243.039 397 232 397 L130 397 C118.961 397 110 405.961 110 417 L110 620 C110 631.039 118.961 640 130 640 L330 640 C341.039 640 350 648.961 350 660 L350 680 C350 691.039 341.039 700 330 700 L70 700 C58.9606 700 50 691.039 50 680 L50 20 C50 8.9606 58.9606 0 70 0 L143 0 C150.176 0 156 -5.82439 156 -13 L156 -19.1378 C156 -21.025 152.935 -30.1169 151.88 -31.6814 C140.627 -48.3662 135 -67.3793 135 -88 C135 -116 146 -142 165 -161 C185 -181 211 -191 238 -191 L238 -191 Z " />
<glyph glyph-name="Ecaron" unicode="&#x11a;" horiz-adv-x="400" d="M248.664 397 L130 397 C118.961 397 110 405.961 110 417 L110 620 C110 631.039 118.961 640 130 640 L330 640 C341.039 640 350 648.961 350 660 L350 680 C350 691.039 341.039 700 330 700 L70 700 C58.9606 700 50 691.039 50 680 L50 20 C50 8.9606 58.9606 0 70 0 L330 0 C341.039 0 350 8.9606 350 20 L350 40 C350 51.0394 341.039 60 330 60 L130 60 C118.961 60 110 68.9606 110 80 L110 317 C110 328.039 118.961 337 130 337 L248.331 337 C259.186 337 268.147 345.813 268.328 356.667 L268.661 376.667 C268.848 387.889 259.887 397 248.664 397 L248.664 397 Z M87 877 L88.3658 873.358 C88.764 872.296 92.5642 866.588 93.3905 865.811 L168.225 795.431 C170.409 793.377 178.93 790 181.927 790 L217.073 790 C220.07 790 228.591 793.377 230.775 795.431 L305.61 865.811 C306.436 866.588 310.236 872.296 310.634 873.358 L312 877 C313.655 881.414 311.457 886.455 307.097 888.246 L271.152 903.009 C264.996 905.537 254.358 903.475 249.593 898.83 L213.345 863.496 C205.707 856.051 193.243 855.999 185.543 863.38 L148.463 898.928 C143.673 903.52 133.027 905.502 126.906 902.943 L91.8825 888.296 C87.5346 886.478 85.3452 881.413 87 877 L87 877 Z " />
<glyph glyph-name="ecaron" unicode="&#x11b;" horiz-adv-x="400" d="M232 397 L130 397 C118.961 397 110 405.961 110 417 L110 620 C110 631.039 118.961 640 130 640 L330 640 C341.039 640 350 648.961 350 660 L350 680 C350 691.039 341.039 700 330 700 L70 700 C58.9606 700 50 691.039 50 680 L50 20 C50 8.9606 58.9606 0 70 0 L330 0 C341.039 0 350 8.9606 350 20 L350 40 C350 51.0394 341.039 60 330 60 L130 60 C118.961 60 110 68.9606 110 80 L110 317 C110 328.039 118.961 337 130 337 L232 337 C243.039 337 252 345.961 252 357 L252 377 C252 388.039 243.039 397 232 397 L232 397 Z M87 876 L88.3658 872.358 C88.764 871.296 92.5642 865.588 93.3905 864.811 L168.225 794.431 C170.409 792.377 178.93 789 181.927 789 L217.073 789 C220.07 789 228.591 792.377 230.775 794.431 L305.61 864.811 C306.436 865.588 310.236 871.296 310.634 872.358 L312 876 C313.655 880.414 311.457 885.455 307.097 887.246 L271.152 902.009 C264.996 904.537 254.358 902.475 249.593 897.83 L213.345 862.496 C205.707 855.051 193.243 854.999 185.543 862.38 L148.463 897.928 C143.673 902.52 133.027 904.502 126.906 901.943 L91.8825 887.296 C87.5346 885.478 85.3452 880.413 87 876 L87 876 Z " />
<glyph glyph-name="Gcircumflex" unicode="&#x11c;" horiz-adv-x="461" d="M350.165 265.167 L351 165 C351 107 303 60 245 60 L215 60 C157 60 110 107 110 165 L110 544 C110 602 157 650 215 650 L245 650 C295.75 650 338.844 613.25 348.824 565.207 C350.613 556.597 362.206 544 371 544 L391 544 C403.378 544 411.276 551.893 409.775 564.18 C399.799 645.828 330.1 710 245 710 L215 710 C124 710 50 635 50 544 L50 165 C50 74 124 0 215 0 L245 0 C337 0 411 74 411 165 L411 325 C411 336.039 402.039 345 391 345 L285 345 C273.961 345 265 336.039 265 325 L265 305 C265 293.961 273.961 285 285 285 L330.166 285 C341.113 285 350.074 276.114 350.165 265.167 L350.165 265.167 Z M343 821 L341.634 824.642 C341.236 825.704 337.436 831.412 336.61 832.189 L261.775 902.569 C259.591 904.623 251.07 908 248.073 908 L212.927 908 C209.93 908 201.409 904.623 199.225 902.569 L124.39 832.189 C123.564 831.412 119.764 825.704 119.366 824.642 L118 821 C116.345 816.586 118.543 811.545 122.903 809.754 L158.848 794.991 C165.004 792.463 175.642 794.525 180.407 799.17 L216.655 834.504 C224.293 841.949 236.757 842.001 244.457 834.62 L281.537 799.072 C286.327 794.48 296.973 792.498 303.094 795.057 L338.117 809.704 C342.465 811.522 344.655 816.587 343 821 L343 821 Z " />
<glyph glyph-name="gcircumflex" unicode="&#x11d;" horiz-adv-x="409" d="M357.858 568.833 C348.56 644.962 283.625 704 205 704 C119 704 50 635 50 550 L50 151 C50 65 119 -4 205 -4 C290 -4 359 65 359 151 L359 325 C359 336.039 350.039 345 339 345 L234 345 C222.961 345 214 336.039 214 325 L214 305 C214 293.961 222.961 285 234 285 L279 285 C290.039 285 299 276.039 299 265 L299 151 C299 98 257 56 205 56 C152 56 110 98 110 151 L110 550 C110 602 152 644 205 644 C250.5 644 288.344 611.844 297.094 568.969 C298.86 560.315 310.168 550 319 550 L339 550 C351.378 550 359.359 556.546 357.858 568.833 L357.858 568.833 Z M317 820 L315.634 823.642 C315.236 824.704 311.436 830.412 310.61 831.189 L235.775 901.569 C233.591 903.623 225.07 907 222.073 907 L186.927 907 C183.93 907 175.409 903.623 173.225 901.569 L98.3905 831.189 C97.5642 830.412 93.764 824.704 93.3658 823.642 L92 820 C90.3449 815.586 92.543 810.545 96.9034 808.754 L132.848 793.991 C139.004 791.463 149.642 793.525 154.407 798.17 L190.655 833.504 C198.293 840.949 210.757 841.001 218.457 833.62 L255.537 798.072 C260.327 793.48 270.973 791.498 277.094 794.057 L312.117 808.704 C316.465 810.522 318.655 815.587 317 820 L317 820 Z " />
<glyph glyph-name="Gbreve" unicode="&#x11e;" horiz-adv-x="461" d="M350.165 265.167 L351 165 C351 107 303 60 245 60 L215 60 C157 60 110 107 110 165 L110 544 C110 602 157 650 215 650 L245 650 C295.75 650 338.844 613.25 348.824 565.207 C350.613 556.597 362.206 544 371 544 L391 544 C403.378 544 411.276 551.893 409.775 564.18 C399.799 645.828 330.1 710 245 710 L215 710 C124 710 50 635 50 544 L50 165 C50 74 124 0 215 0 L245 0 C337 0 411 74 411 165 L411 325 C411 336.039 402.039 345 391 345 L285 345 C273.961 345 265 336.039 265 325 L265 305 C265 293.961 273.961 285 285 285 L330.166 285 C341.113 285 350.074 276.114 350.165 265.167 L350.165 265.167 Z M231 790 C280 790 321.344 825.219 330.914 872.209 C333.557 885.185 326.243 893 313 893 L284.5 893 C279.734 893 272.853 887.118 271.666 882.503 C266.965 864.238 250.406 850 231 850 C210.75 850 194.06 864.238 189.338 882.503 C188.147 887.111 181.259 893 176.5 893 L148 893 C134.754 893 127.441 885.187 130.088 872.209 C139.672 825.219 181.125 790 231 790 L231 790 Z " />
<glyph glyph-name="gbreve" unicode="&#x11f;" horiz-adv-x="409" d="M357.858 568.833 C348.56 644.962 283.625 704 205 704 C119 704 50 635 50 550 L50 151 C50 65 119 -4 205 -4 C290 -4 359 65 359 151 L359 325 C359 336.039 350.039 345 339 345 L234 345 C222.961 345 214 336.039 214 325 L214 305 C214 293.961 222.961 285 234 285 L279 285 C290.039 285 299 276.039 299 265 L299 151 C299 98 257 56 205 56 C152 56 110 98 110 151 L110 550 C110 602 152 644 205 644 C250.5 644 288.344 611.844 297.094 568.969 C298.86 560.315 310.168 550 319 550 L339 550 C351.378 550 359.359 556.546 357.858 568.833 L357.858 568.833 Z M205 790 C254 790 295.344 825.219 304.914 872.209 C307.557 885.185 300.243 893 287 893 L258.5 893 C253.734 893 246.853 887.118 245.666 882.503 C240.965 864.238 224.406 850 205 850 C184.75 850 168.06 864.238 163.338 882.503 C162.147 887.111 155.259 893 150.5 893 L122 893 C108.754 893 101.441 885.187 104.088 872.209 C113.672 825.219 155.125 790 205 790 L205 790 Z " />
<glyph glyph-name="Gdotaccent" unicode="&#x120;" horiz-adv-x="461" d="M330.166 285 L285 285 C273.961 285 265 293.961 265 305 L265 325 C265 336.039 273.961 345 285 345 L391 345 C402.039 345 411 336.039 411 325 L411 165 C411 74 337 0 245 0 L215 0 C124 0 50 74 50 165 L50 544 C50 635 124 710 215 710 L245 710 C330.1 710 399.799 645.828 409.775 564.18 C411.276 551.893 403.378 544 391 544 L371 544 C362.206 544 350.613 556.597 348.824 565.207 C338.844 613.25 295.75 650 245 650 L215 650 C157 650 110 602 110 544 L110 165 C110 107 157 60 215 60 L245 60 C303 60 351 107 351 165 L350.165 265.167 C350.074 276.114 341.113 285 330.166 285 L330.166 285 Z M182 837 C182 810 204 789 230 789 C257 789 278 810 278 837 C278 863 257 885 230 885 C204 885 182 863 182 837 L182 837 Z " />
<glyph glyph-name="gdotaccent" unicode="&#x121;" horiz-adv-x="409" d="M297.094 568.969 C288.344 611.844 250.5 644 205 644 C152 644 110 602 110 550 L110 151 C110 98 152 56 205 56 C257 56 299 98 299 151 L299 265 C299 276.039 290.039 285 279 285 L234 285 C222.961 285 214 293.961 214 305 L214 325 C214 336.039 222.961 345 234 345 L339 345 C350.039 345 359 336.039 359 325 L359 151 C359 65 290 -4 205 -4 C119 -4 50 65 50 151 L50 550 C50 635 119 704 205 704 C283.625 704 348.56 644.962 357.858 568.833 C359.359 556.546 351.378 550 339 550 L319 550 C310.168 550 298.86 560.315 297.094 568.969 L297.094 568.969 Z M156 838 C156 811 178 790 204 790 C231 790 252 811 252 838 C252 864 231 886 204 886 C178 886 156 864 156 838 L156 838 Z " />
<glyph glyph-name="Hcircumflex" unicode="&#x124;" horiz-adv-x="449" d="M110 20 L110 281.296 C110 290.072 115.569 297.4 124.159 299.198 C151.312 304.885 180.85 298 214 281 C235 269 260 264 286 264 C300.87 264 315.739 265.365 330.045 268.658 C334.411 269.663 339 266.62 339 262.14 L339 20 C339 8.9606 347.961 0 359 0 L379 0 C390.039 0 399 8.9606 399 20 L399 680 C399 691.039 390.039 700 379 700 L359 700 C347.961 700 339 691.039 339 680 L339 457.816 C339 449.669 332.933 441.623 325.07 439.488 C292.531 430.656 260.375 433.5 242 444 C204.05 464.625 167.461 472.999 132.234 470.244 C121.935 469.439 110 478.146 110 488.477 L110 680 C110 691.039 101.039 700 90 700 L70 700 C58.9606 700 50 691.039 50 680 L50 20 C50 8.9606 58.9606 0 70 0 L90 0 C101.039 0 110 8.9606 110 20 L110 20 Z M286 374 C300.87 374 315.739 375.365 330.045 378.658 C334.411 379.663 339 376.62 339 372.14 L339 347.816 C339 339.669 332.933 331.623 325.07 329.488 C292.531 320.656 260.375 323.5 242 334 C204.05 354.625 167.461 362.999 132.234 360.244 C121.935 359.439 110 368.146 110 378.477 L110 391.296 C110 400.072 115.569 407.4 124.159 409.198 C151.312 414.885 180.85 408 214 391 C235 379 260 374 286 374 L286 374 Z M337 821 L335.634 824.642 C335.236 825.704 331.436 831.412 330.61 832.189 L255.775 902.569 C253.591 904.623 245.07 908 242.073 908 L206.927 908 C203.93 908 195.409 904.623 193.225 902.569 L118.39 832.189 C117.564 831.412 113.764 825.704 113.366 824.642 L112 821 C110.345 816.586 112.543 811.545 116.903 809.754 L152.848 794.991 C159.004 792.463 169.642 794.525 174.407 799.17 L210.655 834.504 C218.293 841.949 230.757 842.001 238.457 834.62 L275.537 799.072 C280.327 794.48 290.973 792.498 297.094 795.057 L332.117 809.704 C336.465 811.522 338.655 816.587 337 821 L337 821 Z " />
<glyph glyph-name="hcircumflex" unicode="&#x125;" horiz-adv-x="449" d="M359 0 L379 0 C390.039 0 399 8.9606 399 20 L399 680 C399 691.039 390.039 700 379 700 L359 700 C347.961 700 339 691.039 339 680 L339 457.816 C339 449.669 332.933 441.623 325.07 439.488 C292.531 430.656 260.375 433.5 242 444 C204.05 464.625 167.461 472.999 132.234 470.244 C121.935 469.439 110 478.146 110 488.477 L110 680 C110 691.039 101.039 700 90 700 L70 700 C58.9606 700 50 691.039 50 680 L50 20 C50 8.9606 58.9606 0 70 0 L90 0 C101.039 0 110 8.9606 110 20 L110 391.296 C110 400.072 115.569 407.4 124.159 409.198 C151.312 414.885 180.85 408 214 391 C235 379 260 374 286 374 C300.87 374 315.739 375.365 330.045 378.658 C334.411 379.663 339 376.62 339 372.14 L339 20 C339 8.9606 347.961 0 359 0 L359 0 Z M337 820 L335.634 823.642 C335.236 824.704 331.436 830.412 330.61 831.189 L255.775 901.569 C253.591 903.623 245.07 907 242.073 907 L206.927 907 C203.93 907 195.409 903.623 193.225 901.569 L118.39 831.189 C117.564 830.412 113.764 824.704 113.366 823.642 L112 820 C110.345 815.586 112.543 810.545 116.903 808.754 L152.848 793.991 C159.004 791.463 169.642 793.525 174.407 798.17 L210.655 833.504 C218.293 840.949 230.757 841.001 238.457 833.62 L275.537 798.072 C280.327 793.48 290.973 791.498 297.094 794.057 L332.117 808.704 C336.465 810.522 338.655 815.587 337 820 L337 820 Z " />
<glyph glyph-name="Hbar" unicode="&#x126;" horiz-adv-x="519" d="M451.5 570 C441.841 570 434 577.841 434 587.5 L434 677 C434 688.039 425.039 697 414 697 L394 697 C382.961 697 374 688.039 374 677 L374 590 C374 578.961 365.039 570 354 570 L165 570 C153.961 570 145 578.961 145 590 L145 680.664 C145 691.887 135.889 700.848 124.667 700.661 L104.667 700.328 C93.8128 700.147 85 691.186 85 680.331 L85 587.5 C85 577.841 77.1595 570 67.5 570 C57.8405 570 50 562.159 50 552.5 L50 527.5 C50 517.841 57.8405 510 67.5 510 C77.1595 510 85 502.159 85 492.5 L85 20 C85 8.9606 93.9606 0 105 0 L125 0 C136.039 0 145 8.9606 145 20 L145 281.296 C145 290.072 150.569 297.4 159.159 299.198 C186.312 304.885 215.85 298 249 281 C270 269 295 264 321 264 C335.87 264 350.739 265.365 365.045 268.658 C369.411 269.663 374 266.62 374 262.14 L374 20 C374 8.9606 382.961 0 394 0 L414 0 C425.039 0 434 8.9606 434 20 L434 492.5 C434 502.159 441.841 510 451.5 510 C461.159 510 469 517.841 469 527.5 L469 552.5 C469 562.159 461.159 570 451.5 570 L451.5 570 Z M277 444 C239.05 464.625 202.461 472.999 167.234 470.244 C156.935 469.439 145 478.146 145 488.477 L145 490 C145 501.039 153.961 510 165 510 L354 510 C365.039 510 374 501.039 374 490 L374 457.816 C374 449.669 367.933 441.623 360.07 439.488 C327.531 430.656 295.375 433.5 277 444 L277 444 Z M321 374 C335.87 374 350.739 375.365 365.045 378.658 C369.411 379.663 374 376.62 374 372.14 L374 347.816 C374 339.669 367.933 331.623 360.07 329.488 C327.531 320.656 295.375 323.5 277 334 C239.05 354.625 202.461 362.999 167.234 360.244 C156.935 359.439 145 368.146 145 378.477 L145 391.296 C145 400.072 150.569 407.4 159.159 409.198 C186.312 414.885 215.85 408 249 391 C270 379 295 374 321 374 L321 374 Z " />
<glyph glyph-name="Itilde" unicode="&#x128;" horiz-adv-x="161" d="M111 20 L111 680 C111 691.039 102.039 700 91 700 L70 700 C58.9606 700 50 691.039 50 680 L50 20 C50 8.9606 58.9606 0 70 0 L91 0 C102.039 0 111 8.9606 111 20 L111 20 Z M163 791 C183.4 795.25 200.91 803.113 224.128 826.256 C232.503 834.604 230.722 845.459 221.798 853.219 L205.837 867.099 C198.945 873.091 184.642 872.849 177.549 867.096 C146.281 841.734 115.875 848.625 87 867 C38.4 897.6 -21.54 882.03 -62.931 842.16 C-72.3354 833.101 -69.2297 823.164 -58.6042 815.574 L-38.883 801.488 C-33.433 797.595 -22.7562 798.37 -17.8301 802.908 C1.365 820.59 30.35 831.3 55 816 C83 797 124 784 163 791 L163 791 Z " />
<glyph glyph-name="Imacron" unicode="&#x12a;" horiz-adv-x="161" d="M111 20 L111 680 C111 691.039 102.039 700 91 700 L70 700 C58.9606 700 50 691.039 50 680 L50 20 C50 8.9606 58.9606 0 70 0 L91 0 C102.039 0 111 8.9606 111 20 L111 20 Z M210 850 L-50 850 C-61.0394 850 -70 841.039 -70 830 L-70 810 C-70 798.961 -61.0394 790 -50 790 L210 790 C221.039 790 230 798.961 230 810 L230 830 C230 841.039 221.039 850 210 850 L210 850 Z " />
<glyph glyph-name="Iogonek" unicode="&#x12e;" horiz-adv-x="161" d="M132 -191 C153.667 -191 175.333 -184.056 193.528 -170.167 C200.558 -164.8 200.254 -157.254 194 -151 L170.254 -127.254 C166.83 -123.83 157.603 -122.959 153.379 -125.328 C136.831 -134.609 115.5 -132.5 102 -119 C86.3421 -103.342 85.9543 -79.2008 105.525 -55.1712 C107.091 -53.2485 111 -43.4242 111 -40.9445 L111 680 C111 691.039 102.039 700 91 700 L70 700 C58.9606 700 50 691.039 50 680 L50 -19.1378 C50 -21.025 46.9351 -30.1169 45.8799 -31.6814 C34.6266 -48.3662 29 -67.3793 29 -88 C29 -116 40 -142 59 -161 C79 -181 105 -191 132 -191 L132 -191 Z " />
<glyph glyph-name="iogonek" unicode="&#x12f;" horiz-adv-x="160" d="M132 -191 C153.667 -191 175.333 -184.056 193.528 -170.167 C200.558 -164.8 200.254 -157.254 194 -151 L170.254 -127.254 C166.83 -123.83 157.603 -122.959 153.379 -125.328 C136.831 -134.609 115.5 -132.5 102 -119 C86.3421 -103.342 85.9543 -79.2008 105.525 -55.1712 C107.097 -53.2413 110.993 -43.418 110.989 -40.929 L110.027 680.027 C110.012 691.051 101.051 700 90.0267 700 L70 700 C58.9606 700 50 691.039 50 680 L50 -19.1378 C50 -21.025 46.9351 -30.1169 45.8799 -31.6814 C34.6266 -48.3662 29 -67.3793 29 -88 C29 -116 40 -142 59 -161 C79 -181 105 -191 132 -191 L132 -191 Z " />
<glyph glyph-name="Idotaccent" unicode="&#x130;" horiz-adv-x="161" d="M50 20 L50 680 C50 691.039 58.9606 700 70 700 L91 700 C102.039 700 111 691.039 111 680 L111 20 C111 8.9606 102.039 0 91 0 L70 0 C58.9606 0 50 8.9606 50 20 L50 20 Z M32 838 C32 811 54 790 80 790 C107 790 128 811 128 838 C128 864 107 886 80 886 C54 886 32 864 32 838 L32 838 Z " />
<glyph glyph-name="ij" unicode="&#x133;" horiz-adv-x="323" d="M110 288 L110 680 C110 691.039 101.039 700 90 700 L70 700 C58.9606 700 50 691.039 50 680 L50 288 C50 276.961 58.9606 268 70 268 L90 268 C101.039 268 110 276.961 110 288 L110 288 Z M161 0 C223 0 273 50 273 111 L273 679 C273 690.039 264.039 699 253 699 L233 699 C221.961 699 213 690.039 213 679 L213 111 C213 83 190 60 161 60 C133 60 110 83 110 111 L110 153 C110 164.039 101.039 173 90 173 L70 173 C58.9606 173 50 164.039 50 153 L50 111 C50 50 100 0 161 0 L161 0 Z " />
<glyph glyph-name="Jcircumflex" unicode="&#x134;" horiz-adv-x="323" d="M161 0 C223 0 273 50 273 111 L273 680 C273 691.039 264.039 700 253 700 L233 700 C221.961 700 213 691.039 213 680 L213 111 C213 83 190 60 161 60 C133 60 110 83 110 111 L110 157 C110 168.039 101.039 177 90 177 L70 177 C58.9606 177 50 168.039 50 157 L50 111 C50 50 100 0 161 0 L161 0 Z M357 822 L355.634 825.642 C355.236 826.704 351.436 832.412 350.61 833.189 L275.775 903.569 C273.591 905.623 265.07 909 262.073 909 L226.927 909 C223.93 909 215.409 905.623 213.225 903.569 L138.39 833.189 C137.564 832.412 133.764 826.704 133.366 825.642 L132 822 C130.345 817.586 132.543 812.545 136.903 810.754 L172.848 795.991 C179.004 793.463 189.642 795.525 194.407 800.17 L230.655 835.504 C238.293 842.949 250.757 843.001 258.457 835.62 L295.537 800.072 C300.327 795.48 310.973 793.498 317.094 796.057 L352.117 810.704 C356.465 812.522 358.655 817.587 357 822 L357 822 Z " />
<glyph glyph-name="jcircumflex" unicode="&#x135;" horiz-adv-x="323" d="M161 0 C223 0 273 50 273 111 L273 679 C273 690.039 264.039 699 253 699 L233 699 C221.961 699 213 690.039 213 679 L213 111 C213 83 190 60 161 60 C133 60 110 83 110 111 L110 154 C110 165.039 101.039 174 90 174 L70 174 C58.9606 174 50 165.039 50 154 L50 111 C50 50 100 0 161 0 L161 0 Z M357 822 L355.634 825.642 C355.236 826.704 351.436 832.412 350.61 833.189 L275.775 903.569 C273.591 905.623 265.07 909 262.073 909 L226.927 909 C223.93 909 215.409 905.623 213.225 903.569 L138.39 833.189 C137.564 832.412 133.764 826.704 133.366 825.642 L132 822 C130.345 817.586 132.543 812.545 136.903 810.754 L172.848 795.991 C179.004 793.463 189.642 795.525 194.407 800.17 L230.655 835.504 C238.293 842.949 250.757 843.001 258.457 835.62 L295.537 800.072 C300.327 795.48 310.973 793.498 317.094 796.057 L352.117 810.704 C356.465 812.522 358.655 817.587 357 822 L357 822 Z " />
<glyph glyph-name="kgreenlandic" unicode="&#x138;" horiz-adv-x="569" d="M469 60 L417 60 C376 60 339 85 325 123 L259 295 C253.077 311.077 244.29 325.722 232.639 337.723 C229.381 341.079 229.562 346.966 232.933 350.209 C247.378 364.102 258.067 380.8 265 399 L315.731 530.201 C318.292 536.824 329.104 536.574 333.162 530.747 C351.784 504.016 382.35 487 417 487 C473 487 519 533 519 590 C519 644 476 692 422 692 C390 692 363 683 332 664 C306 646 286 620 274 590 L209 420 C199 394 174 377 146 377 L128 377 C118.065 377 110 385.065 110 395 L110 680 C110 691.039 101.039 700 90 700 L70 700 C58.9606 700 50 691.039 50 680 L50 20 C50 8.9606 58.9606 0 70 0 L90 0 C101.039 0 110 8.9606 110 20 L110 299.5 C110 309.159 117.841 317 127.5 317 L145 317 C171 317 195 298 203 274 L269 102 C291 41 352 0 417 0 L469 0 C480.039 0 489 8.9606 489 20 L489 40 C489 51.0394 480.039 60 469 60 L469 60 Z M417 632 C440 632 459 613 459 590 C459 566 440 547 417 547 C393 547 374 566 374 590 C374 611 391 632 417 632 L417 632 Z " />
<glyph glyph-name="Lacute" unicode="&#x139;" horiz-adv-x="417" d="M270 -19 C300.6 -19 330.477 -11.775 354.719 -1.62388 C362.607 1.67905 364.246 9.3115 360.31 16.903 L348.41 39.8512 C343.75 48.8395 332.019 54.0134 322.676 50.1136 C263.003 25.207 224.968 53.7474 175.41 70.0233 C168.195 72.393 162 81.8358 162 89.4306 L162 679 C162 690.039 153.039 699 142 699 L122 699 C110.961 699 102 690.039 102 679 L102 84.1241 C102 79.4899 97.5989 74.2718 93.0787 73.25 C81.2824 70.5833 69.8565 66.5833 58.5046 61.25 C53.477 58.8879 51.9789 53.4516 54.6845 48.6003 L69.3689 22.2695 C73.6764 14.5457 89.327 10.355 97.7532 13.0403 C127.834 22.6262 160.875 17.8 198 -2 C220 -14 245 -19 270 -19 L270 -19 Z M172.057 894.537 L103.278 819.74 C101.306 817.595 98 809.116 98 806.202 L98 802 C98 795.376 103.376 790 110 790 L148.294 790 C151.811 790 160.536 793.798 162.932 796.372 L232.638 871.241 C234.655 873.407 238 881.909 238 884.869 L238 889 C238 895.624 232.624 901 226 901 L186.779 901 C183.212 901 174.472 897.163 172.057 894.537 L172.057 894.537 Z " />
<glyph glyph-name="lacute" unicode="&#x13a;" horiz-adv-x="400" d="M330 60 L130 60 C118.961 60 110 68.9606 110 80 L110 680 C110 691.039 101.039 700 90 700 L70 700 C58.9606 700 50 691.039 50 680 L50 20 C50 8.9606 58.9606 0 70 0 L330 0 C341.039 0 350 8.9606 350 20 L350 40 C350 51.0394 341.039 60 330 60 L330 60 Z M146.057 894.537 L77.278 819.74 C75.3061 817.595 72 809.116 72 806.202 L72 802 C72 795.376 77.3764 790 84 790 L122.294 790 C125.811 790 134.536 793.798 136.932 796.372 L206.638 871.241 C208.655 873.407 212 881.909 212 884.869 L212 889 C212 895.624 206.624 901 200 901 L160.779 901 C157.212 901 148.472 897.163 146.057 894.537 L146.057 894.537 Z " />
<glyph glyph-name="Lcaron" unicode="&#x13d;" horiz-adv-x="417" d="M270 -19 C300.6 -19 330.477 -11.775 354.719 -1.62388 C362.607 1.67905 364.246 9.3115 360.31 16.903 L348.41 39.8512 C343.75 48.8395 332.019 54.0134 322.676 50.1136 C263.003 25.207 224.968 53.7474 175.41 70.0233 C168.195 72.393 162 81.8358 162 89.4306 L162 679 C162 690.039 153.039 699 142 699 L122 699 C110.961 699 102 690.039 102 679 L102 84.1241 C102 79.4899 97.5989 74.2718 93.0787 73.25 C81.2824 70.5833 69.8565 66.5833 58.5046 61.25 C53.477 58.8879 51.9789 53.4516 54.6845 48.6003 L69.3689 22.2695 C73.6764 14.5457 89.327 10.355 97.7532 13.0403 C127.834 22.6262 160.875 17.8 198 -2 C220 -14 245 -19 270 -19 L270 -19 Z M20 877 L21.3658 873.358 C21.764 872.296 25.5642 866.588 26.3905 865.811 L101.225 795.431 C103.409 793.377 111.93 790 114.927 790 L150.073 790 C153.07 790 161.591 793.377 163.775 795.431 L238.61 865.811 C239.436 866.588 243.236 872.296 243.634 873.358 L245 877 C246.655 881.414 244.457 886.455 240.097 888.246 L204.152 903.009 C197.996 905.537 187.358 903.475 182.593 898.83 L146.345 863.496 C138.707 856.051 126.243 855.999 118.543 863.38 L81.4628 898.928 C76.6734 903.52 66.0272 905.502 59.906 902.943 L24.8825 888.296 C20.5346 886.478 18.3452 881.413 20 877 L20 877 Z " />
<glyph glyph-name="lcaron" unicode="&#x13e;" horiz-adv-x="400" d="M330 60 L130 60 C118.961 60 110 68.9606 110 80 L110 680 C110 691.039 101.039 700 90 700 L70 700 C58.9606 700 50 691.039 50 680 L50 20 C50 8.9606 58.9606 0 70 0 L330 0 C341.039 0 350 8.9606 350 20 L350 40 C350 51.0394 341.039 60 330 60 L330 60 Z M-33 877 L-31.6342 873.358 C-31.236 872.296 -27.4358 866.588 -26.6095 865.811 L48.2254 795.431 C50.409 793.377 58.9295 790 61.9272 790 L97.0728 790 C100.07 790 108.591 793.377 110.775 795.431 L185.61 865.811 C186.436 866.588 190.236 872.296 190.634 873.358 L192 877 C193.655 881.414 191.457 886.455 187.097 888.246 L151.152 903.009 C144.996 905.537 134.358 903.475 129.593 898.83 L93.3446 863.496 C85.7072 856.051 73.2426 855.999 65.5435 863.38 L28.4628 898.928 C23.6734 903.52 13.0272 905.502 6.90601 902.943 L-28.1175 888.296 C-32.4654 886.478 -34.6548 881.413 -33 877 L-33 877 Z " />
<glyph glyph-name="Ldot" unicode="&#x13f;" horiz-adv-x="417" d="M270 -19 C300.6 -19 330.477 -11.775 354.719 -1.62388 C362.607 1.67905 364.246 9.3115 360.31 16.903 L348.41 39.8512 C343.75 48.8395 332.019 54.0134 322.676 50.1136 C263.003 25.207 224.968 53.7474 175.41 70.0233 C168.195 72.393 162 81.8358 162 89.4306 L162 679 C162 690.039 153.039 699 142 699 L122 699 C110.961 699 102 690.039 102 679 L102 84.1241 C102 79.4899 97.5989 74.2718 93.0787 73.25 C81.2824 70.5833 69.8565 66.5833 58.5046 61.25 C53.477 58.8879 51.9789 53.4516 54.6845 48.6003 L69.3689 22.2695 C73.6764 14.5457 89.327 10.355 97.7532 13.0403 C127.834 22.6262 160.875 17.8 198 -2 C220 -14 245 -19 270 -19 L270 -19 Z M268 446 C268 419 290 398 316 398 C343 398 364 419 364 446 C364 472 343 494 316 494 C290 494 268 472 268 446 L268 446 Z " />
<glyph glyph-name="ldot" unicode="&#x140;" horiz-adv-x="400" d="M330 60 L130 60 C118.961 60 110 68.9606 110 80 L110 680 C110 691.039 101.039 700 90 700 L70 700 C58.9606 700 50 691.039 50 680 L50 20 C50 8.9606 58.9606 0 70 0 L330 0 C341.039 0 350 8.9606 350 20 L350 40 C350 51.0394 341.039 60 330 60 L330 60 Z M214 446 C214 419 236 398 262 398 C289 398 310 419 310 446 C310 472 289 494 262 494 C236 494 214 472 214 446 L214 446 Z " />
<glyph glyph-name="Lslash" unicode="&#x141;" horiz-adv-x="437" d="M290 -19 C320.6 -19 350.478 -11.775 374.719 -1.62388 C382.607 1.67905 384.246 9.3115 380.31 16.903 L368.41 39.8512 C363.75 48.8395 352.019 54.0134 342.676 50.1136 C283.003 25.207 244.968 53.7474 195.41 70.0233 C188.195 72.393 182 81.8358 182 89.4306 L182 325.753 C182 333.868 188.877 342.889 196.702 345.039 L253.778 360.719 C264.388 363.634 270.662 374.62 267.783 385.239 L262.278 405.538 C259.365 416.28 248.3 422.564 237.582 419.563 L207.393 411.11 C193.896 407.331 182 416.353 182 430.369 L182 679 C182 690.039 173.039 699 162 699 L142 699 C130.961 699 122 690.039 122 679 L122 403.407 C122 395.184 115.054 386.167 107.103 384.069 L69.4702 374.138 C58.7235 371.302 52.3614 360.292 55.2704 349.565 L60.7816 329.243 C63.662 318.621 74.6287 312.311 85.2591 315.159 L96.8253 318.257 C110.248 321.852 122 312.834 122 298.938 L122 84.1241 C122 79.4899 117.599 74.2718 113.079 73.25 C101.282 70.5833 89.8565 66.5833 78.5046 61.25 C73.477 58.8879 71.9789 53.4516 74.6845 48.6003 L89.3689 22.2695 C93.6764 14.5457 109.327 10.355 117.753 13.0403 C147.834 22.6262 180.875 17.8 218 -2 C240 -14 265 -19 290 -19 L290 -19 Z " />
<glyph glyph-name="lslash" unicode="&#x142;" horiz-adv-x="400" d="M330 60 L130 60 C118.961 60 110 68.9606 110 80 L110 320.798 C110 328.883 116.857 337.905 124.647 340.069 L198.847 360.68 C209.419 363.616 215.669 374.596 212.797 385.185 L207.237 405.687 C204.346 416.347 193.349 422.649 182.69 419.753 L135.245 406.86 C121.798 403.206 110 412.226 110 426.16 L110 680 C110 691.039 101.039 700 90 700 L70 700 C58.9606 700 50 691.039 50 680 L50 399.276 C50 391.141 43.1105 382.121 35.2623 379.981 L14.2676 374.255 C3.63248 371.354 -2.65807 360.364 0.227155 349.725 L5.83716 329.038 C8.68662 318.531 19.5617 312.195 30.1075 314.899 L30.5 315 C40.9261 317.673 50 310.633 50 299.869 L50 20 C50 8.9606 58.9606 0 70 0 L330 0 C341.039 0 350 8.9606 350 20 L350 40 C350 51.0394 341.039 60 330 60 L330 60 Z " />
<glyph glyph-name="Nacute" unicode="&#x143;" horiz-adv-x="462" d="M110 20 L110 636.5 C110 638.432 111.568 640 113.5 640 C115.358 640 117.449 638.421 117.957 636.633 L294.868 14.5294 C297.062 6.81545 306.086 0 314.105 0 L392 0 C403.039 0 412 8.9606 412 20 L412 680 C412 691.039 403.039 700 392 700 L372 700 C360.961 700 352 691.039 352 680 L352 63.5 C352 61.5681 350.432 60 348.5 60 C346.643 60 344.548 61.5793 344.038 63.3651 L166.147 685.498 C163.946 693.194 154.922 700 146.917 700 L70 700 C58.9606 700 50 691.039 50 680 L50 20 C50 8.9606 58.9606 0 70 0 L90 0 C101.039 0 110 8.9606 110 20 L110 20 Z M275.057 893.537 L206.278 818.74 C204.306 816.595 201 808.116 201 805.202 L201 801 C201 794.376 206.376 789 213 789 L251.294 789 C254.811 789 263.536 792.798 265.932 795.372 L335.638 870.241 C337.655 872.407 341 880.909 341 883.869 L341 888 C341 894.624 335.624 900 329 900 L289.779 900 C286.212 900 277.472 896.163 275.057 893.537 L275.057 893.537 Z " />
<glyph glyph-name="ncaron" unicode="&#x148;" horiz-adv-x="462" d="M110 20 L110 636.5 C110 638.432 111.568 640 113.5 640 C115.358 640 117.449 638.421 117.957 636.633 L294.868 14.5294 C297.062 6.81545 306.086 0 314.105 0 L392 0 C403.039 0 412 8.9606 412 20 L412 680 C412 691.039 403.039 700 392 700 L372 700 C360.961 700 352 691.039 352 680 L352 63.5 C352 61.5681 350.432 60 348.5 60 C346.643 60 344.548 61.5793 344.038 63.3651 L166.147 685.498 C163.946 693.194 154.922 700 146.917 700 L70 700 C58.9606 700 50 691.039 50 680 L50 20 C50 8.9606 58.9606 0 70 0 L90 0 C101.039 0 110 8.9606 110 20 L110 20 Z M118 877 L119.366 873.358 C119.764 872.296 123.564 866.588 124.39 865.811 L199.225 795.431 C201.409 793.377 209.93 790 212.927 790 L248.073 790 C251.07 790 259.591 793.377 261.775 795.431 L336.61 865.811 C337.436 866.588 341.236 872.296 341.634 873.358 L343 877 C344.655 881.414 342.457 886.455 338.097 888.246 L302.152 903.009 C295.996 905.537 285.358 903.475 280.593 898.83 L244.345 863.496 C236.707 856.051 224.243 855.999 216.543 863.38 L179.463 898.928 C174.673 903.52 164.027 905.502 157.906 902.943 L122.883 888.296 C118.535 886.478 116.345 881.413 118 877 L118 877 Z " />
<glyph glyph-name="Omacron" unicode="&#x14c;" horiz-adv-x="542" d="M271 -5 C389 -9 495 97 491 215 L491 480 C494 601 388 700 271 700 C154 700 48 601 51 480 L51 215 C47 97 153 -9 271 -5 L271 -5 Z M271 640 C359 640 431 568 431 480 L431 215 C431 127 359 55 271 55 C183 55 111 127 111 215 L111 480 C111 568 183 640 271 640 L271 640 Z M401 849 L141 849 C129.961 849 121 840.039 121 829 L121 809 C121 797.961 129.961 789 141 789 L401 789 C412.039 789 421 797.961 421 809 L421 829 C421 840.039 412.039 849 401 849 L401 849 Z " />
<glyph glyph-name="omacron" unicode="&#x14d;" horiz-adv-x="437" d="M218 0 C311 0 387 75 387 168 L387 536 C387 629 311 705 218 705 C125 705 50 629 50 536 L50 168 C50 75 125 0 218 0 L218 0 Z M218 645 C278 645 327 596 327 536 L327 168 C327 109 278 60 218 60 C159 60 110 109 110 168 L110 536 C110 596 159 645 218 645 L218 645 Z M348 849 L88 849 C76.9606 849 68 840.039 68 829 L68 809 C68 797.961 76.9606 789 88 789 L348 789 C359.039 789 368 797.961 368 809 L368 829 C368 840.039 359.039 849 348 849 L348 849 Z " />
<glyph glyph-name="Obreve" unicode="&#x14e;" horiz-adv-x="542" d="M271 -5 C389 -9 495 97 491 215 L491 480 C494 601 388 700 271 700 C154 700 48 601 51 480 L51 215 C47 97 153 -9 271 -5 L271 -5 Z M271 640 C359 640 431 568 431 480 L431 215 C431 127 359 55 271 55 C183 55 111 127 111 215 L111 480 C111 568 183 640 271 640 L271 640 Z M271 787 C320 787 361.344 822.219 370.914 869.209 C373.557 882.185 366.243 890 353 890 L324.5 890 C319.734 890 312.853 884.118 311.666 879.503 C306.965 861.238 290.406 847 271 847 C250.75 847 234.06 861.238 229.338 879.503 C228.147 884.111 221.259 890 216.5 890 L188 890 C174.754 890 167.441 882.187 170.088 869.209 C179.672 822.219 221.125 787 271 787 L271 787 Z " />
<glyph glyph-name="obreve" unicode="&#x14f;" horiz-adv-x="437" d="M218 0 C311 0 387 75 387 168 L387 536 C387 629 311 705 218 705 C125 705 50 629 50 536 L50 168 C50 75 125 0 218 0 L218 0 Z M218 645 C278 645 327 596 327 536 L327 168 C327 109 278 60 218 60 C159 60 110 109 110 168 L110 536 C110 596 159 645 218 645 L218 645 Z M219 789 C268 789 309.344 824.219 318.914 871.209 C321.557 884.185 314.243 892 301 892 L272.5 892 C267.734 892 260.853 886.118 259.666 881.503 C254.965 863.238 238.406 849 219 849 C198.75 849 182.06 863.238 177.338 881.503 C176.147 886.111 169.259 892 164.5 892 L136 892 C122.754 892 115.441 884.187 118.088 871.209 C127.672 824.219 169.125 789 219 789 L219 789 Z " />
<glyph glyph-name="Ohungarumlaut" unicode="&#x150;" horiz-adv-x="542" d="M271 -5 C389 -9 495 97 491 215 L491 480 C494 601 388 700 271 700 C154 700 48 601 51 480 L51 215 C47 97 153 -9 271 -5 L271 -5 Z M271 640 C359 640 431 568 431 480 L431 215 C431 127 359 55 271 55 C183 55 111 127 111 215 L111 480 C111 568 183 640 271 640 L271 640 Z M245.057 894.537 L176.278 819.74 C174.306 817.595 171 809.116 171 806.202 L171 802 C171 795.376 176.376 790 183 790 L221.294 790 C224.811 790 233.536 793.798 235.932 796.372 L305.638 871.241 C307.655 873.407 311 881.909 311 884.869 L311 889 C311 895.624 305.624 901 299 901 L259.779 901 C256.212 901 247.472 897.163 245.057 894.537 L245.057 894.537 Z M385.057 894.537 L316.278 819.74 C314.306 817.595 311 809.116 311 806.202 L311 802 C311 795.376 316.376 790 323 790 L361.294 790 C364.811 790 373.536 793.798 375.932 796.372 L445.638 871.241 C447.655 873.407 451 881.909 451 884.869 L451 889 C451 895.624 445.624 901 439 901 L399.779 901 C396.212 901 387.472 897.163 385.057 894.537 L385.057 894.537 Z " />
<glyph glyph-name="ohungarumlaut" unicode="&#x151;" horiz-adv-x="448" d="M218 0 C311 0 387 75 387 168 L387 536 C387 629 311 705 218 705 C125 705 50 629 50 536 L50 168 C50 75 125 0 218 0 L218 0 Z M218 645 C278 645 327 596 327 536 L327 168 C327 109 278 60 218 60 C159 60 110 109 110 168 L110 536 C110 596 159 645 218 645 L218 645 Z M192.057 894.537 L123.278 819.74 C121.306 817.595 118 809.116 118 806.202 L118 802 C118 795.376 123.376 790 130 790 L168.294 790 C171.811 790 180.536 793.798 182.932 796.372 L252.638 871.241 C254.655 873.407 258 881.909 258 884.869 L258 889 C258 895.624 252.624 901 246 901 L206.779 901 C203.212 901 194.472 897.163 192.057 894.537 L192.057 894.537 Z M332.057 894.537 L263.278 819.74 C261.306 817.595 258 809.116 258 806.202 L258 802 C258 795.376 263.376 790 270 790 L308.294 790 C311.811 790 320.536 793.798 322.932 796.372 L392.638 871.241 C394.655 873.407 398 881.909 398 884.869 L398 889 C398 895.624 392.624 901 386 901 L346.779 901 C343.212 901 334.472 897.163 332.057 894.537 L332.057 894.537 Z " />
<glyph glyph-name="OE" unicode="&#x152;" horiz-adv-x="573" d="M455 397 L363 397 C351.961 397 343 405.961 343 417 L343 620 C343 631.039 351.961 640 363 640 L503 640 C514.039 640 523 648.961 523 660 L523 680 C523 691.039 514.039 700 503 700 L297.5 700 C289.496 700 283 693.504 283 685.5 C283 679.296 276.747 675.429 271.423 678.614 C248.955 692.053 223.2 700 196 700 C116 700 50 634 50 553 L50 146 C50 66 116 0 196 0 C223.2 0 248.955 7.9475 271.423 21.386 C276.747 24.5707 283 20.7041 283 14.5 C283 6.49643 289.496 0 297.5 0 L503 0 C514.039 0 523 8.9606 523 20 L523 40 C523 51.0394 514.039 60 503 60 L363 60 C351.961 60 343 68.9606 343 80 L343 317 C343 328.039 351.961 337 363 337 L455 337 C466.039 337 475 345.961 475 357 L475 377 C475 388.039 466.039 397 455 397 L455 397 Z M196 640 C244 640 283 601 283 553 L283 142 C281 97 243 60 196 60 C149 60 110 99 110 146 L110 553 C110 601 149 640 196 640 L196 640 Z " />
<glyph glyph-name="Racute" unicode="&#x154;" horiz-adv-x="464" d="M399.688 62.8175 C378.626 71.3356 364.25 97.55 356 119 L312 237 C304.452 255.452 294.793 272.496 281.844 287.544 C278.296 291.668 280.959 298.47 285.98 300.563 C360.752 331.738 414 405.6 414 493 C414 607 321 700 207 700 L70 700 C58.9606 700 50 691.039 50 680 L50 20 C50 8.9606 58.9606 0 70 0 L90 0 C101.039 0 110 8.9606 110 20 L110 265 C110 276.039 118.961 285 130 285 L156 285 C200 285 240 257 256 216 L300 98 C315.75 54.25 346.812 12.0312 393.188 2.16016 C406.233 -0.616615 414 6.66231 414 20 L414 45.5 C414 50.5029 404.326 60.9418 399.688 62.8175 L399.688 62.8175 Z M110 365 L110 620 C110 631.039 118.961 640 130 640 L207 640 C288 640 354 574 354 493 C354 411 288 345 207 345 L130 345 C118.961 345 110 353.961 110 365 L110 365 Z M243.057 893.537 L174.278 818.74 C172.306 816.595 169 808.116 169 805.202 L169 801 C169 794.376 174.376 789 181 789 L219.294 789 C222.811 789 231.536 792.798 233.932 795.372 L303.638 870.241 C305.655 872.407 309 880.909 309 883.869 L309 888 C309 894.624 303.624 900 297 900 L257.779 900 C254.212 900 245.472 896.163 243.057 893.537 L243.057 893.537 Z " />
<glyph glyph-name="racute" unicode="&#x155;" horiz-adv-x="439" d="M368.22 60.951 C336.116 67.7562 307.55 91.475 296 122 L252 239 C244.5 256.5 234.917 273.306 222.093 288.259 C218.561 292.378 220.977 299.48 225.98 301.578 C300.752 332.933 354 408.6 354 496 C354 611 261 700 147 700 L70 700 C58.9606 700 50 691.039 50 680 L50 20 C50 8.9606 58.9606 0 70 0 L90 0 C101.039 0 110 8.9606 110 20 L110 276.441 C110 281.513 114.119 284.564 119.08 283.512 C132.421 280.686 144.545 275.182 156 267 C174 255 188 238 196 218 L240 102 C261.6 47.1 311.55 7.59 369.438 0.966 C381.653 -0.431704 389 7.40484 389 19.6993 L389 38.9938 C389 47.5307 376.572 59.1808 368.22 60.951 L368.22 60.951 Z M110 363.5 L110 621.5 C110 631.711 118.289 640 128.5 640 L147 640 C228 640 294 578 294 496 C294 413 228 345 147 345 L128.5 345 C118.289 345 110 353.289 110 363.5 L110 363.5 Z M190.057 894.537 L121.278 819.74 C119.306 817.595 116 809.116 116 806.202 L116 802 C116 795.376 121.376 790 128 790 L166.294 790 C169.811 790 178.536 793.798 180.932 796.372 L250.638 871.241 C252.655 873.407 256 881.909 256 884.869 L256 889 C256 895.624 250.624 901 244 901 L204.779 901 C201.212 901 192.472 897.163 190.057 894.537 L190.057 894.537 Z " />
</font>
</svg>
