<?xml version="1.0" encoding="UTF-8"?>
<svg xmlns="http://www.w3.org/2000/svg" xmlns:xlink="http://www.w3.org/1999/xlink" version="1.2" >
<font id="Zenzero Grotesk Sans">
<font-face  font-family="Zenzero Grotesk Sans" units-per-em="1000" ascent="700" descent="-84" font-style="normal" font-weight="400" font-stretch="normal" cap-height="705" x-height="700" underline-position="-75" underline-thickness="50" />
<missing-glyph  horiz-adv-x="300" d="" />
<glyph glyph-name="NULL" d="" />
<glyph glyph-name="CR" unicode="&#xd;" horiz-adv-x="250" d="" />
<glyph glyph-name="space" unicode="&#x20;" horiz-adv-x="300" d="" />
<glyph glyph-name="lf" unicode="&#xa;" horiz-adv-x="700" d="M578 493 L427 493 L427 640 L645 640 L645 700 L367 700 L367 196 L427 196 L427 433 L578 433 L578 493 Z M472 -36 C481 -36 490 -36 499 -35 C552 -31 606 -16 650 7 L622 60 C531 12 425 17 372 46 C298 86 228 102 162 95 L162 700 L102 700 L102 83 C84 77 67 69 50 60 L79 7 C159 51 245 47 343 -7 C379 -26 423 -36 472 -36 L472 -36 Z " />
<glyph glyph-name="exclam" unicode="&#x21;" horiz-adv-x="196" d="M98 96 C71 96 50 74 50 48 C50 21 71 0 98 0 C124 0 146 21 146 48 C146 74 124 96 98 96 L98 96 Z M128 169 L128 700 L68 700 L68 169 L128 169 Z " />
<glyph glyph-name="quotedbl" unicode="&#x22;" horiz-adv-x="336" d="M117 514 C136 559 146 605 146 653 C146 680 124 701 98 701 C71 701 50 680 50 653 C50 632 63 614 82 607 C78 584 71 560 62 538 L55 522 L110 498 L117 514 Z M257 514 C276 559 286 605 286 653 C286 680 264 701 238 701 C211 701 190 680 190 653 C190 632 203 614 222 607 C218 584 211 560 202 538 L195 522 L250 498 L257 514 Z " />
<glyph glyph-name="numbersign" unicode="&#x23;" horiz-adv-x="531" d="M481 511 L413 511 L438 700 L377 700 L352 511 L214 511 L239 700 L179 700 L154 511 L85 511 L85 451 L147 451 L121 256 L50 256 L50 196 L113 196 L88 0 L149 0 L174 196 L312 196 L287 0 L347 0 L372 196 L445 196 L445 256 L380 256 L406 451 L481 451 L481 511 Z M207 451 L345 451 L319 256 L181 256 L207 451 Z " />
<glyph glyph-name="dollar" unicode="&#x24;" horiz-adv-x="411" d="M50 144 C50 69 104 8 175 -2 L175 -80 L235 -80 L235 -2 C306 7 361 69 361 144 L361 286 C361 342 328 393 279 419 L235 441 L235 640 C272 631 300 596 300 556 L300 504 L361 504 L361 556 C361 631 306 692 235 702 L235 780 L175 780 L175 702 C105 691 52 632 50 560 L50 415 C50 387 57 360 72 336 C87 313 108 295 132 283 L175 261 L175 60 C138 70 111 104 111 144 L111 196 L50 196 L50 144 Z M160 336 C129 352 111 381 111 415 L111 435 C117 430 124 425 252 364 C282 349 300 319 300 286 L300 265 C293 270 286 274 160 336 L160 336 Z M300 144 C300 104 272 69 235 59 L235 231 L252 223 C282 208 300 178 300 144 L300 144 Z M111 560 C112 598 139 631 175 640 L175 470 L160 478 C130 492 112 519 111 551 L111 560 Z " />
<glyph glyph-name="percent" unicode="&#x25;" horiz-adv-x="661" d="M570 615 L520 650 L107 106 L153 70 L570 615 Z M174 394 C242 394 297 449 297 517 L297 526 C297 594 242 650 174 650 C105 650 50 594 50 526 L50 517 C50 449 105 394 174 394 L174 394 Z M174 590 C209 590 237 561 237 526 L237 517 C237 482 209 454 174 454 C138 454 110 482 110 517 L110 526 C110 561 138 590 174 590 L174 590 Z M488 40 C556 40 611 95 611 163 L611 172 C611 240 556 296 488 296 C419 296 364 240 364 172 L364 163 C364 95 419 40 488 40 L488 40 Z M488 236 C523 236 551 207 551 172 L551 163 C551 128 523 100 488 100 C452 100 424 128 424 163 L424 172 C424 207 452 236 488 236 L488 236 Z " />
<glyph glyph-name="ampersand" unicode="&#x26;" horiz-adv-x="678" d="M584 50 L494 141 L576 225 C645 295 645 409 576 478 L534 435 C579 390 579 314 534 268 L451 185 L201 441 C156 486 156 562 201 608 C246 654 320 654 365 608 L407 652 C339 721 227 721 158 652 C95 589 90 477 147 409 L113 375 C72 333 50 278 50 219 C50 100 148 0 265 0 C323 0 377 22 418 64 L451 98 L542 6 L584 50 Z M375 107 C346 78 307 61 265 61 C180 61 110 133 110 219 C110 262 126 302 155 331 L189 366 L409 142 L375 107 Z " />
<glyph glyph-name="quotesingle" unicode="&#x27;" horiz-adv-x="196" d="M117 512 C136 557 146 603 146 651 C146 678 124 699 98 699 C71 699 50 678 50 651 C50 630 63 612 82 605 C78 582 71 558 62 536 L55 520 L110 496 L117 512 Z " />
<glyph glyph-name="parenleft" unicode="&#x28;" horiz-adv-x="297" d="M247 -60 C171 -60 110 1 110 77 L110 623 C110 698 171 760 247 760 L247 820 C138 820 50 731 50 623 L50 77 C50 -32 138 -120 247 -120 L247 -60 Z " />
<glyph glyph-name="parenright" unicode="&#x29;" horiz-adv-x="297" d="M50 -120 C159 -120 247 -32 247 77 L247 623 C247 731 159 820 50 820 L50 760 C126 760 187 698 187 623 L187 77 C187 1 126 -60 50 -60 L50 -120 Z " />
<glyph glyph-name="asterisk" unicode="&#x2a;" horiz-adv-x="450" d="M328 512 L255 439 L255 542 L195 542 L195 439 L122 512 L80 470 L153 397 L50 397 L50 337 L153 337 L80 264 L122 222 L195 295 L195 192 L255 192 L255 295 L328 222 L370 264 L297 337 L400 337 L400 397 L297 397 L370 470 L328 512 Z " />
<glyph glyph-name="plus" unicode="&#x2b;" horiz-adv-x="450" d="M400 397 L255 397 L255 542 L195 542 L195 397 L50 397 L50 337 L195 337 L195 192 L255 192 L255 337 L400 337 L400 397 Z " />
<glyph glyph-name="comma" unicode="&#x2c;" horiz-adv-x="196" d="M117 -91 C136 -46 146 0 146 48 C146 75 124 96 98 96 C71 96 50 75 50 48 C50 27 63 9 82 2 C78 -21 71 -45 62 -67 L55 -83 L110 -107 L117 -91 Z " />
<glyph glyph-name="hyphen" unicode="&#x2d;" horiz-adv-x="450" d="M400 397 L50 397 L50 337 L400 337 L400 397 Z " />
<glyph glyph-name="period" unicode="&#x2e;" horiz-adv-x="196" d="M98 96 C71 96 50 74 50 48 C50 21 71 0 98 0 C124 0 146 21 146 48 C146 74 124 96 98 96 L98 96 Z " />
<glyph glyph-name="slash" unicode="&#x2f;" horiz-adv-x="396" d="M107 -68 L346 726 L288 743 L50 -51 L107 -68 L107 -68 Z " />
<glyph glyph-name="zero" unicode="0" horiz-adv-x="426" d="M213 0 C303 0 376 73 376 163 L376 537 C376 627 303 700 213 700 C123 700 50 627 50 537 L50 163 C50 73 123 0 213 0 L213 0 Z M213 640 C270 640 316 594 316 537 L316 163 C316 159 316 156 315 152 L148 617 C166 631 188 640 213 640 L213 640 Z M110 547 L277 82 C260 68 237 60 213 60 C156 60 110 106 110 163 L110 547 Z " />
<glyph glyph-name="one" unicode="1" horiz-adv-x="278" d="M228 0 L228 700 L168 700 C168 634 115 581 50 581 L50 521 C95 521 136 538 168 566 L168 0 L228 0 Z " />
<glyph glyph-name="two" unicode="2" horiz-adv-x="429" d="M293 -16 C323 -16 352 -9 379 6 L351 59 C320 43 287 39 257 50 C239 57 225 67 206 73 C175 83 141 84 110 76 L110 104 C110 124 116 144 128 160 L348 456 C368 482 379 514 379 547 C379 631 310 700 226 700 L218 700 C134 700 65 631 65 547 L125 547 C125 598 167 640 218 640 L226 640 C277 640 319 598 319 547 C319 527 312 507 300 491 L80 196 C61 170 50 137 50 104 L50 3 L88 3 L95 6 C130 25 171 25 210 6 C236 -7 260 -15 293 -16 L293 -16 Z " />
<glyph glyph-name="three" unicode="3" horiz-adv-x="415" d="M145 319 L208 319 C262 319 305 275 305 222 L305 158 C305 104 262 60 208 60 C154 60 110 104 110 158 L50 158 C50 71 121 0 208 0 C295 0 365 71 365 158 L365 222 C365 274 339 320 300 349 C340 378 365 424 365 477 L365 542 C365 629 295 700 208 700 C121 700 50 629 50 542 L110 542 C110 596 154 640 208 640 C262 640 305 596 305 542 L305 477 C305 423 262 379 208 379 L145 379 L145 319 Z " />
<glyph glyph-name="four" unicode="4" horiz-adv-x="476" d="M351 0 L351 145 L426 145 L426 205 L351 205 L351 700 L256 700 L232 673 C115 537 50 364 51 184 L51 145 L291 145 L291 0 L351 0 Z M111 205 C115 362 174 514 277 634 L283 640 L291 640 L291 205 L111 205 Z " />
<glyph glyph-name="five" unicode="5" horiz-adv-x="408" d="M204 0 C289 0 358 69 358 154 L358 239 C358 290 349 333 333 366 C307 417 263 444 204 444 C167 444 137 438 115 431 L127 640 L346 640 L346 700 L70 700 L51 355 L93 355 C113 370 149 384 204 384 C240 384 264 369 279 339 C291 315 298 280 298 239 L298 154 C298 102 256 60 204 60 C152 60 110 102 110 154 L110 186 L50 186 L50 154 C50 69 119 0 204 0 L204 0 Z " />
<glyph glyph-name="six" unicode="6" horiz-adv-x="426" d="M213 0 C303 0 376 73 376 163 L376 280 C376 370 303 444 213 444 C174 444 138 430 110 407 L110 537 C110 594 156 640 213 640 C270 640 316 594 316 537 L376 537 C376 627 303 700 213 700 C123 700 50 627 50 537 L50 163 C50 73 123 0 213 0 L213 0 Z M213 384 C270 384 316 337 316 280 L316 163 C316 106 270 60 213 60 C156 60 110 106 110 163 L110 284 C112 339 157 384 213 384 L213 384 Z " />
<glyph glyph-name="seven" unicode="7" horiz-adv-x="416" d="M215 0 C215 2 215 5 216 7 L366 534 L366 688 L327 688 L321 685 C294 671 264 666 236 675 C220 681 205 691 187 698 C144 714 92 708 50 685 L79 632 C106 648 139 651 167 641 C185 635 198 624 219 618 C247 610 277 609 306 616 L306 568 C279 557 249 556 225 569 C217 573 209 578 198 583 C150 604 95 600 50 575 L80 523 C108 539 145 544 175 528 C202 513 235 501 266 501 C275 501 285 501 294 503 L158 24 C156 16 155 8 155 0 L215 0 L215 0 Z " />
<glyph glyph-name="eight" unicode="8" horiz-adv-x="426" d="M213 0 C303 0 376 73 376 163 L376 236 C376 291 348 340 306 369 C348 399 376 447 376 503 L376 537 C376 627 303 700 213 700 C123 700 50 627 50 537 L50 503 C50 447 77 399 119 369 C77 340 50 291 50 236 L50 163 C50 73 123 0 213 0 L213 0 Z M213 339 C270 339 316 293 316 236 L316 163 C316 106 270 60 213 60 C156 60 110 106 110 163 L110 236 C110 293 156 339 213 339 L213 339 Z M213 640 C270 640 316 594 316 537 L316 503 C316 446 270 400 213 400 C156 400 110 446 110 503 L110 537 C110 594 156 640 213 640 L213 640 Z " />
<glyph glyph-name="nine" unicode="9" horiz-adv-x="426" d="M213 700 C123 700 50 627 50 537 L50 425 C50 335 123 261 213 261 C252 261 288 275 316 298 L316 163 C316 106 270 60 213 60 C156 60 110 106 110 163 L50 163 C50 73 123 0 213 0 C303 0 376 73 376 163 L376 537 C376 627 303 700 213 700 L213 700 Z M213 321 C156 321 110 368 110 425 L110 537 C110 594 156 640 213 640 C270 640 316 594 316 537 L316 421 C314 366 269 321 213 321 L213 321 Z " />
<glyph glyph-name="colon" unicode="&#x3a;" horiz-adv-x="196" d="M98 96 C71 96 50 74 50 48 C50 21 71 0 98 0 C124 0 146 21 146 48 C146 74 124 96 98 96 L98 96 Z M98 500 C71 500 50 478 50 452 C50 425 71 404 98 404 C124 404 146 425 146 452 C146 478 124 500 98 500 L98 500 Z " />
<glyph glyph-name="semicolon" unicode="&#x3b;" horiz-adv-x="196" d="M110 -107 L55 -83 L62 -67 C71 -45 78 -21 82 2 C63 9 50 27 50 48 C50 75 71 96 98 96 C124 96 146 75 146 48 C146 0 136 -46 117 -91 L110 -107 Z M98 500 C71 500 50 478 50 452 C50 425 71 404 98 404 C124 404 146 425 146 452 C146 478 124 500 98 500 L98 500 Z " />
<glyph glyph-name="less" unicode="&#x3c;" horiz-adv-x="354" d="M304 157 L304 217 L303 217 C290 217 276 223 261 235 L110 365 L110 369 L261 500 C276 512 290 519 304 519 L304 579 C275 579 248 567 222 545 L50 397 L50 337 L223 190 C248 168 275 157 303 157 L304 157 L304 157 Z " />
<glyph glyph-name="equal" unicode="&#x3d;" horiz-adv-x="450" d="M400 542 L50 542 L50 482 L400 482 L400 542 Z M400 252 L50 252 L50 192 L400 192 L400 252 Z " />
<glyph glyph-name="greater" unicode="&#x3e;" horiz-adv-x="354" d="M50 157 L51 157 C79 157 106 168 131 190 L304 337 L304 397 L132 545 C106 567 79 579 50 579 L50 519 C64 519 78 512 93 500 L244 369 L244 365 L93 235 C78 223 64 217 51 217 L50 217 L50 157 Z " />
<glyph glyph-name="question" unicode="&#x3f;" horiz-adv-x="406" d="M230 169 L230 233 C230 249 234 265 243 279 L335 438 C349 461 356 488 356 515 L356 556 C356 641 287 709 203 709 C119 709 50 641 50 556 L50 464 L110 464 L110 556 C110 608 152 649 203 649 C254 649 296 608 296 556 L296 515 C296 499 292 482 283 468 L191 310 C177 286 170 260 170 233 L170 169 L230 169 Z M203 96 C176 96 155 74 155 48 C155 21 176 0 203 0 C229 0 251 21 251 48 C251 74 229 96 203 96 L203 96 Z " />
<glyph glyph-name="at" unicode="&#x40;" horiz-adv-x="679" d="M599 60 L316 60 C202 60 110 152 110 266 L110 439 C110 553 202 645 316 645 L363 645 C477 645 569 553 569 439 L569 232 C569 210 552 193 530 193 C509 193 491 210 491 232 L491 420 C491 504 423 572 340 572 C256 572 188 504 188 420 L188 284 C188 201 256 133 340 133 C382 133 419 150 447 178 C465 151 495 133 530 133 C585 133 629 177 629 232 L629 439 C629 510 601 577 551 627 C501 677 434 705 363 705 L316 705 C245 705 178 677 128 627 C78 577 50 510 50 439 L50 266 C50 195 78 128 128 78 C178 28 245 0 316 0 L599 0 L599 60 Z M431 284 C431 234 390 193 340 193 C289 193 248 234 248 284 L248 420 C248 471 289 512 340 512 C390 512 431 471 431 420 L431 284 Z " />
<glyph glyph-name="A" unicode="A" horiz-adv-x="450" d="M400 0 L400 95 C400 150 392 206 381 261 L290 700 L160 700 L67 260 C56 206 50 151 50 95 L50 0 L110 0 L110 95 C110 116 111 136 112 156 C193 183 258 112 338 133 C339 120 339 107 339 95 L339 0 L400 0 Z M241 640 L312 300 C250 291 199 338 142 324 L208 640 L241 640 Z M130 268 C202 281 253 224 324 242 C327 226 330 210 332 194 C257 168 195 236 120 221 L130 268 Z " />
<glyph glyph-name="B" unicode="B" horiz-adv-x="495" d="M261 0 C362 0 445 82 445 182 L445 210 C445 274 411 330 361 364 C411 396 445 453 445 517 C445 617 362 700 261 700 L50 700 L50 0 L261 0 Z M261 334 C330 334 386 278 386 210 L386 182 C386 114 330 59 261 59 L109 59 L109 334 L261 334 Z M109 641 L261 641 C330 641 386 585 386 517 C386 450 332 396 266 394 L109 394 L109 641 Z " />
<glyph glyph-name="C" unicode="C" horiz-adv-x="461" d="M245 0 C337 0 411 74 411 165 L351 165 C351 107 303 60 245 60 L215 60 C157 60 110 107 110 165 L110 534 C110 592 157 640 215 640 L245 640 C303 640 351 604 351 546 L411 546 C411 637 337 700 245 700 L215 700 C124 700 50 625 50 534 L50 165 C50 74 124 0 215 0 L245 0 L245 0 Z " />
<glyph glyph-name="D" unicode="D" horiz-adv-x="465" d="M205 0 C321 0 415 94 415 209 L415 491 C415 607 321 700 205 700 L50 700 L50 336 L110 336 L110 640 L205 640 C288 640 355 574 355 491 L355 209 C355 127 288 60 205 60 L110 60 L110 174 L50 174 L50 0 L205 0 L205 0 Z " />
<glyph glyph-name="E" unicode="E" horiz-adv-x="400" d="M269 397 L110 397 L110 640 L350 640 L350 700 L50 700 L50 0 L350 0 L350 60 L110 60 L110 337 L268 337 L269 397 Z " />
<glyph glyph-name="F" unicode="F" horiz-adv-x="438" d="M253 397 L110 397 L110 640 L388 640 L388 700 L50 700 L50 0 L110 0 L110 337 L254 337 L253 397 Z " />
<glyph glyph-name="G" unicode="G" horiz-adv-x="461" d="M350 285 L351 165 C351 107 303 60 245 60 L215 60 C157 60 110 107 110 165 L110 544 C110 602 157 650 215 650 L245 650 C303 650 351 602 351 544 L411 544 C411 635 337 710 245 710 L215 710 C124 710 50 635 50 544 L50 165 C50 74 124 0 215 0 L245 0 C337 0 411 74 411 165 L411 345 L265 345 L265 285 L350 285 L350 285 Z " />
<glyph glyph-name="H" unicode="H" horiz-adv-x="449" d="M110 0 L110 295 C141 307 175 301 214 281 C235 269 260 264 286 264 C304 264 322 266 339 271 L339 0 L399 0 L399 701 L339 701 L339 444 C302 430 263 432 242 444 C196 469 152 476 110 467 L110 705 L50 704 L50 0 L110 0 Z M286 374 C304 374 322 376 339 381 L339 334 C302 320 263 322 242 334 C196 359 152 366 110 357 L110 405 C141 417 175 411 214 391 C235 379 260 374 286 374 L286 374 Z " />
<glyph glyph-name="I" unicode="I" horiz-adv-x="161" d="M111 0 L111 700 L50 700 L50 0 L111 0 Z " />
<glyph glyph-name="J" unicode="J" horiz-adv-x="323" d="M161 0 C223 0 273 50 273 111 L273 700 L213 700 L213 111 C213 83 190 60 161 60 C133 60 110 83 110 111 L110 177 L50 177 L50 111 C50 50 100 0 161 0 L161 0 Z " />
<glyph glyph-name="K" unicode="K" horiz-adv-x="472" d="M422 60 C381 59 338 87 324 125 L259 295 C252 314 240 331 225 344 C243 359 257 377 265 399 L330 577 C344 614 382 641 422 640 L422 700 C357 702 298 658 274 598 L209 420 C199 394 174 377 146 377 L110 377 L110 700 L50 701 L50 0 L110 0 L110 317 L141 317 C168 317 193 299 203 274 L268 104 C291 45 357 -2 422 0 L422 60 Z " />
<glyph glyph-name="L" unicode="L" horiz-adv-x="417" d="M270 -19 C306 -19 341 -9 367 4 L339 58 C264 17 223 58 162 74 L162 699 L102 699 L102 75 C84 72 67 66 50 57 L79 5 C114 24 153 22 198 -2 C220 -14 245 -19 270 -19 L270 -19 Z " />
<glyph glyph-name="M" unicode="M" horiz-adv-x="553" d="M110 0 L110 640 L120 640 L252 0 L311 0 L433 640 L443 640 L443 0 L503 0 L503 700 L384 700 L280 158 L169 700 L50 700 L50 0 L110 0 Z " />
<glyph glyph-name="N" unicode="N" horiz-adv-x="462" d="M110 0 L110 640 L117 640 L299 0 L412 0 L412 700 L352 700 L352 60 L345 60 L162 700 L50 700 L50 0 L110 0 Z " />
<glyph glyph-name="O" unicode="O" horiz-adv-x="542" d="M271 -5 C389 -9 495 97 491 215 L491 480 C494 601 388 700 271 700 C154 700 48 601 51 480 L51 215 C47 97 153 -9 271 -5 L271 -5 Z M271 640 C359 640 431 568 431 480 L431 215 C431 127 359 55 271 55 C183 55 111 127 111 215 L111 480 C111 568 183 640 271 640 L271 640 Z " />
<glyph glyph-name="P" unicode="P" horiz-adv-x="424" d="M110 0 L110 284 L167 284 C281 284 374 377 374 492 C374 606 281 700 167 700 L50 700 L50 0 L110 0 Z M110 344 L110 640 L167 640 C248 640 314 573 314 492 C314 410 248 344 167 344 L110 344 Z " />
<glyph glyph-name="Q" unicode="Q" horiz-adv-x="438" d="M427 -88 C651 -268 826 -286 1109 -185 L1087 -129 C848 -221 674 -210 464 -41 C424 -9 384 21 331 41 C365 72 387 117 387 166 L387 531 C387 624 312 700 219 700 C126 700 50 624 50 531 L50 166 C50 111 76 63 117 32 C94 20 73 3 57 -16 L103 -55 C139 -13 190 -3 226 -3 C305 -1 364 -39 427 -88 L427 -88 Z M219 640 C279 640 327 591 327 531 L327 166 C327 107 279 58 219 58 C159 58 110 107 110 166 L110 531 C110 591 159 640 219 640 L219 640 Z " />
<glyph glyph-name="R" unicode="R" horiz-adv-x="464" d="M414 60 C385 60 366 93 356 119 L312 237 C303 259 291 279 274 296 C355 324 414 401 414 493 C414 607 321 700 207 700 L50 700 L50 0 L110 0 L110 285 L156 285 C200 285 240 257 256 216 L300 98 C318 48 356 0 414 0 L414 60 Z M110 345 L110 640 L207 640 C288 640 354 574 354 493 C354 411 288 345 207 345 L110 345 Z " />
<glyph glyph-name="S" unicode="S" horiz-adv-x="411" d="M214 -4 C295 -4 361 62 361 144 L361 286 C361 342 328 393 279 419 L160 478 C130 492 112 519 111 551 L111 560 C113 606 151 643 197 643 L214 643 C261 643 300 604 300 556 L300 504 L361 504 L361 556 C361 638 295 704 214 704 L197 704 C117 704 52 640 50 560 L50 415 C50 387 57 360 72 336 C87 313 108 295 132 283 L252 223 C282 208 300 178 300 144 C300 97 261 57 214 57 L197 57 C150 57 111 97 111 144 L111 196 L50 196 L50 144 C50 62 116 -4 197 -4 L214 -4 Z M160 336 C129 352 111 381 111 415 L111 435 C117 430 124 425 252 364 C282 349 300 319 300 286 L300 265 C293 270 286 274 160 336 L160 336 Z " />
<glyph glyph-name="T" unicode="T" horiz-adv-x="437" d="M50 500 L188 500 L188 0 L248 0 L248 500 L387 500 L387 560 L248 560 L248 700 L188 700 L188 560 L50 560 L50 500 Z " />
<glyph glyph-name="U" unicode="U" horiz-adv-x="426" d="M50 157 C50 67 123 -6 213 -6 C303 -6 376 67 376 157 L376 700 L316 700 L316 157 C316 100 270 54 213 54 C156 54 110 100 110 157 L110 700 L54 700 L50 157 Z " />
<glyph glyph-name="V" unicode="V" horiz-adv-x="426" d="M322 175 C358 307 376 443 376 579 L376 700 L316 700 L316 579 C316 448 299 318 264 191 L228 60 L198 60 L162 191 C127 318 110 448 110 579 L110 700 L50 700 L50 579 C50 443 68 307 104 175 L152 0 L274 0 L322 175 Z " />
<glyph glyph-name="W" unicode="W" horiz-adv-x="617" d="M488 34 C540 251 567 474 567 697 L567 700 L507 700 L507 697 C507 482 482 267 432 58 L417 58 L338 570 L278 570 L201 58 L185 58 C135 267 110 482 110 697 L110 700 L50 700 L50 697 C50 474 77 251 130 34 L138 0 L252 0 L308 369 L364 0 L479 0 L488 34 Z " />
<glyph glyph-name="X" unicode="X" horiz-adv-x="433" d="M383 0 L383 195 L253 368 L383 542 L383 700 L323 700 L323 562 L216 418 L109 562 L109 701 L50 701 L50 542 L179 368 L50 195 L50 0 L109 0 L109 175 L216 318 L323 175 L323 0 L383 0 Z " />
<glyph glyph-name="Y" unicode="Y" horiz-adv-x="470" d="M265 0 L265 281 L309 343 C345 395 373 452 391 512 C410 573 420 636 420 700 L360 700 C360 642 351 585 334 530 C317 476 292 424 260 377 L241 350 L229 350 L211 376 C178 424 153 475 136 530 C119 585 110 642 110 700 L50 700 C50 636 60 573 79 512 C98 452 126 394 162 342 L205 280 L205 0 L265 0 Z " />
<glyph glyph-name="Z" unicode="Z" horiz-adv-x="416" d="M281 -15 C310 -15 340 -7 366 7 L336 60 C276 24 253 57 196 74 C168 82 138 82 110 76 L110 123 C133 132 157 133 179 127 C214 117 239 96 281 95 C310 95 340 103 366 117 L336 170 C276 134 253 167 196 184 C175 190 154 191 133 189 L366 662 L366 700 L50 700 L50 640 L286 640 L50 161 L50 3 L88 3 L95 7 C173 46 207 -13 281 -15 L281 -15 Z " />
<glyph glyph-name="bracketleft" unicode="&#x5b;" horiz-adv-x="297" d="M247 -120 L247 -60 L110 -60 L110 760 L247 760 L247 820 L50 820 L50 -120 L247 -120 L247 -120 Z " />
<glyph glyph-name="backslash" unicode="&#x5c;" horiz-adv-x="396" d="M346 726 L288 743 L50 -51 L107 -68 L346 726 Z " />
<glyph glyph-name="bracketright" unicode="&#x5d;" horiz-adv-x="297" d="M50 -120 L247 -120 L247 820 L50 820 L50 760 L187 760 L187 -60 L50 -60 L50 -120 Z " />
<glyph glyph-name="asciicircum" unicode="&#x5e;" horiz-adv-x="331" d="M281 605 L275 621 L191 700 L140 700 L56 621 L50 605 L106 582 L164 640 L167 640 L226 582 L281 605 Z " />
<glyph glyph-name="underscore" unicode="&#x5f;" horiz-adv-x="500" d="M450 60 L50 60 L50 0 L450 0 L450 60 Z " />
<glyph glyph-name="grave" unicode="&#x60;" horiz-adv-x="240" d="M50 700 L50 676 L131 589 L190 589 L190 613 L110 700 L50 700 Z " />
<glyph glyph-name="a" unicode="a" horiz-adv-x="449" d="M399 95 C399 150 393 206 381 261 L289 700 L159 700 L67 260 C55 206 50 151 50 95 L50 0 L110 0 L110 95 C110 146 115 198 129 267 C155 275 185 274 210 259 C244 240 281 232 324 241 C333 193 339 143 339 95 L340 0 L399 0 L399 95 Z M240 640 L312 300 C287 294 264 297 241 310 C211 328 179 333 142 331 L207 640 L240 640 Z " />
<glyph glyph-name="b" unicode="b" horiz-adv-x="435" d="M201 0 C302 0 385 82 385 182 L385 210 C385 274 351 330 301 364 C351 396 385 453 385 517 C385 617 302 700 201 700 L50 700 L50 0 L201 0 Z M201 334 C270 334 326 278 326 210 L326 182 C326 114 270 59 201 59 L109 59 L109 334 L201 334 Z M109 641 L201 641 C270 641 326 585 326 517 C326 450 272 396 206 394 L109 394 L109 641 Z " />
<glyph glyph-name="c" unicode="c" horiz-adv-x="415" d="M365 543 C365 631 295 700 208 700 C121 700 50 629 50 542 L50 158 C50 71 121 0 208 0 C295 0 365 71 365 158 L365 170 L305 170 L305 158 C305 104 262 60 208 60 C154 60 110 104 110 158 L110 542 C110 596 154 640 208 640 C262 640 305 601 305 543 L365 543 Z " />
<glyph glyph-name="d" unicode="d" horiz-adv-x="434" d="M174 0 C290 0 384 94 384 209 L384 491 C384 607 290 700 174 700 L50 700 L50 0 L174 0 Z M110 640 L174 640 C257 640 324 574 324 491 L324 209 C324 127 257 60 174 60 L110 60 L110 640 Z " />
<glyph glyph-name="e" unicode="e" horiz-adv-x="400" d="M252 397 L110 397 L110 640 L350 640 L350 700 L50 700 L50 0 L350 0 L350 60 L110 60 L110 337 L252 337 L252 397 Z " />
<glyph glyph-name="f" unicode="f" horiz-adv-x="438" d="M286 397 L110 397 L110 640 L388 640 L388 700 L50 700 L50 337 L78 270 C98 224 107 176 107 126 L107 0 L177 0 L177 126 C177 184 156 240 134 293 L116 337 L286 337 L286 397 Z " />
<glyph glyph-name="g" unicode="g" horiz-adv-x="409" d="M359 550 C359 635 290 704 205 704 C119 704 50 635 50 550 L50 151 C50 65 119 -4 205 -4 C290 -4 359 65 359 151 L359 345 L214 345 L214 285 L299 285 L299 151 C299 98 257 56 205 56 C152 56 110 98 110 151 L110 550 C110 602 152 644 205 644 C257 644 299 602 299 550 L359 550 Z " />
<glyph glyph-name="h" unicode="h" horiz-adv-x="449" d="M339 0 L399 0 L399 700 L339 700 L339 444 C302 430 263 432 242 444 C196 469 152 476 110 467 L110 700 L50 700 L50 0 L110 0 L110 405 C141 417 175 411 214 391 C235 379 260 374 286 374 C304 374 322 376 339 381 L339 0 Z " />
<glyph glyph-name="i" unicode="i" horiz-adv-x="160" d="M110 0 L110 700 L50 700 L50 0 L110 0 Z " />
<glyph glyph-name="j" unicode="j" horiz-adv-x="323" d="M161 0 C223 0 273 50 273 111 L273 699 L213 699 L213 111 C213 83 190 60 161 60 C133 60 110 83 110 111 L110 174 L50 173 L50 111 C50 50 100 0 161 0 L161 0 Z " />
<glyph glyph-name="k" unicode="k" horiz-adv-x="472" d="M110 0 L110 315 L173 315 L263 109 C286 45 354 -2 422 0 L422 60 C377 59 336 90 318 132 L226 345 L379 687 L379 700 L319 700 L173 375 L110 375 L110 700 L50 700 L50 0 L110 0 Z " />
<glyph glyph-name="l" unicode="l" horiz-adv-x="400" d="M350 60 L110 60 L110 700 L50 700 L50 0 L350 0 L350 60 Z " />
<glyph glyph-name="m" unicode="m" horiz-adv-x="553" d="M110 0 L110 640 L120 640 L252 0 L311 0 L433 640 L443 640 L443 0 L503 0 L503 700 L384 700 L280 158 L169 700 L50 700 L50 0 L110 0 Z " />
<glyph glyph-name="n" unicode="n" horiz-adv-x="462" d="M110 0 L110 640 L117 640 L299 0 L412 0 L412 700 L352 700 L352 60 L345 60 L162 700 L50 700 L50 0 L110 0 Z " />
<glyph glyph-name="o" unicode="o" horiz-adv-x="437" d="M218 0 C311 0 387 75 387 168 L387 536 C387 629 311 705 218 705 C125 705 50 629 50 536 L50 168 C50 75 125 0 218 0 L218 0 Z M218 645 C278 645 327 596 327 536 L327 168 C327 109 278 60 218 60 L218 60 C159 60 110 109 110 168 L110 536 C110 596 159 645 218 645 L218 645 Z " />
<glyph glyph-name="p" unicode="p" horiz-adv-x="367" d="M110 0 L110 284 C224 284 317 377 317 492 C317 606 224 700 110 700 L50 700 L50 0 L110 0 Z M110 344 L110 640 C191 640 257 573 257 492 C257 410 191 344 110 344 L110 344 Z " />
<glyph glyph-name="q" unicode="q" horiz-adv-x="477" d="M314 -84 C339 -84 361 -77 380 -64 C400 -49 416 -26 427 3 L370 24 C361 0 348 -24 314 -24 C297 -24 286 -19 273 -13 C262 -8 249 -1 233 0 C319 8 387 80 387 168 L387 536 C387 629 311 705 218 705 C125 705 50 629 50 536 L50 168 C50 78 120 4 209 0 C189 -3 169 -12 154 -45 L208 -71 C211 -64 214 -59 224 -59 C230 -59 237 -62 248 -67 C263 -74 284 -84 314 -84 L314 -84 Z M218 645 C278 645 327 596 327 536 L327 168 C327 109 278 60 218 60 C159 60 110 109 110 168 L110 536 C110 596 159 645 218 645 L218 645 Z " />
<glyph glyph-name="r" unicode="r" horiz-adv-x="439" d="M389 59 C349 58 310 85 296 122 L252 239 C243 260 231 280 214 297 C295 325 354 404 354 496 C354 611 261 700 147 700 L50 700 L50 0 L110 0 L110 285 C127 283 142 277 156 267 C174 255 188 238 196 218 L240 102 C264 41 323 -1 389 0 L389 59 Z M110 345 L110 640 L147 640 C228 640 294 578 294 496 C294 413 228 345 147 345 L110 345 Z " />
<glyph glyph-name="s" unicode="s" horiz-adv-x="405" d="M295 142 C293 96 256 60 210 60 L195 60 C148 60 110 98 110 145 L110 196 L50 196 L50 145 C50 65 115 0 195 0 L210 0 C290 0 355 65 355 145 L355 219 C355 274 323 325 274 350 L158 407 C128 421 110 458 110 491 L110 555 C110 602 148 640 195 640 L210 640 C257 640 295 602 295 555 L295 504 L355 504 L355 555 C355 635 290 700 210 700 L195 700 C115 700 50 635 50 555 L50 491 C50 436 82 378 131 353 L248 296 C277 281 295 252 295 219 L295 142 L295 142 Z " />
<glyph glyph-name="t" unicode="t" horiz-adv-x="437" d="M387 700 L50 700 L50 640 L188 640 L188 0 L248 0 L248 640 L387 640 L387 700 Z " />
<glyph glyph-name="u" unicode="u" horiz-adv-x="426" d="M50 157 C50 67 123 -6 213 -6 C303 -6 376 67 376 157 L376 700 L316 700 L316 157 C316 100 270 54 213 54 C156 54 110 100 110 157 L110 700 L54 700 L50 157 Z " />
<glyph glyph-name="v" unicode="v" horiz-adv-x="426" d="M322 175 C358 307 376 443 376 579 L376 700 L316 700 L316 579 C316 448 299 318 264 191 L228 60 L198 60 L162 191 C127 318 110 448 110 579 L110 700 L50 700 L50 579 C50 443 68 307 104 175 L152 0 L274 0 L322 175 Z " />
<glyph glyph-name="w" unicode="w" horiz-adv-x="617" d="M488 34 C540 251 567 474 567 697 L567 700 L507 700 L507 697 C507 482 482 267 432 58 L417 58 L338 570 L278 570 L201 58 L185 58 C135 267 110 482 110 697 L110 700 L50 700 L50 697 C50 474 77 251 130 34 L138 0 L252 0 L308 369 L364 0 L479 0 L488 34 Z " />
<glyph glyph-name="x" unicode="x" horiz-adv-x="435" d="M385 0 L385 117 C385 165 369 212 340 251 L255 362 L340 473 C369 512 385 559 385 608 L384 700 L325 700 L325 608 C325 572 313 537 291 508 L218 411 L143 510 C122 538 113 571 112 608 L112 700 L50 700 L50 607 C51 560 67 513 95 475 L180 362 L96 250 C67 211 51 167 51 120 L51 0 L110 0 L110 118 C110 153 123 187 144 214 L218 312 L291 216 C313 188 325 152 325 117 L325 0 L385 0 Z " />
<glyph glyph-name="y" unicode="y" horiz-adv-x="470" d="M265 0 L265 251 L420 689 L420 700 L360 700 L236 350 L235 350 L110 700 L50 700 L50 689 L205 257 L205 0 L265 0 Z " />
<glyph glyph-name="z" unicode="z" horiz-adv-x="416" d="M281 -15 C310 -15 340 -7 366 7 L336 60 C276 24 253 57 196 74 C168 82 138 82 110 76 L110 145 L366 662 L366 700 L50 700 L50 640 L286 640 L50 161 L50 3 L88 3 L95 7 C173 46 207 -13 281 -15 L281 -15 Z " />
<glyph glyph-name="braceleft" unicode="&#x7b;" horiz-adv-x="307" d="M257 -60 L214 -60 C184 -60 160 -36 160 -6 L160 290 C160 313 151 334 137 350 C151 367 160 388 160 411 L160 706 C160 736 184 760 214 760 L257 760 L257 820 L214 820 C151 820 100 769 100 706 L100 411 C100 396 89 384 75 381 L50 377 L50 324 L75 320 C89 317 100 305 100 290 L100 -6 C100 -69 151 -120 214 -120 L257 -120 L257 -60 Z " />
<glyph glyph-name="bar" unicode="&#x7c;" horiz-adv-x="160" d="M110 -120 L110 820 L50 820 L50 -120 L110 -120 L110 -120 Z " />
<glyph glyph-name="braceright" unicode="&#x7d;" horiz-adv-x="307" d="M50 -120 L93 -120 C156 -120 207 -69 207 -6 L207 290 C207 305 218 317 232 320 L257 324 L257 377 L232 381 C218 384 207 396 207 411 L207 706 C207 769 156 820 93 820 L50 820 L50 760 L93 760 C123 760 147 736 147 706 L147 411 C147 388 156 367 170 350 C156 334 147 313 147 290 L147 -6 C147 -36 123 -60 93 -60 L50 -60 L50 -120 Z " />
<glyph glyph-name="asciitilde" unicode="&#x7e;" horiz-adv-x="413" d="M289 286 C313 291 333 301 363 335 L317 375 C281 335 246 341 213 362 C159 396 91 373 50 323 L99 288 C117 311 152 329 181 311 C209 292 250 279 289 286 L289 286 Z " />
<glyph glyph-name="exclamdown" unicode="&#xa1;" horiz-adv-x="196" d="M98 604 C125 604 146 626 146 652 C146 679 125 700 98 700 C72 700 50 679 50 652 C50 626 72 604 98 604 L98 604 Z M68 531 L128 531 L128 0 L68 0 L68 531 L68 531 Z " />
<glyph glyph-name="cent" unicode="&#xa2;" horiz-adv-x="415" d="M365 500 L365 547 C365 624 310 688 237 702 L237 780 L177 780 L177 702 C104 687 50 623 50 547 L50 153 C50 76 104 12 177 -2 L177 -80 L237 -80 L237 -2 C310 11 365 76 365 153 L365 243 L305 243 L305 153 C305 99 262 55 208 55 C154 55 110 99 110 153 L110 547 C110 601 154 645 208 645 C262 645 305 601 305 547 L305 499 L365 500 Z " />
<glyph glyph-name="sterling" unicode="&#xa3;" horiz-adv-x="445" d="M356 544 C356 628 287 697 203 697 C119 697 50 628 50 544 L50 532 C50 509 55 485 66 464 L130 327 C138 309 143 290 145 272 L50 272 L50 212 L141 212 C133 179 116 148 91 124 L50 85 L50 0 L366 0 L366 60 L237 60 C274 104 297 156 304 212 L395 212 L395 272 L304 272 C301 304 293 336 279 367 L200 537 L200 538 C191 555 187 574 187 593 L187 607 C187 617 188 627 190 636 C194 637 198 637 203 637 C254 637 296 595 296 544 L356 544 Z M110 544 C110 564 116 582 127 597 L127 593 C127 565 133 537 146 511 L225 341 C266 253 246 149 176 81 L153 60 L111 60 L133 81 C206 151 227 260 184 352 L120 490 L120 491 C113 503 110 518 110 532 L110 544 Z " />
<glyph glyph-name="yen" unicode="&#xa5;" horiz-adv-x="470" d="M291 252 C317 252 342 258 365 271 L336 322 C320 313 303 309 287 310 L420 689 L420 700 L360 700 L236 345 L235 345 L110 700 L50 700 L50 689 L172 340 C151 338 129 332 108 322 L134 268 C159 281 190 283 211 276 C240 265 259 252 291 252 L291 252 Z M265 0 L265 131 C273 129 281 129 289 129 C313 129 338 135 363 146 L339 201 C313 189 289 190 268 196 C255 200 243 206 228 211 C188 225 142 220 106 199 L136 147 C156 159 182 162 205 155 L205 0 L265 0 Z " />
<glyph glyph-name="dieresis" unicode="&#xa8;" horiz-adv-x="450" d="M304 637 C304 610 326 589 352 589 C379 589 400 610 400 637 C400 663 379 685 352 685 C326 685 304 663 304 637 L304 637 Z M50 637 C50 610 72 589 98 589 C125 589 146 610 146 637 C146 663 125 685 98 685 C72 685 50 663 50 637 L50 637 Z " />
<glyph glyph-name="ordfeminine" unicode="&#xaa;" horiz-adv-x="390" d="M239 448 C246 448 252 448 259 449 L268 421 C276 394 280 366 280 337 L340 337 C340 371 336 405 326 438 L250 700 L139 700 L64 437 C55 405 50 370 50 337 L110 337 C110 365 114 394 122 421 L135 468 C146 471 159 473 171 469 C184 465 195 456 210 452 C219 449 229 448 239 448 L239 448 Z M204 640 L242 507 C237 507 232 507 227 509 C215 513 205 520 192 525 C180 529 167 531 153 531 L185 640 L204 640 Z " />
<glyph glyph-name="guillemotleft" unicode="&#xab;" horiz-adv-x="570" d="M304 217 L303 217 C290 217 276 223 261 235 L110 365 L110 369 L261 500 C276 512 290 519 304 519 L304 579 C275 579 248 567 222 545 L50 397 L50 337 L223 190 C248 168 275 157 303 157 L304 157 L304 217 Z M520 217 L519 217 C506 217 492 223 477 235 L326 365 L326 369 L477 500 C492 512 506 519 520 519 L520 579 C491 579 464 567 438 545 L266 397 L266 337 L439 190 C464 168 491 157 519 157 L520 157 L520 217 Z " />
<glyph glyph-name="macron" unicode="&#xaf;" horiz-adv-x="400" d="M350 649 L50 649 L50 589 L350 589 L350 649 Z " />
<glyph glyph-name="degree" unicode="&#xb0;" horiz-adv-x="347" d="M174 444 C242 444 297 499 297 567 L297 576 C297 644 242 700 174 700 C105 700 50 644 50 576 L50 567 C50 499 105 444 174 444 L174 444 Z M174 640 C209 640 237 611 237 576 L237 567 C237 532 209 504 174 504 C138 504 110 532 110 567 L110 576 C110 611 138 640 174 640 L174 640 Z " />
<glyph glyph-name="plusminus" unicode="&#xb1;" horiz-adv-x="450" d="M50 136 L400 136 L400 196 L255 196 L255 337 L400 337 L400 397 L255 397 L255 542 L195 542 L195 397 L50 397 L50 337 L195 337 L195 196 L50 196 L50 136 Z " />
<glyph glyph-name="acute" unicode="&#xb4;" horiz-adv-x="240" d="M130 700 L50 613 L50 589 L109 589 L190 676 L190 700 L130 700 Z " />
<glyph glyph-name="paragraph" unicode="&#xb6;" horiz-adv-x="614" d="M374 0 L374 641 L504 641 L504 0 L564 0 L564 701 L257 701 C143 701 50 608 50 494 C50 380 143 287 257 287 L314 287 L314 0 L374 0 Z M110 494 C110 575 176 641 257 641 L314 641 L314 347 L257 347 C176 347 110 413 110 494 L110 494 Z " />
<glyph glyph-name="cedilla" unicode="&#xb8;" horiz-adv-x="272" d="M123 -191 C151 -191 177 -179 197 -159 C222 -132 229 -95 214 -62 C207 -46 196 -32 182 -23 C172 -16 160 -11 148 -9 L148 10 L88 10 L88 -67 L131 -67 C155 -67 169 -96 154 -118 C146 -129 132 -131 123 -131 C111 -131 100 -127 92 -118 L50 -161 C69 -180 95 -191 123 -191 L123 -191 Z " />
<glyph glyph-name="ordmasculine" unicode="&#xba;" horiz-adv-x="347" d="M174 339 C242 339 297 394 297 462 L297 576 C297 644 242 700 174 700 C105 700 50 644 50 576 L50 462 C50 394 105 339 174 339 L174 339 Z M174 640 C209 640 237 611 237 576 L237 462 C237 427 209 399 174 399 C138 399 110 427 110 462 L110 576 C110 611 138 640 174 640 L174 640 Z " />
<glyph glyph-name="guillemotright" unicode="&#xbb;" horiz-adv-x="570" d="M266 519 L267 519 C280 519 294 513 309 501 L460 371 L460 367 L309 236 C294 224 280 217 266 217 L266 157 C295 157 322 169 348 191 L520 339 L520 399 L347 546 C322 568 295 579 267 579 L266 579 L266 519 Z M50 519 L51 519 C64 519 78 513 93 501 L244 371 L244 367 L93 236 C78 224 64 217 50 217 L50 157 C79 157 106 169 132 191 L304 339 L304 399 L131 546 C106 568 79 579 51 579 L50 579 L50 519 Z " />
<glyph glyph-name="questiondown" unicode="&#xbf;" horiz-adv-x="406" d="M176 540 L236 540 L236 476 C236 449 229 423 215 399 L123 241 C114 227 110 210 110 194 L110 153 C110 101 152 60 203 60 C254 60 296 101 296 153 L296 245 L356 245 L356 153 C356 68 287 0 203 0 C119 0 50 68 50 153 L50 194 C50 221 57 248 71 271 L163 430 C172 444 176 460 176 476 L176 540 L176 540 Z M203 613 C230 613 251 635 251 661 C251 688 230 709 203 709 C177 709 155 688 155 661 C155 635 177 613 203 613 L203 613 Z " />
<glyph glyph-name="Agrave" unicode="&#xc0;" horiz-adv-x="450" d="M400 0 L400 95 C400 150 392 206 381 261 L290 700 L160 700 L67 260 C56 206 50 151 50 95 L50 0 L110 0 L110 95 C110 116 111 136 112 156 C193 183 258 112 338 133 C339 120 339 107 339 95 L339 0 L400 0 Z M241 640 L312 300 C250 291 199 338 142 324 L208 640 L241 640 Z M130 268 C202 281 253 224 324 242 C327 226 330 210 332 194 C257 168 195 236 120 221 L130 268 Z M114 900 L114 876 L195 789 L254 789 L254 813 L174 900 L114 900 Z " />
<glyph glyph-name="Aacute" unicode="&#xc1;" horiz-adv-x="450" d="M400 0 L400 95 C400 150 392 206 381 261 L290 700 L160 700 L67 260 C56 206 50 151 50 95 L50 0 L110 0 L110 95 C110 116 111 136 112 156 C193 183 258 112 338 133 C339 120 339 107 339 95 L339 0 L400 0 Z M241 640 L312 300 C250 291 199 338 142 324 L208 640 L241 640 Z M130 268 C202 281 253 224 324 242 C327 226 330 210 332 194 C257 168 195 236 120 221 L130 268 Z M274 900 L194 813 L194 789 L253 789 L334 876 L334 900 L274 900 Z " />
<glyph glyph-name="Acircumflex" unicode="&#xc2;" horiz-adv-x="450" d="M400 0 L400 95 C400 150 392 206 381 261 L290 700 L160 700 L67 260 C56 206 50 151 50 95 L50 0 L110 0 L110 95 C110 116 111 136 112 156 C193 183 258 112 338 133 C339 120 339 107 339 95 L339 0 L400 0 Z M241 640 L312 300 C250 291 199 338 142 324 L208 640 L241 640 Z M130 268 C202 281 253 224 324 242 C327 226 330 210 332 194 C257 168 195 236 120 221 L130 268 Z M340 805 L334 821 L250 900 L199 900 L115 821 L109 805 L165 782 L223 840 L226 840 L285 782 L340 805 Z " />
<glyph glyph-name="Atilde" unicode="&#xc3;" horiz-adv-x="450" d="M400 0 L400 95 C400 150 392 206 381 261 L290 700 L160 700 L67 260 C56 206 50 151 50 95 L50 0 L110 0 L110 95 C110 116 111 136 112 156 C193 183 258 112 338 133 C339 120 339 107 339 95 L339 0 L400 0 Z M241 640 L312 300 C250 291 199 338 142 324 L208 640 L241 640 Z M130 268 C202 281 253 224 324 242 C327 226 330 210 332 194 C257 168 195 236 120 221 L130 268 Z M307 792 C331 797 351 807 381 841 L335 881 C299 841 264 847 231 868 C177 902 109 879 68 829 L117 794 C135 817 170 835 199 817 C227 798 268 785 307 792 L307 792 Z " />
<glyph glyph-name="Adieresis" unicode="&#xc4;" horiz-adv-x="451" d="M340 0 L340 95 C340 107 340 120 339 133 C259 112 194 183 113 156 C112 136 111 116 111 95 L111 0 L51 0 L51 95 C51 151 57 206 68 260 L161 700 L291 700 L382 261 C393 206 401 150 401 95 L401 0 L340 0 Z M209 640 L143 324 C200 338 251 291 313 300 L242 640 L209 640 Z M121 221 C196 236 258 168 333 194 C331 210 328 226 325 242 C254 224 203 281 131 268 L121 221 Z M304 837 C304 810 326 789 352 789 C379 789 400 810 400 837 C400 863 379 885 352 885 C326 885 304 863 304 837 L304 837 Z M50 837 C50 810 72 789 98 789 C125 789 146 810 146 837 C146 863 125 885 98 885 C72 885 50 863 50 837 L50 837 Z " />
<glyph glyph-name="Aring" unicode="&#xc5;" horiz-adv-x="450" d="M400 0 L400 95 C400 150 392 206 381 261 L290 700 L160 700 L67 260 C56 206 50 151 50 95 L50 0 L110 0 L110 95 C110 116 111 136 112 156 C193 183 258 112 338 133 C339 120 339 107 339 95 L339 0 L400 0 Z M241 640 L312 300 C250 291 199 338 142 324 L208 640 L241 640 Z M130 268 C202 281 253 224 324 242 C327 226 330 210 332 194 C257 168 195 236 120 221 L130 268 Z M225 789 C281 789 327 835 327 891 C327 948 281 994 225 994 C168 994 122 948 122 891 C122 835 168 789 225 789 L225 789 Z M225 934 C248 934 267 915 267 891 C267 868 248 849 225 849 C201 849 182 868 182 891 C182 915 201 934 225 934 L225 934 Z " />
<glyph glyph-name="AE" unicode="&#xc6;" horiz-adv-x="618" d="M568 60 L399 60 L399 95 C399 150 394 206 385 260 L372 337 L488 337 L488 397 L361 397 L320 640 L508 640 L508 700 L179 700 L70 261 C57 207 50 151 50 95 L50 0 L110 0 L110 95 C110 146 116 197 131 260 C150 270 172 273 193 268 C204 265 217 258 228 252 C245 243 263 241 281 241 C296 241 311 243 326 248 C334 197 339 146 339 95 L339 0 L434 0 L568 0 L568 60 Z M259 640 L316 307 C294 299 272 301 253 307 C238 312 224 322 207 326 C187 330 167 331 148 328 L226 640 L259 640 Z " />
<glyph glyph-name="Ccedilla" unicode="&#xc7;" horiz-adv-x="461" d="M234 -191 C262 -191 288 -179 308 -159 C333 -132 340 -95 325 -62 C318 -46 307 -32 293 -23 C283 -16 271 -11 259 -9 L259 0 C344 7 411 78 411 165 L351 165 C351 107 303 60 245 60 L215 60 C157 60 110 107 110 165 L110 534 C110 592 157 640 215 640 L245 640 C303 640 351 604 351 546 L411 546 C411 637 337 700 245 700 L215 700 C124 700 50 625 50 534 L50 165 C50 79 115 8 199 0 L199 -67 L242 -67 C266 -67 280 -96 265 -118 C257 -129 243 -131 234 -131 C222 -131 211 -127 203 -118 L161 -161 C180 -180 206 -191 234 -191 L234 -191 Z " />
<glyph glyph-name="Egrave" unicode="&#xc8;" horiz-adv-x="400" d="M269 397 L110 397 L110 640 L350 640 L350 700 L50 700 L50 0 L350 0 L350 60 L110 60 L110 337 L268 337 L269 397 Z M90 900 L90 876 L171 789 L230 789 L230 813 L150 900 L90 900 Z " />
<glyph glyph-name="Eacute" unicode="&#xc9;" horiz-adv-x="400" d="M269 397 L110 397 L110 640 L350 640 L350 700 L50 700 L50 0 L350 0 L350 60 L110 60 L110 337 L268 337 L269 397 Z M250 900 L170 813 L170 789 L229 789 L310 876 L310 900 L250 900 Z " />
<glyph glyph-name="Ecircumflex" unicode="&#xca;" horiz-adv-x="400" d="M269 397 L110 397 L110 640 L350 640 L350 700 L50 700 L50 0 L350 0 L350 60 L110 60 L110 337 L268 337 L269 397 Z M315 805 L309 821 L225 900 L174 900 L90 821 L84 805 L140 782 L198 840 L201 840 L260 782 L315 805 Z " />
<glyph glyph-name="Edieresis" unicode="&#xcb;" horiz-adv-x="400" d="M268 337 L110 337 L110 60 L350 60 L350 0 L50 0 L50 700 L350 700 L350 640 L110 640 L110 397 L269 397 L268 337 Z M279 837 C279 810 301 789 327 789 C354 789 375 810 375 837 C375 863 354 885 327 885 C301 885 279 863 279 837 L279 837 Z M25 837 C25 810 47 789 73 789 C100 789 121 810 121 837 C121 863 100 885 73 885 C47 885 25 863 25 837 L25 837 Z " />
<glyph glyph-name="Igrave" unicode="&#xcc;" horiz-adv-x="161" d="M111 0 L111 700 L50 700 L50 0 L111 0 Z M-30 900 L-30 876 L51 789 L110 789 L110 813 L30 900 L-30 900 Z " />
<glyph glyph-name="Iacute" unicode="&#xcd;" horiz-adv-x="161" d="M111 0 L111 700 L50 700 L50 0 L111 0 Z M130 900 L50 813 L50 789 L109 789 L190 876 L190 900 L130 900 Z " />
<glyph glyph-name="Icircumflex" unicode="&#xce;" horiz-adv-x="161" d="M111 0 L111 700 L50 700 L50 0 L111 0 Z M196 805 L190 821 L106 900 L55 900 L-29 821 L-35 805 L21 782 L79 840 L82 840 L141 782 L196 805 Z " />
<glyph glyph-name="Idieresis" unicode="&#xcf;" horiz-adv-x="161" d="M50 0 L50 700 L111 700 L111 0 L50 0 Z M159 837 C159 810 181 789 207 789 C234 789 255 810 255 837 C255 863 234 885 207 885 C181 885 159 863 159 837 L159 837 Z M-95 837 C-95 810 -73 789 -47 789 C-20 789 1 810 1 837 C1 863 -20 885 -47 885 C-73 885 -95 863 -95 837 L-95 837 Z " />
<glyph glyph-name="Eth" unicode="&#xd0;" horiz-adv-x="415" d="M129 473 L60 473 L60 640 L155 640 C238 640 305 574 305 491 L305 209 C305 127 238 60 155 60 L60 60 L60 196 L0 196 L0 0 L155 0 C271 0 365 94 365 209 L365 491 C365 607 271 700 155 700 L0 700 L0 473 L-70 473 L-70 413 L0 413 L0 336 L60 336 L60 413 L129 413 L129 473 Z " />
<glyph glyph-name="Ntilde" unicode="&#xd1;" horiz-adv-x="462" d="M110 0 L110 640 L117 640 L299 0 L412 0 L412 700 L352 700 L352 60 L345 60 L162 700 L50 700 L50 0 L110 0 Z M313 792 C337 797 357 807 387 841 L341 881 C305 841 270 847 237 868 C183 902 115 879 74 829 L123 794 C141 817 176 835 205 817 C233 798 274 785 313 792 L313 792 Z " />
<glyph glyph-name="Ograve" unicode="&#xd2;" horiz-adv-x="542" d="M271 -5 C389 -9 495 97 491 215 L491 480 C494 601 388 700 271 700 C154 700 48 601 51 480 L51 215 C47 97 153 -9 271 -5 L271 -5 Z M271 640 C359 640 431 568 431 480 L431 215 C431 127 359 55 271 55 C183 55 111 127 111 215 L111 480 C111 568 183 640 271 640 L271 640 Z M161 900 L161 876 L242 789 L301 789 L301 813 L221 900 L161 900 Z " />
<glyph glyph-name="Oacute" unicode="&#xd3;" horiz-adv-x="542" d="M271 -5 C389 -9 495 97 491 215 L491 480 C494 601 388 700 271 700 C154 700 48 601 51 480 L51 215 C47 97 153 -9 271 -5 L271 -5 Z M271 640 C359 640 431 568 431 480 L431 215 C431 127 359 55 271 55 C183 55 111 127 111 215 L111 480 C111 568 183 640 271 640 L271 640 Z M321 900 L241 813 L241 789 L300 789 L381 876 L381 900 L321 900 Z " />
<glyph glyph-name="Ocircumflex" unicode="&#xd4;" horiz-adv-x="542" d="M271 -5 C389 -9 495 97 491 215 L491 480 C494 601 388 700 271 700 C154 700 48 601 51 480 L51 215 C47 97 153 -9 271 -5 L271 -5 Z M271 640 C359 640 431 568 431 480 L431 215 C431 127 359 55 271 55 C183 55 111 127 111 215 L111 480 C111 568 183 640 271 640 L271 640 Z M386 805 L380 821 L296 900 L245 900 L161 821 L155 805 L211 782 L269 840 L272 840 L331 782 L386 805 Z " />
<glyph glyph-name="Otilde" unicode="&#xd5;" horiz-adv-x="542" d="M271 -5 C389 -9 495 97 491 215 L491 480 C494 601 388 700 271 700 C154 700 48 601 51 480 L51 215 C47 97 153 -9 271 -5 L271 -5 Z M271 640 C359 640 431 568 431 480 L431 215 C431 127 359 55 271 55 C183 55 111 127 111 215 L111 480 C111 568 183 640 271 640 L271 640 Z M353 792 C377 797 397 807 427 841 L381 881 C345 841 310 847 277 868 C223 902 155 879 114 829 L163 794 C181 817 216 835 245 817 C273 798 314 785 353 792 L353 792 Z " />
<glyph glyph-name="Odieresis" unicode="&#xd6;" horiz-adv-x="542" d="M271 -5 C153 -9 47 97 51 215 L51 480 C48 601 154 700 271 700 C388 700 494 601 491 480 L491 215 C495 97 389 -9 271 -5 L271 -5 Z M271 640 C183 640 111 568 111 480 L111 215 C111 127 183 55 271 55 C359 55 431 127 431 215 L431 480 C431 568 359 640 271 640 L271 640 Z M350 837 C350 810 372 789 398 789 C425 789 446 810 446 837 C446 863 425 885 398 885 C372 885 350 863 350 837 L350 837 Z M96 837 C96 810 118 789 144 789 C171 789 192 810 192 837 C192 863 171 885 144 885 C118 885 96 863 96 837 L96 837 Z " />
<glyph glyph-name="multiply" unicode="&#xd7;" horiz-adv-x="390" d="M298 512 L195 409 L92 512 L50 470 L153 367 L50 264 L92 222 L195 325 L298 222 L340 264 L237 367 L340 470 L298 512 Z " />
<glyph glyph-name="Oslash" unicode="&#xd8;" horiz-adv-x="542" d="M202 5 C224 -2 247 -6 271 -5 C389 -9 495 97 491 215 L491 480 C493 553 455 618 398 658 L419 726 L361 743 L344 687 C321 695 296 700 271 700 C154 700 48 601 51 480 L51 215 C49 141 89 72 148 32 L123 -51 L180 -68 L202 5 Z M271 640 C290 640 309 636 327 630 L166 94 C132 123 111 167 111 215 L111 480 C111 568 183 640 271 640 L271 640 Z M271 55 C253 55 235 58 219 63 L380 597 C411 567 431 526 431 480 L431 215 C431 127 359 55 271 55 L271 55 Z " />
<glyph glyph-name="Ugrave" unicode="&#xd9;" horiz-adv-x="426" d="M50 157 C50 67 123 -6 213 -6 C303 -6 376 67 376 157 L376 700 L316 700 L316 157 C316 100 270 54 213 54 C156 54 110 100 110 157 L110 700 L54 700 L50 157 Z M145 900 L145 876 L226 789 L285 789 L285 813 L205 900 L145 900 Z " />
<glyph glyph-name="Uacute" unicode="&#xda;" horiz-adv-x="426" d="M50 157 C50 67 123 -6 213 -6 C303 -6 376 67 376 157 L376 700 L316 700 L316 157 C316 100 270 54 213 54 C156 54 110 100 110 157 L110 700 L54 700 L50 157 Z M225 900 L145 813 L145 789 L204 789 L285 876 L285 900 L225 900 Z " />
<glyph glyph-name="Ucircumflex" unicode="&#xdb;" horiz-adv-x="426" d="M50 157 C50 67 123 -6 213 -6 C303 -6 376 67 376 157 L376 700 L316 700 L316 157 C316 100 270 54 213 54 C156 54 110 100 110 157 L110 700 L54 700 L50 157 Z M330 805 L324 821 L240 900 L189 900 L105 821 L99 805 L155 782 L213 840 L216 840 L275 782 L330 805 Z " />
<glyph glyph-name="Udieresis" unicode="&#xdc;" horiz-adv-x="450" d="M64 700 L120 700 L120 157 C120 100 166 54 223 54 C280 54 326 100 326 157 L326 700 L386 700 L386 157 C386 67 313 -6 223 -6 C133 -6 60 67 60 157 L64 700 Z M304 837 C304 810 326 789 352 789 C379 789 400 810 400 837 C400 863 379 885 352 885 C326 885 304 863 304 837 L304 837 Z M50 837 C50 810 72 789 98 789 C125 789 146 810 146 837 C146 863 125 885 98 885 C72 885 50 863 50 837 L50 837 Z " />
<glyph glyph-name="Yacute" unicode="&#xdd;" horiz-adv-x="470" d="M265 0 L265 281 L309 343 C345 395 373 452 391 512 C410 573 420 636 420 700 L360 700 C360 642 351 585 334 530 C317 476 292 424 260 377 L241 350 L229 350 L211 376 C178 424 153 475 136 530 C119 585 110 642 110 700 L50 700 C50 636 60 573 79 512 C98 452 126 394 162 342 L205 280 L205 0 L265 0 Z M245 900 L165 813 L165 789 L224 789 L305 876 L305 900 L245 900 Z " />
<glyph glyph-name="germandbls" unicode="&#xdf;" horiz-adv-x="433" d="M110 0 L110 542 C110 601 158 649 216 649 C275 649 323 601 323 540 L195 400 L195 340 L225 340 C279 340 323 296 323 243 L323 158 C323 104 279 60 225 60 L225 0 C312 0 383 71 383 158 L383 243 C383 314 336 374 271 394 L383 516 L383 542 C383 634 308 709 216 709 C124 709 50 634 50 542 L50 0 L110 0 Z " />
<glyph glyph-name="agrave" unicode="&#xe0;" horiz-adv-x="449" d="M399 95 C399 150 393 206 381 261 L289 700 L159 700 L67 260 C55 206 50 151 50 95 L50 0 L110 0 L110 95 C110 146 115 198 129 267 C155 275 185 274 210 259 C244 240 281 232 324 241 C333 193 339 143 339 95 L340 0 L399 0 L399 95 Z M240 640 L312 300 C287 294 264 297 241 310 C211 328 179 333 142 331 L207 640 L240 640 Z M114 900 L114 876 L195 789 L254 789 L254 813 L174 900 L114 900 Z " />
<glyph glyph-name="aacute" unicode="&#xe1;" horiz-adv-x="449" d="M399 95 C399 150 393 206 381 261 L289 700 L159 700 L67 260 C55 206 50 151 50 95 L50 0 L110 0 L110 95 C110 146 115 198 129 267 C155 275 185 274 210 259 C244 240 281 232 324 241 C333 193 339 143 339 95 L340 0 L399 0 L399 95 Z M240 640 L312 300 C287 294 264 297 241 310 C211 328 179 333 142 331 L207 640 L240 640 Z M274 901 L194 814 L194 790 L253 790 L334 877 L334 901 L274 901 Z " />
<glyph glyph-name="acircumflex" unicode="&#xe2;" horiz-adv-x="449" d="M399 95 C399 150 393 206 381 261 L289 700 L159 700 L67 260 C55 206 50 151 50 95 L50 0 L110 0 L110 95 C110 146 115 198 129 267 C155 275 185 274 210 259 C244 240 281 232 324 241 C333 193 339 143 339 95 L340 0 L399 0 L399 95 Z M240 640 L312 300 C287 294 264 297 241 310 C211 328 179 333 142 331 L207 640 L240 640 Z M340 812 L334 828 L250 907 L199 907 L115 828 L109 812 L165 789 L223 847 L226 847 L285 789 L340 812 Z " />
<glyph glyph-name="atilde" unicode="&#xe3;" horiz-adv-x="449" d="M399 95 C399 150 393 206 381 261 L289 700 L159 700 L67 260 C55 206 50 151 50 95 L50 0 L110 0 L110 95 C110 146 115 198 129 267 C155 275 185 274 210 259 C244 240 281 232 324 241 C333 193 339 143 339 95 L340 0 L399 0 L399 95 Z M240 640 L312 300 C287 294 264 297 241 310 C211 328 179 333 142 331 L207 640 L240 640 Z M307 797 C331 802 351 812 381 846 L335 886 C299 846 264 852 231 873 C177 907 109 884 68 834 L117 799 C135 822 170 840 199 822 C227 803 268 790 307 797 L307 797 Z " />
<glyph glyph-name="adieresis" unicode="&#xe4;" horiz-adv-x="450" d="M400 0 L341 0 L340 95 C340 143 334 193 325 241 C282 232 245 240 211 259 C186 274 156 275 130 267 C116 198 111 146 111 95 L111 0 L51 0 L51 95 C51 151 56 206 68 260 L160 700 L290 700 L382 261 C394 206 400 150 400 95 L400 0 Z M208 640 L143 331 C180 333 212 328 242 310 C265 297 288 294 313 300 L241 640 L208 640 Z M304 838 C304 811 326 790 352 790 C379 790 400 811 400 838 C400 864 379 886 352 886 C326 886 304 864 304 838 L304 838 Z M50 838 C50 811 72 790 98 790 C125 790 146 811 146 838 C146 864 125 886 98 886 C72 886 50 864 50 838 L50 838 Z " />
<glyph glyph-name="aring" unicode="&#xe5;" horiz-adv-x="449" d="M399 95 C399 150 393 206 381 261 L289 700 L159 700 L67 260 C55 206 50 151 50 95 L50 0 L110 0 L110 95 C110 146 115 198 129 267 C155 275 185 274 210 259 C244 240 281 232 324 241 C333 193 339 143 339 95 L340 0 L399 0 L399 95 Z M240 640 L312 300 C287 294 264 297 241 310 C211 328 179 333 142 331 L207 640 L240 640 Z M225 789 C281 789 327 835 327 891 C327 948 281 994 225 994 C168 994 122 948 122 891 C122 835 168 789 225 789 L225 789 Z M225 934 C248 934 267 915 267 891 C267 868 248 849 225 849 C201 849 182 868 182 891 C182 915 201 934 225 934 L225 934 Z " />
<glyph glyph-name="ccedilla" unicode="&#xe7;" horiz-adv-x="415" d="M221 -191 C249 -191 275 -179 295 -159 C320 -132 327 -95 312 -62 C305 -46 294 -32 280 -23 C270 -16 258 -11 246 -9 L246 4 C314 21 365 84 365 158 L365 170 L305 170 L305 158 C305 104 262 60 208 60 C154 60 110 104 110 158 L110 542 C110 596 154 640 208 640 C262 640 305 601 305 543 L365 543 C365 631 295 700 208 700 C121 700 50 629 50 542 L50 158 C50 78 109 12 186 1 L186 -67 L229 -67 C253 -67 267 -96 252 -118 C244 -129 230 -131 221 -131 C209 -131 198 -127 190 -118 L148 -161 C167 -180 193 -191 221 -191 L221 -191 Z " />
<glyph glyph-name="egrave" unicode="&#xe8;" horiz-adv-x="400" d="M252 397 L110 397 L110 640 L350 640 L350 700 L50 700 L50 0 L350 0 L350 60 L110 60 L110 337 L252 337 L252 397 Z M90 901 L90 877 L171 790 L230 790 L230 814 L150 901 L90 901 Z " />
<glyph glyph-name="eacute" unicode="&#xe9;" horiz-adv-x="400" d="M252 397 L110 397 L110 640 L350 640 L350 700 L50 700 L50 0 L350 0 L350 60 L110 60 L110 337 L252 337 L252 397 Z M250 901 L170 814 L170 790 L229 790 L310 877 L310 901 L250 901 Z " />
<glyph glyph-name="ecircumflex" unicode="&#xea;" horiz-adv-x="400" d="M252 397 L110 397 L110 640 L350 640 L350 700 L50 700 L50 0 L350 0 L350 60 L110 60 L110 337 L252 337 L252 397 Z M315 813 L309 829 L225 908 L174 908 L90 829 L84 813 L140 790 L198 848 L201 848 L260 790 L315 813 Z " />
<glyph glyph-name="edieresis" unicode="&#xeb;" horiz-adv-x="400" d="M252 337 L110 337 L110 60 L350 60 L350 0 L50 0 L50 700 L350 700 L350 640 L110 640 L110 397 L252 397 L252 337 Z M279 838 C279 811 301 790 327 790 C354 790 375 811 375 838 C375 864 354 886 327 886 C301 886 279 864 279 838 L279 838 Z M25 838 C25 811 47 790 73 790 C100 790 121 811 121 838 C121 864 100 886 73 886 C47 886 25 864 25 838 L25 838 Z " />
<glyph glyph-name="igrave" unicode="&#xec;" horiz-adv-x="160" d="M110 0 L110 700 L50 700 L50 0 L110 0 Z M-30 901 L-30 877 L51 790 L110 790 L110 814 L30 901 L-30 901 Z " />
<glyph glyph-name="iacute" unicode="&#xed;" horiz-adv-x="160" d="M110 0 L110 700 L50 700 L50 0 L110 0 Z M130 901 L50 814 L50 790 L109 790 L190 877 L190 901 L130 901 Z " />
<glyph glyph-name="icircumflex" unicode="&#xee;" horiz-adv-x="160" d="M110 0 L110 700 L50 700 L50 0 L110 0 Z M197 812 L191 828 L107 907 L56 907 L-28 828 L-34 812 L22 789 L80 847 L83 847 L142 789 L197 812 Z " />
<glyph glyph-name="idieresis" unicode="&#xef;" horiz-adv-x="160" d="M50 0 L50 700 L110 700 L110 0 L50 0 Z M124 838 C124 811 146 790 172 790 C199 790 220 811 220 838 C220 864 199 886 172 886 C146 886 124 864 124 838 L124 838 Z M-60 838 C-60 811 -38 790 -12 790 C15 790 36 811 36 838 C36 864 15 886 -12 886 C-38 886 -60 864 -60 838 L-60 838 Z " />
<glyph glyph-name="ntilde" unicode="&#xf1;" horiz-adv-x="462" d="M110 0 L110 640 L117 640 L299 0 L412 0 L412 700 L352 700 L352 60 L345 60 L162 700 L50 700 L50 0 L110 0 Z M313 796 C337 801 357 811 387 845 L341 885 C305 845 270 851 237 872 C183 906 115 883 74 833 L123 798 C141 821 176 839 205 821 C233 802 274 789 313 796 L313 796 Z " />
<glyph glyph-name="ograve" unicode="&#xf2;" horiz-adv-x="437" d="M218 0 C311 0 387 75 387 168 L387 536 C387 629 311 705 218 705 C125 705 50 629 50 536 L50 168 C50 75 125 0 218 0 L218 0 Z M218 645 C278 645 327 596 327 536 L327 168 C327 109 278 60 218 60 L218 60 C159 60 110 109 110 168 L110 536 C110 596 159 645 218 645 L218 645 Z M108 901 L108 877 L189 790 L248 790 L248 814 L168 901 L108 901 Z " />
<glyph glyph-name="oacute" unicode="&#xf3;" horiz-adv-x="437" d="M218 0 C311 0 387 75 387 168 L387 536 C387 629 311 705 218 705 C125 705 50 629 50 536 L50 168 C50 75 125 0 218 0 L218 0 Z M218 645 C278 645 327 596 327 536 L327 168 C327 109 278 60 218 60 L218 60 C159 60 110 109 110 168 L110 536 C110 596 159 645 218 645 L218 645 Z M268 901 L188 814 L188 790 L247 790 L328 877 L328 901 L268 901 Z " />
<glyph glyph-name="ocircumflex" unicode="&#xf4;" horiz-adv-x="437" d="M218 0 C311 0 387 75 387 168 L387 536 C387 629 311 705 218 705 C125 705 50 629 50 536 L50 168 C50 75 125 0 218 0 L218 0 Z M218 645 C278 645 327 596 327 536 L327 168 C327 109 278 60 218 60 L218 60 C159 60 110 109 110 168 L110 536 C110 596 159 645 218 645 L218 645 Z M334 813 L328 829 L244 908 L193 908 L109 829 L103 813 L159 790 L217 848 L220 848 L279 790 L334 813 Z " />
<glyph glyph-name="otilde" unicode="&#xf5;" horiz-adv-x="437" d="M218 0 C311 0 387 75 387 168 L387 536 C387 629 311 705 218 705 C125 705 50 629 50 536 L50 168 C50 75 125 0 218 0 L218 0 Z M218 645 C278 645 327 596 327 536 L327 168 C327 109 278 60 218 60 L218 60 C159 60 110 109 110 168 L110 536 C110 596 159 645 218 645 L218 645 Z M301 791 C325 796 345 806 375 840 L329 880 C293 840 258 846 225 867 C171 901 103 878 62 828 L111 793 C129 816 164 834 193 816 C221 797 262 784 301 791 L301 791 Z " />
<glyph glyph-name="odieresis" unicode="&#xf6;" horiz-adv-x="437" d="M218 0 C125 0 50 75 50 168 L50 536 C50 629 125 705 218 705 C311 705 387 629 387 536 L387 168 C387 75 311 0 218 0 L218 0 Z M218 645 C159 645 110 596 110 536 L110 168 C110 109 159 60 218 60 L218 60 C278 60 327 109 327 168 L327 536 C327 596 278 645 218 645 L218 645 Z M298 838 C298 811 320 790 346 790 C373 790 394 811 394 838 C394 864 373 886 346 886 C320 886 298 864 298 838 L298 838 Z M44 838 C44 811 66 790 92 790 C119 790 140 811 140 838 C140 864 119 886 92 886 C66 886 44 864 44 838 L44 838 Z " />
<glyph glyph-name="divide" unicode="&#xf7;" horiz-adv-x="450" d="M400 337 L50 337 L50 397 L400 397 L400 337 Z M226 213 C199 213 178 191 178 165 C178 138 199 117 226 117 C252 117 274 138 274 165 C274 191 252 213 226 213 L226 213 Z M226 617 C199 617 178 595 178 569 C178 542 199 521 226 521 C252 521 274 542 274 569 C274 595 252 617 226 617 L226 617 Z " />
<glyph glyph-name="oslash" unicode="&#xf8;" horiz-adv-x="437" d="M151 13 C172 4 194 0 218 0 C311 0 387 75 387 168 L387 536 C387 579 370 619 343 649 L366 726 L308 743 L291 688 C269 699 244 705 218 705 C125 705 50 629 50 536 L50 168 C50 121 69 79 100 48 L70 -51 L127 -68 L151 13 Z M218 645 C238 645 257 639 274 629 L121 120 C114 134 110 151 110 168 L110 536 C110 596 159 645 218 645 L218 645 Z M218 60 C200 60 183 64 169 71 L320 574 C324 562 327 549 327 536 L327 168 C327 109 278 60 218 60 L218 60 Z " />
<glyph glyph-name="ugrave" unicode="&#xf9;" horiz-adv-x="426" d="M50 157 C50 67 123 -6 213 -6 C303 -6 376 67 376 157 L376 700 L316 700 L316 157 C316 100 270 54 213 54 C156 54 110 100 110 157 L110 700 L54 700 L50 157 Z M105 900 L105 876 L186 789 L245 789 L245 813 L165 900 L105 900 Z " />
<glyph glyph-name="uacute" unicode="&#xfa;" horiz-adv-x="426" d="M50 157 C50 67 123 -6 213 -6 C303 -6 376 67 376 157 L376 700 L316 700 L316 157 C316 100 270 54 213 54 C156 54 110 100 110 157 L110 700 L54 700 L50 157 Z M265 901 L185 814 L185 790 L244 790 L325 877 L325 901 L265 901 Z " />
<glyph glyph-name="ucircumflex" unicode="&#xfb;" horiz-adv-x="426" d="M50 157 C50 67 123 -6 213 -6 C303 -6 376 67 376 157 L376 700 L316 700 L316 157 C316 100 270 54 213 54 C156 54 110 100 110 157 L110 700 L54 700 L50 157 Z M330 812 L324 828 L240 907 L189 907 L105 828 L99 812 L155 789 L213 847 L216 847 L275 789 L330 812 Z " />
<glyph glyph-name="udieresis" unicode="&#xfc;" horiz-adv-x="425" d="M50 700 L109 700 L109 157 C109 100 155 54 212 54 C269 54 315 100 315 157 L315 700 L375 700 L375 157 C375 67 302 -6 212 -6 C122 -6 49 67 49 157 L50 700 Z M293 838 C293 811 315 790 341 790 C368 790 389 811 389 838 C389 864 368 886 341 886 C315 886 293 864 293 838 L293 838 Z M39 838 C39 811 61 790 87 790 C114 790 135 811 135 838 C135 864 114 886 87 886 C61 886 39 864 39 838 L39 838 Z " />
<glyph glyph-name="yacute" unicode="&#xfd;" horiz-adv-x="470" d="M265 0 L265 251 L420 689 L420 700 L360 700 L236 350 L235 350 L110 700 L50 700 L50 689 L205 257 L205 0 L265 0 Z M285 901 L205 814 L205 790 L264 790 L345 877 L345 901 L285 901 Z " />
<glyph glyph-name="ydieresis" unicode="&#xff;" horiz-adv-x="470" d="M205 0 L205 257 L50 689 L50 700 L110 700 L235 350 L236 350 L360 700 L420 700 L420 689 L265 251 L265 0 L205 0 Z M314 837 C314 810 336 789 362 789 C389 789 410 810 410 837 C410 863 389 885 362 885 C336 885 314 863 314 837 L314 837 Z M60 837 C60 810 82 789 108 789 C135 789 156 810 156 837 C156 863 135 885 108 885 C82 885 60 863 60 837 L60 837 Z " />
<glyph glyph-name="Amacron" unicode="&#x100;" horiz-adv-x="450" d="M400 0 L400 95 C400 150 392 206 381 261 L290 700 L160 700 L67 260 C56 206 50 151 50 95 L50 0 L110 0 L110 95 C110 116 111 136 112 156 C193 183 258 112 338 133 C339 120 339 107 339 95 L339 0 L400 0 Z M241 640 L312 300 C250 291 199 338 142 324 L208 640 L241 640 Z M130 268 C202 281 253 224 324 242 C327 226 330 210 332 194 C257 168 195 236 120 221 L130 268 Z M374 850 L74 850 L74 790 L374 790 L374 850 Z " />
<glyph glyph-name="amacron" unicode="&#x101;" horiz-adv-x="449" d="M399 95 C399 150 393 206 381 261 L289 700 L159 700 L67 260 C55 206 50 151 50 95 L50 0 L110 0 L110 95 C110 146 115 198 129 267 C155 275 185 274 210 259 C244 240 281 232 324 241 C333 193 339 143 339 95 L340 0 L399 0 L399 95 Z M240 640 L312 300 C287 294 264 297 241 310 C211 328 179 333 142 331 L207 640 L240 640 Z M374 850 L74 850 L74 790 L374 790 L374 850 Z " />
<glyph glyph-name="Abreve" unicode="&#x102;" horiz-adv-x="450" d="M400 0 L400 95 C400 150 392 206 381 261 L290 700 L160 700 L67 260 C56 206 50 151 50 95 L50 0 L110 0 L110 95 C110 116 111 136 112 156 C193 183 258 112 338 133 C339 120 339 107 339 95 L339 0 L400 0 Z M241 640 L312 300 C250 291 199 338 142 324 L208 640 L241 640 Z M130 268 C202 281 253 224 324 242 C327 226 330 210 332 194 C257 168 195 236 120 221 L130 268 Z M225 789 C281 789 327 835 327 892 L267 892 C267 869 248 849 225 849 C201 849 182 869 182 892 L122 892 C122 835 168 789 225 789 L225 789 Z " />
<glyph glyph-name="abreve" unicode="&#x103;" horiz-adv-x="449" d="M399 95 C399 150 393 206 381 261 L289 700 L159 700 L67 260 C55 206 50 151 50 95 L50 0 L110 0 L110 95 C110 146 115 198 129 267 C155 275 185 274 210 259 C244 240 281 232 324 241 C333 193 339 143 339 95 L340 0 L399 0 L399 95 Z M240 640 L312 300 C287 294 264 297 241 310 C211 328 179 333 142 331 L207 640 L240 640 Z M225 789 C281 789 327 835 327 892 L267 892 C267 869 248 849 225 849 C201 849 182 869 182 892 L122 892 C122 835 168 789 225 789 L225 789 Z " />
<glyph glyph-name="Aogonek" unicode="&#x104;" horiz-adv-x="450" d="M421 -191 C447 -191 473 -181 493 -161 L451 -119 C434 -135 407 -135 391 -119 C374 -102 375 -75 400 -49 L400 95 C400 150 392 206 381 261 L290 700 L160 700 L67 260 C56 206 50 151 50 95 L50 0 L110 0 L110 95 C110 116 111 136 112 156 C193 183 258 112 338 133 C339 120 339 107 339 95 L339 -26 C325 -44 318 -65 318 -88 C318 -116 329 -142 348 -161 C368 -181 394 -191 421 -191 L421 -191 Z M241 640 L312 300 C250 291 199 338 142 324 L208 640 L241 640 Z M130 268 C202 281 253 224 324 242 C327 226 330 210 332 194 C257 168 195 236 120 221 L130 268 Z " />
<glyph glyph-name="aogonek" unicode="&#x105;" horiz-adv-x="449" d="M422 -191 C448 -191 474 -181 494 -161 L452 -119 C435 -135 408 -135 392 -119 C375 -102 374 -75 399 -49 L399 95 C399 150 393 206 381 261 L289 700 L159 700 L67 260 C55 206 50 151 50 95 L50 0 L110 0 L110 95 C110 146 115 198 129 267 C155 275 185 274 210 259 C244 240 281 232 324 241 C333 193 339 143 339 95 L339 -26 C325 -44 319 -65 319 -88 C319 -116 330 -142 349 -161 C369 -181 395 -191 422 -191 L422 -191 Z M240 640 L312 300 C287 294 264 297 241 310 C211 328 179 333 142 331 L207 640 L240 640 Z " />
<glyph glyph-name="Cacute" unicode="&#x106;" horiz-adv-x="461" d="M245 0 C337 0 411 74 411 165 L351 165 C351 107 303 60 245 60 L215 60 C157 60 110 107 110 165 L110 534 C110 592 157 640 215 640 L245 640 C303 640 351 604 351 546 L411 546 C411 637 337 700 245 700 L215 700 C124 700 50 625 50 534 L50 165 C50 74 124 0 215 0 L245 0 Z M280 901 L200 814 L200 790 L259 790 L340 877 L340 901 L280 901 Z " />
<glyph glyph-name="cacute" unicode="&#x107;" horiz-adv-x="415" d="M365 543 C365 631 295 700 208 700 C121 700 50 629 50 542 L50 158 C50 71 121 0 208 0 C295 0 365 71 365 158 L365 170 L305 170 L305 158 C305 104 262 60 208 60 C154 60 110 104 110 158 L110 542 C110 596 154 640 208 640 C262 640 305 601 305 543 L365 543 Z M257 900 L177 813 L177 789 L236 789 L317 876 L317 900 L257 900 Z " />
<glyph glyph-name="Ccircumflex" unicode="&#x108;" horiz-adv-x="461" d="M245 0 C337 0 411 74 411 165 L351 165 C351 107 303 60 245 60 L215 60 C157 60 110 107 110 165 L110 534 C110 592 157 640 215 640 L245 640 C303 640 351 604 351 546 L411 546 C411 637 337 700 245 700 L215 700 C124 700 50 625 50 534 L50 165 C50 74 124 0 215 0 L245 0 Z M346 813 L340 829 L256 908 L205 908 L121 829 L115 813 L171 790 L229 848 L232 848 L291 790 L346 813 Z " />
<glyph glyph-name="ccircumflex" unicode="&#x109;" horiz-adv-x="415" d="M365 543 C365 631 295 700 208 700 C121 700 50 629 50 542 L50 158 C50 71 121 0 208 0 C295 0 365 71 365 158 L365 170 L305 170 L305 158 C305 104 262 60 208 60 C154 60 110 104 110 158 L110 542 C110 596 154 640 208 640 C262 640 305 601 305 543 L365 543 Z M323 813 L317 829 L233 908 L182 908 L98 829 L92 813 L148 790 L206 848 L209 848 L268 790 L323 813 Z " />
<glyph glyph-name="Cdotaccent" unicode="&#x10a;" horiz-adv-x="461" d="M245 0 L215 0 C124 0 50 74 50 165 L50 534 C50 625 124 700 215 700 L245 700 C337 700 411 637 411 546 L351 546 C351 604 303 640 245 640 L215 640 C157 640 110 592 110 534 L110 165 C110 107 157 60 215 60 L245 60 C303 60 351 107 351 165 L411 165 C411 74 337 0 245 0 L245 0 Z M182 838 C182 811 204 790 230 790 C257 790 278 811 278 838 C278 864 257 886 230 886 C204 886 182 864 182 838 L182 838 Z " />
<glyph glyph-name="cdotaccent" unicode="&#x10b;" horiz-adv-x="415" d="M305 543 C305 601 262 640 208 640 C154 640 110 596 110 542 L110 158 C110 104 154 60 208 60 C262 60 305 104 305 158 L305 170 L365 170 L365 158 C365 71 295 0 208 0 C121 0 50 71 50 158 L50 542 C50 629 121 700 208 700 C295 700 365 631 365 543 L305 543 Z M159 837 C159 810 181 789 207 789 C234 789 255 810 255 837 C255 863 234 885 207 885 C181 885 159 863 159 837 L159 837 Z " />
<glyph glyph-name="Ccaron" unicode="&#x10c;" horiz-adv-x="461" d="M115 793 L121 777 L203 699 C118 693 50 621 50 534 L50 165 C50 74 124 0 215 0 L245 0 C337 0 411 74 411 165 L351 165 C351 107 303 60 245 60 L215 60 C157 60 110 107 110 165 L110 534 C110 592 157 640 215 640 L245 640 C303 640 351 604 351 546 L411 546 C411 633 343 694 257 699 L340 777 L346 793 L290 816 L232 758 L229 758 L170 816 L115 793 Z " />
<glyph glyph-name="ccaron" unicode="&#x10d;" horiz-adv-x="415" d="M92 792 L98 776 L181 698 C106 685 50 620 50 542 L50 158 C50 71 121 0 208 0 C295 0 365 71 365 158 L365 170 L305 170 L305 158 C305 104 262 60 208 60 C154 60 110 104 110 158 L110 542 C110 596 154 640 208 640 C262 640 305 601 305 543 L365 543 C365 622 308 686 234 698 L317 776 L323 792 L267 815 L209 757 L206 757 L147 815 L92 792 Z " />
<glyph glyph-name="Dcaron" unicode="&#x10e;" horiz-adv-x="465" d="M205 0 C321 0 415 94 415 209 L415 491 C415 607 321 700 205 700 L50 700 L50 336 L110 336 L110 640 L205 640 C288 640 355 574 355 491 L355 209 C355 127 288 60 205 60 L110 60 L110 174 L50 174 L50 0 L205 0 Z M99 885 L105 869 L189 790 L240 790 L324 869 L330 885 L274 908 L216 850 L213 850 L154 908 L99 885 Z " />
<glyph glyph-name="dcaron" unicode="&#x10f;" horiz-adv-x="434" d="M174 0 C290 0 384 94 384 209 L384 491 C384 607 290 700 174 700 L50 700 L50 0 L174 0 Z M110 640 L174 640 C257 640 324 574 324 491 L324 209 C324 127 257 60 174 60 L110 60 L110 640 Z M50 885 L56 869 L140 790 L191 790 L275 869 L281 885 L225 908 L167 850 L164 850 L105 908 L50 885 Z " />
<glyph glyph-name="Dcroat" unicode="&#x110;" horiz-adv-x="465" d="M205 0 C321 0 415 94 415 209 L415 491 C415 607 321 700 205 700 L50 700 L50 473 L-20 473 L-20 413 L50 413 L50 336 L110 336 L110 413 L179 413 L179 473 L110 473 L110 640 L205 640 C288 640 355 574 355 491 L355 209 C355 127 288 60 205 60 L110 60 L110 174 L50 174 L50 0 L205 0 L205 0 Z " />
<glyph glyph-name="dcroat" unicode="&#x111;" horiz-adv-x="434" d="M174 0 C290 0 384 94 384 209 L384 491 C384 607 290 700 174 700 L50 700 L50 473 L-20 473 L-20 413 L50 413 L50 0 L174 0 Z M110 413 L179 413 L179 473 L110 473 L110 640 L174 640 C257 640 324 574 324 491 L324 209 C324 127 257 60 174 60 L110 60 L110 413 Z " />
<glyph glyph-name="Emacron" unicode="&#x112;" horiz-adv-x="400" d="M269 397 L110 397 L110 640 L350 640 L350 700 L50 700 L50 0 L350 0 L350 60 L110 60 L110 337 L268 337 L269 397 Z M350 850 L50 850 L50 790 L350 790 L350 850 Z " />
<glyph glyph-name="emacron" unicode="&#x113;" horiz-adv-x="400" d="M252 397 L110 397 L110 640 L350 640 L350 700 L50 700 L50 0 L350 0 L350 60 L110 60 L110 337 L252 337 L252 397 Z M350 849 L50 849 L50 789 L350 789 L350 849 Z " />
<glyph glyph-name="Ebreve" unicode="&#x114;" horiz-adv-x="400" d="M269 397 L110 397 L110 640 L350 640 L350 700 L50 700 L50 0 L350 0 L350 60 L110 60 L110 337 L268 337 L269 397 Z M200 789 C256 789 302 835 302 892 L242 892 C242 869 223 849 200 849 C176 849 157 869 157 892 L97 892 C97 835 143 789 200 789 L200 789 Z " />
<glyph glyph-name="ebreve" unicode="&#x115;" horiz-adv-x="400" d="M252 397 L110 397 L110 640 L350 640 L350 700 L50 700 L50 0 L350 0 L350 60 L110 60 L110 337 L252 337 L252 397 Z M200 789 C256 789 302 835 302 892 L242 892 C242 869 223 849 200 849 C176 849 157 869 157 892 L97 892 C97 835 143 789 200 789 L200 789 Z " />
<glyph glyph-name="Edotaccent" unicode="&#x116;" horiz-adv-x="400" d="M268 337 L110 337 L110 60 L350 60 L350 0 L50 0 L50 700 L350 700 L350 640 L110 640 L110 397 L269 397 L268 337 Z M152 837 C152 810 174 789 200 789 C227 789 248 810 248 837 C248 863 227 885 200 885 C174 885 152 863 152 837 L152 837 Z " />
<glyph glyph-name="edotaccent" unicode="&#x117;" horiz-adv-x="400" d="M252 337 L110 337 L110 60 L350 60 L350 0 L50 0 L50 700 L350 700 L350 640 L110 640 L110 397 L252 397 L252 337 Z M152 837 C152 810 174 789 200 789 C227 789 248 810 248 837 C248 863 227 885 200 885 C174 885 152 863 152 837 L152 837 Z " />
<glyph glyph-name="Eogonek" unicode="&#x118;" horiz-adv-x="400" d="M238 -191 C264 -191 290 -181 310 -161 L268 -119 C251 -135 224 -135 208 -119 C191 -102 192 -75 217 -49 L217 0 L350 0 L350 60 L110 60 L110 337 L268 337 L269 397 L110 397 L110 640 L350 640 L350 700 L50 700 L50 0 L156 0 L156 -26 C142 -44 135 -65 135 -88 C135 -116 146 -142 165 -161 C185 -181 211 -191 238 -191 L238 -191 Z " />
<glyph glyph-name="eogonek" unicode="&#x119;" horiz-adv-x="400" d="M238 -191 C264 -191 290 -181 310 -161 L268 -119 C251 -135 224 -135 208 -119 C191 -102 192 -75 217 -49 L217 0 L350 0 L350 60 L110 60 L110 337 L252 337 L252 397 L110 397 L110 640 L350 640 L350 700 L50 700 L50 0 L156 0 L156 -26 C142 -44 135 -65 135 -88 C135 -116 146 -142 165 -161 C185 -181 211 -191 238 -191 L238 -191 Z " />
<glyph glyph-name="Ecaron" unicode="&#x11a;" horiz-adv-x="400" d="M269 397 L110 397 L110 640 L350 640 L350 700 L50 700 L50 0 L350 0 L350 60 L110 60 L110 337 L268 337 L269 397 Z M84 885 L90 869 L174 790 L225 790 L309 869 L315 885 L259 908 L201 850 L198 850 L139 908 L84 885 Z " />
<glyph glyph-name="ecaron" unicode="&#x11b;" horiz-adv-x="400" d="M252 397 L110 397 L110 640 L350 640 L350 700 L50 700 L50 0 L350 0 L350 60 L110 60 L110 337 L252 337 L252 397 Z M84 884 L90 868 L174 789 L225 789 L309 868 L315 884 L259 907 L201 849 L198 849 L139 907 L84 884 Z " />
<glyph glyph-name="Gcircumflex" unicode="&#x11c;" horiz-adv-x="461" d="M350 285 L351 165 C351 107 303 60 245 60 L215 60 C157 60 110 107 110 165 L110 544 C110 602 157 650 215 650 L245 650 C303 650 351 602 351 544 L411 544 C411 635 337 710 245 710 L215 710 C124 710 50 635 50 544 L50 165 C50 74 124 0 215 0 L245 0 C337 0 411 74 411 165 L411 345 L265 345 L265 285 L350 285 Z M346 813 L340 829 L256 908 L205 908 L121 829 L115 813 L171 790 L229 848 L232 848 L291 790 L346 813 Z " />
<glyph glyph-name="gcircumflex" unicode="&#x11d;" horiz-adv-x="409" d="M359 550 C359 635 290 704 205 704 C119 704 50 635 50 550 L50 151 C50 65 119 -4 205 -4 C290 -4 359 65 359 151 L359 345 L214 345 L214 285 L299 285 L299 151 C299 98 257 56 205 56 C152 56 110 98 110 151 L110 550 C110 602 152 644 205 644 C257 644 299 602 299 550 L359 550 Z M320 812 L314 828 L230 907 L179 907 L95 828 L89 812 L145 789 L203 847 L206 847 L265 789 L320 812 Z " />
<glyph glyph-name="Gbreve" unicode="&#x11e;" horiz-adv-x="461" d="M350 285 L351 165 C351 107 303 60 245 60 L215 60 C157 60 110 107 110 165 L110 544 C110 602 157 650 215 650 L245 650 C303 650 351 602 351 544 L411 544 C411 635 337 710 245 710 L215 710 C124 710 50 635 50 544 L50 165 C50 74 124 0 215 0 L245 0 C337 0 411 74 411 165 L411 345 L265 345 L265 285 L350 285 Z M231 790 C287 790 333 836 333 893 L273 893 C273 870 254 850 231 850 C207 850 188 870 188 893 L128 893 C128 836 174 790 231 790 L231 790 Z " />
<glyph glyph-name="gbreve" unicode="&#x11f;" horiz-adv-x="409" d="M359 550 C359 635 290 704 205 704 C119 704 50 635 50 550 L50 151 C50 65 119 -4 205 -4 C290 -4 359 65 359 151 L359 345 L214 345 L214 285 L299 285 L299 151 C299 98 257 56 205 56 C152 56 110 98 110 151 L110 550 C110 602 152 644 205 644 C257 644 299 602 299 550 L359 550 Z M205 790 C261 790 307 836 307 893 L247 893 C247 870 228 850 205 850 C181 850 162 870 162 893 L102 893 C102 836 148 790 205 790 L205 790 Z " />
<glyph glyph-name="Gdotaccent" unicode="&#x120;" horiz-adv-x="461" d="M350 285 L265 285 L265 345 L411 345 L411 165 C411 74 337 0 245 0 L215 0 C124 0 50 74 50 165 L50 544 C50 635 124 710 215 710 L245 710 C337 710 411 635 411 544 L351 544 C351 602 303 650 245 650 L215 650 C157 650 110 602 110 544 L110 165 C110 107 157 60 215 60 L245 60 C303 60 351 107 351 165 L350 285 L350 285 Z M182 837 C182 810 204 789 230 789 C257 789 278 810 278 837 C278 863 257 885 230 885 C204 885 182 863 182 837 L182 837 Z " />
<glyph glyph-name="gdotaccent" unicode="&#x121;" horiz-adv-x="409" d="M299 550 C299 602 257 644 205 644 C152 644 110 602 110 550 L110 151 C110 98 152 56 205 56 C257 56 299 98 299 151 L299 285 L214 285 L214 345 L359 345 L359 151 C359 65 290 -4 205 -4 C119 -4 50 65 50 151 L50 550 C50 635 119 704 205 704 C290 704 359 635 359 550 L299 550 Z M156 838 C156 811 178 790 204 790 C231 790 252 811 252 838 C252 864 231 886 204 886 C178 886 156 864 156 838 L156 838 Z " />
<glyph glyph-name="Hcircumflex" unicode="&#x124;" horiz-adv-x="449" d="M110 0 L110 295 C141 307 175 301 214 281 C235 269 260 264 286 264 C304 264 322 266 339 271 L339 0 L399 0 L399 700 L339 700 L339 444 C302 430 263 432 242 444 C196 469 152 476 110 467 L110 700 L50 700 L50 0 L110 0 Z M286 374 C304 374 322 376 339 381 L339 334 C302 320 263 322 242 334 C196 359 152 366 110 357 L110 405 C141 417 175 411 214 391 C235 379 260 374 286 374 L286 374 Z M340 813 L334 829 L250 908 L199 908 L115 829 L109 813 L165 790 L223 848 L226 848 L285 790 L340 813 Z " />
<glyph glyph-name="hcircumflex" unicode="&#x125;" horiz-adv-x="449" d="M339 0 L399 0 L399 700 L339 700 L339 444 C302 430 263 432 242 444 C196 469 152 476 110 467 L110 700 L50 700 L50 0 L110 0 L110 405 C141 417 175 411 214 391 C235 379 260 374 286 374 C304 374 322 376 339 381 L339 0 Z M340 812 L334 828 L250 907 L199 907 L115 828 L109 812 L165 789 L223 847 L226 847 L285 789 L340 812 Z " />
<glyph glyph-name="Hbar" unicode="&#x126;" horiz-adv-x="519" d="M469 570 L434 570 L434 697 L374 697 L374 570 L145 570 L145 701 L85 700 L85 570 L50 570 L50 510 L85 510 L85 0 L145 0 L145 295 C176 307 210 301 249 281 C270 269 295 264 321 264 C339 264 357 266 374 271 L374 0 L434 0 L434 510 L469 510 L469 570 Z M277 444 C231 469 187 476 145 467 L145 510 L374 510 L374 444 C337 430 298 432 277 444 L277 444 Z M321 374 C339 374 357 376 374 381 L374 334 C337 320 298 322 277 334 C231 359 187 366 145 357 L145 405 C176 417 210 411 249 391 C270 379 295 374 321 374 L321 374 Z " />
<glyph glyph-name="Itilde" unicode="&#x128;" horiz-adv-x="161" d="M111 0 L111 700 L50 700 L50 0 L111 0 Z M163 791 C187 796 207 806 237 840 L191 880 C155 840 120 846 87 867 C33 901 -35 878 -76 828 L-27 793 C-9 816 26 834 55 816 C83 797 124 784 163 791 L163 791 Z " />
<glyph glyph-name="Imacron" unicode="&#x12a;" horiz-adv-x="161" d="M111 0 L111 700 L50 700 L50 0 L111 0 Z M230 850 L-70 850 L-70 790 L230 790 L230 850 Z " />
<glyph glyph-name="Iogonek" unicode="&#x12e;" horiz-adv-x="161" d="M132 -191 C158 -191 184 -181 204 -161 L162 -119 C145 -135 118 -135 102 -119 C85 -102 86 -75 111 -49 L111 700 L50 700 L50 -26 C36 -44 29 -65 29 -88 C29 -116 40 -142 59 -161 C79 -181 105 -191 132 -191 L132 -191 Z " />
<glyph glyph-name="iogonek" unicode="&#x12f;" horiz-adv-x="160" d="M132 -191 C158 -191 184 -181 204 -161 L162 -119 C145 -135 118 -135 102 -119 C85 -102 86 -75 111 -49 L110 700 L50 700 L50 -26 C36 -44 29 -65 29 -88 C29 -116 40 -142 59 -161 C79 -181 105 -191 132 -191 L132 -191 Z " />
<glyph glyph-name="Idotaccent" unicode="&#x130;" horiz-adv-x="161" d="M50 0 L50 700 L111 700 L111 0 L50 0 Z M32 838 C32 811 54 790 80 790 C107 790 128 811 128 838 C128 864 107 886 80 886 C54 886 32 864 32 838 L32 838 Z " />
<glyph glyph-name="ij" unicode="&#x133;" horiz-adv-x="323" d="M110 268 L110 700 L50 700 L50 268 L110 268 Z M161 0 C223 0 273 50 273 111 L273 699 L213 699 L213 111 C213 83 190 60 161 60 C133 60 110 83 110 111 L110 173 L50 173 L50 111 C50 50 100 0 161 0 L161 0 Z " />
<glyph glyph-name="Jcircumflex" unicode="&#x134;" horiz-adv-x="323" d="M161 0 C223 0 273 50 273 111 L273 700 L213 700 L213 111 C213 83 190 60 161 60 C133 60 110 83 110 111 L110 177 L50 177 L50 111 C50 50 100 0 161 0 L161 0 Z M360 814 L354 830 L270 909 L219 909 L135 830 L129 814 L185 791 L243 849 L246 849 L305 791 L360 814 Z " />
<glyph glyph-name="jcircumflex" unicode="&#x135;" horiz-adv-x="323" d="M161 0 C223 0 273 50 273 111 L273 699 L213 699 L213 111 C213 83 190 60 161 60 C133 60 110 83 110 111 L110 174 L50 174 L50 111 C50 50 100 0 161 0 L161 0 Z M360 814 L354 830 L270 909 L219 909 L135 830 L129 814 L185 791 L243 849 L246 849 L305 791 L360 814 Z " />
<glyph glyph-name="kgreenlandic" unicode="&#x138;" horiz-adv-x="569" d="M489 60 L417 60 C376 60 339 85 325 123 L259 295 C252 314 241 331 226 344 C244 359 257 378 265 399 L323 549 C339 512 375 487 417 487 C473 487 519 533 519 590 C519 644 476 692 422 692 C390 692 363 683 332 664 C306 646 286 620 274 590 L209 420 C199 394 174 377 146 377 L110 377 L110 700 L50 700 L50 0 L110 0 L110 317 L145 317 C171 317 195 298 203 274 L269 102 C291 41 352 0 417 0 L489 0 L489 60 Z M417 632 C440 632 459 613 459 590 C459 566 440 547 417 547 C393 547 374 566 374 590 C374 611 391 632 417 632 L417 632 Z " />
<glyph glyph-name="Lacute" unicode="&#x139;" horiz-adv-x="417" d="M270 -19 C306 -19 341 -9 367 4 L339 58 C264 17 223 58 162 74 L162 699 L102 699 L102 75 C84 72 67 66 50 57 L79 5 C114 24 153 22 198 -2 C220 -14 245 -19 270 -19 L270 -19 Z M178 901 L98 814 L98 790 L157 790 L238 877 L238 901 L178 901 Z " />
<glyph glyph-name="lacute" unicode="&#x13a;" horiz-adv-x="400" d="M350 60 L110 60 L110 700 L50 700 L50 0 L350 0 L350 60 Z M152 901 L72 814 L72 790 L131 790 L212 877 L212 901 L152 901 Z " />
<glyph glyph-name="Lcaron" unicode="&#x13d;" horiz-adv-x="417" d="M270 -19 C306 -19 341 -9 367 4 L339 58 C264 17 223 58 162 74 L162 699 L102 699 L102 75 C84 72 67 66 50 57 L79 5 C114 24 153 22 198 -2 C220 -14 245 -19 270 -19 L270 -19 Z M17 885 L23 869 L107 790 L158 790 L242 869 L248 885 L192 908 L134 850 L131 850 L72 908 L17 885 Z " />
<glyph glyph-name="lcaron" unicode="&#x13e;" horiz-adv-x="400" d="M350 60 L110 60 L110 700 L50 700 L50 0 L350 0 L350 60 Z M-36 885 L-30 869 L54 790 L105 790 L189 869 L195 885 L139 908 L81 850 L78 850 L19 908 L-36 885 Z " />
<glyph glyph-name="Ldot" unicode="&#x13f;" horiz-adv-x="417" d="M270 -19 C306 -19 341 -9 367 4 L339 58 C264 17 223 58 162 74 L162 699 L102 699 L102 75 C84 72 67 66 50 57 L79 5 C114 24 153 22 198 -2 C220 -14 245 -19 270 -19 L270 -19 Z M268 446 C268 419 290 398 316 398 C343 398 364 419 364 446 C364 472 343 494 316 494 C290 494 268 472 268 446 L268 446 Z " />
<glyph glyph-name="ldot" unicode="&#x140;" horiz-adv-x="400" d="M350 60 L110 60 L110 700 L50 700 L50 0 L350 0 L350 60 Z M214 446 C214 419 236 398 262 398 C289 398 310 419 310 446 C310 472 289 494 262 494 C236 494 214 472 214 446 L214 446 Z " />
<glyph glyph-name="Lslash" unicode="&#x141;" horiz-adv-x="437" d="M290 -19 C326 -19 361 -9 387 4 L359 58 C284 17 243 58 182 74 L182 341 L273 366 L257 425 L182 404 L182 699 L122 699 L122 388 L50 369 L66 310 L122 325 L122 75 C104 72 87 66 70 57 L99 5 C134 24 173 22 218 -2 C240 -14 265 -19 290 -19 L290 -19 Z " />
<glyph glyph-name="lslash" unicode="&#x142;" horiz-adv-x="400" d="M350 60 L110 60 L110 336 L218 366 L202 425 L110 400 L110 700 L50 700 L50 384 L-5 369 L11 310 L50 320 L50 0 L350 0 L350 60 Z " />
<glyph glyph-name="Nacute" unicode="&#x143;" horiz-adv-x="462" d="M110 0 L110 640 L117 640 L299 0 L412 0 L412 700 L352 700 L352 60 L345 60 L162 700 L50 700 L50 0 L110 0 Z M281 900 L201 813 L201 789 L260 789 L341 876 L341 900 L281 900 Z " />
<glyph glyph-name="ncaron" unicode="&#x148;" horiz-adv-x="462" d="M110 0 L110 640 L117 640 L299 0 L412 0 L412 700 L352 700 L352 60 L345 60 L162 700 L50 700 L50 0 L110 0 Z M115 885 L121 869 L205 790 L256 790 L340 869 L346 885 L290 908 L232 850 L229 850 L170 908 L115 885 Z " />
<glyph glyph-name="Omacron" unicode="&#x14c;" horiz-adv-x="542" d="M271 -5 C389 -9 495 97 491 215 L491 480 C494 601 388 700 271 700 C154 700 48 601 51 480 L51 215 C47 97 153 -9 271 -5 L271 -5 Z M271 640 C359 640 431 568 431 480 L431 215 C431 127 359 55 271 55 C183 55 111 127 111 215 L111 480 C111 568 183 640 271 640 L271 640 Z M421 849 L121 849 L121 789 L421 789 L421 849 Z " />
<glyph glyph-name="omacron" unicode="&#x14d;" horiz-adv-x="437" d="M218 0 C311 0 387 75 387 168 L387 536 C387 629 311 705 218 705 C125 705 50 629 50 536 L50 168 C50 75 125 0 218 0 L218 0 Z M218 645 C278 645 327 596 327 536 L327 168 C327 109 278 60 218 60 L218 60 C159 60 110 109 110 168 L110 536 C110 596 159 645 218 645 L218 645 Z M368 849 L68 849 L68 789 L368 789 L368 849 Z " />
<glyph glyph-name="Obreve" unicode="&#x14e;" horiz-adv-x="542" d="M271 -5 C389 -9 495 97 491 215 L491 480 C494 601 388 700 271 700 C154 700 48 601 51 480 L51 215 C47 97 153 -9 271 -5 L271 -5 Z M271 640 C359 640 431 568 431 480 L431 215 C431 127 359 55 271 55 C183 55 111 127 111 215 L111 480 C111 568 183 640 271 640 L271 640 Z M271 787 C327 787 373 833 373 890 L313 890 C313 867 294 847 271 847 C247 847 228 867 228 890 L168 890 C168 833 214 787 271 787 L271 787 Z " />
<glyph glyph-name="obreve" unicode="&#x14f;" horiz-adv-x="437" d="M218 0 C311 0 387 75 387 168 L387 536 C387 629 311 705 218 705 C125 705 50 629 50 536 L50 168 C50 75 125 0 218 0 L218 0 Z M218 645 C278 645 327 596 327 536 L327 168 C327 109 278 60 218 60 L218 60 C159 60 110 109 110 168 L110 536 C110 596 159 645 218 645 L218 645 Z M219 789 C275 789 321 835 321 892 L261 892 C261 869 242 849 219 849 C195 849 176 869 176 892 L116 892 C116 835 162 789 219 789 L219 789 Z " />
<glyph glyph-name="Ohungarumlaut" unicode="&#x150;" horiz-adv-x="542" d="M271 -5 C389 -9 495 97 491 215 L491 480 C494 601 388 700 271 700 C154 700 48 601 51 480 L51 215 C47 97 153 -9 271 -5 L271 -5 Z M271 640 C359 640 431 568 431 480 L431 215 C431 127 359 55 271 55 C183 55 111 127 111 215 L111 480 C111 568 183 640 271 640 L271 640 Z M251 901 L171 814 L171 790 L230 790 L311 877 L311 901 L251 901 Z M391 901 L311 814 L311 790 L370 790 L451 877 L451 901 L391 901 Z " />
<glyph glyph-name="ohungarumlaut" unicode="&#x151;" horiz-adv-x="448" d="M218 0 C311 0 387 75 387 168 L387 536 C387 629 311 705 218 705 C125 705 50 629 50 536 L50 168 C50 75 125 0 218 0 L218 0 Z M218 645 C278 645 327 596 327 536 L327 168 C327 109 278 60 218 60 L218 60 C159 60 110 109 110 168 L110 536 C110 596 159 645 218 645 L218 645 Z M198 901 L118 814 L118 790 L177 790 L258 877 L258 901 L198 901 Z M338 901 L258 814 L258 790 L317 790 L398 877 L398 901 L338 901 Z " />
<glyph glyph-name="OE" unicode="&#x152;" horiz-adv-x="573" d="M475 397 L343 397 L343 640 L523 640 L523 700 L283 700 L283 671 C258 689 228 700 196 700 C116 700 50 634 50 553 L50 146 C50 66 116 0 196 0 C228 0 258 11 283 29 L283 0 L523 0 L523 60 L343 60 L343 337 L475 337 L475 397 Z M196 640 C244 640 283 601 283 553 L283 142 C281 97 243 60 196 60 C149 60 110 99 110 146 L110 553 C110 601 149 640 196 640 L196 640 Z " />
<glyph glyph-name="Racute" unicode="&#x154;" horiz-adv-x="464" d="M414 60 C385 60 366 93 356 119 L312 237 C303 259 291 279 274 296 C355 324 414 401 414 493 C414 607 321 700 207 700 L50 700 L50 0 L110 0 L110 285 L156 285 C200 285 240 257 256 216 L300 98 C318 48 356 0 414 0 L414 60 Z M110 345 L110 640 L207 640 C288 640 354 574 354 493 C354 411 288 345 207 345 L110 345 Z M249 900 L169 813 L169 789 L228 789 L309 876 L309 900 L249 900 Z " />
<glyph glyph-name="racute" unicode="&#x155;" horiz-adv-x="439" d="M389 59 C349 58 310 85 296 122 L252 239 C243 260 231 280 214 297 C295 325 354 404 354 496 C354 611 261 700 147 700 L50 700 L50 0 L110 0 L110 285 C127 283 142 277 156 267 C174 255 188 238 196 218 L240 102 C264 41 323 -1 389 0 L389 59 Z M110 345 L110 640 L147 640 C228 640 294 578 294 496 C294 413 228 345 147 345 L110 345 Z M196 901 L116 814 L116 790 L175 790 L256 877 L256 901 L196 901 Z " />
<glyph glyph-name="Rcaron" unicode="&#x158;" horiz-adv-x="464" d="M63 794 L69 778 L152 700 L50 700 L50 0 L110 0 L110 285 L156 285 C200 285 240 257 256 216 L300 98 C318 48 356 0 414 0 L414 60 C385 60 366 93 356 119 L312 237 C303 259 291 279 274 296 C355 324 414 401 414 493 C414 607 321 700 207 700 L205 700 L288 778 L294 794 L238 817 L180 759 L177 759 L118 817 L63 794 Z M110 345 L110 640 L207 640 C288 640 354 574 354 493 C354 411 288 345 207 345 L110 345 Z " />
<glyph glyph-name="rcaron" unicode="&#x159;" horiz-adv-x="478" d="M50 793 L56 777 L138 700 L89 700 L89 0 L149 0 L149 285 C166 283 181 277 195 267 C213 255 227 238 235 218 L279 102 C303 41 362 -1 428 0 L428 59 C388 58 349 85 335 122 L291 239 C282 260 270 280 253 297 C334 325 393 404 393 496 C393 608 304 696 193 700 L275 777 L281 793 L225 816 L167 758 L164 758 L105 816 L50 793 Z M149 345 L149 640 L186 640 C267 640 333 578 333 496 C333 413 267 345 186 345 L149 345 Z " />
<glyph glyph-name="Sacute" unicode="&#x15a;" horiz-adv-x="411" d="M214 -4 C295 -4 361 62 361 144 L361 286 C361 342 328 393 279 419 L160 478 C130 492 112 519 111 551 L111 560 C113 606 151 643 197 643 L214 643 C261 643 300 604 300 556 L300 504 L361 504 L361 556 C361 638 295 704 214 704 L197 704 C117 704 52 640 50 560 L50 415 C50 387 57 360 72 336 C87 313 108 295 132 283 L252 223 C282 208 300 178 300 144 C300 97 261 57 214 57 L197 57 C150 57 111 97 111 144 L111 196 L50 196 L50 144 C50 62 116 -4 197 -4 L214 -4 Z M160 336 C129 352 111 381 111 415 L111 435 C117 430 124 425 252 364 C282 349 300 319 300 286 L300 265 C293 270 286 274 160 336 L160 336 Z M255 900 L175 813 L175 789 L234 789 L315 876 L315 900 L255 900 Z " />
<glyph glyph-name="sacute" unicode="&#x15b;" horiz-adv-x="405" d="M295 142 C293 96 256 60 210 60 L195 60 C148 60 110 98 110 145 L110 196 L50 196 L50 145 C50 65 115 0 195 0 L210 0 C290 0 355 65 355 145 L355 219 C355 274 323 325 274 350 L158 407 C128 421 110 458 110 491 L110 555 C110 602 148 640 195 640 L210 640 C257 640 295 602 295 555 L295 504 L355 504 L355 555 C355 635 290 700 210 700 L195 700 C115 700 50 635 50 555 L50 491 C50 436 82 378 131 353 L248 296 C277 281 295 252 295 219 L295 142 Z M252 901 L172 814 L172 790 L231 790 L312 877 L312 901 L252 901 Z " />
<glyph glyph-name="Scircumflex" unicode="&#x15c;" horiz-adv-x="411" d="M214 -4 C295 -4 361 62 361 144 L361 286 C361 342 328 393 279 419 L160 478 C130 492 112 519 111 551 L111 560 C113 606 151 643 197 643 L214 643 C261 643 300 604 300 556 L300 504 L361 504 L361 556 C361 638 295 704 214 704 L197 704 C117 704 52 640 50 560 L50 415 C50 387 57 360 72 336 C87 313 108 295 132 283 L252 223 C282 208 300 178 300 144 C300 97 261 57 214 57 L197 57 C150 57 111 97 111 144 L111 196 L50 196 L50 144 C50 62 116 -4 197 -4 L214 -4 Z M160 336 C129 352 111 381 111 415 L111 435 C117 430 124 425 252 364 C282 349 300 319 300 286 L300 265 C293 270 286 274 160 336 L160 336 Z M321 811 L315 827 L231 906 L180 906 L96 827 L90 811 L146 788 L204 846 L207 846 L266 788 L321 811 Z " />
<glyph glyph-name="scircumflex" unicode="&#x15d;" horiz-adv-x="405" d="M295 142 C293 96 256 60 210 60 L195 60 C148 60 110 98 110 145 L110 196 L50 196 L50 145 C50 65 115 0 195 0 L210 0 C290 0 355 65 355 145 L355 219 C355 274 323 325 274 350 L158 407 C128 421 110 458 110 491 L110 555 C110 602 148 640 195 640 L210 640 C257 640 295 602 295 555 L295 504 L355 504 L355 555 C355 635 290 700 210 700 L195 700 C115 700 50 635 50 555 L50 491 C50 436 82 378 131 353 L248 296 C277 281 295 252 295 219 L295 142 Z M318 813 L312 829 L228 908 L177 908 L93 829 L87 813 L143 790 L201 848 L204 848 L263 790 L318 813 Z " />
<glyph glyph-name="Scedilla" unicode="&#x15e;" horiz-adv-x="411" d="M209 -191 C237 -191 263 -179 283 -159 C308 -132 315 -95 300 -62 C293 -46 282 -32 268 -23 C258 -16 246 -11 234 -9 L234 -2 C305 7 361 69 361 144 L361 286 C361 342 328 393 279 419 L160 478 C130 492 112 519 111 551 L111 560 C113 606 151 643 197 643 L214 643 C261 643 300 604 300 556 L300 504 L361 504 L361 556 C361 638 295 704 214 704 L197 704 C117 704 52 640 50 560 L50 415 C50 387 57 360 72 336 C87 313 108 295 132 283 L252 223 C282 208 300 178 300 144 C300 97 261 57 214 57 L197 57 C150 57 111 97 111 144 L111 196 L50 196 L50 144 C50 70 104 9 174 -2 L174 -67 L217 -67 C241 -67 255 -96 240 -118 C232 -129 218 -131 209 -131 C197 -131 186 -127 178 -118 L136 -161 C155 -180 181 -191 209 -191 L209 -191 Z M160 336 C129 352 111 381 111 415 L111 435 C117 430 124 425 252 364 C282 349 300 319 300 286 L300 265 C293 270 286 274 160 336 L160 336 Z " />
<glyph glyph-name="scedilla" unicode="&#x15f;" horiz-adv-x="405" d="M206 -191 C234 -191 260 -179 280 -159 C305 -132 312 -95 297 -62 C290 -46 279 -32 265 -23 C255 -16 243 -11 231 -9 L231 1 C301 11 355 72 355 145 L355 219 C355 274 323 325 274 350 L158 407 C128 421 110 458 110 491 L110 555 C110 602 148 640 195 640 L210 640 C257 640 295 602 295 555 L295 504 L355 504 L355 555 C355 635 290 700 210 700 L195 700 C115 700 50 635 50 555 L50 491 C50 436 82 378 131 353 L248 296 C277 281 295 252 295 219 L295 142 C293 96 256 60 210 60 L195 60 C148 60 110 98 110 145 L110 196 L50 196 L50 145 C50 73 102 13 171 2 L171 -67 L214 -67 C238 -67 252 -96 237 -118 C229 -129 215 -131 206 -131 C194 -131 183 -127 175 -118 L133 -161 C152 -180 178 -191 206 -191 L206 -191 Z " />
<glyph glyph-name="Scaron" unicode="&#x160;" horiz-adv-x="411" d="M90 796 L96 780 L178 703 C107 694 52 633 50 560 L50 415 C50 387 57 360 72 336 C87 313 108 295 132 283 L252 223 C282 208 300 178 300 144 C300 97 261 57 214 57 L197 57 C150 57 111 97 111 144 L111 196 L50 196 L50 144 C50 62 116 -4 197 -4 L214 -4 C295 -4 361 62 361 144 L361 286 C361 342 328 393 279 419 L160 478 C130 492 112 519 111 551 L111 560 C113 606 151 643 197 643 L214 643 C261 643 300 604 300 556 L300 504 L361 504 L361 556 C361 631 305 693 233 703 L315 780 L321 796 L265 819 L207 761 L204 761 L145 819 L90 796 Z M160 336 C129 352 111 381 111 415 L111 435 C117 430 124 425 252 364 C282 349 300 319 300 286 L300 265 C293 270 286 274 160 336 L160 336 Z " />
<glyph glyph-name="scaron" unicode="&#x161;" horiz-adv-x="405" d="M87 792 L93 776 L175 698 C105 689 50 628 50 555 L50 491 C50 436 82 378 131 353 L248 296 C277 281 295 252 295 219 L295 142 C293 96 256 60 210 60 L195 60 C148 60 110 98 110 145 L110 196 L50 196 L50 145 C50 65 115 0 195 0 L210 0 C290 0 355 65 355 145 L355 219 C355 274 323 325 274 350 L158 407 C128 421 110 458 110 491 L110 555 C110 602 148 640 195 640 L210 640 C257 640 295 602 295 555 L295 504 L355 504 L355 555 C355 628 300 689 229 698 L312 776 L318 792 L262 815 L204 757 L201 757 L142 815 L87 792 Z " />
<glyph glyph-name="Tcaron" unicode="&#x164;" horiz-adv-x="530" d="M50 440 L235 440 L235 0 L295 0 L295 440 L480 440 L480 500 L295 500 L295 700 L235 700 L235 500 L50 500 L50 440 Z M149 885 L155 869 L239 790 L290 790 L374 869 L380 885 L324 908 L266 850 L263 850 L204 908 L149 885 Z " />
<glyph glyph-name="tbar" unicode="&#x167;" horiz-adv-x="437" d="M368 398 L248 398 L248 640 L387 640 L387 700 L50 700 L50 640 L188 640 L188 398 L68 398 L68 338 L188 338 L188 0 L248 0 L248 338 L368 338 L368 398 Z " />
<glyph glyph-name="Utilde" unicode="&#x168;" horiz-adv-x="426" d="M50 157 C50 67 123 -6 213 -6 C303 -6 376 67 376 157 L376 700 L316 700 L316 157 C316 100 270 54 213 54 C156 54 110 100 110 157 L110 700 L54 700 L50 157 Z M297 788 C321 793 341 803 371 837 L325 877 C289 837 254 843 221 864 C167 898 99 875 58 825 L107 790 C125 813 160 831 189 813 C217 794 258 781 297 788 L297 788 Z " />
<glyph glyph-name="Umacron" unicode="&#x16a;" horiz-adv-x="426" d="M50 157 C50 67 123 -6 213 -6 C303 -6 376 67 376 157 L376 700 L316 700 L316 157 C316 100 270 54 213 54 C156 54 110 100 110 157 L110 700 L54 700 L50 157 Z M365 849 L65 849 L65 789 L365 789 L365 849 Z " />
<glyph glyph-name="Ubreve" unicode="&#x16c;" horiz-adv-x="426" d="M50 157 C50 67 123 -6 213 -6 C303 -6 376 67 376 157 L376 700 L316 700 L316 157 C316 100 270 54 213 54 C156 54 110 100 110 157 L110 700 L54 700 L50 157 Z M215 790 C271 790 317 836 317 893 L257 893 C257 870 238 850 215 850 C191 850 172 870 172 893 L112 893 C112 836 158 790 215 790 L215 790 Z " />
<glyph glyph-name="Uring" unicode="&#x16e;" horiz-adv-x="426" d="M50 157 C50 67 123 -6 213 -6 C303 -6 376 67 376 157 L376 700 L316 700 L316 157 C316 100 270 54 213 54 C156 54 110 100 110 157 L110 700 L54 700 L50 157 Z M215 786 C271 786 317 832 317 888 C317 945 271 991 215 991 C158 991 112 945 112 888 C112 832 158 786 215 786 L215 786 Z M215 931 C238 931 257 912 257 888 C257 865 238 846 215 846 C191 846 172 865 172 888 C172 912 191 931 215 931 L215 931 Z " />
<glyph glyph-name="Uhungarumlaut" unicode="&#x170;" horiz-adv-x="422" d="M46 157 C46 67 119 -6 209 -6 C299 -6 372 67 372 157 L372 700 L312 700 L312 157 C312 100 266 54 209 54 C152 54 106 100 106 157 L106 700 L50 700 L46 157 Z M191 901 L111 814 L111 790 L170 790 L251 877 L251 901 L191 901 Z M331 901 L251 814 L251 790 L310 790 L391 877 L391 901 L331 901 Z " />
<glyph glyph-name="Uogonek" unicode="&#x172;" horiz-adv-x="426" d="M269 -191 C295 -191 321 -181 341 -161 L299 -119 C282 -135 255 -135 239 -119 C222 -102 223 -75 248 -49 L248 -2 C321 13 376 79 376 157 L376 700 L316 700 L316 157 C316 100 270 54 213 54 C156 54 110 100 110 157 L110 700 L54 700 L50 157 C50 76 109 8 187 -4 L187 -26 C173 -44 166 -65 166 -88 C166 -116 177 -142 196 -161 C216 -181 242 -191 269 -191 L269 -191 Z " />
<glyph glyph-name="Wcircumflex" unicode="&#x174;" horiz-adv-x="617" d="M488 34 C540 251 567 474 567 697 L567 700 L507 700 L507 697 C507 482 482 267 432 58 L417 58 L338 570 L278 570 L201 58 L185 58 C135 267 110 482 110 697 L110 700 L50 700 L50 697 C50 474 77 251 130 34 L138 0 L252 0 L308 369 L364 0 L479 0 L488 34 Z M424 812 L418 828 L334 907 L283 907 L199 828 L193 812 L249 789 L307 847 L310 847 L369 789 L424 812 Z " />
<glyph glyph-name="Ycircumflex" unicode="&#x176;" horiz-adv-x="470" d="M265 0 L265 281 L309 343 C345 395 373 452 391 512 C410 573 420 636 420 700 L360 700 C360 642 351 585 334 530 C317 476 292 424 260 377 L241 350 L229 350 L211 376 C178 424 153 475 136 530 C119 585 110 642 110 700 L50 700 C50 636 60 573 79 512 C98 452 126 394 162 342 L205 280 L205 0 L265 0 Z M350 812 L344 828 L260 907 L209 907 L125 828 L119 812 L175 789 L233 847 L236 847 L295 789 L350 812 Z " />
<glyph glyph-name="ycircumflex" unicode="&#x177;" horiz-adv-x="470" d="M265 0 L265 251 L420 689 L420 700 L360 700 L236 350 L235 350 L110 700 L50 700 L50 689 L205 257 L205 0 L265 0 Z M350 813 L344 829 L260 908 L209 908 L125 829 L119 813 L175 790 L233 848 L236 848 L295 790 L350 813 Z " />
<glyph glyph-name="Ydieresis" unicode="&#x178;" horiz-adv-x="470" d="M205 0 L205 280 L162 342 C126 394 98 452 79 512 C60 573 50 636 50 700 L110 700 C110 642 119 585 136 530 C153 475 178 424 211 376 L229 350 L241 350 L260 377 C292 424 317 476 334 530 C351 585 360 642 360 700 L420 700 C420 636 410 573 391 512 C373 452 345 395 309 343 L265 281 L265 0 L205 0 Z M314 837 C314 810 336 789 362 789 C389 789 410 810 410 837 C410 863 389 885 362 885 C336 885 314 863 314 837 L314 837 Z M60 837 C60 810 82 789 108 789 C135 789 156 810 156 837 C156 863 135 885 108 885 C82 885 60 863 60 837 L60 837 Z " />
<glyph glyph-name="Zacute" unicode="&#x179;" horiz-adv-x="416" d="M281 -15 C310 -15 340 -7 366 7 L336 60 C276 24 253 57 196 74 C168 82 138 82 110 76 L110 123 C133 132 157 133 179 127 C214 117 239 96 281 95 C310 95 340 103 366 117 L336 170 C276 134 253 167 196 184 C175 190 154 191 133 189 L366 662 L366 700 L50 700 L50 640 L286 640 L50 161 L50 3 L88 3 L95 7 C173 46 207 -13 281 -15 L281 -15 Z M258 900 L178 813 L178 789 L237 789 L318 876 L318 900 L258 900 Z " />
<glyph glyph-name="zacute" unicode="&#x17a;" horiz-adv-x="416" d="M281 -15 C310 -15 340 -7 366 7 L336 60 C276 24 253 57 196 74 C168 82 138 82 110 76 L110 145 L366 662 L366 700 L50 700 L50 640 L286 640 L50 161 L50 3 L88 3 L95 7 C173 46 207 -13 281 -15 L281 -15 Z M258 901 L178 814 L178 790 L237 790 L318 877 L318 901 L258 901 Z " />
<glyph glyph-name="Zdotaccent" unicode="&#x17b;" horiz-adv-x="416" d="M281 -15 C207 -13 173 46 95 7 L88 3 L50 3 L50 161 L286 640 L50 640 L50 700 L366 700 L366 662 L133 189 C154 191 175 190 196 184 C253 167 276 134 336 170 L366 117 C340 103 310 95 281 95 C239 96 214 117 179 127 C157 133 133 132 110 123 L110 76 C138 82 168 82 196 74 C253 57 276 24 336 60 L366 7 C340 -7 310 -15 281 -15 L281 -15 Z M160 840 C160 813 182 792 208 792 C235 792 256 813 256 840 C256 866 235 888 208 888 C182 888 160 866 160 840 L160 840 Z " />
<glyph glyph-name="zdotaccent" unicode="&#x17c;" horiz-adv-x="416" d="M281 -15 C207 -13 173 46 95 7 L88 3 L50 3 L50 161 L286 640 L50 640 L50 700 L366 700 L366 662 L110 145 L110 76 C138 82 168 82 196 74 C253 57 276 24 336 60 L366 7 C340 -7 310 -15 281 -15 L281 -15 Z M160 837 C160 810 182 789 208 789 C235 789 256 810 256 837 C256 863 235 885 208 885 C182 885 160 863 160 837 L160 837 Z " />
<glyph glyph-name="Zcaron" unicode="&#x17d;" horiz-adv-x="416" d="M92 794 L98 778 L181 700 L50 700 L50 640 L286 640 L50 161 L50 3 L88 3 L95 7 C173 46 207 -13 281 -15 C310 -15 340 -7 366 7 L336 60 C276 24 253 57 196 74 C168 82 138 82 110 76 L110 123 C133 132 157 133 179 127 C214 117 239 96 281 95 C310 95 340 103 366 117 L336 170 C276 134 253 167 196 184 C175 190 154 191 133 189 L366 662 L366 700 L234 700 L317 778 L323 794 L267 817 L209 759 L206 759 L147 817 L92 794 Z " />
<glyph glyph-name="zcaron" unicode="&#x17e;" horiz-adv-x="416" d="M92 794 L98 778 L181 700 L50 700 L50 640 L286 640 L50 161 L50 3 L88 3 L95 7 C173 46 207 -13 281 -15 C310 -15 340 -7 366 7 L336 60 C276 24 253 57 196 74 C168 82 138 82 110 76 L110 145 L366 662 L366 700 L234 700 L317 778 L323 794 L267 817 L209 759 L206 759 L147 817 L92 794 Z " />
<glyph glyph-name="longs" unicode="&#x17f;" horiz-adv-x="438" d="M110 377 L110 640 L388 640 L388 700 L50 700 L50 361 L88 270 C108 224 117 176 117 126 L117 0 L177 0 L177 126 C177 184 166 240 144 293 L110 377 Z " />
<glyph glyph-name="circumflex" unicode="&#x2c6;" horiz-adv-x="331" d="M281 605 L275 621 L191 700 L140 700 L56 621 L50 605 L106 582 L164 640 L167 640 L226 582 L281 605 Z " />
<glyph glyph-name="caron" unicode="&#x2c7;" horiz-adv-x="331" d="M50 795 L56 779 L140 700 L191 700 L275 779 L281 795 L225 818 L167 760 L164 760 L105 818 L50 795 Z " />
<glyph glyph-name="breve" unicode="&#x2d8;" horiz-adv-x="305" d="M153 592 C209 592 255 638 255 695 L195 695 C195 672 176 652 153 652 C129 652 110 672 110 695 L50 695 C50 638 96 592 153 592 L153 592 Z " />
<glyph glyph-name="dotaccent" unicode="&#x2d9;" horiz-adv-x="196" d="M50 637 C50 610 72 589 98 589 C125 589 146 610 146 637 C146 663 125 685 98 685 C72 685 50 663 50 637 L50 637 Z " />
<glyph glyph-name="ring" unicode="&#x2da;" horiz-adv-x="305" d="M153 589 C209 589 255 635 255 691 C255 748 209 794 153 794 C96 794 50 748 50 691 C50 635 96 589 153 589 L153 589 Z M153 734 C176 734 195 715 195 691 C195 668 176 649 153 649 C129 649 110 668 110 691 C110 715 129 734 153 734 L153 734 Z " />
<glyph glyph-name="ogonek" unicode="&#x2db;" horiz-adv-x="275" d="M153 -191 C179 -191 205 -181 225 -161 L183 -119 C166 -135 139 -135 123 -119 C106 -102 107 -75 132 -49 L132 40 L71 40 L71 -26 C57 -44 50 -65 50 -88 C50 -116 61 -142 80 -161 C100 -181 126 -191 153 -191 L153 -191 Z " />
<glyph glyph-name="tilde" unicode="&#x2dc;" horiz-adv-x="413" d="M289 592 C313 597 333 607 363 641 L317 681 C281 641 246 647 213 668 C159 702 91 679 50 629 L99 594 C117 617 152 635 181 617 C209 598 250 585 289 592 L289 592 Z " />
<glyph glyph-name="hungarumlaut" unicode="&#x2dd;" horiz-adv-x="380" d="M130 700 L50 613 L50 589 L109 589 L190 676 L190 700 L130 700 Z M270 700 L190 613 L190 589 L249 589 L330 676 L330 700 L270 700 Z " />
<glyph glyph-name="ze" unicode="&#x437;" horiz-adv-x="814" d="M577 -10 C642 -10 707 6 764 39 L735 91 C656 47 560 35 480 66 C435 83 402 109 354 124 C275 149 189 141 110 111 L110 147 L381 661 L381 700 L81 700 L81 640 L301 640 L50 162 L50 35 L88 35 L95 38 C172 78 259 90 337 66 C361 59 382 47 405 36 C457 10 516 -10 577 -10 L577 -10 Z M653 493 L526 493 L526 640 L731 640 L731 700 L466 700 L466 196 L731 196 L731 256 L526 256 L526 433 L653 433 L653 493 Z " />
<glyph glyph-name="ka" unicode="&#x43a;" horiz-adv-x="917" d="M110 0 L110 316 C155 308 222 278 283 175 C313 125 351 84 395 54 C434 28 478 10 529 -1 C571 -10 615 -13 657 -13 C706 -13 754 -9 798 -5 C823 -3 846 -1 867 0 L864 60 C841 59 818 57 793 55 C714 48 624 41 542 58 C498 67 461 82 428 104 C391 129 360 163 335 206 C316 237 285 282 242 318 C233 325 224 332 214 338 C240 355 256 375 265 399 L330 577 C344 613 382 641 422 640 L422 700 C357 701 298 658 274 598 L209 421 C199 395 174 378 146 378 L110 378 L110 700 L50 700 L50 0 L110 0 Z M822 196 L822 291 C822 330 816 368 804 405 L710 700 L584 700 L490 404 C479 368 473 330 473 291 L473 196 L533 196 L533 291 C533 323 538 355 558 420 C580 429 606 432 628 421 C654 409 680 398 707 398 C718 398 730 399 742 402 C757 356 762 323 762 291 L762 196 L822 196 Z M666 640 L723 459 C701 455 680 463 654 476 C631 487 604 488 579 486 L628 640 L666 640 Z " />
<glyph glyph-name="he" unicode="&#x5d4;" horiz-adv-x="628" d="M518 397 L399 397 L399 640 L578 640 L578 700 L339 700 L339 444 C302 430 263 432 242 444 C196 469 151 476 110 467 L110 700 L50 700 L50 0 L110 0 L110 405 C141 416 175 411 213 391 C235 379 260 374 285 374 C303 374 322 376 339 381 L339 0 L578 0 L578 60 L399 60 L399 337 L518 337 L518 397 Z " />
<glyph glyph-name="Wgrave" unicode="&#x1e80;" horiz-adv-x="617" d="M488 34 C540 251 567 474 567 697 L567 700 L507 700 L507 697 C507 482 482 267 432 58 L417 58 L338 570 L278 570 L201 58 L185 58 C135 267 110 482 110 697 L110 700 L50 700 L50 697 C50 474 77 251 130 34 L138 0 L252 0 L308 369 L364 0 L479 0 L488 34 Z M198 900 L198 876 L279 789 L338 789 L338 813 L258 900 L198 900 Z " />
<glyph glyph-name="Wacute" unicode="&#x1e82;" horiz-adv-x="617" d="M488 34 C540 251 567 474 567 697 L567 700 L507 700 L507 697 C507 482 482 267 432 58 L417 58 L338 570 L278 570 L201 58 L185 58 C135 267 110 482 110 697 L110 700 L50 700 L50 697 C50 474 77 251 130 34 L138 0 L252 0 L308 369 L364 0 L479 0 L488 34 Z M358 901 L278 814 L278 790 L337 790 L418 877 L418 901 L358 901 Z " />
<glyph glyph-name="Wdieresis" unicode="&#x1e84;" horiz-adv-x="617" d="M479 0 L364 0 L308 369 L252 0 L138 0 L130 34 C77 251 50 474 50 697 L50 700 L110 700 L110 697 C110 482 135 267 185 58 L201 58 L278 570 L338 570 L417 58 L432 58 C482 267 507 482 507 697 L507 700 L567 700 L567 697 C567 474 540 251 488 34 L479 0 Z M387 838 C387 811 409 790 435 790 C462 790 483 811 483 838 C483 864 462 886 435 886 C409 886 387 864 387 838 L387 838 Z M133 838 C133 811 155 790 181 790 C208 790 229 811 229 838 C229 864 208 886 181 886 C155 886 133 864 133 838 L133 838 Z " />
<glyph glyph-name="quoteleft" unicode="&#x2018;" horiz-adv-x="196" d="M79 685 C60 640 50 594 50 546 C50 519 72 498 98 498 C125 498 146 519 146 546 C146 567 133 585 114 592 C118 615 125 639 134 661 L141 677 L86 701 L79 685 Z " />
<glyph glyph-name="quoteright" unicode="&#x2019;" horiz-adv-x="196" d="M117 514 C136 559 146 605 146 653 C146 680 124 701 98 701 C71 701 50 680 50 653 C50 632 63 614 82 607 C78 584 71 560 62 538 L55 522 L110 498 L117 514 Z " />
<glyph glyph-name="quotesinglbase" unicode="&#x201a;" horiz-adv-x="196" d="M117 -91 C136 -46 146 0 146 48 C146 75 124 96 98 96 C71 96 50 75 50 48 C50 27 63 9 82 2 C78 -21 71 -45 62 -67 L55 -83 L110 -107 L117 -91 Z " />
<glyph glyph-name="quotedblleft" unicode="&#x201c;" horiz-adv-x="336" d="M219 685 C200 640 190 594 190 546 C190 519 212 498 238 498 C265 498 286 519 286 546 C286 567 273 585 254 592 C258 615 265 639 274 661 L281 677 L226 701 L219 685 Z M79 685 C60 640 50 594 50 546 C50 519 72 498 98 498 C125 498 146 519 146 546 C146 567 133 585 114 592 C118 615 125 639 134 661 L141 677 L86 701 L79 685 Z " />
<glyph glyph-name="quotedblright" unicode="&#x201d;" horiz-adv-x="336" d="M117 514 C136 559 146 605 146 653 C146 680 124 701 98 701 C71 701 50 680 50 653 C50 632 63 614 82 607 C78 584 71 560 62 538 L55 522 L110 498 L117 514 Z M257 514 C276 559 286 605 286 653 C286 680 264 701 238 701 C211 701 190 680 190 653 C190 632 203 614 222 607 C218 584 211 560 202 538 L195 522 L250 498 L257 514 Z " />
<glyph glyph-name="quotedblbase" unicode="&#x201e;" horiz-adv-x="336" d="M117 -91 C136 -46 146 0 146 48 C146 75 124 96 98 96 C71 96 50 75 50 48 C50 27 63 9 82 2 C78 -21 71 -45 62 -67 L55 -83 L110 -107 L117 -91 Z M257 -91 C276 -46 286 0 286 48 C286 75 264 96 238 96 C211 96 190 75 190 48 C190 27 203 9 222 2 C218 -21 211 -45 202 -67 L195 -83 L250 -107 L257 -91 Z " />
<glyph glyph-name="dagger" unicode="&#x2020;" horiz-adv-x="450" d="M400 559 L255 559 L255 780 L195 780 L195 559 L50 559 L50 499 L195 499 L195 -80 L255 -80 L255 499 L400 499 L400 559 Z " />
<glyph glyph-name="daggerdbl" unicode="&#x2021;" horiz-adv-x="450" d="M400 559 L255 559 L255 820 L195 820 L195 559 L50 559 L50 499 L195 499 L195 196 L50 196 L50 136 L195 136 L195 -120 L255 -120 L255 136 L400 136 L400 196 L255 196 L255 499 L400 499 L400 559 Z " />
<glyph glyph-name="bullet" unicode="&#x2022;" horiz-adv-x="540" d="M54 267 C51 253 50 243 50 234 C50 169 103 116 168 116 L372 116 C437 116 490 169 490 234 C490 242 490 246 488 257 L412 609 L338 520 L272 627 L205 520 L132 607 L54 267 Z M372 292 C404 292 430 266 430 234 C430 202 404 176 372 176 L168 176 C136 176 110 202 110 238 C110 267 138 290 168 292 L372 292 Z M168 352 C155 352 143 350 132 346 L159 480 L212 409 L272 521 L332 409 L384 479 L409 346 C397 350 385 352 372 352 L168 352 Z " />
<glyph glyph-name="ellipsis" unicode="&#x2026;" horiz-adv-x="580" d="M98 96 C71 96 50 74 50 48 C50 21 71 0 98 0 C124 0 146 21 146 48 C146 74 124 96 98 96 L98 96 Z M290 96 C263 96 242 74 242 48 C242 21 263 0 290 0 C316 0 338 21 338 48 C338 74 316 96 290 96 L290 96 Z M482 96 C455 96 434 74 434 48 C434 21 455 0 482 0 C508 0 530 21 530 48 C530 74 508 96 482 96 L482 96 Z " />
<glyph glyph-name="perthousand" unicode="&#x2030;" horiz-adv-x="976" d="M570 615 L520 650 L107 106 L153 70 L570 615 Z M174 394 C242 394 297 449 297 517 L297 526 C297 594 242 650 174 650 C105 650 50 594 50 526 L50 517 C50 449 105 394 174 394 L174 394 Z M174 590 C209 590 237 561 237 526 L237 517 C237 482 209 454 174 454 C138 454 110 482 110 517 L110 526 C110 561 138 590 174 590 L174 590 Z M488 40 C556 40 611 95 611 163 L611 172 C611 240 556 296 488 296 C419 296 364 240 364 172 L364 163 C364 95 419 40 488 40 L488 40 Z M488 236 C523 236 551 207 551 172 L551 163 C551 128 523 100 488 100 C452 100 424 128 424 163 L424 172 C424 207 452 236 488 236 L488 236 Z M803 40 C871 40 926 95 926 163 L926 172 C926 240 871 296 803 296 C734 296 679 240 679 172 L679 163 C679 95 734 40 803 40 L803 40 Z M803 236 C838 236 866 207 866 172 L866 163 C866 128 838 100 803 100 C767 100 739 128 739 163 L739 172 C739 207 767 236 803 236 L803 236 Z " />
<glyph glyph-name="guilsinglleft" unicode="&#x2039;" horiz-adv-x="354" d="M304 217 L303 217 C290 217 276 223 261 235 L110 365 L110 369 L261 500 C276 512 290 519 304 519 L304 579 C275 579 248 567 222 545 L50 397 L50 337 L223 190 C248 168 275 157 303 157 L304 157 L304 217 Z " />
<glyph glyph-name="guilsinglright" unicode="&#x203a;" horiz-adv-x="354" d="M50 157 L51 157 C79 157 106 168 131 190 L304 337 L304 397 L132 545 C106 567 79 579 50 579 L50 519 C64 519 78 512 93 500 L244 369 L244 365 L93 235 C78 223 64 217 51 217 L50 217 L50 157 Z " />
<glyph glyph-name="fraction" unicode="&#x2044;" horiz-adv-x="563" d="M513 615 L463 650 L50 106 L96 70 L513 615 Z " />
<glyph glyph-name="Euro" unicode="&#x20ac;" horiz-adv-x="498" d="M448 552 C447 639 377 710 290 710 C203 710 133 639 133 552 L133 397 L50 397 L50 337 L133 337 L133 281 L50 281 L50 221 L133 221 L133 158 C133 71 203 0 290 0 C377 0 448 71 448 158 L388 158 C388 124 371 95 345 77 C319 96 304 125 304 158 L304 221 L387 221 L387 281 L304 281 L304 337 L387 337 L387 397 L304 397 L304 552 C304 570 309 589 319 604 C326 615 335 625 346 632 C371 615 388 585 388 552 L448 552 Z M193 552 C193 602 230 643 278 649 C275 645 271 641 269 637 C252 611 244 582 244 552 L244 158 C244 130 251 102 265 78 C268 72 272 66 277 60 C230 67 193 108 193 158 L193 552 Z " />
<glyph glyph-name="uni2113" unicode="&#x2113;" horiz-adv-x="388" d="M233 0 C253 0 273 4 294 12 L272 68 C258 62 246 60 233 60 C185 60 165 81 165 132 L165 211 C203 247 238 291 267 338 C312 413 338 492 338 554 C338 602 329 640 310 667 C276 716 202 722 158 678 C123 643 105 582 105 500 C105 488 105 354 105 238 C88 223 69 210 50 199 L81 148 C89 152 98 157 105 163 C105 153 105 133 105 132 C105 54 152 3 233 0 L233 0 Z M165 500 C165 564 178 613 201 636 C217 652 246 653 261 632 C269 621 278 598 278 554 C278 503 256 433 216 369 C200 344 183 320 165 299 L165 500 Z " />
<glyph glyph-name="trademark" unicode="&#x2122;" horiz-adv-x="412" d="M50 620 L102 620 L102 500 L133 500 L133 620 L183 620 L183 648 L133 648 L133 700 L102 700 L102 648 L50 648 L50 620 Z M245 649 L258 508 L305 508 L319 650 L331 500 L362 500 L338 700 L294 700 L283 544 L282 544 L271 700 L227 700 L203 500 L233 500 L245 649 Z " />
<glyph glyph-name="estimated" unicode="&#x212e;" horiz-adv-x="805" d="M403 -2 C469 -2 534 17 590 52 C644 86 689 135 717 192 L664 219 C640 171 603 131 558 103 C511 73 458 58 403 58 C351 58 303 70 260 95 L260 321 L755 321 L755 351 C755 398 746 444 727 488 C710 530 684 567 652 600 C619 632 582 658 540 675 C496 694 450 703 403 703 C355 703 309 694 265 675 C223 658 186 632 153 600 C121 567 95 530 78 488 C59 444 50 398 50 351 C50 303 59 257 78 213 C95 171 121 134 153 101 C186 69 223 43 265 26 C309 7 355 -2 403 -2 L403 -2 Z M403 643 C453 643 502 630 545 606 L545 381 L260 381 L260 606 C303 630 351 643 403 643 L403 643 Z M196 144 C148 192 118 254 112 321 L200 321 L200 140 C198 141 197 142 196 144 L196 144 Z M605 381 L605 561 C606 559 607 558 609 557 C657 509 687 447 694 381 L605 381 Z M112 381 C118 447 148 509 196 557 L200 561 L200 381 L112 381 Z " />
<glyph glyph-name="arrowleft" unicode="&#x2190;" horiz-adv-x="618" d="M165 338 L474 338 C493 338 508 323 508 303 L568 303 C568 328 558 351 543 368 C558 385 568 408 568 433 L508 433 C508 414 493 398 474 398 L165 398 L205 438 L163 481 L50 368 L163 255 L205 298 L165 338 Z " />
<glyph glyph-name="arrowright" unicode="&#x2192;" horiz-adv-x="618" d="M413 298 L455 255 L568 368 L455 481 L413 438 L453 398 L144 398 C125 398 110 414 110 433 L50 433 C50 408 60 385 75 368 C60 351 50 328 50 303 L110 303 C110 323 125 338 144 338 L453 338 L413 298 Z " />
<glyph glyph-name="infinity" unicode="&#x221e;" horiz-adv-x="547" d="M497 368 C497 430 450 476 389 476 L343 476 C318 476 281 457 261 440 C239 461 213 476 179 476 L158 476 C100 476 50 430 50 368 C50 306 100 259 158 259 L179 259 C210 259 244 270 263 291 C284 271 318 259 343 259 L389 259 C450 259 497 306 497 368 L497 368 Z M292 368 C292 399 316 423 343 423 L389 423 C420 423 443 399 443 368 C443 337 420 313 389 313 L343 313 C316 313 292 337 292 368 L292 368 Z M107 368 C107 399 131 423 158 423 L179 423 C211 423 235 399 235 368 C235 337 211 313 179 313 L158 313 C131 313 107 337 107 368 L107 368 Z " />
<glyph glyph-name="approxequal" unicode="&#x2248;" horiz-adv-x="413" d="M289 239 C313 244 333 254 363 288 L317 328 C281 288 246 294 213 315 C159 349 91 326 50 276 L99 241 C117 264 152 282 181 264 C209 245 250 232 289 239 L289 239 Z M289 404 C313 409 333 419 363 453 L317 493 C281 453 246 459 213 480 C159 514 91 491 50 441 L99 406 C117 429 152 447 181 429 C209 410 250 397 289 404 L289 404 Z " />
<glyph glyph-name="heart.arrowleft" unicode="&#x2665;" horiz-adv-x="928" d="M670 338 L784 338 C803 338 818 323 818 303 L878 303 C878 328 868 351 853 368 C868 385 878 408 878 433 L818 433 C818 414 803 398 784 398 L698 398 C700 409 701 421 700 433 C697 468 680 499 654 521 C627 542 594 553 560 549 C530 547 502 534 481 513 C460 534 433 547 403 549 C369 553 336 542 309 521 C282 499 266 468 263 433 C261 421 262 409 264 398 L165 398 L205 438 L163 481 L50 368 L163 255 L205 298 L165 338 L293 338 L481 109 L670 338 Z M347 474 C359 484 375 490 398 490 C416 490 432 479 444 465 L481 420 L519 465 C530 479 547 488 565 490 C584 491 602 486 616 474 C630 463 639 446 640 428 C641 417 640 407 637 398 L531 398 L531 338 L592 338 L481 203 L338 377 C326 391 321 409 322 428 C324 446 333 463 347 474 L347 474 Z " />
<glyph glyph-name="ll" unicode="&#xf6c0;" horiz-adv-x="663" d="M498 182 C531 182 564 191 588 204 L560 257 C532 242 487 235 460 250 C442 259 426 266 409 270 L409 700 L349 700 L349 274 C331 271 313 265 297 256 L326 204 C342 213 359 217 377 215 C394 214 412 208 432 197 C452 186 475 182 498 182 L498 182 Z M445 -34 C453 -34 462 -34 471 -33 C521 -29 571 -15 613 6 L585 60 C500 15 402 19 352 46 C286 82 222 98 162 93 L162 700 L102 700 L102 81 C84 76 67 68 50 59 L79 7 C153 47 233 43 324 -6 C357 -25 399 -34 445 -34 L445 -34 Z " />
<glyph glyph-name="st" unicode="&#xfb06;" horiz-adv-x="822" d="M50 484 C50 457 58 430 72 407 C86 384 107 365 131 353 L248 296 C277 281 295 252 295 219 L295 161 L137 210 C116 216 95 212 77 200 C60 187 50 167 50 146 C50 65 115 0 196 0 L210 0 C268 0 318 34 341 83 C525 26 597 0 772 0 L772 60 C603 60 537 85 355 142 L355 219 C355 246 348 273 333 296 C319 319 299 338 274 350 L158 407 C128 422 110 451 110 484 L110 554 C110 601 148 640 196 640 L210 640 C257 640 295 601 295 554 L295 504 L355 504 L355 554 C355 634 290 700 210 700 L196 700 C115 700 50 634 50 554 L50 484 Z M110 146 C110 152 113 154 119 152 L283 102 C268 77 241 60 210 60 L196 60 C148 60 110 98 110 146 L110 146 Z M450 493 L580 493 L580 196 L640 196 L640 493 L770 493 L770 553 L640 553 L640 700 L580 700 L580 553 L450 553 L450 493 Z " />
</font>
</svg>
