<svg width="13" height="13" viewBox="0 0 13 13" fill="none" xmlns="http://www.w3.org/2000/svg">
<path d="M6.02539 12.7461C2.76172 12.7461 0.0488281 10.0332 0.0488281 6.76953C0.0488281 3.5 2.75586 0.792969 6.01953 0.792969C9.28906 0.792969 12.002 3.5 12.002 6.76953C12.002 10.0332 9.29492 12.7461 6.02539 12.7461ZM4.05664 9.23047C4.19141 9.23047 4.31445 9.18359 4.4082 9.08984L6.02539 7.46094L7.64844 9.08984C7.73633 9.18359 7.85938 9.23047 7.99414 9.23047C8.26953 9.23047 8.48633 9.01367 8.48633 8.74414C8.48633 8.60938 8.43945 8.48633 8.33984 8.39844L6.7168 6.77539L8.3457 5.14648C8.45117 5.04102 8.49219 4.93555 8.49219 4.80078C8.49219 4.53125 8.27539 4.32031 8.00586 4.32031C7.87695 4.32031 7.77148 4.36133 7.67188 4.46094L6.02539 6.0957L4.39062 4.4668C4.29688 4.37891 4.19141 4.33203 4.05664 4.33203C3.78711 4.33203 3.57617 4.53711 3.57617 4.8125C3.57617 4.94141 3.62305 5.05859 3.7168 5.15234L5.33984 6.77539L3.7168 8.4043C3.62305 8.49219 3.57617 8.61523 3.57617 8.74414C3.57617 9.01367 3.78711 9.23047 4.05664 9.23047Z" fill="#CBCBCB"/>
</svg>
